<svg width="265" height="282" viewBox="0 0 265 282" fill="none" xmlns="http://www.w3.org/2000/svg">
<g filter="url(#filter0_dii_1847_1751)">
<rect x="20.5" y="18" width="224" height="242" rx="20" fill="white" fill-opacity="0.3" shape-rendering="crispEdges"/>
<path d="M123.418 52.4863H121.523C121.257 52.4863 121.029 52.3919 120.84 52.2031C120.651 52.0078 120.557 51.7767 120.557 51.5098C120.557 51.2493 120.651 51.0215 120.84 50.8262C121.029 50.6309 121.257 50.5332 121.523 50.5332H123.418C123.678 50.5332 123.906 50.6309 124.102 50.8262C124.303 51.015 124.404 51.2428 124.404 51.5098C124.404 51.7767 124.303 52.0078 124.102 52.2031C123.906 52.3919 123.678 52.4863 123.418 52.4863ZM125.371 45.7578L124.033 44.4199C123.844 44.2311 123.75 44.0033 123.75 43.7363C123.75 43.4694 123.844 43.2383 124.033 43.043C124.229 42.8542 124.46 42.7598 124.727 42.7598C125 42.7598 125.228 42.8542 125.41 43.043L126.738 44.3906C126.927 44.5794 127.021 44.8073 127.021 45.0742C127.028 45.3411 126.934 45.569 126.738 45.7578C126.549 45.9531 126.322 46.0508 126.055 46.0508C125.788 46.0443 125.56 45.9466 125.371 45.7578ZM131.523 42.4375V40.543C131.523 40.2826 131.618 40.0547 131.807 39.8594C132.002 39.6641 132.233 39.5664 132.5 39.5664C132.767 39.5664 132.998 39.6641 133.193 39.8594C133.389 40.0547 133.486 40.2826 133.486 40.543V42.4375C133.486 42.6979 133.389 42.9258 133.193 43.1211C133.005 43.3164 132.773 43.4141 132.5 43.4141C132.233 43.4141 132.002 43.3164 131.807 43.1211C131.618 42.9258 131.523 42.6979 131.523 42.4375ZM138.252 44.3906L139.6 43.043C139.788 42.8542 140.013 42.7598 140.273 42.7598C140.54 42.7598 140.771 42.8542 140.967 43.043C141.156 43.2383 141.25 43.4694 141.25 43.7363C141.25 44.0033 141.156 44.2311 140.967 44.4199L139.619 45.7578C139.437 45.9531 139.212 46.0508 138.945 46.0508C138.678 46.0508 138.447 45.9531 138.252 45.7578C138.057 45.569 137.959 45.3411 137.959 45.0742C137.965 44.8073 138.063 44.5794 138.252 44.3906ZM143.457 52.4863H141.572C141.305 52.4863 141.074 52.3919 140.879 52.2031C140.69 52.0078 140.596 51.7767 140.596 51.5098C140.596 51.2428 140.69 51.015 140.879 50.8262C141.074 50.6309 141.305 50.5332 141.572 50.5332H143.457C143.724 50.5332 143.955 50.6309 144.15 50.8262C144.346 51.0215 144.443 51.2493 144.443 51.5098C144.443 51.7767 144.346 52.0078 144.15 52.2031C143.955 52.3919 143.724 52.4863 143.457 52.4863ZM132.5 45.1133C133.366 45.1133 134.176 45.263 134.932 45.5625C135.693 45.8555 136.361 46.2624 136.934 46.7832C137.507 47.304 137.952 47.916 138.271 48.6191C138.59 49.3223 138.75 50.0807 138.75 50.8945C138.75 51.5911 138.678 52.2129 138.535 52.7598C138.398 53.3066 138.216 53.8405 137.988 54.3613C137.767 54.8822 137.533 55.4518 137.285 56.0703C137.044 56.6888 136.82 57.418 136.611 58.2578C136.403 59.0911 136.243 60.1035 136.133 61.2949C136.113 61.5163 136.038 61.6921 135.908 61.8223C135.778 61.9525 135.596 62.0176 135.361 62.0176H129.639C129.404 62.0176 129.222 61.9525 129.092 61.8223C128.962 61.6921 128.887 61.5163 128.867 61.2949C128.757 60.1035 128.597 59.0911 128.389 58.2578C128.18 57.418 127.952 56.6888 127.705 56.0703C127.464 55.4518 127.233 54.8822 127.012 54.3613C126.79 53.8405 126.608 53.3066 126.465 52.7598C126.328 52.2129 126.26 51.5911 126.26 50.8945C126.26 50.0807 126.419 49.3223 126.738 48.6191C127.057 47.916 127.5 47.304 128.066 46.7832C128.639 46.2559 129.303 45.8457 130.059 45.5527C130.814 45.2598 131.628 45.1133 132.5 45.1133ZM132.5 46.793C131.875 46.793 131.286 46.8939 130.732 47.0957C130.186 47.2975 129.701 47.5807 129.277 47.9453C128.861 48.3099 128.532 48.7428 128.291 49.2441C128.05 49.7454 127.93 50.2956 127.93 50.8945C127.93 51.3893 127.988 51.8353 128.105 52.2324C128.223 52.6296 128.376 53.043 128.564 53.4727C128.76 53.8958 128.968 54.4004 129.189 54.9863C129.411 55.5658 129.626 56.2852 129.834 57.1445C130.049 58.0039 130.238 59.0716 130.4 60.3477H134.6C134.762 59.0716 134.948 58.0039 135.156 57.1445C135.371 56.2852 135.589 55.5658 135.811 54.9863C136.038 54.4004 136.247 53.8958 136.436 53.4727C136.631 53.043 136.784 52.6296 136.895 52.2324C137.012 51.8353 137.07 51.3893 137.07 50.8945C137.07 50.2956 136.95 49.7454 136.709 49.2441C136.475 48.7428 136.146 48.3099 135.723 47.9453C135.299 47.5807 134.811 47.2975 134.258 47.0957C133.704 46.8939 133.118 46.793 132.5 46.793ZM129.57 64.1465C129.395 64.1465 129.248 64.0879 129.131 63.9707C129.014 63.847 128.955 63.7005 128.955 63.5312C128.955 63.3555 129.014 63.209 129.131 63.0918C129.248 62.9746 129.395 62.916 129.57 62.916H135.43C135.605 62.916 135.752 62.9746 135.869 63.0918C135.993 63.209 136.055 63.3555 136.055 63.5312C136.055 63.7005 135.993 63.847 135.869 63.9707C135.752 64.0879 135.605 64.1465 135.43 64.1465H129.57ZM132.5 66.8809C131.758 66.8809 131.12 66.7116 130.586 66.373C130.059 66.0345 129.779 65.5918 129.746 65.0449H135.244C135.212 65.5918 134.928 66.0345 134.395 66.373C133.867 66.7116 133.236 66.8809 132.5 66.8809Z" fill="black"/>
<path d="M46.3576 96.416C46.3576 95.328 46.6083 94.352 47.1096 93.488C47.6216 92.624 48.3096 91.952 49.1736 91.472C50.0483 90.9813 51.003 90.736 52.0376 90.736C53.2216 90.736 54.2723 91.0293 55.1896 91.616C56.1176 92.192 56.7896 93.0133 57.2056 94.08H55.0136C54.7256 93.4933 54.3256 93.056 53.8136 92.768C53.3016 92.48 52.7096 92.336 52.0376 92.336C51.3016 92.336 50.6456 92.5013 50.0696 92.832C49.4936 93.1627 49.0403 93.6373 48.7096 94.256C48.3896 94.8747 48.2296 95.5947 48.2296 96.416C48.2296 97.2373 48.3896 97.9573 48.7096 98.576C49.0403 99.1947 49.4936 99.6747 50.0696 100.016C50.6456 100.347 51.3016 100.512 52.0376 100.512C52.7096 100.512 53.3016 100.368 53.8136 100.08C54.3256 99.792 54.7256 99.3547 55.0136 98.768H57.2056C56.7896 99.8347 56.1176 100.656 55.1896 101.232C54.2723 101.808 53.2216 102.096 52.0376 102.096C50.9923 102.096 50.0376 101.856 49.1736 101.376C48.3096 100.885 47.6216 100.208 47.1096 99.344C46.6083 98.48 46.3576 97.504 46.3576 96.416ZM63.1646 102.144C62.3326 102.144 61.5806 101.957 60.9086 101.584C60.2366 101.2 59.7086 100.667 59.3246 99.984C58.9406 99.2907 58.7486 98.4907 58.7486 97.584C58.7486 96.688 58.946 95.8933 59.3406 95.2C59.7353 94.5067 60.274 93.9733 60.9566 93.6C61.6393 93.2267 62.402 93.04 63.2446 93.04C64.0873 93.04 64.85 93.2267 65.5326 93.6C66.2153 93.9733 66.754 94.5067 67.1486 95.2C67.5433 95.8933 67.7406 96.688 67.7406 97.584C67.7406 98.48 67.538 99.2747 67.1326 99.968C66.7273 100.661 66.1726 101.2 65.4686 101.584C64.7753 101.957 64.0073 102.144 63.1646 102.144ZM63.1646 100.56C63.634 100.56 64.0713 100.448 64.4766 100.224C64.8926 100 65.2286 99.664 65.4846 99.216C65.7406 98.768 65.8686 98.224 65.8686 97.584C65.8686 96.944 65.746 96.4053 65.5006 95.968C65.2553 95.52 64.93 95.184 64.5246 94.96C64.1193 94.736 63.682 94.624 63.2126 94.624C62.7433 94.624 62.306 94.736 61.9006 94.96C61.506 95.184 61.1913 95.52 60.9566 95.968C60.722 96.4053 60.6046 96.944 60.6046 97.584C60.6046 98.5333 60.8446 99.2693 61.3246 99.792C61.8153 100.304 62.4286 100.56 63.1646 100.56ZM80.2158 93.04C80.9091 93.04 81.5278 93.184 82.0718 93.472C82.6264 93.76 83.0584 94.1867 83.3678 94.752C83.6878 95.3173 83.8478 96 83.8478 96.8V102H82.0398V97.072C82.0398 96.2827 81.8424 95.68 81.4478 95.264C81.0531 94.8373 80.5144 94.624 79.8318 94.624C79.1491 94.624 78.6051 94.8373 78.1998 95.264C77.8051 95.68 77.6078 96.2827 77.6078 97.072V102H75.7998V97.072C75.7998 96.2827 75.6024 95.68 75.2078 95.264C74.8131 94.8373 74.2744 94.624 73.5918 94.624C72.9091 94.624 72.3651 94.8373 71.9598 95.264C71.5651 95.68 71.3678 96.2827 71.3678 97.072V102H69.5438V93.184H71.3678V94.192C71.6664 93.8293 72.0451 93.5467 72.5038 93.344C72.9624 93.1413 73.4531 93.04 73.9758 93.04C74.6798 93.04 75.3091 93.1893 75.8638 93.488C76.4184 93.7867 76.8451 94.2187 77.1438 94.784C77.4104 94.2507 77.8264 93.8293 78.3918 93.52C78.9571 93.2 79.5651 93.04 80.2158 93.04ZM87.9928 94.48C88.3021 94.0747 88.7234 93.7333 89.2568 93.456C89.7901 93.1787 90.3928 93.04 91.0648 93.04C91.8328 93.04 92.5314 93.232 93.1608 93.616C93.8008 93.9893 94.3021 94.5173 94.6648 95.2C95.0274 95.8827 95.2088 96.6667 95.2088 97.552C95.2088 98.4373 95.0274 99.232 94.6648 99.936C94.3021 100.629 93.8008 101.173 93.1608 101.568C92.5314 101.952 91.8328 102.144 91.0648 102.144C90.3928 102.144 89.7954 102.011 89.2728 101.744C88.7501 101.467 88.3234 101.125 87.9928 100.72V106.192H86.1688V93.184H87.9928V94.48ZM93.3528 97.552C93.3528 96.944 93.2248 96.4213 92.9688 95.984C92.7234 95.536 92.3928 95.2 91.9768 94.976C91.5714 94.7413 91.1341 94.624 90.6648 94.624C90.2061 94.624 89.7688 94.7413 89.3528 94.976C88.9474 95.2107 88.6168 95.552 88.3608 96C88.1154 96.448 87.9928 96.976 87.9928 97.584C87.9928 98.192 88.1154 98.7253 88.3608 99.184C88.6168 99.632 88.9474 99.9733 89.3528 100.208C89.7688 100.443 90.2061 100.56 90.6648 100.56C91.1341 100.56 91.5714 100.443 91.9768 100.208C92.3928 99.9627 92.7234 99.6107 92.9688 99.152C93.2248 98.6933 93.3528 98.16 93.3528 97.552ZM98.8365 90.16V102H97.0125V90.16H98.8365ZM102.159 92.016C101.829 92.016 101.551 91.904 101.327 91.68C101.103 91.456 100.991 91.1787 100.991 90.848C100.991 90.5173 101.103 90.24 101.327 90.016C101.551 89.792 101.829 89.68 102.159 89.68C102.479 89.68 102.751 89.792 102.975 90.016C103.199 90.24 103.311 90.5173 103.311 90.848C103.311 91.1787 103.199 91.456 102.975 91.68C102.751 91.904 102.479 92.016 102.159 92.016ZM103.055 93.184V102H101.231V93.184H103.055ZM104.842 97.552C104.842 96.6667 105.023 95.8827 105.386 95.2C105.759 94.5173 106.261 93.9893 106.89 93.616C107.53 93.232 108.234 93.04 109.002 93.04C109.695 93.04 110.298 93.1787 110.81 93.456C111.333 93.7227 111.749 94.0587 112.058 94.464V93.184H113.898V102H112.058V100.688C111.749 101.104 111.327 101.451 110.794 101.728C110.261 102.005 109.653 102.144 108.97 102.144C108.213 102.144 107.519 101.952 106.89 101.568C106.261 101.173 105.759 100.629 105.386 99.936C105.023 99.232 104.842 98.4373 104.842 97.552ZM112.058 97.584C112.058 96.976 111.93 96.448 111.674 96C111.429 95.552 111.103 95.2107 110.698 94.976C110.293 94.7413 109.855 94.624 109.386 94.624C108.917 94.624 108.479 94.7413 108.074 94.976C107.669 95.2 107.338 95.536 107.082 95.984C106.837 96.4213 106.714 96.944 106.714 97.552C106.714 98.16 106.837 98.6933 107.082 99.152C107.338 99.6107 107.669 99.9627 108.074 100.208C108.49 100.443 108.927 100.56 109.386 100.56C109.855 100.56 110.293 100.443 110.698 100.208C111.103 99.9733 111.429 99.632 111.674 99.184C111.93 98.7253 112.058 98.192 112.058 97.584ZM120.742 93.04C121.435 93.04 122.054 93.184 122.598 93.472C123.152 93.76 123.584 94.1867 123.894 94.752C124.203 95.3173 124.358 96 124.358 96.8V102H122.55V97.072C122.55 96.2827 122.352 95.68 121.958 95.264C121.563 94.8373 121.024 94.624 120.342 94.624C119.659 94.624 119.115 94.8373 118.71 95.264C118.315 95.68 118.118 96.2827 118.118 97.072V102H116.294V93.184H118.118V94.192C118.416 93.8293 118.795 93.5467 119.254 93.344C119.723 93.1413 120.219 93.04 120.742 93.04ZM126.076 97.584C126.076 96.6773 126.258 95.8827 126.62 95.2C126.994 94.5067 127.506 93.9733 128.156 93.6C128.807 93.2267 129.554 93.04 130.396 93.04C131.463 93.04 132.343 93.296 133.036 93.808C133.74 94.3093 134.215 95.0293 134.46 95.968H132.492C132.332 95.5307 132.076 95.1893 131.724 94.944C131.372 94.6987 130.93 94.576 130.396 94.576C129.65 94.576 129.052 94.8427 128.604 95.376C128.167 95.8987 127.948 96.6347 127.948 97.584C127.948 98.5333 128.167 99.2747 128.604 99.808C129.052 100.341 129.65 100.608 130.396 100.608C131.452 100.608 132.151 100.144 132.492 99.216H134.46C134.204 100.112 133.724 100.827 133.02 101.36C132.316 101.883 131.442 102.144 130.396 102.144C129.554 102.144 128.807 101.957 128.156 101.584C127.506 101.2 126.994 100.667 126.62 99.984C126.258 99.2907 126.076 98.4907 126.076 97.584ZM144.358 97.376C144.358 97.7067 144.337 98.0053 144.294 98.272H137.558C137.611 98.976 137.873 99.5413 138.342 99.968C138.811 100.395 139.387 100.608 140.07 100.608C141.051 100.608 141.745 100.197 142.15 99.376H144.118C143.851 100.187 143.366 100.853 142.662 101.376C141.969 101.888 141.105 102.144 140.07 102.144C139.227 102.144 138.47 101.957 137.798 101.584C137.137 101.2 136.614 100.667 136.23 99.984C135.857 99.2907 135.67 98.4907 135.67 97.584C135.67 96.6773 135.851 95.8827 136.214 95.2C136.587 94.5067 137.105 93.9733 137.766 93.6C138.438 93.2267 139.206 93.04 140.07 93.04C140.902 93.04 141.643 93.2213 142.294 93.584C142.945 93.9467 143.451 94.4587 143.814 95.12C144.177 95.7707 144.358 96.5227 144.358 97.376ZM142.454 96.8C142.443 96.128 142.203 95.5893 141.734 95.184C141.265 94.7787 140.683 94.576 139.99 94.576C139.361 94.576 138.822 94.7787 138.374 95.184C137.926 95.5787 137.659 96.1173 137.574 96.8H142.454ZM152.133 92.352V95.616H155.973V97.104H152.133V100.512H156.453V102H150.309V90.864H156.453V92.352H152.133ZM163.148 93.04C163.841 93.04 164.46 93.184 165.004 93.472C165.559 93.76 165.991 94.1867 166.3 94.752C166.609 95.3173 166.764 96 166.764 96.8V102H164.956V97.072C164.956 96.2827 164.759 95.68 164.364 95.264C163.969 94.8373 163.431 94.624 162.748 94.624C162.065 94.624 161.521 94.8373 161.116 95.264C160.721 95.68 160.524 96.2827 160.524 97.072V102H158.7V93.184H160.524V94.192C160.823 93.8293 161.201 93.5467 161.66 93.344C162.129 93.1413 162.625 93.04 163.148 93.04ZM172.643 93.04C173.325 93.04 173.928 93.1787 174.451 93.456C174.984 93.7227 175.4 94.0587 175.699 94.464V93.184H177.539V102.144C177.539 102.955 177.368 103.675 177.027 104.304C176.685 104.944 176.189 105.445 175.539 105.808C174.899 106.171 174.131 106.352 173.235 106.352C172.04 106.352 171.048 106.069 170.259 105.504C169.469 104.949 169.021 104.192 168.915 103.232H170.723C170.861 103.691 171.155 104.059 171.603 104.336C172.061 104.624 172.605 104.768 173.235 104.768C173.971 104.768 174.563 104.544 175.011 104.096C175.469 103.648 175.699 102.997 175.699 102.144V100.672C175.389 101.088 174.968 101.44 174.435 101.728C173.912 102.005 173.315 102.144 172.643 102.144C171.875 102.144 171.171 101.952 170.531 101.568C169.901 101.173 169.4 100.629 169.027 99.936C168.664 99.232 168.483 98.4373 168.483 97.552C168.483 96.6667 168.664 95.8827 169.027 95.2C169.4 94.5173 169.901 93.9893 170.531 93.616C171.171 93.232 171.875 93.04 172.643 93.04ZM175.699 97.584C175.699 96.976 175.571 96.448 175.315 96C175.069 95.552 174.744 95.2107 174.339 94.976C173.933 94.7413 173.496 94.624 173.027 94.624C172.557 94.624 172.12 94.7413 171.715 94.976C171.309 95.2 170.979 95.536 170.723 95.984C170.477 96.4213 170.355 96.944 170.355 97.552C170.355 98.16 170.477 98.6933 170.723 99.152C170.979 99.6107 171.309 99.9627 171.715 100.208C172.131 100.443 172.568 100.56 173.027 100.56C173.496 100.56 173.933 100.443 174.339 100.208C174.744 99.9733 175.069 99.632 175.315 99.184C175.571 98.7253 175.699 98.192 175.699 97.584ZM180.862 92.016C180.532 92.016 180.254 91.904 180.03 91.68C179.806 91.456 179.694 91.1787 179.694 90.848C179.694 90.5173 179.806 90.24 180.03 90.016C180.254 89.792 180.532 89.68 180.862 89.68C181.182 89.68 181.454 89.792 181.678 90.016C181.902 90.24 182.014 90.5173 182.014 90.848C182.014 91.1787 181.902 91.456 181.678 91.68C181.454 91.904 181.182 92.016 180.862 92.016ZM181.758 93.184V102H179.934V93.184H181.758ZM188.601 93.04C189.294 93.04 189.913 93.184 190.457 93.472C191.012 93.76 191.444 94.1867 191.753 94.752C192.062 95.3173 192.217 96 192.217 96.8V102H190.409V97.072C190.409 96.2827 190.212 95.68 189.817 95.264C189.422 94.8373 188.884 94.624 188.201 94.624C187.518 94.624 186.974 94.8373 186.569 95.264C186.174 95.68 185.977 96.2827 185.977 97.072V102H184.153V93.184H185.977V94.192C186.276 93.8293 186.654 93.5467 187.113 93.344C187.582 93.1413 188.078 93.04 188.601 93.04ZM202.624 97.376C202.624 97.7067 202.602 98.0053 202.56 98.272H195.824C195.877 98.976 196.138 99.5413 196.608 99.968C197.077 100.395 197.653 100.608 198.336 100.608C199.317 100.608 200.01 100.197 200.416 99.376H202.384C202.117 100.187 201.632 100.853 200.928 101.376C200.234 101.888 199.37 102.144 198.336 102.144C197.493 102.144 196.736 101.957 196.064 101.584C195.402 101.2 194.88 100.667 194.496 99.984C194.122 99.2907 193.936 98.4907 193.936 97.584C193.936 96.6773 194.117 95.8827 194.48 95.2C194.853 94.5067 195.37 93.9733 196.032 93.6C196.704 93.2267 197.472 93.04 198.336 93.04C199.168 93.04 199.909 93.2213 200.56 93.584C201.21 93.9467 201.717 94.4587 202.08 95.12C202.442 95.7707 202.624 96.5227 202.624 97.376ZM200.72 96.8C200.709 96.128 200.469 95.5893 200 95.184C199.53 94.7787 198.949 94.576 198.256 94.576C197.626 94.576 197.088 94.7787 196.64 95.184C196.192 95.5787 195.925 96.1173 195.84 96.8H200.72ZM212.499 97.376C212.499 97.7067 212.477 98.0053 212.435 98.272H205.699C205.752 98.976 206.013 99.5413 206.483 99.968C206.952 100.395 207.528 100.608 208.211 100.608C209.192 100.608 209.885 100.197 210.291 99.376H212.259C211.992 100.187 211.507 100.853 210.803 101.376C210.109 101.888 209.245 102.144 208.211 102.144C207.368 102.144 206.611 101.957 205.939 101.584C205.277 101.2 204.755 100.667 204.371 99.984C203.997 99.2907 203.811 98.4907 203.811 97.584C203.811 96.6773 203.992 95.8827 204.355 95.2C204.728 94.5067 205.245 93.9733 205.907 93.6C206.579 93.2267 207.347 93.04 208.211 93.04C209.043 93.04 209.784 93.2213 210.435 93.584C211.085 93.9467 211.592 94.4587 211.955 95.12C212.317 95.7707 212.499 96.5227 212.499 97.376ZM210.595 96.8C210.584 96.128 210.344 95.5893 209.875 95.184C209.405 94.7787 208.824 94.576 208.131 94.576C207.501 94.576 206.963 94.7787 206.515 95.184C206.067 95.5787 205.8 96.1173 205.715 96.8H210.595ZM216.118 94.464C216.384 94.016 216.736 93.6693 217.174 93.424C217.622 93.168 218.15 93.04 218.758 93.04V94.928H218.294C217.579 94.928 217.035 95.1093 216.662 95.472C216.299 95.8347 216.118 96.464 216.118 97.36V102H214.294V93.184H216.118V94.464Z" fill="black"/>
<path d="M57.341 141L55.017 137.01H53.477V141H52.203V131.242H55.353C56.0903 131.242 56.711 131.368 57.215 131.62C57.7283 131.872 58.111 132.213 58.363 132.642C58.615 133.071 58.741 133.561 58.741 134.112C58.741 134.784 58.545 135.377 58.153 135.89C57.7703 136.403 57.1917 136.744 56.417 136.912L58.867 141H57.341ZM53.477 135.988H55.353C56.0437 135.988 56.5617 135.82 56.907 135.484C57.2523 135.139 57.425 134.681 57.425 134.112C57.425 133.533 57.2523 133.085 56.907 132.768C56.571 132.451 56.053 132.292 55.353 132.292H53.477V135.988ZM67.7206 136.87C67.7206 137.113 67.7066 137.369 67.6786 137.64H61.5466C61.5932 138.396 61.8499 138.989 62.3166 139.418C62.7926 139.838 63.3666 140.048 64.0386 140.048C64.5892 140.048 65.0466 139.922 65.4106 139.67C65.7839 139.409 66.0452 139.063 66.1946 138.634H67.5666C67.3612 139.371 66.9506 139.973 66.3346 140.44C65.7186 140.897 64.9532 141.126 64.0386 141.126C63.3106 141.126 62.6572 140.963 62.0786 140.636C61.5092 140.309 61.0612 139.847 60.7346 139.25C60.4079 138.643 60.2446 137.943 60.2446 137.15C60.2446 136.357 60.4032 135.661 60.7206 135.064C61.0379 134.467 61.4812 134.009 62.0506 133.692C62.6292 133.365 63.2919 133.202 64.0386 133.202C64.7666 133.202 65.4106 133.361 65.9706 133.678C66.5306 133.995 66.9599 134.434 67.2586 134.994C67.5666 135.545 67.7206 136.17 67.7206 136.87ZM66.4046 136.604C66.4046 136.119 66.2972 135.703 66.0826 135.358C65.8679 135.003 65.5739 134.737 65.2006 134.56C64.8366 134.373 64.4306 134.28 63.9826 134.28C63.3386 134.28 62.7879 134.485 62.3306 134.896C61.8826 135.307 61.6259 135.876 61.5606 136.604H66.4046ZM72.5242 134.378H70.9142V141H69.6402V134.378H68.6462V133.328H69.6402V132.782C69.6402 131.923 69.8596 131.298 70.2982 130.906C70.7462 130.505 71.4602 130.304 72.4402 130.304V131.368C71.8802 131.368 71.4836 131.48 71.2502 131.704C71.0262 131.919 70.9142 132.278 70.9142 132.782V133.328H72.5242V134.378ZM81.0096 136.87C81.0096 137.113 80.9956 137.369 80.9676 137.64H74.8356C74.8823 138.396 75.139 138.989 75.6056 139.418C76.0816 139.838 76.6556 140.048 77.3276 140.048C77.8783 140.048 78.3356 139.922 78.6996 139.67C79.073 139.409 79.3343 139.063 79.4836 138.634H80.8556C80.6503 139.371 80.2396 139.973 79.6236 140.44C79.0076 140.897 78.2423 141.126 77.3276 141.126C76.5996 141.126 75.9463 140.963 75.3676 140.636C74.7983 140.309 74.3503 139.847 74.0236 139.25C73.697 138.643 73.5336 137.943 73.5336 137.15C73.5336 136.357 73.6923 135.661 74.0096 135.064C74.327 134.467 74.7703 134.009 75.3396 133.692C75.9183 133.365 76.581 133.202 77.3276 133.202C78.0556 133.202 78.6996 133.361 79.2596 133.678C79.8196 133.995 80.249 134.434 80.5476 134.994C80.8556 135.545 81.0096 136.17 81.0096 136.87ZM79.6936 136.604C79.6936 136.119 79.5863 135.703 79.3716 135.358C79.157 135.003 78.863 134.737 78.4896 134.56C78.1256 134.373 77.7196 134.28 77.2716 134.28C76.6276 134.28 76.077 134.485 75.6196 134.896C75.1716 135.307 74.915 135.876 74.8496 136.604H79.6936ZM83.9653 134.574C84.1893 134.135 84.5066 133.795 84.9173 133.552C85.3373 133.309 85.8459 133.188 86.4433 133.188V134.504H86.1073C84.6793 134.504 83.9653 135.279 83.9653 136.828V141H82.6913V133.328H83.9653V134.574ZM94.9139 136.87C94.9139 137.113 94.8999 137.369 94.8719 137.64H88.7399C88.7866 138.396 89.0433 138.989 89.5099 139.418C89.9859 139.838 90.5599 140.048 91.2319 140.048C91.7826 140.048 92.2399 139.922 92.6039 139.67C92.9773 139.409 93.2386 139.063 93.3879 138.634H94.7599C94.5546 139.371 94.1439 139.973 93.5279 140.44C92.9119 140.897 92.1466 141.126 91.2319 141.126C90.5039 141.126 89.8506 140.963 89.2719 140.636C88.7026 140.309 88.2546 139.847 87.9279 139.25C87.6013 138.643 87.4379 137.943 87.4379 137.15C87.4379 136.357 87.5966 135.661 87.9139 135.064C88.2313 134.467 88.6746 134.009 89.2439 133.692C89.8226 133.365 90.4853 133.202 91.2319 133.202C91.9599 133.202 92.6039 133.361 93.1639 133.678C93.7239 133.995 94.1533 134.434 94.4519 134.994C94.7599 135.545 94.9139 136.17 94.9139 136.87ZM93.5979 136.604C93.5979 136.119 93.4906 135.703 93.2759 135.358C93.0613 135.003 92.7673 134.737 92.3939 134.56C92.0299 134.373 91.6239 134.28 91.1759 134.28C90.5319 134.28 89.9813 134.485 89.5239 134.896C89.0759 135.307 88.8193 135.876 88.7539 136.604H93.5979ZM100.334 133.188C101.267 133.188 102.023 133.473 102.602 134.042C103.18 134.602 103.47 135.414 103.47 136.478V141H102.21V136.66C102.21 135.895 102.018 135.311 101.636 134.91C101.253 134.499 100.73 134.294 100.068 134.294C99.3956 134.294 98.8589 134.504 98.4576 134.924C98.0656 135.344 97.8696 135.955 97.8696 136.758V141H96.5956V133.328H97.8696V134.42C98.1216 134.028 98.4622 133.725 98.8916 133.51C99.3302 133.295 99.8109 133.188 100.334 133.188ZM105.075 137.15C105.075 136.357 105.233 135.666 105.551 135.078C105.868 134.481 106.307 134.019 106.867 133.692C107.436 133.365 108.085 133.202 108.813 133.202C109.755 133.202 110.53 133.431 111.137 133.888C111.753 134.345 112.159 134.98 112.355 135.792H110.983C110.852 135.325 110.595 134.957 110.213 134.686C109.839 134.415 109.373 134.28 108.813 134.28C108.085 134.28 107.497 134.532 107.049 135.036C106.601 135.531 106.377 136.235 106.377 137.15C106.377 138.074 106.601 138.788 107.049 139.292C107.497 139.796 108.085 140.048 108.813 140.048C109.373 140.048 109.839 139.917 110.213 139.656C110.586 139.395 110.843 139.021 110.983 138.536H112.355C112.149 139.32 111.739 139.95 111.123 140.426C110.507 140.893 109.737 141.126 108.813 141.126C108.085 141.126 107.436 140.963 106.867 140.636C106.307 140.309 105.868 139.847 105.551 139.25C105.233 138.653 105.075 137.953 105.075 137.15ZM121.055 136.87C121.055 137.113 121.041 137.369 121.013 137.64H114.881C114.927 138.396 115.184 138.989 115.651 139.418C116.127 139.838 116.701 140.048 117.373 140.048C117.923 140.048 118.381 139.922 118.745 139.67C119.118 139.409 119.379 139.063 119.529 138.634H120.901C120.695 139.371 120.285 139.973 119.669 140.44C119.053 140.897 118.287 141.126 117.373 141.126C116.645 141.126 115.991 140.963 115.413 140.636C114.843 140.309 114.395 139.847 114.069 139.25C113.742 138.643 113.579 137.943 113.579 137.15C113.579 136.357 113.737 135.661 114.055 135.064C114.372 134.467 114.815 134.009 115.385 133.692C115.963 133.365 116.626 133.202 117.373 133.202C118.101 133.202 118.745 133.361 119.305 133.678C119.865 133.995 120.294 134.434 120.593 134.994C120.901 135.545 121.055 136.17 121.055 136.87ZM119.739 136.604C119.739 136.119 119.631 135.703 119.417 135.358C119.202 135.003 118.908 134.737 118.535 134.56C118.171 134.373 117.765 134.28 117.317 134.28C116.673 134.28 116.122 134.485 115.665 134.896C115.217 135.307 114.96 135.876 114.895 136.604H119.739ZM125.452 141.126C124.864 141.126 124.337 141.028 123.87 140.832C123.404 140.627 123.035 140.347 122.764 139.992C122.494 139.628 122.344 139.213 122.316 138.746H123.632C123.67 139.129 123.847 139.441 124.164 139.684C124.491 139.927 124.916 140.048 125.438 140.048C125.924 140.048 126.306 139.941 126.586 139.726C126.866 139.511 127.006 139.241 127.006 138.914C127.006 138.578 126.857 138.331 126.558 138.172C126.26 138.004 125.798 137.841 125.172 137.682C124.603 137.533 124.136 137.383 123.772 137.234C123.418 137.075 123.11 136.847 122.848 136.548C122.596 136.24 122.47 135.839 122.47 135.344C122.47 134.952 122.587 134.593 122.82 134.266C123.054 133.939 123.385 133.683 123.814 133.496C124.244 133.3 124.734 133.202 125.284 133.202C126.134 133.202 126.82 133.417 127.342 133.846C127.865 134.275 128.145 134.863 128.182 135.61H126.908C126.88 135.209 126.717 134.887 126.418 134.644C126.129 134.401 125.737 134.28 125.242 134.28C124.785 134.28 124.421 134.378 124.15 134.574C123.88 134.77 123.744 135.027 123.744 135.344C123.744 135.596 123.824 135.806 123.982 135.974C124.15 136.133 124.356 136.263 124.598 136.366C124.85 136.459 125.196 136.567 125.634 136.688C126.185 136.837 126.633 136.987 126.978 137.136C127.324 137.276 127.618 137.491 127.86 137.78C128.112 138.069 128.243 138.447 128.252 138.914C128.252 139.334 128.136 139.712 127.902 140.048C127.669 140.384 127.338 140.65 126.908 140.846C126.488 141.033 126.003 141.126 125.452 141.126ZM136.905 134.378H135.295V141H134.021V134.378H133.027V133.328H134.021V132.782C134.021 131.923 134.24 131.298 134.679 130.906C135.127 130.505 135.841 130.304 136.821 130.304V131.368C136.261 131.368 135.864 131.48 135.631 131.704C135.407 131.919 135.295 132.278 135.295 132.782V133.328H136.905V134.378ZM145.391 136.87C145.391 137.113 145.377 137.369 145.349 137.64H139.217C139.263 138.396 139.52 138.989 139.987 139.418C140.463 139.838 141.037 140.048 141.709 140.048C142.259 140.048 142.717 139.922 143.081 139.67C143.454 139.409 143.715 139.063 143.865 138.634H145.237C145.031 139.371 144.621 139.973 144.005 140.44C143.389 140.897 142.623 141.126 141.709 141.126C140.981 141.126 140.327 140.963 139.749 140.636C139.179 140.309 138.731 139.847 138.405 139.25C138.078 138.643 137.915 137.943 137.915 137.15C137.915 136.357 138.073 135.661 138.391 135.064C138.708 134.467 139.151 134.009 139.721 133.692C140.299 133.365 140.962 133.202 141.709 133.202C142.437 133.202 143.081 133.361 143.641 133.678C144.201 133.995 144.63 134.434 144.929 134.994C145.237 135.545 145.391 136.17 145.391 136.87ZM144.075 136.604C144.075 136.119 143.967 135.703 143.753 135.358C143.538 135.003 143.244 134.737 142.871 134.56C142.507 134.373 142.101 134.28 141.653 134.28C141.009 134.28 140.458 134.485 140.001 134.896C139.553 135.307 139.296 135.876 139.231 136.604H144.075ZM146.596 137.136C146.596 136.352 146.755 135.666 147.072 135.078C147.389 134.481 147.823 134.019 148.374 133.692C148.934 133.365 149.559 133.202 150.25 133.202C150.847 133.202 151.403 133.342 151.916 133.622C152.429 133.893 152.821 134.252 153.092 134.7V130.64H154.38V141H153.092V139.558C152.84 140.015 152.467 140.393 151.972 140.692C151.477 140.981 150.899 141.126 150.236 141.126C149.555 141.126 148.934 140.958 148.374 140.622C147.823 140.286 147.389 139.815 147.072 139.208C146.755 138.601 146.596 137.911 146.596 137.136ZM153.092 137.15C153.092 136.571 152.975 136.067 152.742 135.638C152.509 135.209 152.191 134.882 151.79 134.658C151.398 134.425 150.964 134.308 150.488 134.308C150.012 134.308 149.578 134.42 149.186 134.644C148.794 134.868 148.481 135.195 148.248 135.624C148.015 136.053 147.898 136.557 147.898 137.136C147.898 137.724 148.015 138.237 148.248 138.676C148.481 139.105 148.794 139.437 149.186 139.67C149.578 139.894 150.012 140.006 150.488 140.006C150.964 140.006 151.398 139.894 151.79 139.67C152.191 139.437 152.509 139.105 152.742 138.676C152.975 138.237 153.092 137.729 153.092 137.15ZM163.533 136.87C163.533 137.113 163.519 137.369 163.491 137.64H157.359C157.406 138.396 157.662 138.989 158.129 139.418C158.605 139.838 159.179 140.048 159.851 140.048C160.402 140.048 160.859 139.922 161.223 139.67C161.596 139.409 161.858 139.063 162.007 138.634H163.379C163.174 139.371 162.763 139.973 162.147 140.44C161.531 140.897 160.766 141.126 159.851 141.126C159.123 141.126 158.47 140.963 157.891 140.636C157.322 140.309 156.874 139.847 156.547 139.25C156.22 138.643 156.057 137.943 156.057 137.15C156.057 136.357 156.216 135.661 156.533 135.064C156.85 134.467 157.294 134.009 157.863 133.692C158.442 133.365 159.104 133.202 159.851 133.202C160.579 133.202 161.223 133.361 161.783 133.678C162.343 133.995 162.772 134.434 163.071 134.994C163.379 135.545 163.533 136.17 163.533 136.87ZM162.217 136.604C162.217 136.119 162.11 135.703 161.895 135.358C161.68 135.003 161.386 134.737 161.013 134.56C160.649 134.373 160.243 134.28 159.795 134.28C159.151 134.28 158.6 134.485 158.143 134.896C157.695 135.307 157.438 135.876 157.373 136.604H162.217ZM166.489 134.574C166.713 134.135 167.03 133.795 167.441 133.552C167.861 133.309 168.369 133.188 168.967 133.188V134.504H168.631C167.203 134.504 166.489 135.279 166.489 136.828V141H165.215V133.328H166.489V134.574ZM169.961 137.136C169.961 136.352 170.12 135.666 170.437 135.078C170.755 134.481 171.189 134.019 171.739 133.692C172.299 133.365 172.92 133.202 173.601 133.202C174.273 133.202 174.857 133.347 175.351 133.636C175.846 133.925 176.215 134.289 176.457 134.728V133.328H177.745V141H176.457V139.572C176.205 140.02 175.827 140.393 175.323 140.692C174.829 140.981 174.25 141.126 173.587 141.126C172.906 141.126 172.29 140.958 171.739 140.622C171.189 140.286 170.755 139.815 170.437 139.208C170.12 138.601 169.961 137.911 169.961 137.136ZM176.457 137.15C176.457 136.571 176.341 136.067 176.107 135.638C175.874 135.209 175.557 134.882 175.155 134.658C174.763 134.425 174.329 134.308 173.853 134.308C173.377 134.308 172.943 134.42 172.551 134.644C172.159 134.868 171.847 135.195 171.613 135.624C171.38 136.053 171.263 136.557 171.263 137.136C171.263 137.724 171.38 138.237 171.613 138.676C171.847 139.105 172.159 139.437 172.551 139.67C172.943 139.894 173.377 140.006 173.853 140.006C174.329 140.006 174.763 139.894 175.155 139.67C175.557 139.437 175.874 139.105 176.107 138.676C176.341 138.237 176.457 137.729 176.457 137.15ZM181.172 130.64V141H179.898V130.64H181.172ZM186.6 137.136C186.6 136.352 186.759 135.666 187.076 135.078C187.393 134.481 187.827 134.019 188.378 133.692C188.938 133.365 189.559 133.202 190.24 133.202C190.912 133.202 191.495 133.347 191.99 133.636C192.485 133.925 192.853 134.289 193.096 134.728V133.328H194.384V141H193.096V139.572C192.844 140.02 192.466 140.393 191.962 140.692C191.467 140.981 190.889 141.126 190.226 141.126C189.545 141.126 188.929 140.958 188.378 140.622C187.827 140.286 187.393 139.815 187.076 139.208C186.759 138.601 186.6 137.911 186.6 137.136ZM193.096 137.15C193.096 136.571 192.979 136.067 192.746 135.638C192.513 135.209 192.195 134.882 191.794 134.658C191.402 134.425 190.968 134.308 190.492 134.308C190.016 134.308 189.582 134.42 189.19 134.644C188.798 134.868 188.485 135.195 188.252 135.624C188.019 136.053 187.902 136.557 187.902 137.136C187.902 137.724 188.019 138.237 188.252 138.676C188.485 139.105 188.798 139.437 189.19 139.67C189.582 139.894 190.016 140.006 190.492 140.006C190.968 140.006 191.402 139.894 191.794 139.67C192.195 139.437 192.513 139.105 192.746 138.676C192.979 138.237 193.096 137.729 193.096 137.15ZM200.275 133.188C201.208 133.188 201.964 133.473 202.543 134.042C203.122 134.602 203.411 135.414 203.411 136.478V141H202.151V136.66C202.151 135.895 201.96 135.311 201.577 134.91C201.194 134.499 200.672 134.294 200.009 134.294C199.337 134.294 198.8 134.504 198.399 134.924C198.007 135.344 197.811 135.955 197.811 136.758V141H196.537V133.328H197.811V134.42C198.063 134.028 198.404 133.725 198.833 133.51C199.272 133.295 199.752 133.188 200.275 133.188ZM205.016 137.136C205.016 136.352 205.175 135.666 205.492 135.078C205.809 134.481 206.243 134.019 206.794 133.692C207.354 133.365 207.979 133.202 208.67 133.202C209.267 133.202 209.823 133.342 210.336 133.622C210.849 133.893 211.241 134.252 211.512 134.7V130.64H212.8V141H211.512V139.558C211.26 140.015 210.887 140.393 210.392 140.692C209.897 140.981 209.319 141.126 208.656 141.126C207.975 141.126 207.354 140.958 206.794 140.622C206.243 140.286 205.809 139.815 205.492 139.208C205.175 138.601 205.016 137.911 205.016 137.136ZM211.512 137.15C211.512 136.571 211.395 136.067 211.162 135.638C210.929 135.209 210.611 134.882 210.21 134.658C209.818 134.425 209.384 134.308 208.908 134.308C208.432 134.308 207.998 134.42 207.606 134.644C207.214 134.868 206.901 135.195 206.668 135.624C206.435 136.053 206.318 136.557 206.318 137.136C206.318 137.724 206.435 138.237 206.668 138.676C206.901 139.105 207.214 139.437 207.606 139.67C207.998 139.894 208.432 140.006 208.908 140.006C209.384 140.006 209.818 139.894 210.21 139.67C210.611 139.437 210.929 139.105 211.162 138.676C211.395 138.237 211.512 137.729 211.512 137.15ZM59.4303 153.082C59.1877 153.082 58.9823 152.998 58.8143 152.83C58.6463 152.662 58.5623 152.457 58.5623 152.214C58.5623 151.971 58.6463 151.766 58.8143 151.598C58.9823 151.43 59.1877 151.346 59.4303 151.346C59.6637 151.346 59.8597 151.43 60.0183 151.598C60.1863 151.766 60.2703 151.971 60.2703 152.214C60.2703 152.457 60.1863 152.662 60.0183 152.83C59.8597 152.998 59.6637 153.082 59.4303 153.082ZM60.0463 154.328V162H58.7723V154.328H60.0463ZM65.9556 154.188C66.889 154.188 67.645 154.473 68.2236 155.042C68.8023 155.602 69.0916 156.414 69.0916 157.478V162H67.8316V157.66C67.8316 156.895 67.6403 156.311 67.2576 155.91C66.875 155.499 66.3523 155.294 65.6896 155.294C65.0176 155.294 64.481 155.504 64.0796 155.924C63.6876 156.344 63.4916 156.955 63.4916 157.758V162H62.2176V154.328H63.4916V155.42C63.7436 155.028 64.0843 154.725 64.5136 154.51C64.9523 154.295 65.433 154.188 65.9556 154.188ZM70.6967 158.136C70.6967 157.352 70.8554 156.666 71.1727 156.078C71.4901 155.481 71.9241 155.019 72.4747 154.692C73.0347 154.365 73.6601 154.202 74.3507 154.202C74.9481 154.202 75.5034 154.342 76.0167 154.622C76.5301 154.893 76.9221 155.252 77.1927 155.7V151.64H78.4807V162H77.1927V160.558C76.9407 161.015 76.5674 161.393 76.0727 161.692C75.5781 161.981 74.9994 162.126 74.3367 162.126C73.6554 162.126 73.0347 161.958 72.4747 161.622C71.9241 161.286 71.4901 160.815 71.1727 160.208C70.8554 159.601 70.6967 158.911 70.6967 158.136ZM77.1927 158.15C77.1927 157.571 77.0761 157.067 76.8427 156.638C76.6094 156.209 76.2921 155.882 75.8907 155.658C75.4987 155.425 75.0647 155.308 74.5887 155.308C74.1127 155.308 73.6787 155.42 73.2867 155.644C72.8947 155.868 72.5821 156.195 72.3487 156.624C72.1154 157.053 71.9987 157.557 71.9987 158.136C71.9987 158.724 72.1154 159.237 72.3487 159.676C72.5821 160.105 72.8947 160.437 73.2867 160.67C73.6787 160.894 74.1127 161.006 74.5887 161.006C75.0647 161.006 75.4987 160.894 75.8907 160.67C76.2921 160.437 76.6094 160.105 76.8427 159.676C77.0761 159.237 77.1927 158.729 77.1927 158.15ZM87.4377 154.328V162H86.1637V160.866C85.921 161.258 85.5803 161.566 85.1417 161.79C84.7123 162.005 84.2363 162.112 83.7137 162.112C83.1163 162.112 82.5797 161.991 82.1037 161.748C81.6277 161.496 81.2497 161.123 80.9697 160.628C80.699 160.133 80.5637 159.531 80.5637 158.822V154.328H81.8237V158.654C81.8237 159.41 82.015 159.993 82.3977 160.404C82.7803 160.805 83.303 161.006 83.9657 161.006C84.647 161.006 85.1837 160.796 85.5757 160.376C85.9677 159.956 86.1637 159.345 86.1637 158.542V154.328H87.4377ZM92.3047 162.126C91.7167 162.126 91.1894 162.028 90.7227 161.832C90.2561 161.627 89.8874 161.347 89.6167 160.992C89.3461 160.628 89.1967 160.213 89.1687 159.746H90.4847C90.5221 160.129 90.6994 160.441 91.0167 160.684C91.3434 160.927 91.7681 161.048 92.2907 161.048C92.7761 161.048 93.1587 160.941 93.4387 160.726C93.7187 160.511 93.8587 160.241 93.8587 159.914C93.8587 159.578 93.7094 159.331 93.4107 159.172C93.1121 159.004 92.6501 158.841 92.0247 158.682C91.4554 158.533 90.9887 158.383 90.6247 158.234C90.2701 158.075 89.9621 157.847 89.7007 157.548C89.4487 157.24 89.3227 156.839 89.3227 156.344C89.3227 155.952 89.4394 155.593 89.6727 155.266C89.9061 154.939 90.2374 154.683 90.6667 154.496C91.0961 154.3 91.5861 154.202 92.1367 154.202C92.9861 154.202 93.6721 154.417 94.1947 154.846C94.7174 155.275 94.9974 155.863 95.0347 156.61H93.7607C93.7327 156.209 93.5694 155.887 93.2707 155.644C92.9814 155.401 92.5894 155.28 92.0947 155.28C91.6374 155.28 91.2734 155.378 91.0027 155.574C90.7321 155.77 90.5967 156.027 90.5967 156.344C90.5967 156.596 90.6761 156.806 90.8347 156.974C91.0027 157.133 91.2081 157.263 91.4507 157.366C91.7027 157.459 92.0481 157.567 92.4867 157.688C93.0374 157.837 93.4854 157.987 93.8307 158.136C94.1761 158.276 94.4701 158.491 94.7127 158.78C94.9647 159.069 95.0954 159.447 95.1047 159.914C95.1047 160.334 94.9881 160.712 94.7547 161.048C94.5214 161.384 94.1901 161.65 93.7607 161.846C93.3407 162.033 92.8554 162.126 92.3047 162.126ZM98.4572 155.378V159.9C98.4572 160.273 98.5365 160.539 98.6952 160.698C98.8539 160.847 99.1292 160.922 99.5212 160.922H100.459V162H99.3112C98.6019 162 98.0699 161.837 97.7152 161.51C97.3605 161.183 97.1832 160.647 97.1832 159.9V155.378H96.1892V154.328H97.1832V152.396H98.4572V154.328H100.459V155.378H98.4572ZM103.277 155.574C103.501 155.135 103.818 154.795 104.229 154.552C104.649 154.309 105.157 154.188 105.755 154.188V155.504H105.419C103.991 155.504 103.277 156.279 103.277 157.828V162H102.003V154.328H103.277V155.574ZM113.833 154.328L109.213 165.612H107.897L109.409 161.916L106.315 154.328H107.729L110.137 160.544L112.517 154.328H113.833ZM121.563 162.126C120.975 162.126 120.447 162.028 119.981 161.832C119.514 161.627 119.145 161.347 118.875 160.992C118.604 160.628 118.455 160.213 118.427 159.746H119.743C119.78 160.129 119.957 160.441 120.275 160.684C120.601 160.927 121.026 161.048 121.549 161.048C122.034 161.048 122.417 160.941 122.697 160.726C122.977 160.511 123.117 160.241 123.117 159.914C123.117 159.578 122.967 159.331 122.669 159.172C122.37 159.004 121.908 158.841 121.283 158.682C120.713 158.533 120.247 158.383 119.883 158.234C119.528 158.075 119.22 157.847 118.959 157.548C118.707 157.24 118.581 156.839 118.581 156.344C118.581 155.952 118.697 155.593 118.931 155.266C119.164 154.939 119.495 154.683 119.925 154.496C120.354 154.3 120.844 154.202 121.395 154.202C122.244 154.202 122.93 154.417 123.453 154.846C123.975 155.275 124.255 155.863 124.293 156.61H123.019C122.991 156.209 122.827 155.887 122.529 155.644C122.239 155.401 121.847 155.28 121.353 155.28C120.895 155.28 120.531 155.378 120.261 155.574C119.99 155.77 119.855 156.027 119.855 156.344C119.855 156.596 119.934 156.806 120.093 156.974C120.261 157.133 120.466 157.263 120.709 157.366C120.961 157.459 121.306 157.567 121.745 157.688C122.295 157.837 122.743 157.987 123.089 158.136C123.434 158.276 123.728 158.491 123.971 158.78C124.223 159.069 124.353 159.447 124.363 159.914C124.363 160.334 124.246 160.712 124.013 161.048C123.779 161.384 123.448 161.65 123.019 161.846C122.599 162.033 122.113 162.126 121.563 162.126ZM127.715 155.378V159.9C127.715 160.273 127.794 160.539 127.953 160.698C128.112 160.847 128.387 160.922 128.779 160.922H129.717V162H128.569C127.86 162 127.328 161.837 126.973 161.51C126.618 161.183 126.441 160.647 126.441 159.9V155.378H125.447V154.328H126.441V152.396H127.715V154.328H129.717V155.378H127.715ZM130.785 158.136C130.785 157.352 130.943 156.666 131.261 156.078C131.578 155.481 132.012 155.019 132.563 154.692C133.123 154.365 133.743 154.202 134.425 154.202C135.097 154.202 135.68 154.347 136.175 154.636C136.669 154.925 137.038 155.289 137.281 155.728V154.328H138.569V162H137.281V160.572C137.029 161.02 136.651 161.393 136.147 161.692C135.652 161.981 135.073 162.126 134.411 162.126C133.729 162.126 133.113 161.958 132.563 161.622C132.012 161.286 131.578 160.815 131.261 160.208C130.943 159.601 130.785 158.911 130.785 158.136ZM137.281 158.15C137.281 157.571 137.164 157.067 136.931 156.638C136.697 156.209 136.38 155.882 135.979 155.658C135.587 155.425 135.153 155.308 134.677 155.308C134.201 155.308 133.767 155.42 133.375 155.644C132.983 155.868 132.67 156.195 132.437 156.624C132.203 157.053 132.087 157.557 132.087 158.136C132.087 158.724 132.203 159.237 132.437 159.676C132.67 160.105 132.983 160.437 133.375 160.67C133.767 160.894 134.201 161.006 134.677 161.006C135.153 161.006 135.587 160.894 135.979 160.67C136.38 160.437 136.697 160.105 136.931 159.676C137.164 159.237 137.281 158.729 137.281 158.15ZM144.46 154.188C145.393 154.188 146.149 154.473 146.728 155.042C147.306 155.602 147.596 156.414 147.596 157.478V162H146.336V157.66C146.336 156.895 146.144 156.311 145.762 155.91C145.379 155.499 144.856 155.294 144.194 155.294C143.522 155.294 142.985 155.504 142.584 155.924C142.192 156.344 141.996 156.955 141.996 157.758V162H140.722V154.328H141.996V155.42C142.248 155.028 142.588 154.725 143.018 154.51C143.456 154.295 143.937 154.188 144.46 154.188ZM149.201 158.136C149.201 157.352 149.359 156.666 149.677 156.078C149.994 155.481 150.428 155.019 150.979 154.692C151.539 154.365 152.164 154.202 152.855 154.202C153.452 154.202 154.007 154.342 154.521 154.622C155.034 154.893 155.426 155.252 155.697 155.7V151.64H156.985V162H155.697V160.558C155.445 161.015 155.071 161.393 154.577 161.692C154.082 161.981 153.503 162.126 152.841 162.126C152.159 162.126 151.539 161.958 150.979 161.622C150.428 161.286 149.994 160.815 149.677 160.208C149.359 159.601 149.201 158.911 149.201 158.136ZM155.697 158.15C155.697 157.571 155.58 157.067 155.347 156.638C155.113 156.209 154.796 155.882 154.395 155.658C154.003 155.425 153.569 155.308 153.093 155.308C152.617 155.308 152.183 155.42 151.791 155.644C151.399 155.868 151.086 156.195 150.853 156.624C150.619 157.053 150.503 157.557 150.503 158.136C150.503 158.724 150.619 159.237 150.853 159.676C151.086 160.105 151.399 160.437 151.791 160.67C152.183 160.894 152.617 161.006 153.093 161.006C153.569 161.006 154.003 160.894 154.395 160.67C154.796 160.437 155.113 160.105 155.347 159.676C155.58 159.237 155.697 158.729 155.697 158.15ZM158.662 158.136C158.662 157.352 158.82 156.666 159.138 156.078C159.455 155.481 159.889 155.019 160.44 154.692C161 154.365 161.62 154.202 162.302 154.202C162.974 154.202 163.557 154.347 164.052 154.636C164.546 154.925 164.915 155.289 165.158 155.728V154.328H166.446V162H165.158V160.572C164.906 161.02 164.528 161.393 164.024 161.692C163.529 161.981 162.95 162.126 162.288 162.126C161.606 162.126 160.99 161.958 160.44 161.622C159.889 161.286 159.455 160.815 159.138 160.208C158.82 159.601 158.662 158.911 158.662 158.136ZM165.158 158.15C165.158 157.571 165.041 157.067 164.808 156.638C164.574 156.209 164.257 155.882 163.856 155.658C163.464 155.425 163.03 155.308 162.554 155.308C162.078 155.308 161.644 155.42 161.252 155.644C160.86 155.868 160.547 156.195 160.314 156.624C160.08 157.053 159.964 157.557 159.964 158.136C159.964 158.724 160.08 159.237 160.314 159.676C160.547 160.105 160.86 160.437 161.252 160.67C161.644 160.894 162.078 161.006 162.554 161.006C163.03 161.006 163.464 160.894 163.856 160.67C164.257 160.437 164.574 160.105 164.808 159.676C165.041 159.237 165.158 158.729 165.158 158.15ZM169.873 155.574C170.097 155.135 170.414 154.795 170.825 154.552C171.245 154.309 171.753 154.188 172.351 154.188V155.504H172.015C170.587 155.504 169.873 156.279 169.873 157.828V162H168.599V154.328H169.873V155.574ZM173.345 158.136C173.345 157.352 173.504 156.666 173.821 156.078C174.138 155.481 174.572 155.019 175.123 154.692C175.683 154.365 176.308 154.202 176.999 154.202C177.596 154.202 178.152 154.342 178.665 154.622C179.178 154.893 179.57 155.252 179.841 155.7V151.64H181.129V162H179.841V160.558C179.589 161.015 179.216 161.393 178.721 161.692C178.226 161.981 177.648 162.126 176.985 162.126C176.304 162.126 175.683 161.958 175.123 161.622C174.572 161.286 174.138 160.815 173.821 160.208C173.504 159.601 173.345 158.911 173.345 158.136ZM179.841 158.15C179.841 157.571 179.724 157.067 179.491 156.638C179.258 156.209 178.94 155.882 178.539 155.658C178.147 155.425 177.713 155.308 177.237 155.308C176.761 155.308 176.327 155.42 175.935 155.644C175.543 155.868 175.23 156.195 174.997 156.624C174.764 157.053 174.647 157.557 174.647 158.136C174.647 158.724 174.764 159.237 174.997 159.676C175.23 160.105 175.543 160.437 175.935 160.67C176.327 160.894 176.761 161.006 177.237 161.006C177.713 161.006 178.147 160.894 178.539 160.67C178.94 160.437 179.258 160.105 179.491 159.676C179.724 159.237 179.841 158.729 179.841 158.15ZM185.998 162.126C185.41 162.126 184.883 162.028 184.416 161.832C183.949 161.627 183.581 161.347 183.31 160.992C183.039 160.628 182.89 160.213 182.862 159.746H184.178C184.215 160.129 184.393 160.441 184.71 160.684C185.037 160.927 185.461 161.048 185.984 161.048C186.469 161.048 186.852 160.941 187.132 160.726C187.412 160.511 187.552 160.241 187.552 159.914C187.552 159.578 187.403 159.331 187.104 159.172C186.805 159.004 186.343 158.841 185.718 158.682C185.149 158.533 184.682 158.383 184.318 158.234C183.963 158.075 183.655 157.847 183.394 157.548C183.142 157.24 183.016 156.839 183.016 156.344C183.016 155.952 183.133 155.593 183.366 155.266C183.599 154.939 183.931 154.683 184.36 154.496C184.789 154.3 185.279 154.202 185.83 154.202C186.679 154.202 187.365 154.417 187.888 154.846C188.411 155.275 188.691 155.863 188.728 156.61H187.454C187.426 156.209 187.263 155.887 186.964 155.644C186.675 155.401 186.283 155.28 185.788 155.28C185.331 155.28 184.967 155.378 184.696 155.574C184.425 155.77 184.29 156.027 184.29 156.344C184.29 156.596 184.369 156.806 184.528 156.974C184.696 157.133 184.901 157.263 185.144 157.366C185.396 157.459 185.741 157.567 186.18 157.688C186.731 157.837 187.179 157.987 187.524 158.136C187.869 158.276 188.163 158.491 188.406 158.78C188.658 159.069 188.789 159.447 188.798 159.914C188.798 160.334 188.681 160.712 188.448 161.048C188.215 161.384 187.883 161.65 187.454 161.846C187.034 162.033 186.549 162.126 185.998 162.126ZM195.883 155.378V159.9C195.883 160.273 195.962 160.539 196.121 160.698C196.28 160.847 196.555 160.922 196.947 160.922H197.885V162H196.737C196.028 162 195.496 161.837 195.141 161.51C194.786 161.183 194.609 160.647 194.609 159.9V155.378H193.615V154.328H194.609V152.396H195.883V154.328H197.885V155.378H195.883ZM202.775 162.126C202.056 162.126 201.403 161.963 200.815 161.636C200.236 161.309 199.779 160.847 199.443 160.25C199.116 159.643 198.953 158.943 198.953 158.15C198.953 157.366 199.121 156.675 199.457 156.078C199.802 155.471 200.269 155.009 200.857 154.692C201.445 154.365 202.103 154.202 202.831 154.202C203.559 154.202 204.217 154.365 204.805 154.692C205.393 155.009 205.855 155.467 206.191 156.064C206.536 156.661 206.709 157.357 206.709 158.15C206.709 158.943 206.531 159.643 206.177 160.25C205.831 160.847 205.36 161.309 204.763 161.636C204.165 161.963 203.503 162.126 202.775 162.126ZM202.775 161.006C203.232 161.006 203.661 160.899 204.063 160.684C204.464 160.469 204.786 160.147 205.029 159.718C205.281 159.289 205.407 158.766 205.407 158.15C205.407 157.534 205.285 157.011 205.043 156.582C204.8 156.153 204.483 155.835 204.091 155.63C203.699 155.415 203.274 155.308 202.817 155.308C202.35 155.308 201.921 155.415 201.529 155.63C201.146 155.835 200.838 156.153 200.605 156.582C200.371 157.011 200.255 157.534 200.255 158.15C200.255 158.775 200.367 159.303 200.591 159.732C200.824 160.161 201.132 160.483 201.515 160.698C201.897 160.903 202.317 161.006 202.775 161.006ZM80.9823 178.87C80.9823 179.113 80.9683 179.369 80.9403 179.64H74.8083C74.855 180.396 75.1116 180.989 75.5783 181.418C76.0543 181.838 76.6283 182.048 77.3003 182.048C77.851 182.048 78.3083 181.922 78.6723 181.67C79.0456 181.409 79.307 181.063 79.4563 180.634H80.8283C80.623 181.371 80.2123 181.973 79.5963 182.44C78.9803 182.897 78.215 183.126 77.3003 183.126C76.5723 183.126 75.919 182.963 75.3403 182.636C74.771 182.309 74.323 181.847 73.9963 181.25C73.6696 180.643 73.5063 179.943 73.5063 179.15C73.5063 178.357 73.665 177.661 73.9823 177.064C74.2996 176.467 74.743 176.009 75.3123 175.692C75.891 175.365 76.5536 175.202 77.3003 175.202C78.0283 175.202 78.6723 175.361 79.2323 175.678C79.7923 175.995 80.2216 176.434 80.5203 176.994C80.8283 177.545 80.9823 178.17 80.9823 178.87ZM79.6663 178.604C79.6663 178.119 79.559 177.703 79.3443 177.358C79.1296 177.003 78.8356 176.737 78.4623 176.56C78.0983 176.373 77.6923 176.28 77.2443 176.28C76.6003 176.28 76.0496 176.485 75.5923 176.896C75.1443 177.307 74.8876 177.876 74.8223 178.604H79.6663ZM86.4019 175.188C87.3353 175.188 88.0913 175.473 88.6699 176.042C89.2486 176.602 89.5379 177.414 89.5379 178.478V183H88.2779V178.66C88.2779 177.895 88.0866 177.311 87.7039 176.91C87.3213 176.499 86.7986 176.294 86.1359 176.294C85.4639 176.294 84.9273 176.504 84.5259 176.924C84.1339 177.344 83.9379 177.955 83.9379 178.758V183H82.6639V175.328H83.9379V176.42C84.1899 176.028 84.5306 175.725 84.9599 175.51C85.3986 175.295 85.8793 175.188 86.4019 175.188ZM94.335 183.126C93.747 183.126 93.2197 183.028 92.753 182.832C92.2863 182.627 91.9177 182.347 91.647 181.992C91.3763 181.628 91.227 181.213 91.199 180.746H92.515C92.5523 181.129 92.7297 181.441 93.047 181.684C93.3737 181.927 93.7983 182.048 94.321 182.048C94.8063 182.048 95.189 181.941 95.469 181.726C95.749 181.511 95.889 181.241 95.889 180.914C95.889 180.578 95.7397 180.331 95.441 180.172C95.1423 180.004 94.6803 179.841 94.055 179.682C93.4857 179.533 93.019 179.383 92.655 179.234C92.3003 179.075 91.9923 178.847 91.731 178.548C91.479 178.24 91.353 177.839 91.353 177.344C91.353 176.952 91.4697 176.593 91.703 176.266C91.9363 175.939 92.2677 175.683 92.697 175.496C93.1263 175.3 93.6163 175.202 94.167 175.202C95.0163 175.202 95.7023 175.417 96.225 175.846C96.7477 176.275 97.0277 176.863 97.065 177.61H95.791C95.763 177.209 95.5997 176.887 95.301 176.644C95.0117 176.401 94.6197 176.28 94.125 176.28C93.6677 176.28 93.3037 176.378 93.033 176.574C92.7623 176.77 92.627 177.027 92.627 177.344C92.627 177.596 92.7063 177.806 92.865 177.974C93.033 178.133 93.2383 178.263 93.481 178.366C93.733 178.459 94.0783 178.567 94.517 178.688C95.0677 178.837 95.5157 178.987 95.861 179.136C96.2063 179.276 96.5003 179.491 96.743 179.78C96.995 180.069 97.1257 180.447 97.135 180.914C97.135 181.334 97.0183 181.712 96.785 182.048C96.5517 182.384 96.2203 182.65 95.791 182.846C95.371 183.033 94.8857 183.126 94.335 183.126ZM105.737 175.328V183H104.463V181.866C104.221 182.258 103.88 182.566 103.441 182.79C103.012 183.005 102.536 183.112 102.013 183.112C101.416 183.112 100.879 182.991 100.403 182.748C99.9275 182.496 99.5495 182.123 99.2695 181.628C98.9988 181.133 98.8635 180.531 98.8635 179.822V175.328H100.123V179.654C100.123 180.41 100.315 180.993 100.697 181.404C101.08 181.805 101.603 182.006 102.265 182.006C102.947 182.006 103.483 181.796 103.875 181.376C104.267 180.956 104.463 180.345 104.463 179.542V175.328H105.737ZM109.163 176.574C109.387 176.135 109.704 175.795 110.115 175.552C110.535 175.309 111.043 175.188 111.641 175.188V176.504H111.305C109.877 176.504 109.163 177.279 109.163 178.828V183H107.889V175.328H109.163V176.574ZM120.111 178.87C120.111 179.113 120.097 179.369 120.069 179.64H113.937C113.984 180.396 114.241 180.989 114.707 181.418C115.183 181.838 115.757 182.048 116.429 182.048C116.98 182.048 117.437 181.922 117.801 181.67C118.175 181.409 118.436 181.063 118.585 180.634H119.957C119.752 181.371 119.341 181.973 118.725 182.44C118.109 182.897 117.344 183.126 116.429 183.126C115.701 183.126 115.048 182.963 114.469 182.636C113.9 182.309 113.452 181.847 113.125 181.25C112.799 180.643 112.635 179.943 112.635 179.15C112.635 178.357 112.794 177.661 113.111 177.064C113.429 176.467 113.872 176.009 114.441 175.692C115.02 175.365 115.683 175.202 116.429 175.202C117.157 175.202 117.801 175.361 118.361 175.678C118.921 175.995 119.351 176.434 119.649 176.994C119.957 177.545 120.111 178.17 120.111 178.87ZM118.795 178.604C118.795 178.119 118.688 177.703 118.473 177.358C118.259 177.003 117.965 176.737 117.591 176.56C117.227 176.373 116.821 176.28 116.373 176.28C115.729 176.28 115.179 176.485 114.721 176.896C114.273 177.307 114.017 177.876 113.951 178.604H118.795ZM125.049 179.15C125.049 178.357 125.208 177.666 125.525 177.078C125.843 176.481 126.281 176.019 126.841 175.692C127.411 175.365 128.059 175.202 128.787 175.202C129.73 175.202 130.505 175.431 131.111 175.888C131.727 176.345 132.133 176.98 132.329 177.792H130.957C130.827 177.325 130.57 176.957 130.187 176.686C129.814 176.415 129.347 176.28 128.787 176.28C128.059 176.28 127.471 176.532 127.023 177.036C126.575 177.531 126.351 178.235 126.351 179.15C126.351 180.074 126.575 180.788 127.023 181.292C127.471 181.796 128.059 182.048 128.787 182.048C129.347 182.048 129.814 181.917 130.187 181.656C130.561 181.395 130.817 181.021 130.957 180.536H132.329C132.124 181.32 131.713 181.95 131.097 182.426C130.481 182.893 129.711 183.126 128.787 183.126C128.059 183.126 127.411 182.963 126.841 182.636C126.281 182.309 125.843 181.847 125.525 181.25C125.208 180.653 125.049 179.953 125.049 179.15ZM137.375 183.126C136.657 183.126 136.003 182.963 135.415 182.636C134.837 182.309 134.379 181.847 134.043 181.25C133.717 180.643 133.553 179.943 133.553 179.15C133.553 178.366 133.721 177.675 134.057 177.078C134.403 176.471 134.869 176.009 135.457 175.692C136.045 175.365 136.703 175.202 137.431 175.202C138.159 175.202 138.817 175.365 139.405 175.692C139.993 176.009 140.455 176.467 140.791 177.064C141.137 177.661 141.309 178.357 141.309 179.15C141.309 179.943 141.132 180.643 140.777 181.25C140.432 181.847 139.961 182.309 139.363 182.636C138.766 182.963 138.103 183.126 137.375 183.126ZM137.375 182.006C137.833 182.006 138.262 181.899 138.663 181.684C139.065 181.469 139.387 181.147 139.629 180.718C139.881 180.289 140.007 179.766 140.007 179.15C140.007 178.534 139.886 178.011 139.643 177.582C139.401 177.153 139.083 176.835 138.691 176.63C138.299 176.415 137.875 176.308 137.417 176.308C136.951 176.308 136.521 176.415 136.129 176.63C135.747 176.835 135.439 177.153 135.205 177.582C134.972 178.011 134.855 178.534 134.855 179.15C134.855 179.775 134.967 180.303 135.191 180.732C135.425 181.161 135.733 181.483 136.115 181.698C136.498 181.903 136.918 182.006 137.375 182.006ZM152.21 175.188C152.808 175.188 153.34 175.314 153.806 175.566C154.273 175.809 154.642 176.177 154.912 176.672C155.183 177.167 155.318 177.769 155.318 178.478V183H154.058V178.66C154.058 177.895 153.867 177.311 153.484 176.91C153.111 176.499 152.602 176.294 151.958 176.294C151.296 176.294 150.768 176.509 150.376 176.938C149.984 177.358 149.788 177.969 149.788 178.772V183H148.528V178.66C148.528 177.895 148.337 177.311 147.954 176.91C147.581 176.499 147.072 176.294 146.428 176.294C145.766 176.294 145.238 176.509 144.846 176.938C144.454 177.358 144.258 177.969 144.258 178.772V183H142.984V175.328H144.258V176.434C144.51 176.033 144.846 175.725 145.266 175.51C145.696 175.295 146.167 175.188 146.68 175.188C147.324 175.188 147.894 175.333 148.388 175.622C148.883 175.911 149.252 176.336 149.494 176.896C149.709 176.355 150.064 175.935 150.558 175.636C151.053 175.337 151.604 175.188 152.21 175.188ZM158.682 176.742C158.934 176.303 159.307 175.939 159.802 175.65C160.306 175.351 160.889 175.202 161.552 175.202C162.233 175.202 162.849 175.365 163.4 175.692C163.96 176.019 164.399 176.481 164.716 177.078C165.033 177.666 165.192 178.352 165.192 179.136C165.192 179.911 165.033 180.601 164.716 181.208C164.399 181.815 163.96 182.286 163.4 182.622C162.849 182.958 162.233 183.126 161.552 183.126C160.899 183.126 160.32 182.981 159.816 182.692C159.321 182.393 158.943 182.025 158.682 181.586V186.64H157.408V175.328H158.682V176.742ZM163.89 179.136C163.89 178.557 163.773 178.053 163.54 177.624C163.307 177.195 162.989 176.868 162.588 176.644C162.196 176.42 161.762 176.308 161.286 176.308C160.819 176.308 160.385 176.425 159.984 176.658C159.592 176.882 159.275 177.213 159.032 177.652C158.799 178.081 158.682 178.581 158.682 179.15C158.682 179.729 158.799 180.237 159.032 180.676C159.275 181.105 159.592 181.437 159.984 181.67C160.385 181.894 160.819 182.006 161.286 182.006C161.762 182.006 162.196 181.894 162.588 181.67C162.989 181.437 163.307 181.105 163.54 180.676C163.773 180.237 163.89 179.724 163.89 179.136ZM166.393 179.136C166.393 178.352 166.552 177.666 166.869 177.078C167.186 176.481 167.62 176.019 168.171 175.692C168.731 175.365 169.352 175.202 170.033 175.202C170.705 175.202 171.288 175.347 171.783 175.636C172.278 175.925 172.646 176.289 172.889 176.728V175.328H174.177V183H172.889V181.572C172.637 182.02 172.259 182.393 171.755 182.692C171.26 182.981 170.682 183.126 170.019 183.126C169.338 183.126 168.722 182.958 168.171 182.622C167.62 182.286 167.186 181.815 166.869 181.208C166.552 180.601 166.393 179.911 166.393 179.136ZM172.889 179.15C172.889 178.571 172.772 178.067 172.539 177.638C172.306 177.209 171.988 176.882 171.587 176.658C171.195 176.425 170.761 176.308 170.285 176.308C169.809 176.308 169.375 176.42 168.983 176.644C168.591 176.868 168.278 177.195 168.045 177.624C167.812 178.053 167.695 178.557 167.695 179.136C167.695 179.724 167.812 180.237 168.045 180.676C168.278 181.105 168.591 181.437 168.983 181.67C169.375 181.894 169.809 182.006 170.285 182.006C170.761 182.006 171.195 181.894 171.587 181.67C171.988 181.437 172.306 181.105 172.539 180.676C172.772 180.237 172.889 179.729 172.889 179.15ZM180.068 175.188C181.001 175.188 181.757 175.473 182.336 176.042C182.915 176.602 183.204 177.414 183.204 178.478V183H181.944V178.66C181.944 177.895 181.753 177.311 181.37 176.91C180.987 176.499 180.465 176.294 179.802 176.294C179.13 176.294 178.593 176.504 178.192 176.924C177.8 177.344 177.604 177.955 177.604 178.758V183H176.33V175.328H177.604V176.42C177.856 176.028 178.197 175.725 178.626 175.51C179.065 175.295 179.545 175.188 180.068 175.188ZM191.893 175.328L187.273 186.612H185.957L187.469 182.916L184.375 175.328H185.789L188.197 181.544L190.577 175.328H191.893ZM45.2807 200.136C45.2807 199.352 45.4394 198.666 45.7567 198.078C46.074 197.481 46.508 197.019 47.0587 196.692C47.6187 196.365 48.2394 196.202 48.9207 196.202C49.5927 196.202 50.176 196.347 50.6707 196.636C51.1654 196.925 51.534 197.289 51.7767 197.728V196.328H53.0647V204H51.7767V202.572C51.5247 203.02 51.1467 203.393 50.6427 203.692C50.148 203.981 49.5694 204.126 48.9067 204.126C48.2254 204.126 47.6094 203.958 47.0587 203.622C46.508 203.286 46.074 202.815 45.7567 202.208C45.4394 201.601 45.2807 200.911 45.2807 200.136ZM51.7767 200.15C51.7767 199.571 51.66 199.067 51.4267 198.638C51.1934 198.209 50.876 197.882 50.4747 197.658C50.0827 197.425 49.6487 197.308 49.1727 197.308C48.6967 197.308 48.2627 197.42 47.8707 197.644C47.4787 197.868 47.166 198.195 46.9327 198.624C46.6994 199.053 46.5827 199.557 46.5827 200.136C46.5827 200.724 46.6994 201.237 46.9327 201.676C47.166 202.105 47.4787 202.437 47.8707 202.67C48.2627 202.894 48.6967 203.006 49.1727 203.006C49.6487 203.006 50.0827 202.894 50.4747 202.67C50.876 202.437 51.1934 202.105 51.4267 201.676C51.66 201.237 51.7767 200.729 51.7767 200.15ZM56.4916 193.64V204H55.2176V193.64H56.4916ZM59.321 195.082C59.0783 195.082 58.873 194.998 58.705 194.83C58.537 194.662 58.453 194.457 58.453 194.214C58.453 193.971 58.537 193.766 58.705 193.598C58.873 193.43 59.0783 193.346 59.321 193.346C59.5543 193.346 59.7503 193.43 59.909 193.598C60.077 193.766 60.161 193.971 60.161 194.214C60.161 194.457 60.077 194.662 59.909 194.83C59.7503 194.998 59.5543 195.082 59.321 195.082ZM59.937 196.328V204H58.663V196.328H59.937ZM65.2723 196.202C65.9349 196.202 66.5136 196.347 67.0083 196.636C67.5123 196.925 67.8856 197.289 68.1283 197.728V196.328H69.4163V204.168C69.4163 204.868 69.2669 205.489 68.9683 206.03C68.6696 206.581 68.2403 207.01 67.6803 207.318C67.1296 207.626 66.4856 207.78 65.7483 207.78C64.7403 207.78 63.9003 207.542 63.2283 207.066C62.5563 206.59 62.1596 205.941 62.0383 205.12H63.2983C63.4383 205.587 63.7276 205.96 64.1663 206.24C64.6049 206.529 65.1323 206.674 65.7483 206.674C66.4483 206.674 67.0176 206.455 67.4563 206.016C67.9043 205.577 68.1283 204.961 68.1283 204.168V202.558C67.8763 203.006 67.5029 203.379 67.0083 203.678C66.5136 203.977 65.9349 204.126 65.2723 204.126C64.5909 204.126 63.9703 203.958 63.4103 203.622C62.8596 203.286 62.4256 202.815 62.1083 202.208C61.7909 201.601 61.6323 200.911 61.6323 200.136C61.6323 199.352 61.7909 198.666 62.1083 198.078C62.4256 197.481 62.8596 197.019 63.4103 196.692C63.9703 196.365 64.5909 196.202 65.2723 196.202ZM68.1283 200.15C68.1283 199.571 68.0116 199.067 67.7783 198.638C67.5449 198.209 67.2276 197.882 66.8263 197.658C66.4343 197.425 66.0003 197.308 65.5243 197.308C65.0483 197.308 64.6143 197.42 64.2223 197.644C63.8303 197.868 63.5176 198.195 63.2843 198.624C63.0509 199.053 62.9343 199.557 62.9343 200.136C62.9343 200.724 63.0509 201.237 63.2843 201.676C63.5176 202.105 63.8303 202.437 64.2223 202.67C64.6143 202.894 65.0483 203.006 65.5243 203.006C66.0003 203.006 66.4343 202.894 66.8263 202.67C67.2276 202.437 67.5449 202.105 67.7783 201.676C68.0116 201.237 68.1283 200.729 68.1283 200.15ZM75.3072 196.188C76.2405 196.188 76.9965 196.473 77.5752 197.042C78.1539 197.602 78.4432 198.414 78.4432 199.478V204H77.1832V199.66C77.1832 198.895 76.9919 198.311 76.6092 197.91C76.2265 197.499 75.7039 197.294 75.0412 197.294C74.3692 197.294 73.8325 197.504 73.4312 197.924C73.0392 198.344 72.8432 198.955 72.8432 199.758V204H71.5692V196.328H72.8432V197.42C73.0952 197.028 73.4359 196.725 73.8652 196.51C74.3039 196.295 74.7845 196.188 75.3072 196.188ZM89.7503 196.188C90.3476 196.188 90.8796 196.314 91.3463 196.566C91.813 196.809 92.1816 197.177 92.4523 197.672C92.723 198.167 92.8583 198.769 92.8583 199.478V204H91.5983V199.66C91.5983 198.895 91.407 198.311 91.0243 197.91C90.651 197.499 90.1423 197.294 89.4983 197.294C88.8356 197.294 88.3083 197.509 87.9163 197.938C87.5243 198.358 87.3283 198.969 87.3283 199.772V204H86.0683V199.66C86.0683 198.895 85.877 198.311 85.4943 197.91C85.121 197.499 84.6123 197.294 83.9683 197.294C83.3056 197.294 82.7783 197.509 82.3863 197.938C81.9943 198.358 81.7983 198.969 81.7983 199.772V204H80.5243V196.328H81.7983V197.434C82.0503 197.033 82.3863 196.725 82.8063 196.51C83.2356 196.295 83.707 196.188 84.2203 196.188C84.8643 196.188 85.4336 196.333 85.9283 196.622C86.423 196.911 86.7916 197.336 87.0343 197.896C87.249 197.355 87.6036 196.935 88.0983 196.636C88.593 196.337 89.1436 196.188 89.7503 196.188ZM101.948 199.87C101.948 200.113 101.934 200.369 101.906 200.64H95.7741C95.8208 201.396 96.0775 201.989 96.5441 202.418C97.0201 202.838 97.5941 203.048 98.2661 203.048C98.8168 203.048 99.2741 202.922 99.6381 202.67C100.011 202.409 100.273 202.063 100.422 201.634H101.794C101.589 202.371 101.178 202.973 100.562 203.44C99.9461 203.897 99.1808 204.126 98.2661 204.126C97.5381 204.126 96.8848 203.963 96.3061 203.636C95.7368 203.309 95.2888 202.847 94.9621 202.25C94.6355 201.643 94.4721 200.943 94.4721 200.15C94.4721 199.357 94.6308 198.661 94.9481 198.064C95.2655 197.467 95.7088 197.009 96.2781 196.692C96.8568 196.365 97.5195 196.202 98.2661 196.202C98.9941 196.202 99.6381 196.361 100.198 196.678C100.758 196.995 101.187 197.434 101.486 197.994C101.794 198.545 101.948 199.17 101.948 199.87ZM100.632 199.604C100.632 199.119 100.525 198.703 100.31 198.358C100.095 198.003 99.8015 197.737 99.4281 197.56C99.0641 197.373 98.6581 197.28 98.2101 197.28C97.5661 197.28 97.0155 197.485 96.5581 197.896C96.1101 198.307 95.8535 198.876 95.7881 199.604H100.632ZM107.368 196.188C108.301 196.188 109.057 196.473 109.636 197.042C110.214 197.602 110.504 198.414 110.504 199.478V204H109.244V199.66C109.244 198.895 109.052 198.311 108.67 197.91C108.287 197.499 107.764 197.294 107.102 197.294C106.43 197.294 105.893 197.504 105.492 197.924C105.1 198.344 104.904 198.955 104.904 199.758V204H103.63V196.328H104.904V197.42C105.156 197.028 105.496 196.725 105.926 196.51C106.364 196.295 106.845 196.188 107.368 196.188ZM114.139 197.378V201.9C114.139 202.273 114.218 202.539 114.377 202.698C114.536 202.847 114.811 202.922 115.203 202.922H116.141V204H114.993C114.284 204 113.752 203.837 113.397 203.51C113.042 203.183 112.865 202.647 112.865 201.9V197.378H111.871V196.328H112.865V194.396H114.139V196.328H116.141V197.378H114.139ZM122.691 197.756C122.952 197.299 123.335 196.925 123.839 196.636C124.343 196.347 124.917 196.202 125.561 196.202C126.252 196.202 126.872 196.365 127.423 196.692C127.974 197.019 128.408 197.481 128.725 198.078C129.042 198.666 129.201 199.352 129.201 200.136C129.201 200.911 129.042 201.601 128.725 202.208C128.408 202.815 127.969 203.286 127.409 203.622C126.858 203.958 126.242 204.126 125.561 204.126C124.898 204.126 124.315 203.981 123.811 203.692C123.316 203.403 122.943 203.034 122.691 202.586V204H121.417V193.64H122.691V197.756ZM127.899 200.136C127.899 199.557 127.782 199.053 127.549 198.624C127.316 198.195 126.998 197.868 126.597 197.644C126.205 197.42 125.771 197.308 125.295 197.308C124.828 197.308 124.394 197.425 123.993 197.658C123.601 197.882 123.284 198.213 123.041 198.652C122.808 199.081 122.691 199.581 122.691 200.15C122.691 200.729 122.808 201.237 123.041 201.676C123.284 202.105 123.601 202.437 123.993 202.67C124.394 202.894 124.828 203.006 125.295 203.006C125.771 203.006 126.205 202.894 126.597 202.67C126.998 202.437 127.316 202.105 127.549 201.676C127.782 201.237 127.899 200.724 127.899 200.136ZM137.878 199.87C137.878 200.113 137.864 200.369 137.836 200.64H131.704C131.75 201.396 132.007 201.989 132.474 202.418C132.95 202.838 133.524 203.048 134.196 203.048C134.746 203.048 135.204 202.922 135.568 202.67C135.941 202.409 136.202 202.063 136.352 201.634H137.724C137.518 202.371 137.108 202.973 136.492 203.44C135.876 203.897 135.11 204.126 134.196 204.126C133.468 204.126 132.814 203.963 132.236 203.636C131.666 203.309 131.218 202.847 130.892 202.25C130.565 201.643 130.402 200.943 130.402 200.15C130.402 199.357 130.56 198.661 130.878 198.064C131.195 197.467 131.638 197.009 132.208 196.692C132.786 196.365 133.449 196.202 134.196 196.202C134.924 196.202 135.568 196.361 136.128 196.678C136.688 196.995 137.117 197.434 137.416 197.994C137.724 198.545 137.878 199.17 137.878 199.87ZM136.562 199.604C136.562 199.119 136.454 198.703 136.24 198.358C136.025 198.003 135.731 197.737 135.358 197.56C134.994 197.373 134.588 197.28 134.14 197.28C133.496 197.28 132.945 197.485 132.488 197.896C132.04 198.307 131.783 198.876 131.718 199.604H136.562ZM142.275 204.126C141.687 204.126 141.16 204.028 140.693 203.832C140.227 203.627 139.858 203.347 139.587 202.992C139.317 202.628 139.167 202.213 139.139 201.746H140.455C140.493 202.129 140.67 202.441 140.987 202.684C141.314 202.927 141.739 203.048 142.261 203.048C142.747 203.048 143.129 202.941 143.409 202.726C143.689 202.511 143.829 202.241 143.829 201.914C143.829 201.578 143.68 201.331 143.381 201.172C143.083 201.004 142.621 200.841 141.995 200.682C141.426 200.533 140.959 200.383 140.595 200.234C140.241 200.075 139.933 199.847 139.671 199.548C139.419 199.24 139.293 198.839 139.293 198.344C139.293 197.952 139.41 197.593 139.643 197.266C139.877 196.939 140.208 196.683 140.637 196.496C141.067 196.3 141.557 196.202 142.107 196.202C142.957 196.202 143.643 196.417 144.165 196.846C144.688 197.275 144.968 197.863 145.005 198.61H143.731C143.703 198.209 143.54 197.887 143.241 197.644C142.952 197.401 142.56 197.28 142.065 197.28C141.608 197.28 141.244 197.378 140.973 197.574C140.703 197.77 140.567 198.027 140.567 198.344C140.567 198.596 140.647 198.806 140.805 198.974C140.973 199.133 141.179 199.263 141.421 199.366C141.673 199.459 142.019 199.567 142.457 199.688C143.008 199.837 143.456 199.987 143.801 200.136C144.147 200.276 144.441 200.491 144.683 200.78C144.935 201.069 145.066 201.447 145.075 201.914C145.075 202.334 144.959 202.712 144.725 203.048C144.492 203.384 144.161 203.65 143.731 203.846C143.311 204.033 142.826 204.126 142.275 204.126ZM148.428 197.378V201.9C148.428 202.273 148.507 202.539 148.666 202.698C148.825 202.847 149.1 202.922 149.492 202.922H150.43V204H149.282C148.573 204 148.041 203.837 147.686 203.51C147.331 203.183 147.154 202.647 147.154 201.9V197.378H146.16V196.328H147.154V194.396H148.428V196.328H150.43V197.378H148.428ZM156.98 197.742C157.232 197.303 157.605 196.939 158.1 196.65C158.604 196.351 159.187 196.202 159.85 196.202C160.531 196.202 161.147 196.365 161.698 196.692C162.258 197.019 162.697 197.481 163.014 198.078C163.331 198.666 163.49 199.352 163.49 200.136C163.49 200.911 163.331 201.601 163.014 202.208C162.697 202.815 162.258 203.286 161.698 203.622C161.147 203.958 160.531 204.126 159.85 204.126C159.197 204.126 158.618 203.981 158.114 203.692C157.619 203.393 157.241 203.025 156.98 202.586V207.64H155.706V196.328H156.98V197.742ZM162.188 200.136C162.188 199.557 162.071 199.053 161.838 198.624C161.605 198.195 161.287 197.868 160.886 197.644C160.494 197.42 160.06 197.308 159.584 197.308C159.117 197.308 158.683 197.425 158.282 197.658C157.89 197.882 157.573 198.213 157.33 198.652C157.097 199.081 156.98 199.581 156.98 200.15C156.98 200.729 157.097 201.237 157.33 201.676C157.573 202.105 157.89 202.437 158.282 202.67C158.683 202.894 159.117 203.006 159.584 203.006C160.06 203.006 160.494 202.894 160.886 202.67C161.287 202.437 161.605 202.105 161.838 201.676C162.071 201.237 162.188 200.724 162.188 200.136ZM166.441 197.574C166.665 197.135 166.982 196.795 167.393 196.552C167.813 196.309 168.322 196.188 168.919 196.188V197.504H168.583C167.155 197.504 166.441 198.279 166.441 199.828V204H165.167V196.328H166.441V197.574ZM169.914 200.136C169.914 199.352 170.072 198.666 170.39 198.078C170.707 197.481 171.141 197.019 171.692 196.692C172.252 196.365 172.872 196.202 173.554 196.202C174.226 196.202 174.809 196.347 175.304 196.636C175.798 196.925 176.167 197.289 176.41 197.728V196.328H177.698V204H176.41V202.572C176.158 203.02 175.78 203.393 175.276 203.692C174.781 203.981 174.202 204.126 173.54 204.126C172.858 204.126 172.242 203.958 171.692 203.622C171.141 203.286 170.707 202.815 170.39 202.208C170.072 201.601 169.914 200.911 169.914 200.136ZM176.41 200.15C176.41 199.571 176.293 199.067 176.06 198.638C175.826 198.209 175.509 197.882 175.108 197.658C174.716 197.425 174.282 197.308 173.806 197.308C173.33 197.308 172.896 197.42 172.504 197.644C172.112 197.868 171.799 198.195 171.566 198.624C171.332 199.053 171.216 199.557 171.216 200.136C171.216 200.724 171.332 201.237 171.566 201.676C171.799 202.105 172.112 202.437 172.504 202.67C172.896 202.894 173.33 203.006 173.806 203.006C174.282 203.006 174.716 202.894 175.108 202.67C175.509 202.437 175.826 202.105 176.06 201.676C176.293 201.237 176.41 200.729 176.41 200.15ZM179.374 200.15C179.374 199.357 179.533 198.666 179.85 198.078C180.168 197.481 180.606 197.019 181.166 196.692C181.736 196.365 182.384 196.202 183.112 196.202C184.055 196.202 184.83 196.431 185.436 196.888C186.052 197.345 186.458 197.98 186.654 198.792H185.282C185.152 198.325 184.895 197.957 184.512 197.686C184.139 197.415 183.672 197.28 183.112 197.28C182.384 197.28 181.796 197.532 181.348 198.036C180.9 198.531 180.676 199.235 180.676 200.15C180.676 201.074 180.9 201.788 181.348 202.292C181.796 202.796 182.384 203.048 183.112 203.048C183.672 203.048 184.139 202.917 184.512 202.656C184.886 202.395 185.142 202.021 185.282 201.536H186.654C186.449 202.32 186.038 202.95 185.422 203.426C184.806 203.893 184.036 204.126 183.112 204.126C182.384 204.126 181.736 203.963 181.166 203.636C180.606 203.309 180.168 202.847 179.85 202.25C179.533 201.653 179.374 200.953 179.374 200.15ZM189.908 197.378V201.9C189.908 202.273 189.988 202.539 190.146 202.698C190.305 202.847 190.58 202.922 190.972 202.922H191.91V204H190.762C190.053 204 189.521 203.837 189.166 203.51C188.812 203.183 188.634 202.647 188.634 201.9V197.378H187.64V196.328H188.634V194.396H189.908V196.328H191.91V197.378H189.908ZM194.112 195.082C193.869 195.082 193.664 194.998 193.496 194.83C193.328 194.662 193.244 194.457 193.244 194.214C193.244 193.971 193.328 193.766 193.496 193.598C193.664 193.43 193.869 193.346 194.112 193.346C194.345 193.346 194.541 193.43 194.7 193.598C194.868 193.766 194.952 193.971 194.952 194.214C194.952 194.457 194.868 194.662 194.7 194.83C194.541 194.998 194.345 195.082 194.112 195.082ZM194.728 196.328V204H193.454V196.328H194.728ZM196.423 200.15C196.423 199.357 196.582 198.666 196.899 198.078C197.217 197.481 197.655 197.019 198.215 196.692C198.785 196.365 199.433 196.202 200.161 196.202C201.104 196.202 201.879 196.431 202.485 196.888C203.101 197.345 203.507 197.98 203.703 198.792H202.331C202.201 198.325 201.944 197.957 201.561 197.686C201.188 197.415 200.721 197.28 200.161 197.28C199.433 197.28 198.845 197.532 198.397 198.036C197.949 198.531 197.725 199.235 197.725 200.15C197.725 201.074 197.949 201.788 198.397 202.292C198.845 202.796 199.433 203.048 200.161 203.048C200.721 203.048 201.188 202.917 201.561 202.656C201.935 202.395 202.191 202.021 202.331 201.536H203.703C203.498 202.32 203.087 202.95 202.471 203.426C201.855 203.893 201.085 204.126 200.161 204.126C199.433 204.126 198.785 203.963 198.215 203.636C197.655 203.309 197.217 202.847 196.899 202.25C196.582 201.653 196.423 200.953 196.423 200.15ZM212.403 199.87C212.403 200.113 212.389 200.369 212.361 200.64H206.229C206.276 201.396 206.533 201.989 206.999 202.418C207.475 202.838 208.049 203.048 208.721 203.048C209.272 203.048 209.729 202.922 210.093 202.67C210.467 202.409 210.728 202.063 210.877 201.634H212.249C212.044 202.371 211.633 202.973 211.017 203.44C210.401 203.897 209.636 204.126 208.721 204.126C207.993 204.126 207.34 203.963 206.761 203.636C206.192 203.309 205.744 202.847 205.417 202.25C205.091 201.643 204.927 200.943 204.927 200.15C204.927 199.357 205.086 198.661 205.403 198.064C205.721 197.467 206.164 197.009 206.733 196.692C207.312 196.365 207.975 196.202 208.721 196.202C209.449 196.202 210.093 196.361 210.653 196.678C211.213 196.995 211.643 197.434 211.941 197.994C212.249 198.545 212.403 199.17 212.403 199.87ZM211.087 199.604C211.087 199.119 210.98 198.703 210.765 198.358C210.551 198.003 210.257 197.737 209.883 197.56C209.519 197.373 209.113 197.28 208.665 197.28C208.021 197.28 207.471 197.485 207.013 197.896C206.565 198.307 206.309 198.876 206.243 199.604H211.087ZM216.801 204.126C216.213 204.126 215.686 204.028 215.219 203.832C214.752 203.627 214.384 203.347 214.113 202.992C213.842 202.628 213.693 202.213 213.665 201.746H214.981C215.018 202.129 215.196 202.441 215.513 202.684C215.84 202.927 216.264 203.048 216.787 203.048C217.272 203.048 217.655 202.941 217.935 202.726C218.215 202.511 218.355 202.241 218.355 201.914C218.355 201.578 218.206 201.331 217.907 201.172C217.608 201.004 217.146 200.841 216.521 200.682C215.952 200.533 215.485 200.383 215.121 200.234C214.766 200.075 214.458 199.847 214.197 199.548C213.945 199.24 213.819 198.839 213.819 198.344C213.819 197.952 213.936 197.593 214.169 197.266C214.402 196.939 214.734 196.683 215.163 196.496C215.592 196.3 216.082 196.202 216.633 196.202C217.482 196.202 218.168 196.417 218.691 196.846C219.214 197.275 219.494 197.863 219.531 198.61H218.257C218.229 198.209 218.066 197.887 217.767 197.644C217.478 197.401 217.086 197.28 216.591 197.28C216.134 197.28 215.77 197.378 215.499 197.574C215.228 197.77 215.093 198.027 215.093 198.344C215.093 198.596 215.172 198.806 215.331 198.974C215.499 199.133 215.704 199.263 215.947 199.366C216.199 199.459 216.544 199.567 216.983 199.688C217.534 199.837 217.982 199.987 218.327 200.136C218.672 200.276 218.966 200.491 219.209 200.78C219.461 201.069 219.592 201.447 219.601 201.914C219.601 202.334 219.484 202.712 219.251 203.048C219.018 203.384 218.686 203.65 218.257 203.846C217.837 204.033 217.352 204.126 216.801 204.126Z" fill="black"/>
</g>
<defs>
<filter id="filter0_dii_1847_1751" x="-51.5" y="-54" width="368" height="386" filterUnits="userSpaceOnUse" color-interpolation-filters="sRGB">
<feFlood flood-opacity="0" result="BackgroundImageFix"/>
<feColorMatrix in="SourceAlpha" type="matrix" values="0 0 0 0 0 0 0 0 0 0 0 0 0 0 0 0 0 0 127 0" result="hardAlpha"/>
<feOffset dy="2"/>
<feGaussianBlur stdDeviation="10"/>
<feComposite in2="hardAlpha" operator="out"/>
<feColorMatrix type="matrix" values="0 0 0 0 0 0 0 0 0 0 0 0 0 0 0 0 0 0 0.02 0"/>
<feBlend mode="normal" in2="BackgroundImageFix" result="effect1_dropShadow_1847_1751"/>
<feBlend mode="normal" in="SourceGraphic" in2="effect1_dropShadow_1847_1751" result="shape"/>
<feColorMatrix in="SourceAlpha" type="matrix" values="0 0 0 0 0 0 0 0 0 0 0 0 0 0 0 0 0 0 127 0" result="hardAlpha"/>
<feOffset/>
<feGaussianBlur stdDeviation="2"/>
<feComposite in2="hardAlpha" operator="arithmetic" k2="-1" k3="1"/>
<feColorMatrix type="matrix" values="0 0 0 0 0.999662 0 0 0 0 0.999662 0 0 0 0 0.999662 0 0 0 0.24 0"/>
<feBlend mode="normal" in2="shape" result="effect2_innerShadow_1847_1751"/>
<feColorMatrix in="SourceAlpha" type="matrix" values="0 0 0 0 0 0 0 0 0 0 0 0 0 0 0 0 0 0 127 0" result="hardAlpha"/>
<feMorphology radius="2" operator="dilate" in="SourceAlpha" result="effect3_innerShadow_1847_1751"/>
<feOffset dx="-1" dy="-1"/>
<feGaussianBlur stdDeviation="2"/>
<feComposite in2="hardAlpha" operator="arithmetic" k2="-1" k3="1"/>
<feColorMatrix type="matrix" values="0 0 0 0 1 0 0 0 0 1 0 0 0 0 1 0 0 0 0.5 0"/>
<feBlend mode="normal" in2="effect2_innerShadow_1847_1751" result="effect3_innerShadow_1847_1751"/>
</filter>
</defs>
</svg>
