<svg width="241" height="280" viewBox="0 0 241 280" fill="none" xmlns="http://www.w3.org/2000/svg">
<g filter="url(#filter0_dii_1604_3280)">
<rect x="20.5" y="18" width="200" height="240" rx="20" fill="white" fill-opacity="0.3" shape-rendering="crispEdges"/>
<path d="M111.418 52.4863H109.523C109.257 52.4863 109.029 52.3919 108.84 52.2031C108.651 52.0078 108.557 51.7767 108.557 51.5098C108.557 51.2493 108.651 51.0215 108.84 50.8262C109.029 50.6309 109.257 50.5332 109.523 50.5332H111.418C111.678 50.5332 111.906 50.6309 112.102 50.8262C112.303 51.015 112.404 51.2428 112.404 51.5098C112.404 51.7767 112.303 52.0078 112.102 52.2031C111.906 52.3919 111.678 52.4863 111.418 52.4863ZM113.371 45.7578L112.033 44.4199C111.844 44.2311 111.75 44.0033 111.75 43.7363C111.75 43.4694 111.844 43.2383 112.033 43.043C112.229 42.8542 112.46 42.7598 112.727 42.7598C113 42.7598 113.228 42.8542 113.41 43.043L114.738 44.3906C114.927 44.5794 115.021 44.8073 115.021 45.0742C115.028 45.3411 114.934 45.569 114.738 45.7578C114.549 45.9531 114.322 46.0508 114.055 46.0508C113.788 46.0443 113.56 45.9466 113.371 45.7578ZM119.523 42.4375V40.543C119.523 40.2826 119.618 40.0547 119.807 39.8594C120.002 39.6641 120.233 39.5664 120.5 39.5664C120.767 39.5664 120.998 39.6641 121.193 39.8594C121.389 40.0547 121.486 40.2826 121.486 40.543V42.4375C121.486 42.6979 121.389 42.9258 121.193 43.1211C121.005 43.3164 120.773 43.4141 120.5 43.4141C120.233 43.4141 120.002 43.3164 119.807 43.1211C119.618 42.9258 119.523 42.6979 119.523 42.4375ZM126.252 44.3906L127.6 43.043C127.788 42.8542 128.013 42.7598 128.273 42.7598C128.54 42.7598 128.771 42.8542 128.967 43.043C129.156 43.2383 129.25 43.4694 129.25 43.7363C129.25 44.0033 129.156 44.2311 128.967 44.4199L127.619 45.7578C127.437 45.9531 127.212 46.0508 126.945 46.0508C126.678 46.0508 126.447 45.9531 126.252 45.7578C126.057 45.569 125.959 45.3411 125.959 45.0742C125.965 44.8073 126.063 44.5794 126.252 44.3906ZM131.457 52.4863H129.572C129.305 52.4863 129.074 52.3919 128.879 52.2031C128.69 52.0078 128.596 51.7767 128.596 51.5098C128.596 51.2428 128.69 51.015 128.879 50.8262C129.074 50.6309 129.305 50.5332 129.572 50.5332H131.457C131.724 50.5332 131.955 50.6309 132.15 50.8262C132.346 51.0215 132.443 51.2493 132.443 51.5098C132.443 51.7767 132.346 52.0078 132.15 52.2031C131.955 52.3919 131.724 52.4863 131.457 52.4863ZM120.5 45.1133C121.366 45.1133 122.176 45.263 122.932 45.5625C123.693 45.8555 124.361 46.2624 124.934 46.7832C125.507 47.304 125.952 47.916 126.271 48.6191C126.59 49.3223 126.75 50.0807 126.75 50.8945C126.75 51.5911 126.678 52.2129 126.535 52.7598C126.398 53.3066 126.216 53.8405 125.988 54.3613C125.767 54.8822 125.533 55.4518 125.285 56.0703C125.044 56.6888 124.82 57.418 124.611 58.2578C124.403 59.0911 124.243 60.1035 124.133 61.2949C124.113 61.5163 124.038 61.6921 123.908 61.8223C123.778 61.9525 123.596 62.0176 123.361 62.0176H117.639C117.404 62.0176 117.222 61.9525 117.092 61.8223C116.962 61.6921 116.887 61.5163 116.867 61.2949C116.757 60.1035 116.597 59.0911 116.389 58.2578C116.18 57.418 115.952 56.6888 115.705 56.0703C115.464 55.4518 115.233 54.8822 115.012 54.3613C114.79 53.8405 114.608 53.3066 114.465 52.7598C114.328 52.2129 114.26 51.5911 114.26 50.8945C114.26 50.0807 114.419 49.3223 114.738 48.6191C115.057 47.916 115.5 47.304 116.066 46.7832C116.639 46.2559 117.303 45.8457 118.059 45.5527C118.814 45.2598 119.628 45.1133 120.5 45.1133ZM120.5 46.793C119.875 46.793 119.286 46.8939 118.732 47.0957C118.186 47.2975 117.701 47.5807 117.277 47.9453C116.861 48.3099 116.532 48.7428 116.291 49.2441C116.05 49.7454 115.93 50.2956 115.93 50.8945C115.93 51.3893 115.988 51.8353 116.105 52.2324C116.223 52.6296 116.376 53.043 116.564 53.4727C116.76 53.8958 116.968 54.4004 117.189 54.9863C117.411 55.5658 117.626 56.2852 117.834 57.1445C118.049 58.0039 118.238 59.0716 118.4 60.3477H122.6C122.762 59.0716 122.948 58.0039 123.156 57.1445C123.371 56.2852 123.589 55.5658 123.811 54.9863C124.038 54.4004 124.247 53.8958 124.436 53.4727C124.631 53.043 124.784 52.6296 124.895 52.2324C125.012 51.8353 125.07 51.3893 125.07 50.8945C125.07 50.2956 124.95 49.7454 124.709 49.2441C124.475 48.7428 124.146 48.3099 123.723 47.9453C123.299 47.5807 122.811 47.2975 122.258 47.0957C121.704 46.8939 121.118 46.793 120.5 46.793ZM117.57 64.1465C117.395 64.1465 117.248 64.0879 117.131 63.9707C117.014 63.847 116.955 63.7005 116.955 63.5312C116.955 63.3555 117.014 63.209 117.131 63.0918C117.248 62.9746 117.395 62.916 117.57 62.916H123.43C123.605 62.916 123.752 62.9746 123.869 63.0918C123.993 63.209 124.055 63.3555 124.055 63.5312C124.055 63.7005 123.993 63.847 123.869 63.9707C123.752 64.0879 123.605 64.1465 123.43 64.1465H117.57ZM120.5 66.8809C119.758 66.8809 119.12 66.7116 118.586 66.373C118.059 66.0345 117.779 65.5918 117.746 65.0449H123.244C123.212 65.5918 122.928 66.0345 122.395 66.373C121.867 66.7116 121.236 66.8809 120.5 66.8809Z" fill="black"/>
<path d="M49.4826 96.416C49.4826 95.328 49.7333 94.352 50.2346 93.488C50.7466 92.624 51.4346 91.952 52.2986 91.472C53.1733 90.9813 54.128 90.736 55.1626 90.736C56.3466 90.736 57.3973 91.0293 58.3146 91.616C59.2426 92.192 59.9146 93.0133 60.3306 94.08H58.1386C57.8506 93.4933 57.4506 93.056 56.9386 92.768C56.4266 92.48 55.8346 92.336 55.1626 92.336C54.4266 92.336 53.7706 92.5013 53.1946 92.832C52.6186 93.1627 52.1653 93.6373 51.8346 94.256C51.5146 94.8747 51.3546 95.5947 51.3546 96.416C51.3546 97.2373 51.5146 97.9573 51.8346 98.576C52.1653 99.1947 52.6186 99.6747 53.1946 100.016C53.7706 100.347 54.4266 100.512 55.1626 100.512C55.8346 100.512 56.4266 100.368 56.9386 100.08C57.4506 99.792 57.8506 99.3547 58.1386 98.768H60.3306C59.9146 99.8347 59.2426 100.656 58.3146 101.232C57.3973 101.808 56.3466 102.096 55.1626 102.096C54.1173 102.096 53.1626 101.856 52.2986 101.376C51.4346 100.885 50.7466 100.208 50.2346 99.344C49.7333 98.48 49.4826 97.504 49.4826 96.416ZM66.2896 102.144C65.4576 102.144 64.7056 101.957 64.0336 101.584C63.3616 101.2 62.8336 100.667 62.4496 99.984C62.0656 99.2907 61.8736 98.4907 61.8736 97.584C61.8736 96.688 62.071 95.8933 62.4656 95.2C62.8603 94.5067 63.399 93.9733 64.0816 93.6C64.7643 93.2267 65.527 93.04 66.3696 93.04C67.2123 93.04 67.975 93.2267 68.6576 93.6C69.3403 93.9733 69.879 94.5067 70.2736 95.2C70.6683 95.8933 70.8656 96.688 70.8656 97.584C70.8656 98.48 70.663 99.2747 70.2576 99.968C69.8523 100.661 69.2976 101.2 68.5936 101.584C67.9003 101.957 67.1323 102.144 66.2896 102.144ZM66.2896 100.56C66.759 100.56 67.1963 100.448 67.6016 100.224C68.0176 100 68.3536 99.664 68.6096 99.216C68.8656 98.768 68.9936 98.224 68.9936 97.584C68.9936 96.944 68.871 96.4053 68.6256 95.968C68.3803 95.52 68.055 95.184 67.6496 94.96C67.2443 94.736 66.807 94.624 66.3376 94.624C65.8683 94.624 65.431 94.736 65.0256 94.96C64.631 95.184 64.3163 95.52 64.0816 95.968C63.847 96.4053 63.7296 96.944 63.7296 97.584C63.7296 98.5333 63.9696 99.2693 64.4496 99.792C64.9403 100.304 65.5536 100.56 66.2896 100.56ZM74.4928 94.464C74.7594 94.016 75.1114 93.6693 75.5488 93.424C75.9968 93.168 76.5248 93.04 77.1328 93.04V94.928H76.6688C75.9541 94.928 75.4101 95.1093 75.0368 95.472C74.6741 95.8347 74.4928 96.464 74.4928 97.36V102H72.6688V93.184H74.4928V94.464ZM80.6334 94.48C80.9427 94.0747 81.364 93.7333 81.8974 93.456C82.4307 93.1787 83.0334 93.04 83.7054 93.04C84.4734 93.04 85.172 93.232 85.8014 93.616C86.4414 93.9893 86.9427 94.5173 87.3054 95.2C87.668 95.8827 87.8494 96.6667 87.8494 97.552C87.8494 98.4373 87.668 99.232 87.3054 99.936C86.9427 100.629 86.4414 101.173 85.8014 101.568C85.172 101.952 84.4734 102.144 83.7054 102.144C83.0334 102.144 82.436 102.011 81.9134 101.744C81.3907 101.467 80.964 101.125 80.6334 100.72V106.192H78.8094V93.184H80.6334V94.48ZM85.9934 97.552C85.9934 96.944 85.8654 96.4213 85.6094 95.984C85.364 95.536 85.0334 95.2 84.6174 94.976C84.212 94.7413 83.7747 94.624 83.3054 94.624C82.8467 94.624 82.4094 94.7413 81.9934 94.976C81.588 95.2107 81.2574 95.552 81.0014 96C80.756 96.448 80.6334 96.976 80.6334 97.584C80.6334 98.192 80.756 98.7253 81.0014 99.184C81.2574 99.632 81.588 99.9733 81.9934 100.208C82.4094 100.443 82.8467 100.56 83.3054 100.56C83.7747 100.56 84.212 100.443 84.6174 100.208C85.0334 99.9627 85.364 99.6107 85.6094 99.152C85.8654 98.6933 85.9934 98.16 85.9934 97.552ZM93.4771 102.144C92.6451 102.144 91.8931 101.957 91.2211 101.584C90.5491 101.2 90.0211 100.667 89.6371 99.984C89.2531 99.2907 89.0611 98.4907 89.0611 97.584C89.0611 96.688 89.2585 95.8933 89.6531 95.2C90.0478 94.5067 90.5865 93.9733 91.2691 93.6C91.9518 93.2267 92.7145 93.04 93.5571 93.04C94.3998 93.04 95.1625 93.2267 95.8451 93.6C96.5278 93.9733 97.0665 94.5067 97.4611 95.2C97.8558 95.8933 98.0531 96.688 98.0531 97.584C98.0531 98.48 97.8505 99.2747 97.4451 99.968C97.0398 100.661 96.4851 101.2 95.7811 101.584C95.0878 101.957 94.3198 102.144 93.4771 102.144ZM93.4771 100.56C93.9465 100.56 94.3838 100.448 94.7891 100.224C95.2051 100 95.5411 99.664 95.7971 99.216C96.0531 98.768 96.1811 98.224 96.1811 97.584C96.1811 96.944 96.0585 96.4053 95.8131 95.968C95.5678 95.52 95.2425 95.184 94.8371 94.96C94.4318 94.736 93.9945 94.624 93.5251 94.624C93.0558 94.624 92.6185 94.736 92.2131 94.96C91.8185 95.184 91.5038 95.52 91.2691 95.968C91.0345 96.4053 90.9171 96.944 90.9171 97.584C90.9171 98.5333 91.1571 99.2693 91.6371 99.792C92.1278 100.304 92.7411 100.56 93.4771 100.56ZM101.68 94.464C101.947 94.016 102.299 93.6693 102.736 93.424C103.184 93.168 103.712 93.04 104.32 93.04V94.928H103.856C103.142 94.928 102.598 95.1093 102.224 95.472C101.862 95.8347 101.68 96.464 101.68 97.36V102H99.8563V93.184H101.68V94.464ZM105.389 97.552C105.389 96.6667 105.57 95.8827 105.933 95.2C106.306 94.5173 106.808 93.9893 107.437 93.616C108.077 93.232 108.781 93.04 109.549 93.04C110.242 93.04 110.845 93.1787 111.357 93.456C111.88 93.7227 112.296 94.0587 112.605 94.464V93.184H114.445V102H112.605V100.688C112.296 101.104 111.874 101.451 111.341 101.728C110.808 102.005 110.2 102.144 109.517 102.144C108.76 102.144 108.066 101.952 107.437 101.568C106.808 101.173 106.306 100.629 105.933 99.936C105.57 99.232 105.389 98.4373 105.389 97.552ZM112.605 97.584C112.605 96.976 112.477 96.448 112.221 96C111.976 95.552 111.65 95.2107 111.245 94.976C110.84 94.7413 110.402 94.624 109.933 94.624C109.464 94.624 109.026 94.7413 108.621 94.976C108.216 95.2 107.885 95.536 107.629 95.984C107.384 96.4213 107.261 96.944 107.261 97.552C107.261 98.16 107.384 98.6933 107.629 99.152C107.885 99.6107 108.216 99.9627 108.621 100.208C109.037 100.443 109.474 100.56 109.933 100.56C110.402 100.56 110.84 100.443 111.245 100.208C111.65 99.9733 111.976 99.632 112.221 99.184C112.477 98.7253 112.605 98.192 112.605 97.584ZM118.969 94.672V99.552C118.969 99.8827 119.043 100.123 119.193 100.272C119.353 100.411 119.619 100.48 119.993 100.48H121.113V102H119.673C118.851 102 118.222 101.808 117.785 101.424C117.347 101.04 117.129 100.416 117.129 99.552V94.672H116.089V93.184H117.129V90.992H118.969V93.184H121.113V94.672H118.969ZM130.874 97.376C130.874 97.7067 130.852 98.0053 130.81 98.272H124.074C124.127 98.976 124.388 99.5413 124.858 99.968C125.327 100.395 125.903 100.608 126.586 100.608C127.567 100.608 128.26 100.197 128.666 99.376H130.634C130.367 100.187 129.882 100.853 129.178 101.376C128.484 101.888 127.62 102.144 126.586 102.144C125.743 102.144 124.986 101.957 124.314 101.584C123.652 101.2 123.13 100.667 122.746 99.984C122.372 99.2907 122.186 98.4907 122.186 97.584C122.186 96.6773 122.367 95.8827 122.73 95.2C123.103 94.5067 123.62 93.9733 124.282 93.6C124.954 93.2267 125.722 93.04 126.586 93.04C127.418 93.04 128.159 93.2213 128.81 93.584C129.46 93.9467 129.967 94.4587 130.33 95.12C130.692 95.7707 130.874 96.5227 130.874 97.376ZM128.97 96.8C128.959 96.128 128.719 95.5893 128.25 95.184C127.78 94.7787 127.199 94.576 126.506 94.576C125.876 94.576 125.338 94.7787 124.89 95.184C124.442 95.5787 124.175 96.1173 124.09 96.8H128.97ZM138.649 100.528H142.409V102H136.825V90.88H138.649V100.528ZM143.326 97.552C143.326 96.6667 143.508 95.8827 143.87 95.2C144.244 94.5173 144.745 93.9893 145.374 93.616C146.014 93.232 146.718 93.04 147.486 93.04C148.18 93.04 148.782 93.1787 149.294 93.456C149.817 93.7227 150.233 94.0587 150.542 94.464V93.184H152.382V102H150.542V100.688C150.233 101.104 149.812 101.451 149.278 101.728C148.745 102.005 148.137 102.144 147.454 102.144C146.697 102.144 146.004 101.952 145.374 101.568C144.745 101.173 144.244 100.629 143.87 99.936C143.508 99.232 143.326 98.4373 143.326 97.552ZM150.542 97.584C150.542 96.976 150.414 96.448 150.158 96C149.913 95.552 149.588 95.2107 149.182 94.976C148.777 94.7413 148.34 94.624 147.87 94.624C147.401 94.624 146.964 94.7413 146.558 94.976C146.153 95.2 145.822 95.536 145.566 95.984C145.321 96.4213 145.198 96.944 145.198 97.552C145.198 98.16 145.321 98.6933 145.566 99.152C145.822 99.6107 146.153 99.9627 146.558 100.208C146.974 100.443 147.412 100.56 147.87 100.56C148.34 100.56 148.777 100.443 149.182 100.208C149.588 99.9733 149.913 99.632 150.158 99.184C150.414 98.7253 150.542 98.192 150.542 97.584ZM166.618 93.184L163.882 102H161.962L160.186 95.488L158.41 102H156.49L153.738 93.184H155.594L157.434 100.272L159.306 93.184H161.21L163.002 100.24L164.826 93.184H166.618ZM175.917 93.184L170.509 106.144H168.621L170.413 101.856L166.941 93.184H168.973L171.453 99.904L174.029 93.184H175.917ZM185.374 97.376C185.374 97.7067 185.352 98.0053 185.31 98.272H178.574C178.627 98.976 178.888 99.5413 179.358 99.968C179.827 100.395 180.403 100.608 181.086 100.608C182.067 100.608 182.76 100.197 183.166 99.376H185.134C184.867 100.187 184.382 100.853 183.678 101.376C182.984 101.888 182.12 102.144 181.086 102.144C180.243 102.144 179.486 101.957 178.814 101.584C178.152 101.2 177.63 100.667 177.246 99.984C176.872 99.2907 176.686 98.4907 176.686 97.584C176.686 96.6773 176.867 95.8827 177.23 95.2C177.603 94.5067 178.12 93.9733 178.782 93.6C179.454 93.2267 180.222 93.04 181.086 93.04C181.918 93.04 182.659 93.2213 183.31 93.584C183.96 93.9467 184.467 94.4587 184.83 95.12C185.192 95.7707 185.374 96.5227 185.374 97.376ZM183.47 96.8C183.459 96.128 183.219 95.5893 182.75 95.184C182.28 94.7787 181.699 94.576 181.006 94.576C180.376 94.576 179.838 94.7787 179.39 95.184C178.942 95.5787 178.675 96.1173 178.59 96.8H183.47ZM188.993 94.464C189.259 94.016 189.611 93.6693 190.049 93.424C190.497 93.168 191.025 93.04 191.633 93.04V94.928H191.169C190.454 94.928 189.91 95.1093 189.537 95.472C189.174 95.8347 188.993 96.464 188.993 97.36V102H187.169V93.184H188.993V94.464Z" fill="black"/>
<path d="M79.4711 134.098C79.4711 134.91 79.1911 135.587 78.6311 136.128C78.0805 136.66 77.2358 136.926 76.0971 136.926H74.2211V141H72.9471V131.242H76.0971C77.1985 131.242 78.0338 131.508 78.6031 132.04C79.1818 132.572 79.4711 133.258 79.4711 134.098ZM76.0971 135.876C76.8065 135.876 77.3291 135.722 77.6651 135.414C78.0011 135.106 78.1691 134.667 78.1691 134.098C78.1691 132.894 77.4785 132.292 76.0971 132.292H74.2211V135.876H76.0971ZM82.3286 134.574C82.5526 134.135 82.8699 133.795 83.2806 133.552C83.7006 133.309 84.2092 133.188 84.8066 133.188V134.504H84.4706C83.0426 134.504 82.3286 135.279 82.3286 136.828V141H81.0546V133.328H82.3286V134.574ZM89.6232 141.126C88.9046 141.126 88.2512 140.963 87.6632 140.636C87.0846 140.309 86.6272 139.847 86.2912 139.25C85.9646 138.643 85.8012 137.943 85.8012 137.15C85.8012 136.366 85.9692 135.675 86.3052 135.078C86.6506 134.471 87.1172 134.009 87.7052 133.692C88.2932 133.365 88.9512 133.202 89.6792 133.202C90.4072 133.202 91.0652 133.365 91.6532 133.692C92.2412 134.009 92.7032 134.467 93.0392 135.064C93.3846 135.661 93.5572 136.357 93.5572 137.15C93.5572 137.943 93.3799 138.643 93.0252 139.25C92.6799 139.847 92.2086 140.309 91.6112 140.636C91.0139 140.963 90.3512 141.126 89.6232 141.126ZM89.6232 140.006C90.0806 140.006 90.5099 139.899 90.9112 139.684C91.3126 139.469 91.6346 139.147 91.8772 138.718C92.1292 138.289 92.2552 137.766 92.2552 137.15C92.2552 136.534 92.1339 136.011 91.8912 135.582C91.6486 135.153 91.3312 134.835 90.9392 134.63C90.5472 134.415 90.1226 134.308 89.6652 134.308C89.1986 134.308 88.7692 134.415 88.3772 134.63C87.9946 134.835 87.6866 135.153 87.4532 135.582C87.2199 136.011 87.1032 136.534 87.1032 137.15C87.1032 137.775 87.2152 138.303 87.4392 138.732C87.6726 139.161 87.9806 139.483 88.3632 139.698C88.7459 139.903 89.1659 140.006 89.6232 140.006ZM98.0883 139.824L100.468 133.328H101.826L98.8163 141H97.3323L94.3223 133.328H95.6943L98.0883 139.824ZM103.738 132.082C103.495 132.082 103.29 131.998 103.122 131.83C102.954 131.662 102.87 131.457 102.87 131.214C102.87 130.971 102.954 130.766 103.122 130.598C103.29 130.43 103.495 130.346 103.738 130.346C103.971 130.346 104.167 130.43 104.326 130.598C104.494 130.766 104.578 130.971 104.578 131.214C104.578 131.457 104.494 131.662 104.326 131.83C104.167 131.998 103.971 132.082 103.738 132.082ZM104.354 133.328V141H103.08V133.328H104.354ZM106.049 137.136C106.049 136.352 106.208 135.666 106.525 135.078C106.843 134.481 107.277 134.019 107.827 133.692C108.387 133.365 109.013 133.202 109.703 133.202C110.301 133.202 110.856 133.342 111.369 133.622C111.883 133.893 112.275 134.252 112.545 134.7V130.64H113.833V141H112.545V139.558C112.293 140.015 111.92 140.393 111.425 140.692C110.931 140.981 110.352 141.126 109.689 141.126C109.008 141.126 108.387 140.958 107.827 140.622C107.277 140.286 106.843 139.815 106.525 139.208C106.208 138.601 106.049 137.911 106.049 137.136ZM112.545 137.15C112.545 136.571 112.429 136.067 112.195 135.638C111.962 135.209 111.645 134.882 111.243 134.658C110.851 134.425 110.417 134.308 109.941 134.308C109.465 134.308 109.031 134.42 108.639 134.644C108.247 134.868 107.935 135.195 107.701 135.624C107.468 136.053 107.351 136.557 107.351 137.136C107.351 137.724 107.468 138.237 107.701 138.676C107.935 139.105 108.247 139.437 108.639 139.67C109.031 139.894 109.465 140.006 109.941 140.006C110.417 140.006 110.851 139.894 111.243 139.67C111.645 139.437 111.962 139.105 112.195 138.676C112.429 138.237 112.545 137.729 112.545 137.15ZM122.986 136.87C122.986 137.113 122.972 137.369 122.944 137.64H116.812C116.859 138.396 117.116 138.989 117.582 139.418C118.058 139.838 118.632 140.048 119.304 140.048C119.855 140.048 120.312 139.922 120.676 139.67C121.05 139.409 121.311 139.063 121.46 138.634H122.832C122.627 139.371 122.216 139.973 121.6 140.44C120.984 140.897 120.219 141.126 119.304 141.126C118.576 141.126 117.923 140.963 117.344 140.636C116.775 140.309 116.327 139.847 116 139.25C115.674 138.643 115.51 137.943 115.51 137.15C115.51 136.357 115.669 135.661 115.986 135.064C116.304 134.467 116.747 134.009 117.316 133.692C117.895 133.365 118.558 133.202 119.304 133.202C120.032 133.202 120.676 133.361 121.236 133.678C121.796 133.995 122.226 134.434 122.524 134.994C122.832 135.545 122.986 136.17 122.986 136.87ZM121.67 136.604C121.67 136.119 121.563 135.703 121.348 135.358C121.134 135.003 120.84 134.737 120.466 134.56C120.102 134.373 119.696 134.28 119.248 134.28C118.604 134.28 118.054 134.485 117.596 134.896C117.148 135.307 116.892 135.876 116.826 136.604H121.67ZM127.384 141.126C126.796 141.126 126.269 141.028 125.802 140.832C125.335 140.627 124.967 140.347 124.696 139.992C124.425 139.628 124.276 139.213 124.248 138.746H125.564C125.601 139.129 125.779 139.441 126.096 139.684C126.423 139.927 126.847 140.048 127.37 140.048C127.855 140.048 128.238 139.941 128.518 139.726C128.798 139.511 128.938 139.241 128.938 138.914C128.938 138.578 128.789 138.331 128.49 138.172C128.191 138.004 127.729 137.841 127.104 137.682C126.535 137.533 126.068 137.383 125.704 137.234C125.349 137.075 125.041 136.847 124.78 136.548C124.528 136.24 124.402 135.839 124.402 135.344C124.402 134.952 124.519 134.593 124.752 134.266C124.985 133.939 125.317 133.683 125.746 133.496C126.175 133.3 126.665 133.202 127.216 133.202C128.065 133.202 128.751 133.417 129.274 133.846C129.797 134.275 130.077 134.863 130.114 135.61H128.84C128.812 135.209 128.649 134.887 128.35 134.644C128.061 134.401 127.669 134.28 127.174 134.28C126.717 134.28 126.353 134.378 126.082 134.574C125.811 134.77 125.676 135.027 125.676 135.344C125.676 135.596 125.755 135.806 125.914 135.974C126.082 136.133 126.287 136.263 126.53 136.366C126.782 136.459 127.127 136.567 127.566 136.688C128.117 136.837 128.565 136.987 128.91 137.136C129.255 137.276 129.549 137.491 129.792 137.78C130.044 138.069 130.175 138.447 130.184 138.914C130.184 139.334 130.067 139.712 129.834 140.048C129.601 140.384 129.269 140.65 128.84 140.846C128.42 141.033 127.935 141.126 127.384 141.126ZM136.989 130.64V141H135.715V130.64H136.989ZM146.16 136.87C146.16 137.113 146.146 137.369 146.118 137.64H139.986C140.033 138.396 140.289 138.989 140.756 139.418C141.232 139.838 141.806 140.048 142.478 140.048C143.029 140.048 143.486 139.922 143.85 139.67C144.223 139.409 144.485 139.063 144.634 138.634H146.006C145.801 139.371 145.39 139.973 144.774 140.44C144.158 140.897 143.393 141.126 142.478 141.126C141.75 141.126 141.097 140.963 140.518 140.636C139.949 140.309 139.501 139.847 139.174 139.25C138.847 138.643 138.684 137.943 138.684 137.15C138.684 136.357 138.843 135.661 139.16 135.064C139.477 134.467 139.921 134.009 140.49 133.692C141.069 133.365 141.731 133.202 142.478 133.202C143.206 133.202 143.85 133.361 144.41 133.678C144.97 133.995 145.399 134.434 145.698 134.994C146.006 135.545 146.16 136.17 146.16 136.87ZM144.844 136.604C144.844 136.119 144.737 135.703 144.522 135.358C144.307 135.003 144.013 134.737 143.64 134.56C143.276 134.373 142.87 134.28 142.422 134.28C141.778 134.28 141.227 134.485 140.77 134.896C140.322 135.307 140.065 135.876 140 136.604H144.844ZM151.006 133.202C151.668 133.202 152.247 133.347 152.742 133.636C153.246 133.925 153.619 134.289 153.862 134.728V133.328H155.15V141.168C155.15 141.868 155 142.489 154.702 143.03C154.403 143.581 153.974 144.01 153.414 144.318C152.863 144.626 152.219 144.78 151.482 144.78C150.474 144.78 149.634 144.542 148.962 144.066C148.29 143.59 147.893 142.941 147.772 142.12H149.032C149.172 142.587 149.461 142.96 149.9 143.24C150.338 143.529 150.866 143.674 151.482 143.674C152.182 143.674 152.751 143.455 153.19 143.016C153.638 142.577 153.862 141.961 153.862 141.168V139.558C153.61 140.006 153.236 140.379 152.742 140.678C152.247 140.977 151.668 141.126 151.006 141.126C150.324 141.126 149.704 140.958 149.144 140.622C148.593 140.286 148.159 139.815 147.842 139.208C147.524 138.601 147.366 137.911 147.366 137.136C147.366 136.352 147.524 135.666 147.842 135.078C148.159 134.481 148.593 134.019 149.144 133.692C149.704 133.365 150.324 133.202 151.006 133.202ZM153.862 137.15C153.862 136.571 153.745 136.067 153.512 135.638C153.278 135.209 152.961 134.882 152.56 134.658C152.168 134.425 151.734 134.308 151.258 134.308C150.782 134.308 150.348 134.42 149.956 134.644C149.564 134.868 149.251 135.195 149.018 135.624C148.784 136.053 148.668 136.557 148.668 137.136C148.668 137.724 148.784 138.237 149.018 138.676C149.251 139.105 149.564 139.437 149.956 139.67C150.348 139.894 150.782 140.006 151.258 140.006C151.734 140.006 152.168 139.894 152.56 139.67C152.961 139.437 153.278 139.105 153.512 138.676C153.745 138.237 153.862 137.729 153.862 137.15ZM156.827 137.136C156.827 136.352 156.985 135.666 157.303 135.078C157.62 134.481 158.054 134.019 158.605 133.692C159.165 133.365 159.785 133.202 160.467 133.202C161.139 133.202 161.722 133.347 162.217 133.636C162.711 133.925 163.08 134.289 163.323 134.728V133.328H164.611V141H163.323V139.572C163.071 140.02 162.693 140.393 162.189 140.692C161.694 140.981 161.115 141.126 160.453 141.126C159.771 141.126 159.155 140.958 158.605 140.622C158.054 140.286 157.62 139.815 157.303 139.208C156.985 138.601 156.827 137.911 156.827 137.136ZM163.323 137.15C163.323 136.571 163.206 136.067 162.973 135.638C162.739 135.209 162.422 134.882 162.021 134.658C161.629 134.425 161.195 134.308 160.719 134.308C160.243 134.308 159.809 134.42 159.417 134.644C159.025 134.868 158.712 135.195 158.479 135.624C158.245 136.053 158.129 136.557 158.129 137.136C158.129 137.724 158.245 138.237 158.479 138.676C158.712 139.105 159.025 139.437 159.417 139.67C159.809 139.894 160.243 140.006 160.719 140.006C161.195 140.006 161.629 139.894 162.021 139.67C162.422 139.437 162.739 139.105 162.973 138.676C163.206 138.237 163.323 137.729 163.323 137.15ZM168.038 130.64V141H166.764V130.64H168.038ZM57.5447 154.202C58.2074 154.202 58.7861 154.347 59.2807 154.636C59.7847 154.925 60.1581 155.289 60.4007 155.728V154.328H61.6887V162.168C61.6887 162.868 61.5394 163.489 61.2407 164.03C60.9421 164.581 60.5127 165.01 59.9527 165.318C59.4021 165.626 58.7581 165.78 58.0207 165.78C57.0127 165.78 56.1727 165.542 55.5007 165.066C54.8287 164.59 54.4321 163.941 54.3107 163.12H55.5707C55.7107 163.587 56.0001 163.96 56.4387 164.24C56.8774 164.529 57.4047 164.674 58.0207 164.674C58.7207 164.674 59.2901 164.455 59.7287 164.016C60.1767 163.577 60.4007 162.961 60.4007 162.168V160.558C60.1487 161.006 59.7754 161.379 59.2807 161.678C58.7861 161.977 58.2074 162.126 57.5447 162.126C56.8634 162.126 56.2427 161.958 55.6827 161.622C55.1321 161.286 54.6981 160.815 54.3807 160.208C54.0634 159.601 53.9047 158.911 53.9047 158.136C53.9047 157.352 54.0634 156.666 54.3807 156.078C54.6981 155.481 55.1321 155.019 55.6827 154.692C56.2427 154.365 56.8634 154.202 57.5447 154.202ZM60.4007 158.15C60.4007 157.571 60.2841 157.067 60.0507 156.638C59.8174 156.209 59.5001 155.882 59.0987 155.658C58.7067 155.425 58.2727 155.308 57.7967 155.308C57.3207 155.308 56.8867 155.42 56.4947 155.644C56.1027 155.868 55.7901 156.195 55.5567 156.624C55.3234 157.053 55.2067 157.557 55.2067 158.136C55.2067 158.724 55.3234 159.237 55.5567 159.676C55.7901 160.105 56.1027 160.437 56.4947 160.67C56.8867 160.894 57.3207 161.006 57.7967 161.006C58.2727 161.006 58.7067 160.894 59.0987 160.67C59.5001 160.437 59.8174 160.105 60.0507 159.676C60.2841 159.237 60.4007 158.729 60.4007 158.15ZM70.6457 154.328V162H69.3717V160.866C69.129 161.258 68.7883 161.566 68.3497 161.79C67.9203 162.005 67.4443 162.112 66.9217 162.112C66.3243 162.112 65.7877 161.991 65.3117 161.748C64.8357 161.496 64.4577 161.123 64.1777 160.628C63.907 160.133 63.7717 159.531 63.7717 158.822V154.328H65.0317V158.654C65.0317 159.41 65.223 159.993 65.6057 160.404C65.9883 160.805 66.511 161.006 67.1737 161.006C67.855 161.006 68.3917 160.796 68.7837 160.376C69.1757 159.956 69.3717 159.345 69.3717 158.542V154.328H70.6457ZM73.4548 153.082C73.2121 153.082 73.0068 152.998 72.8388 152.83C72.6708 152.662 72.5868 152.457 72.5868 152.214C72.5868 151.971 72.6708 151.766 72.8388 151.598C73.0068 151.43 73.2121 151.346 73.4548 151.346C73.6881 151.346 73.8841 151.43 74.0428 151.598C74.2108 151.766 74.2948 151.971 74.2948 152.214C74.2948 152.457 74.2108 152.662 74.0428 152.83C73.8841 152.998 73.6881 153.082 73.4548 153.082ZM74.0708 154.328V162H72.7968V154.328H74.0708ZM75.7661 158.136C75.7661 157.352 75.9247 156.666 76.2421 156.078C76.5594 155.481 76.9934 155.019 77.5441 154.692C78.1041 154.365 78.7294 154.202 79.4201 154.202C80.0174 154.202 80.5727 154.342 81.0861 154.622C81.5994 154.893 81.9914 155.252 82.2621 155.7V151.64H83.5501V162H82.2621V160.558C82.0101 161.015 81.6367 161.393 81.1421 161.692C80.6474 161.981 80.0687 162.126 79.4061 162.126C78.7247 162.126 78.1041 161.958 77.5441 161.622C76.9934 161.286 76.5594 160.815 76.2421 160.208C75.9247 159.601 75.7661 158.911 75.7661 158.136ZM82.2621 158.15C82.2621 157.571 82.1454 157.067 81.9121 156.638C81.6787 156.209 81.3614 155.882 80.9601 155.658C80.5681 155.425 80.1341 155.308 79.6581 155.308C79.1821 155.308 78.7481 155.42 78.3561 155.644C77.9641 155.868 77.6514 156.195 77.4181 156.624C77.1847 157.053 77.0681 157.557 77.0681 158.136C77.0681 158.724 77.1847 159.237 77.4181 159.676C77.6514 160.105 77.9641 160.437 78.3561 160.67C78.7481 160.894 79.1821 161.006 79.6581 161.006C80.1341 161.006 80.5681 160.894 80.9601 160.67C81.3614 160.437 81.6787 160.105 81.9121 159.676C82.1454 159.237 82.2621 158.729 82.2621 158.15ZM85.227 158.136C85.227 157.352 85.3857 156.666 85.703 156.078C86.0203 155.481 86.4543 155.019 87.005 154.692C87.565 154.365 88.1857 154.202 88.867 154.202C89.539 154.202 90.1223 154.347 90.617 154.636C91.1117 154.925 91.4803 155.289 91.723 155.728V154.328H93.011V162H91.723V160.572C91.471 161.02 91.093 161.393 90.589 161.692C90.0943 161.981 89.5157 162.126 88.853 162.126C88.1717 162.126 87.5557 161.958 87.005 161.622C86.4543 161.286 86.0203 160.815 85.703 160.208C85.3857 159.601 85.227 158.911 85.227 158.136ZM91.723 158.15C91.723 157.571 91.6063 157.067 91.373 156.638C91.1397 156.209 90.8223 155.882 90.421 155.658C90.029 155.425 89.595 155.308 89.119 155.308C88.643 155.308 88.209 155.42 87.817 155.644C87.425 155.868 87.1123 156.195 86.879 156.624C86.6457 157.053 86.529 157.557 86.529 158.136C86.529 158.724 86.6457 159.237 86.879 159.676C87.1123 160.105 87.425 160.437 87.817 160.67C88.209 160.894 88.643 161.006 89.119 161.006C89.595 161.006 90.029 160.894 90.421 160.67C90.8223 160.437 91.1397 160.105 91.373 159.676C91.6063 159.237 91.723 158.729 91.723 158.15ZM98.9019 154.188C99.8353 154.188 100.591 154.473 101.17 155.042C101.749 155.602 102.038 156.414 102.038 157.478V162H100.778V157.66C100.778 156.895 100.587 156.311 100.204 155.91C99.8213 155.499 99.2986 155.294 98.6359 155.294C97.9639 155.294 97.4273 155.504 97.0259 155.924C96.6339 156.344 96.4379 156.955 96.4379 157.758V162H95.1639V154.328H96.4379V155.42C96.6899 155.028 97.0306 154.725 97.4599 154.51C97.8986 154.295 98.3793 154.188 98.9019 154.188ZM103.643 158.15C103.643 157.357 103.802 156.666 104.119 156.078C104.436 155.481 104.875 155.019 105.435 154.692C106.004 154.365 106.653 154.202 107.381 154.202C108.324 154.202 109.098 154.431 109.705 154.888C110.321 155.345 110.727 155.98 110.923 156.792H109.551C109.42 156.325 109.164 155.957 108.781 155.686C108.408 155.415 107.941 155.28 107.381 155.28C106.653 155.28 106.065 155.532 105.617 156.036C105.169 156.531 104.945 157.235 104.945 158.15C104.945 159.074 105.169 159.788 105.617 160.292C106.065 160.796 106.653 161.048 107.381 161.048C107.941 161.048 108.408 160.917 108.781 160.656C109.154 160.395 109.411 160.021 109.551 159.536H110.923C110.718 160.32 110.307 160.95 109.691 161.426C109.075 161.893 108.305 162.126 107.381 162.126C106.653 162.126 106.004 161.963 105.435 161.636C104.875 161.309 104.436 160.847 104.119 160.25C103.802 159.653 103.643 158.953 103.643 158.15ZM119.623 157.87C119.623 158.113 119.609 158.369 119.581 158.64H113.449C113.496 159.396 113.752 159.989 114.219 160.418C114.695 160.838 115.269 161.048 115.941 161.048C116.492 161.048 116.949 160.922 117.313 160.67C117.686 160.409 117.948 160.063 118.097 159.634H119.469C119.264 160.371 118.853 160.973 118.237 161.44C117.621 161.897 116.856 162.126 115.941 162.126C115.213 162.126 114.56 161.963 113.981 161.636C113.412 161.309 112.964 160.847 112.637 160.25C112.31 159.643 112.147 158.943 112.147 158.15C112.147 157.357 112.306 156.661 112.623 156.064C112.94 155.467 113.384 155.009 113.953 154.692C114.532 154.365 115.194 154.202 115.941 154.202C116.669 154.202 117.313 154.361 117.873 154.678C118.433 154.995 118.862 155.434 119.161 155.994C119.469 156.545 119.623 157.17 119.623 157.87ZM118.307 157.604C118.307 157.119 118.2 156.703 117.985 156.358C117.77 156.003 117.476 155.737 117.103 155.56C116.739 155.373 116.333 155.28 115.885 155.28C115.241 155.28 114.69 155.485 114.233 155.896C113.785 156.307 113.528 156.876 113.463 157.604H118.307ZM135.257 154.328L132.863 162H131.547L129.699 155.91L127.851 162H126.535L124.127 154.328H125.429L127.193 160.768L129.097 154.328H130.399L132.261 160.782L133.997 154.328H135.257ZM137.179 153.082C136.937 153.082 136.731 152.998 136.563 152.83C136.395 152.662 136.311 152.457 136.311 152.214C136.311 151.971 136.395 151.766 136.563 151.598C136.731 151.43 136.937 151.346 137.179 151.346C137.413 151.346 137.609 151.43 137.767 151.598C137.935 151.766 138.019 151.971 138.019 152.214C138.019 152.457 137.935 152.662 137.767 152.83C137.609 152.998 137.413 153.082 137.179 153.082ZM137.795 154.328V162H136.521V154.328H137.795ZM141.521 155.378V159.9C141.521 160.273 141.6 160.539 141.759 160.698C141.917 160.847 142.193 160.922 142.585 160.922H143.523V162H142.375C141.665 162 141.133 161.837 140.779 161.51C140.424 161.183 140.247 160.647 140.247 159.9V155.378H139.253V154.328H140.247V152.396H141.521V154.328H143.523V155.378H141.521ZM148.874 154.188C149.453 154.188 149.976 154.314 150.442 154.566C150.909 154.809 151.273 155.177 151.534 155.672C151.805 156.167 151.94 156.769 151.94 157.478V162H150.68V157.66C150.68 156.895 150.489 156.311 150.106 155.91C149.724 155.499 149.201 155.294 148.538 155.294C147.866 155.294 147.33 155.504 146.928 155.924C146.536 156.344 146.34 156.955 146.34 157.758V162H145.066V151.64H146.34V155.42C146.592 155.028 146.938 154.725 147.376 154.51C147.824 154.295 148.324 154.188 148.874 154.188ZM164.362 154.328L159.742 165.612H158.426L159.938 161.916L156.844 154.328H158.258L160.666 160.544L163.046 154.328H164.362ZM168.988 162.126C168.27 162.126 167.616 161.963 167.028 161.636C166.45 161.309 165.992 160.847 165.656 160.25C165.33 159.643 165.166 158.943 165.166 158.15C165.166 157.366 165.334 156.675 165.67 156.078C166.016 155.471 166.482 155.009 167.07 154.692C167.658 154.365 168.316 154.202 169.044 154.202C169.772 154.202 170.43 154.365 171.018 154.692C171.606 155.009 172.068 155.467 172.404 156.064C172.75 156.661 172.922 157.357 172.922 158.15C172.922 158.943 172.745 159.643 172.39 160.25C172.045 160.847 171.574 161.309 170.976 161.636C170.379 161.963 169.716 162.126 168.988 162.126ZM168.988 161.006C169.446 161.006 169.875 160.899 170.276 160.684C170.678 160.469 171 160.147 171.242 159.718C171.494 159.289 171.62 158.766 171.62 158.15C171.62 157.534 171.499 157.011 171.256 156.582C171.014 156.153 170.696 155.835 170.304 155.63C169.912 155.415 169.488 155.308 169.03 155.308C168.564 155.308 168.134 155.415 167.742 155.63C167.36 155.835 167.052 156.153 166.818 156.582C166.585 157.011 166.468 157.534 166.468 158.15C166.468 158.775 166.58 159.303 166.804 159.732C167.038 160.161 167.346 160.483 167.728 160.698C168.111 160.903 168.531 161.006 168.988 161.006ZM181.402 154.328V162H180.128V160.866C179.885 161.258 179.544 161.566 179.106 161.79C178.676 162.005 178.2 162.112 177.678 162.112C177.08 162.112 176.544 161.991 176.068 161.748C175.592 161.496 175.214 161.123 174.934 160.628C174.663 160.133 174.528 159.531 174.528 158.822V154.328H175.788V158.654C175.788 159.41 175.979 159.993 176.362 160.404C176.744 160.805 177.267 161.006 177.93 161.006C178.611 161.006 179.148 160.796 179.54 160.376C179.932 159.956 180.128 159.345 180.128 158.542V154.328H181.402ZM184.827 155.574C185.051 155.135 185.368 154.795 185.779 154.552C186.199 154.309 186.707 154.188 187.305 154.188V155.504H186.969C185.541 155.504 184.827 156.279 184.827 157.828V162H183.553V154.328H184.827V155.574ZM53.2416 179.15C53.2416 178.357 53.4003 177.666 53.7176 177.078C54.035 176.481 54.4736 176.019 55.0336 175.692C55.603 175.365 56.2516 175.202 56.9796 175.202C57.9223 175.202 58.697 175.431 59.3036 175.888C59.9196 176.345 60.3256 176.98 60.5216 177.792H59.1496C59.019 177.325 58.7623 176.957 58.3796 176.686C58.0063 176.415 57.5396 176.28 56.9796 176.28C56.2516 176.28 55.6636 176.532 55.2156 177.036C54.7676 177.531 54.5436 178.235 54.5436 179.15C54.5436 180.074 54.7676 180.788 55.2156 181.292C55.6636 181.796 56.2516 182.048 56.9796 182.048C57.5396 182.048 58.0063 181.917 58.3796 181.656C58.753 181.395 59.0096 181.021 59.1496 180.536H60.5216C60.3163 181.32 59.9056 181.95 59.2896 182.426C58.6736 182.893 57.9036 183.126 56.9796 183.126C56.2516 183.126 55.603 182.963 55.0336 182.636C54.4736 182.309 54.035 181.847 53.7176 181.25C53.4003 180.653 53.2416 179.953 53.2416 179.15ZM65.5676 183.126C64.8489 183.126 64.1956 182.963 63.6076 182.636C63.0289 182.309 62.5716 181.847 62.2356 181.25C61.9089 180.643 61.7456 179.943 61.7456 179.15C61.7456 178.366 61.9136 177.675 62.2496 177.078C62.5949 176.471 63.0616 176.009 63.6496 175.692C64.2376 175.365 64.8956 175.202 65.6236 175.202C66.3516 175.202 67.0096 175.365 67.5976 175.692C68.1856 176.009 68.6476 176.467 68.9836 177.064C69.3289 177.661 69.5016 178.357 69.5016 179.15C69.5016 179.943 69.3242 180.643 68.9696 181.25C68.6242 181.847 68.1529 182.309 67.5556 182.636C66.9582 182.963 66.2956 183.126 65.5676 183.126ZM65.5676 182.006C66.0249 182.006 66.4542 181.899 66.8556 181.684C67.2569 181.469 67.5789 181.147 67.8216 180.718C68.0736 180.289 68.1996 179.766 68.1996 179.15C68.1996 178.534 68.0782 178.011 67.8356 177.582C67.5929 177.153 67.2756 176.835 66.8836 176.63C66.4916 176.415 66.0669 176.308 65.6096 176.308C65.1429 176.308 64.7136 176.415 64.3216 176.63C63.9389 176.835 63.6309 177.153 63.3976 177.582C63.1642 178.011 63.0476 178.534 63.0476 179.15C63.0476 179.775 63.1596 180.303 63.3836 180.732C63.6169 181.161 63.9249 181.483 64.3076 181.698C64.6902 181.903 65.1102 182.006 65.5676 182.006ZM80.4026 175.188C81 175.188 81.532 175.314 81.9986 175.566C82.4653 175.809 82.834 176.177 83.1046 176.672C83.3753 177.167 83.5106 177.769 83.5106 178.478V183H82.2506V178.66C82.2506 177.895 82.0593 177.311 81.6766 176.91C81.3033 176.499 80.7946 176.294 80.1506 176.294C79.488 176.294 78.9606 176.509 78.5686 176.938C78.1766 177.358 77.9806 177.969 77.9806 178.772V183H76.7206V178.66C76.7206 177.895 76.5293 177.311 76.1466 176.91C75.7733 176.499 75.2646 176.294 74.6206 176.294C73.958 176.294 73.4306 176.509 73.0386 176.938C72.6466 177.358 72.4506 177.969 72.4506 178.772V183H71.1766V175.328H72.4506V176.434C72.7026 176.033 73.0386 175.725 73.4586 175.51C73.888 175.295 74.3593 175.188 74.8726 175.188C75.5166 175.188 76.086 175.333 76.5806 175.622C77.0753 175.911 77.444 176.336 77.6866 176.896C77.9013 176.355 78.256 175.935 78.7506 175.636C79.2453 175.337 79.796 175.188 80.4026 175.188ZM86.8745 176.742C87.1265 176.303 87.4998 175.939 87.9945 175.65C88.4985 175.351 89.0818 175.202 89.7445 175.202C90.4258 175.202 91.0418 175.365 91.5925 175.692C92.1525 176.019 92.5911 176.481 92.9085 177.078C93.2258 177.666 93.3845 178.352 93.3845 179.136C93.3845 179.911 93.2258 180.601 92.9085 181.208C92.5911 181.815 92.1525 182.286 91.5925 182.622C91.0418 182.958 90.4258 183.126 89.7445 183.126C89.0911 183.126 88.5125 182.981 88.0085 182.692C87.5138 182.393 87.1358 182.025 86.8745 181.586V186.64H85.6005V175.328H86.8745V176.742ZM92.0825 179.136C92.0825 178.557 91.9658 178.053 91.7325 177.624C91.4991 177.195 91.1818 176.868 90.7805 176.644C90.3885 176.42 89.9545 176.308 89.4785 176.308C89.0118 176.308 88.5778 176.425 88.1765 176.658C87.7845 176.882 87.4671 177.213 87.2245 177.652C86.9911 178.081 86.8745 178.581 86.8745 179.15C86.8745 179.729 86.9911 180.237 87.2245 180.676C87.4671 181.105 87.7845 181.437 88.1765 181.67C88.5778 181.894 89.0118 182.006 89.4785 182.006C89.9545 182.006 90.3885 181.894 90.7805 181.67C91.1818 181.437 91.4991 181.105 91.7325 180.676C91.9658 180.237 92.0825 179.724 92.0825 179.136ZM94.5854 179.136C94.5854 178.352 94.7441 177.666 95.0614 177.078C95.3787 176.481 95.8127 176.019 96.3634 175.692C96.9234 175.365 97.5441 175.202 98.2254 175.202C98.8974 175.202 99.4807 175.347 99.9754 175.636C100.47 175.925 100.839 176.289 101.081 176.728V175.328H102.369V183H101.081V181.572C100.829 182.02 100.451 182.393 99.9474 182.692C99.4527 182.981 98.8741 183.126 98.2114 183.126C97.5301 183.126 96.9141 182.958 96.3634 182.622C95.8127 182.286 95.3787 181.815 95.0614 181.208C94.7441 180.601 94.5854 179.911 94.5854 179.136ZM101.081 179.15C101.081 178.571 100.965 178.067 100.731 177.638C100.498 177.209 100.181 176.882 99.7794 176.658C99.3874 176.425 98.9534 176.308 98.4774 176.308C98.0014 176.308 97.5674 176.42 97.1754 176.644C96.7834 176.868 96.4707 177.195 96.2374 177.624C96.0041 178.053 95.8874 178.557 95.8874 179.136C95.8874 179.724 96.0041 180.237 96.2374 180.676C96.4707 181.105 96.7834 181.437 97.1754 181.67C97.5674 181.894 98.0014 182.006 98.4774 182.006C98.9534 182.006 99.3874 181.894 99.7794 181.67C100.181 181.437 100.498 181.105 100.731 180.676C100.965 180.237 101.081 179.729 101.081 179.15ZM108.26 175.188C109.194 175.188 109.95 175.473 110.528 176.042C111.107 176.602 111.396 177.414 111.396 178.478V183H110.136V178.66C110.136 177.895 109.945 177.311 109.562 176.91C109.18 176.499 108.657 176.294 107.994 176.294C107.322 176.294 106.786 176.504 106.384 176.924C105.992 177.344 105.796 177.955 105.796 178.758V183H104.522V175.328H105.796V176.42C106.048 176.028 106.389 175.725 106.818 175.51C107.257 175.295 107.738 175.188 108.26 175.188ZM120.085 175.328L115.465 186.612H114.149L115.661 182.916L112.567 175.328H113.981L116.389 181.544L118.769 175.328H120.085ZM121.562 173.242H122.976L121.632 176.42H120.736L121.562 173.242ZM127.145 183.126C126.557 183.126 126.029 183.028 125.563 182.832C125.096 182.627 124.727 182.347 124.457 181.992C124.186 181.628 124.037 181.213 124.009 180.746H125.325C125.362 181.129 125.539 181.441 125.857 181.684C126.183 181.927 126.608 182.048 127.131 182.048C127.616 182.048 127.999 181.941 128.279 181.726C128.559 181.511 128.699 181.241 128.699 180.914C128.699 180.578 128.549 180.331 128.251 180.172C127.952 180.004 127.49 179.841 126.865 179.682C126.295 179.533 125.829 179.383 125.465 179.234C125.11 179.075 124.802 178.847 124.541 178.548C124.289 178.24 124.163 177.839 124.163 177.344C124.163 176.952 124.279 176.593 124.513 176.266C124.746 175.939 125.077 175.683 125.507 175.496C125.936 175.3 126.426 175.202 126.977 175.202C127.826 175.202 128.512 175.417 129.035 175.846C129.557 176.275 129.837 176.863 129.875 177.61H128.601C128.573 177.209 128.409 176.887 128.111 176.644C127.821 176.401 127.429 176.28 126.935 176.28C126.477 176.28 126.113 176.378 125.843 176.574C125.572 176.77 125.437 177.027 125.437 177.344C125.437 177.596 125.516 177.806 125.675 177.974C125.843 178.133 126.048 178.263 126.291 178.366C126.543 178.459 126.888 178.567 127.327 178.688C127.877 178.837 128.325 178.987 128.671 179.136C129.016 179.276 129.31 179.491 129.553 179.78C129.805 180.069 129.935 180.447 129.945 180.914C129.945 181.334 129.828 181.712 129.595 182.048C129.361 182.384 129.03 182.65 128.601 182.846C128.181 183.033 127.695 183.126 127.145 183.126ZM138.191 183.126C137.603 183.126 137.076 183.028 136.609 182.832C136.143 182.627 135.774 182.347 135.503 181.992C135.233 181.628 135.083 181.213 135.055 180.746H136.371C136.409 181.129 136.586 181.441 136.903 181.684C137.23 181.927 137.655 182.048 138.177 182.048C138.663 182.048 139.045 181.941 139.325 181.726C139.605 181.511 139.745 181.241 139.745 180.914C139.745 180.578 139.596 180.331 139.297 180.172C138.999 180.004 138.537 179.841 137.911 179.682C137.342 179.533 136.875 179.383 136.511 179.234C136.157 179.075 135.849 178.847 135.587 178.548C135.335 178.24 135.209 177.839 135.209 177.344C135.209 176.952 135.326 176.593 135.559 176.266C135.793 175.939 136.124 175.683 136.553 175.496C136.983 175.3 137.473 175.202 138.023 175.202C138.873 175.202 139.559 175.417 140.081 175.846C140.604 176.275 140.884 176.863 140.921 177.61H139.647C139.619 177.209 139.456 176.887 139.157 176.644C138.868 176.401 138.476 176.28 137.981 176.28C137.524 176.28 137.16 176.378 136.889 176.574C136.619 176.77 136.483 177.027 136.483 177.344C136.483 177.596 136.563 177.806 136.721 177.974C136.889 178.133 137.095 178.263 137.337 178.366C137.589 178.459 137.935 178.567 138.373 178.688C138.924 178.837 139.372 178.987 139.717 179.136C140.063 179.276 140.357 179.491 140.599 179.78C140.851 180.069 140.982 180.447 140.991 180.914C140.991 181.334 140.875 181.712 140.641 182.048C140.408 182.384 140.077 182.65 139.647 182.846C139.227 183.033 138.742 183.126 138.191 183.126ZM144.064 176.742C144.316 176.303 144.689 175.939 145.184 175.65C145.688 175.351 146.271 175.202 146.934 175.202C147.615 175.202 148.231 175.365 148.782 175.692C149.342 176.019 149.781 176.481 150.098 177.078C150.415 177.666 150.574 178.352 150.574 179.136C150.574 179.911 150.415 180.601 150.098 181.208C149.781 181.815 149.342 182.286 148.782 182.622C148.231 182.958 147.615 183.126 146.934 183.126C146.281 183.126 145.702 182.981 145.198 182.692C144.703 182.393 144.325 182.025 144.064 181.586V186.64H142.79V175.328H144.064V176.742ZM149.272 179.136C149.272 178.557 149.155 178.053 148.922 177.624C148.689 177.195 148.371 176.868 147.97 176.644C147.578 176.42 147.144 176.308 146.668 176.308C146.201 176.308 145.767 176.425 145.366 176.658C144.974 176.882 144.657 177.213 144.414 177.652C144.181 178.081 144.064 178.581 144.064 179.15C144.064 179.729 144.181 180.237 144.414 180.676C144.657 181.105 144.974 181.437 145.366 181.67C145.767 181.894 146.201 182.006 146.668 182.006C147.144 182.006 147.578 181.894 147.97 181.67C148.371 181.437 148.689 181.105 148.922 180.676C149.155 180.237 149.272 179.724 149.272 179.136ZM159.251 178.87C159.251 179.113 159.237 179.369 159.209 179.64H153.077C153.124 180.396 153.38 180.989 153.847 181.418C154.323 181.838 154.897 182.048 155.569 182.048C156.12 182.048 156.577 181.922 156.941 181.67C157.314 181.409 157.576 181.063 157.725 180.634H159.097C158.892 181.371 158.481 181.973 157.865 182.44C157.249 182.897 156.484 183.126 155.569 183.126C154.841 183.126 154.188 182.963 153.609 182.636C153.04 182.309 152.592 181.847 152.265 181.25C151.938 180.643 151.775 179.943 151.775 179.15C151.775 178.357 151.934 177.661 152.251 177.064C152.568 176.467 153.012 176.009 153.581 175.692C154.16 175.365 154.822 175.202 155.569 175.202C156.297 175.202 156.941 175.361 157.501 175.678C158.061 175.995 158.49 176.434 158.789 176.994C159.097 177.545 159.251 178.17 159.251 178.87ZM157.935 178.604C157.935 178.119 157.828 177.703 157.613 177.358C157.398 177.003 157.104 176.737 156.731 176.56C156.367 176.373 155.961 176.28 155.513 176.28C154.869 176.28 154.318 176.485 153.861 176.896C153.413 177.307 153.156 177.876 153.091 178.604H157.935ZM160.456 179.15C160.456 178.357 160.615 177.666 160.932 177.078C161.25 176.481 161.688 176.019 162.248 175.692C162.818 175.365 163.466 175.202 164.194 175.202C165.137 175.202 165.912 175.431 166.518 175.888C167.134 176.345 167.54 176.98 167.736 177.792H166.364C166.234 177.325 165.977 176.957 165.594 176.686C165.221 176.415 164.754 176.28 164.194 176.28C163.466 176.28 162.878 176.532 162.43 177.036C161.982 177.531 161.758 178.235 161.758 179.15C161.758 180.074 161.982 180.788 162.43 181.292C162.878 181.796 163.466 182.048 164.194 182.048C164.754 182.048 165.221 181.917 165.594 181.656C165.968 181.395 166.224 181.021 166.364 180.536H167.736C167.531 181.32 167.12 181.95 166.504 182.426C165.888 182.893 165.118 183.126 164.194 183.126C163.466 183.126 162.818 182.963 162.248 182.636C161.688 182.309 161.25 181.847 160.932 181.25C160.615 180.653 160.456 179.953 160.456 179.15ZM170.094 174.082C169.852 174.082 169.646 173.998 169.478 173.83C169.31 173.662 169.226 173.457 169.226 173.214C169.226 172.971 169.31 172.766 169.478 172.598C169.646 172.43 169.852 172.346 170.094 172.346C170.328 172.346 170.524 172.43 170.682 172.598C170.85 172.766 170.934 172.971 170.934 173.214C170.934 173.457 170.85 173.662 170.682 173.83C170.524 173.998 170.328 174.082 170.094 174.082ZM170.71 175.328V183H169.436V175.328H170.71ZM176.004 176.378H174.394V183H173.12V176.378H172.126V175.328H173.12V174.782C173.12 173.923 173.339 173.298 173.778 172.906C174.226 172.505 174.94 172.304 175.92 172.304V173.368C175.36 173.368 174.963 173.48 174.73 173.704C174.506 173.919 174.394 174.278 174.394 174.782V175.328H176.004V176.378ZM178.147 174.082C177.904 174.082 177.699 173.998 177.531 173.83C177.363 173.662 177.279 173.457 177.279 173.214C177.279 172.971 177.363 172.766 177.531 172.598C177.699 172.43 177.904 172.346 178.147 172.346C178.38 172.346 178.576 172.43 178.735 172.598C178.903 172.766 178.987 172.971 178.987 173.214C178.987 173.457 178.903 173.662 178.735 173.83C178.576 173.998 178.38 174.082 178.147 174.082ZM178.763 175.328V183H177.489V175.328H178.763ZM180.458 179.15C180.458 178.357 180.617 177.666 180.934 177.078C181.252 176.481 181.69 176.019 182.25 175.692C182.82 175.365 183.468 175.202 184.196 175.202C185.139 175.202 185.914 175.431 186.52 175.888C187.136 176.345 187.542 176.98 187.738 177.792H186.366C186.236 177.325 185.979 176.957 185.596 176.686C185.223 176.415 184.756 176.28 184.196 176.28C183.468 176.28 182.88 176.532 182.432 177.036C181.984 177.531 181.76 178.235 181.76 179.15C181.76 180.074 181.984 180.788 182.432 181.292C182.88 181.796 183.468 182.048 184.196 182.048C184.756 182.048 185.223 181.917 185.596 181.656C185.97 181.395 186.226 181.021 186.366 180.536H187.738C187.533 181.32 187.122 181.95 186.506 182.426C185.89 182.893 185.12 183.126 184.196 183.126C183.468 183.126 182.82 182.963 182.25 182.636C181.69 182.309 181.252 181.847 180.934 181.25C180.617 180.653 180.458 179.953 180.458 179.15ZM61.8139 197.742C62.0659 197.303 62.4392 196.939 62.9339 196.65C63.4379 196.351 64.0212 196.202 64.6839 196.202C65.3652 196.202 65.9812 196.365 66.5319 196.692C67.0919 197.019 67.5306 197.481 67.8479 198.078C68.1652 198.666 68.3239 199.352 68.3239 200.136C68.3239 200.911 68.1652 201.601 67.8479 202.208C67.5306 202.815 67.0919 203.286 66.5319 203.622C65.9812 203.958 65.3652 204.126 64.6839 204.126C64.0306 204.126 63.4519 203.981 62.9479 203.692C62.4532 203.393 62.0752 203.025 61.8139 202.586V207.64H60.5399V196.328H61.8139V197.742ZM67.0219 200.136C67.0219 199.557 66.9052 199.053 66.6719 198.624C66.4386 198.195 66.1212 197.868 65.7199 197.644C65.3279 197.42 64.8939 197.308 64.4179 197.308C63.9512 197.308 63.5172 197.425 63.1159 197.658C62.7239 197.882 62.4066 198.213 62.1639 198.652C61.9306 199.081 61.8139 199.581 61.8139 200.15C61.8139 200.729 61.9306 201.237 62.1639 201.676C62.4066 202.105 62.7239 202.437 63.1159 202.67C63.5172 202.894 63.9512 203.006 64.4179 203.006C64.8939 203.006 65.3279 202.894 65.7199 202.67C66.1212 202.437 66.4386 202.105 66.6719 201.676C66.9052 201.237 67.0219 200.724 67.0219 200.136ZM73.3469 204.126C72.6282 204.126 71.9749 203.963 71.3869 203.636C70.8082 203.309 70.3509 202.847 70.0149 202.25C69.6882 201.643 69.5249 200.943 69.5249 200.15C69.5249 199.366 69.6929 198.675 70.0289 198.078C70.3742 197.471 70.8409 197.009 71.4289 196.692C72.0169 196.365 72.6749 196.202 73.4029 196.202C74.1309 196.202 74.7889 196.365 75.3769 196.692C75.9649 197.009 76.4269 197.467 76.7629 198.064C77.1082 198.661 77.2809 199.357 77.2809 200.15C77.2809 200.943 77.1035 201.643 76.7489 202.25C76.4035 202.847 75.9322 203.309 75.3349 203.636C74.7375 203.963 74.0749 204.126 73.3469 204.126ZM73.3469 203.006C73.8042 203.006 74.2335 202.899 74.6349 202.684C75.0362 202.469 75.3582 202.147 75.6009 201.718C75.8529 201.289 75.9789 200.766 75.9789 200.15C75.9789 199.534 75.8575 199.011 75.6149 198.582C75.3722 198.153 75.0549 197.835 74.6629 197.63C74.2709 197.415 73.8462 197.308 73.3889 197.308C72.9222 197.308 72.4929 197.415 72.1009 197.63C71.7182 197.835 71.4102 198.153 71.1769 198.582C70.9435 199.011 70.8269 199.534 70.8269 200.15C70.8269 200.775 70.9389 201.303 71.1629 201.732C71.3962 202.161 71.7042 202.483 72.0869 202.698C72.4695 202.903 72.8895 203.006 73.3469 203.006ZM80.2299 193.64V204H78.9559V193.64H80.2299ZM83.0592 195.082C82.8166 195.082 82.6112 194.998 82.4432 194.83C82.2752 194.662 82.1912 194.457 82.1912 194.214C82.1912 193.971 82.2752 193.766 82.4432 193.598C82.6112 193.43 82.8166 193.346 83.0592 193.346C83.2926 193.346 83.4886 193.43 83.6472 193.598C83.8152 193.766 83.8992 193.971 83.8992 194.214C83.8992 194.457 83.8152 194.662 83.6472 194.83C83.4886 194.998 83.2926 195.082 83.0592 195.082ZM83.6752 196.328V204H82.4012V196.328H83.6752ZM85.3706 200.15C85.3706 199.357 85.5292 198.666 85.8466 198.078C86.1639 197.481 86.6026 197.019 87.1626 196.692C87.7319 196.365 88.3806 196.202 89.1086 196.202C90.0512 196.202 90.8259 196.431 91.4326 196.888C92.0486 197.345 92.4546 197.98 92.6506 198.792H91.2786C91.1479 198.325 90.8912 197.957 90.5086 197.686C90.1352 197.415 89.6686 197.28 89.1086 197.28C88.3806 197.28 87.7926 197.532 87.3446 198.036C86.8966 198.531 86.6726 199.235 86.6726 200.15C86.6726 201.074 86.8966 201.788 87.3446 202.292C87.7926 202.796 88.3806 203.048 89.1086 203.048C89.6686 203.048 90.1352 202.917 90.5086 202.656C90.8819 202.395 91.1386 202.021 91.2786 201.536H92.6506C92.4452 202.32 92.0346 202.95 91.4186 203.426C90.8026 203.893 90.0326 204.126 89.1086 204.126C88.3806 204.126 87.7319 203.963 87.1626 203.636C86.6026 203.309 86.1639 202.847 85.8466 202.25C85.5292 201.653 85.3706 200.953 85.3706 200.15ZM95.0085 195.082C94.7658 195.082 94.5605 194.998 94.3925 194.83C94.2245 194.662 94.1405 194.457 94.1405 194.214C94.1405 193.971 94.2245 193.766 94.3925 193.598C94.5605 193.43 94.7658 193.346 95.0085 193.346C95.2418 193.346 95.4378 193.43 95.5965 193.598C95.7645 193.766 95.8485 193.971 95.8485 194.214C95.8485 194.457 95.7645 194.662 95.5965 194.83C95.4378 194.998 95.2418 195.082 95.0085 195.082ZM95.6245 196.328V204H94.3505V196.328H95.6245ZM104.796 199.87C104.796 200.113 104.782 200.369 104.754 200.64H98.6218C98.6684 201.396 98.9251 201.989 99.3918 202.418C99.8678 202.838 100.442 203.048 101.114 203.048C101.664 203.048 102.122 202.922 102.486 202.67C102.859 202.409 103.12 202.063 103.27 201.634H104.642C104.436 202.371 104.026 202.973 103.41 203.44C102.794 203.897 102.028 204.126 101.114 204.126C100.386 204.126 99.7324 203.963 99.1538 203.636C98.5844 203.309 98.1364 202.847 97.8098 202.25C97.4831 201.643 97.3198 200.943 97.3198 200.15C97.3198 199.357 97.4784 198.661 97.7958 198.064C98.1131 197.467 98.5564 197.009 99.1258 196.692C99.7044 196.365 100.367 196.202 101.114 196.202C101.842 196.202 102.486 196.361 103.046 196.678C103.606 196.995 104.035 197.434 104.334 197.994C104.642 198.545 104.796 199.17 104.796 199.87ZM103.48 199.604C103.48 199.119 103.372 198.703 103.158 198.358C102.943 198.003 102.649 197.737 102.276 197.56C101.912 197.373 101.506 197.28 101.058 197.28C100.414 197.28 99.8631 197.485 99.4058 197.896C98.9578 198.307 98.7011 198.876 98.6358 199.604H103.48ZM109.193 204.126C108.605 204.126 108.078 204.028 107.611 203.832C107.145 203.627 106.776 203.347 106.505 202.992C106.235 202.628 106.085 202.213 106.057 201.746H107.373C107.411 202.129 107.588 202.441 107.905 202.684C108.232 202.927 108.657 203.048 109.179 203.048C109.665 203.048 110.047 202.941 110.327 202.726C110.607 202.511 110.747 202.241 110.747 201.914C110.747 201.578 110.598 201.331 110.299 201.172C110.001 201.004 109.539 200.841 108.913 200.682C108.344 200.533 107.877 200.383 107.513 200.234C107.159 200.075 106.851 199.847 106.589 199.548C106.337 199.24 106.211 198.839 106.211 198.344C106.211 197.952 106.328 197.593 106.561 197.266C106.795 196.939 107.126 196.683 107.555 196.496C107.985 196.3 108.475 196.202 109.025 196.202C109.875 196.202 110.561 196.417 111.083 196.846C111.606 197.275 111.886 197.863 111.923 198.61H110.649C110.621 198.209 110.458 197.887 110.159 197.644C109.87 197.401 109.478 197.28 108.983 197.28C108.526 197.28 108.162 197.378 107.891 197.574C107.621 197.77 107.485 198.027 107.485 198.344C107.485 198.596 107.565 198.806 107.723 198.974C107.891 199.133 108.097 199.263 108.339 199.366C108.591 199.459 108.937 199.567 109.375 199.688C109.926 199.837 110.374 199.987 110.719 200.136C111.065 200.276 111.359 200.491 111.601 200.78C111.853 201.069 111.984 201.447 111.993 201.914C111.993 202.334 111.877 202.712 111.643 203.048C111.41 203.384 111.079 203.65 110.649 203.846C110.229 204.033 109.744 204.126 109.193 204.126ZM117.048 200.136C117.048 199.352 117.207 198.666 117.524 198.078C117.842 197.481 118.276 197.019 118.826 196.692C119.386 196.365 120.007 196.202 120.688 196.202C121.36 196.202 121.944 196.347 122.438 196.636C122.933 196.925 123.302 197.289 123.544 197.728V196.328H124.832V204H123.544V202.572C123.292 203.02 122.914 203.393 122.41 203.692C121.916 203.981 121.337 204.126 120.674 204.126C119.993 204.126 119.377 203.958 118.826 203.622C118.276 203.286 117.842 202.815 117.524 202.208C117.207 201.601 117.048 200.911 117.048 200.136ZM123.544 200.15C123.544 199.571 123.428 199.067 123.194 198.638C122.961 198.209 122.644 197.882 122.242 197.658C121.85 197.425 121.416 197.308 120.94 197.308C120.464 197.308 120.03 197.42 119.638 197.644C119.246 197.868 118.934 198.195 118.7 198.624C118.467 199.053 118.35 199.557 118.35 200.136C118.35 200.724 118.467 201.237 118.7 201.676C118.934 202.105 119.246 202.437 119.638 202.67C120.03 202.894 120.464 203.006 120.94 203.006C121.416 203.006 121.85 202.894 122.242 202.67C122.644 202.437 122.961 202.105 123.194 201.676C123.428 201.237 123.544 200.729 123.544 200.15ZM130.723 196.188C131.657 196.188 132.413 196.473 132.991 197.042C133.57 197.602 133.859 198.414 133.859 199.478V204H132.599V199.66C132.599 198.895 132.408 198.311 132.025 197.91C131.643 197.499 131.12 197.294 130.457 197.294C129.785 197.294 129.249 197.504 128.847 197.924C128.455 198.344 128.259 198.955 128.259 199.758V204H126.985V196.328H128.259V197.42C128.511 197.028 128.852 196.725 129.281 196.51C129.72 196.295 130.201 196.188 130.723 196.188ZM135.464 200.136C135.464 199.352 135.623 198.666 135.94 198.078C136.258 197.481 136.692 197.019 137.242 196.692C137.802 196.365 138.428 196.202 139.118 196.202C139.716 196.202 140.271 196.342 140.784 196.622C141.298 196.893 141.69 197.252 141.96 197.7V193.64H143.248V204H141.96V202.558C141.708 203.015 141.335 203.393 140.84 203.692C140.346 203.981 139.767 204.126 139.104 204.126C138.423 204.126 137.802 203.958 137.242 203.622C136.692 203.286 136.258 202.815 135.94 202.208C135.623 201.601 135.464 200.911 135.464 200.136ZM141.96 200.15C141.96 199.571 141.844 199.067 141.61 198.638C141.377 198.209 141.06 197.882 140.658 197.658C140.266 197.425 139.832 197.308 139.356 197.308C138.88 197.308 138.446 197.42 138.054 197.644C137.662 197.868 137.35 198.195 137.116 198.624C136.883 199.053 136.766 199.557 136.766 200.136C136.766 200.724 136.883 201.237 137.116 201.676C137.35 202.105 137.662 202.437 138.054 202.67C138.446 202.894 138.88 203.006 139.356 203.006C139.832 203.006 140.266 202.894 140.658 202.67C141.06 202.437 141.377 202.105 141.61 201.676C141.844 201.237 141.96 200.729 141.96 200.15ZM148.658 200.136C148.658 199.352 148.816 198.666 149.134 198.078C149.451 197.481 149.885 197.019 150.436 196.692C150.996 196.365 151.621 196.202 152.312 196.202C152.909 196.202 153.464 196.342 153.978 196.622C154.491 196.893 154.883 197.252 155.154 197.7V193.64H156.442V204H155.154V202.558C154.902 203.015 154.528 203.393 154.034 203.692C153.539 203.981 152.96 204.126 152.298 204.126C151.616 204.126 150.996 203.958 150.436 203.622C149.885 203.286 149.451 202.815 149.134 202.208C148.816 201.601 148.658 200.911 148.658 200.136ZM155.154 200.15C155.154 199.571 155.037 199.067 154.804 198.638C154.57 198.209 154.253 197.882 153.852 197.658C153.46 197.425 153.026 197.308 152.55 197.308C152.074 197.308 151.64 197.42 151.248 197.644C150.856 197.868 150.543 198.195 150.31 198.624C150.076 199.053 149.96 199.557 149.96 200.136C149.96 200.724 150.076 201.237 150.31 201.676C150.543 202.105 150.856 202.437 151.248 202.67C151.64 202.894 152.074 203.006 152.55 203.006C153.026 203.006 153.46 202.894 153.852 202.67C154.253 202.437 154.57 202.105 154.804 201.676C155.037 201.237 155.154 200.729 155.154 200.15ZM158.119 200.136C158.119 199.352 158.277 198.666 158.595 198.078C158.912 197.481 159.346 197.019 159.897 196.692C160.457 196.365 161.077 196.202 161.759 196.202C162.431 196.202 163.014 196.347 163.509 196.636C164.003 196.925 164.372 197.289 164.615 197.728V196.328H165.903V204H164.615V202.572C164.363 203.02 163.985 203.393 163.481 203.692C162.986 203.981 162.407 204.126 161.745 204.126C161.063 204.126 160.447 203.958 159.897 203.622C159.346 203.286 158.912 202.815 158.595 202.208C158.277 201.601 158.119 200.911 158.119 200.136ZM164.615 200.15C164.615 199.571 164.498 199.067 164.265 198.638C164.031 198.209 163.714 197.882 163.313 197.658C162.921 197.425 162.487 197.308 162.011 197.308C161.535 197.308 161.101 197.42 160.709 197.644C160.317 197.868 160.004 198.195 159.771 198.624C159.537 199.053 159.421 199.557 159.421 200.136C159.421 200.724 159.537 201.237 159.771 201.676C160.004 202.105 160.317 202.437 160.709 202.67C161.101 202.894 161.535 203.006 162.011 203.006C162.487 203.006 162.921 202.894 163.313 202.67C163.714 202.437 164.031 202.105 164.265 201.676C164.498 201.237 164.615 200.729 164.615 200.15ZM169.61 197.378V201.9C169.61 202.273 169.689 202.539 169.848 202.698C170.006 202.847 170.282 202.922 170.674 202.922H171.612V204H170.464C169.754 204 169.222 203.837 168.868 203.51C168.513 203.183 168.336 202.647 168.336 201.9V197.378H167.342V196.328H168.336V194.396H169.61V196.328H171.612V197.378H169.61ZM172.679 200.136C172.679 199.352 172.838 198.666 173.155 198.078C173.472 197.481 173.906 197.019 174.457 196.692C175.017 196.365 175.638 196.202 176.319 196.202C176.991 196.202 177.574 196.347 178.069 196.636C178.564 196.925 178.932 197.289 179.175 197.728V196.328H180.463V204H179.175V202.572C178.923 203.02 178.545 203.393 178.041 203.692C177.546 203.981 176.968 204.126 176.305 204.126C175.624 204.126 175.008 203.958 174.457 203.622C173.906 203.286 173.472 202.815 173.155 202.208C172.838 201.601 172.679 200.911 172.679 200.136ZM179.175 200.15C179.175 199.571 179.058 199.067 178.825 198.638C178.592 198.209 178.274 197.882 177.873 197.658C177.481 197.425 177.047 197.308 176.571 197.308C176.095 197.308 175.661 197.42 175.269 197.644C174.877 197.868 174.564 198.195 174.331 198.624C174.098 199.053 173.981 199.557 173.981 200.136C173.981 200.724 174.098 201.237 174.331 201.676C174.564 202.105 174.877 202.437 175.269 202.67C175.661 202.894 176.095 203.006 176.571 203.006C177.047 203.006 177.481 202.894 177.873 202.67C178.274 202.437 178.592 202.105 178.825 201.676C179.058 201.237 179.175 200.729 179.175 200.15Z" fill="black"/>
</g>
<defs>
<filter id="filter0_dii_1604_3280" x="-51.5" y="-54" width="344" height="384" filterUnits="userSpaceOnUse" color-interpolation-filters="sRGB">
<feFlood flood-opacity="0" result="BackgroundImageFix"/>
<feColorMatrix in="SourceAlpha" type="matrix" values="0 0 0 0 0 0 0 0 0 0 0 0 0 0 0 0 0 0 127 0" result="hardAlpha"/>
<feOffset dy="2"/>
<feGaussianBlur stdDeviation="10"/>
<feComposite in2="hardAlpha" operator="out"/>
<feColorMatrix type="matrix" values="0 0 0 0 0 0 0 0 0 0 0 0 0 0 0 0 0 0 0.02 0"/>
<feBlend mode="normal" in2="BackgroundImageFix" result="effect1_dropShadow_1604_3280"/>
<feBlend mode="normal" in="SourceGraphic" in2="effect1_dropShadow_1604_3280" result="shape"/>
<feColorMatrix in="SourceAlpha" type="matrix" values="0 0 0 0 0 0 0 0 0 0 0 0 0 0 0 0 0 0 127 0" result="hardAlpha"/>
<feOffset/>
<feGaussianBlur stdDeviation="2"/>
<feComposite in2="hardAlpha" operator="arithmetic" k2="-1" k3="1"/>
<feColorMatrix type="matrix" values="0 0 0 0 0.999662 0 0 0 0 0.999662 0 0 0 0 0.999662 0 0 0 0.24 0"/>
<feBlend mode="normal" in2="shape" result="effect2_innerShadow_1604_3280"/>
<feColorMatrix in="SourceAlpha" type="matrix" values="0 0 0 0 0 0 0 0 0 0 0 0 0 0 0 0 0 0 127 0" result="hardAlpha"/>
<feMorphology radius="2" operator="dilate" in="SourceAlpha" result="effect3_innerShadow_1604_3280"/>
<feOffset dx="-1" dy="-1"/>
<feGaussianBlur stdDeviation="2"/>
<feComposite in2="hardAlpha" operator="arithmetic" k2="-1" k3="1"/>
<feColorMatrix type="matrix" values="0 0 0 0 1 0 0 0 0 1 0 0 0 0 1 0 0 0 0.5 0"/>
<feBlend mode="normal" in2="effect2_innerShadow_1604_3280" result="effect3_innerShadow_1604_3280"/>
</filter>
</defs>
</svg>
