<svg width="316" height="329" viewBox="0 0 316 329" fill="none" xmlns="http://www.w3.org/2000/svg">
<g filter="url(#filter0_dii_1604_3317)">
<rect x="20.6665" y="18.5" width="274.667" height="288" rx="20" fill="white" fill-opacity="0.3" shape-rendering="crispEdges"/>
<path d="M51.0884 55.6836H48.8149C48.4946 55.6836 48.2212 55.5703 47.9946 55.3438C47.7681 55.1094 47.6548 54.832 47.6548 54.5117C47.6548 54.1992 47.7681 53.9258 47.9946 53.6914C48.2212 53.457 48.4946 53.3398 48.8149 53.3398H51.0884C51.4009 53.3398 51.6743 53.457 51.9087 53.6914C52.1509 53.918 52.272 54.1914 52.272 54.5117C52.272 54.832 52.1509 55.1094 51.9087 55.3438C51.6743 55.5703 51.4009 55.6836 51.0884 55.6836ZM53.4321 47.6094L51.8267 46.0039C51.6001 45.7773 51.4868 45.5039 51.4868 45.1836C51.4868 44.8633 51.6001 44.5859 51.8267 44.3516C52.061 44.125 52.3384 44.0117 52.6587 44.0117C52.9868 44.0117 53.2603 44.125 53.479 44.3516L55.0728 45.9688C55.2993 46.1953 55.4126 46.4688 55.4126 46.7891C55.4204 47.1094 55.3071 47.3828 55.0728 47.6094C54.8462 47.8438 54.5728 47.9609 54.2524 47.9609C53.9321 47.9531 53.6587 47.8359 53.4321 47.6094ZM60.8149 43.625V41.3516C60.8149 41.0391 60.9282 40.7656 61.1548 40.5312C61.3892 40.2969 61.6665 40.1797 61.9868 40.1797C62.3071 40.1797 62.5845 40.2969 62.8188 40.5312C63.0532 40.7656 63.1704 41.0391 63.1704 41.3516V43.625C63.1704 43.9375 63.0532 44.2109 62.8188 44.4453C62.5923 44.6797 62.3149 44.7969 61.9868 44.7969C61.6665 44.7969 61.3892 44.6797 61.1548 44.4453C60.9282 44.2109 60.8149 43.9375 60.8149 43.625ZM68.8892 45.9688L70.5063 44.3516C70.7329 44.125 71.0024 44.0117 71.3149 44.0117C71.6353 44.0117 71.9126 44.125 72.147 44.3516C72.3735 44.5859 72.4868 44.8633 72.4868 45.1836C72.4868 45.5039 72.3735 45.7773 72.147 46.0039L70.5298 47.6094C70.311 47.8438 70.0415 47.9609 69.7212 47.9609C69.4009 47.9609 69.1235 47.8438 68.8892 47.6094C68.6548 47.3828 68.5376 47.1094 68.5376 46.7891C68.5454 46.4688 68.6626 46.1953 68.8892 45.9688ZM75.1353 55.6836H72.8735C72.5532 55.6836 72.2759 55.5703 72.0415 55.3438C71.8149 55.1094 71.7017 54.832 71.7017 54.5117C71.7017 54.1914 71.8149 53.918 72.0415 53.6914C72.2759 53.457 72.5532 53.3398 72.8735 53.3398H75.1353C75.4556 53.3398 75.7329 53.457 75.9673 53.6914C76.2017 53.9258 76.3188 54.1992 76.3188 54.5117C76.3188 54.832 76.2017 55.1094 75.9673 55.3438C75.7329 55.5703 75.4556 55.6836 75.1353 55.6836ZM61.9868 46.8359C63.0259 46.8359 63.9985 47.0156 64.9048 47.375C65.8188 47.7266 66.6196 48.2148 67.3071 48.8398C67.9946 49.4648 68.5298 50.1992 68.9126 51.043C69.2954 51.8867 69.4868 52.7969 69.4868 53.7734C69.4868 54.6094 69.4009 55.3555 69.229 56.0117C69.0649 56.668 68.8462 57.3086 68.5728 57.9336C68.3071 58.5586 68.0259 59.2422 67.729 59.9844C67.4399 60.7266 67.1704 61.6016 66.9204 62.6094C66.6704 63.6094 66.479 64.8242 66.3462 66.2539C66.3228 66.5195 66.2329 66.7305 66.0767 66.8867C65.9204 67.043 65.7017 67.1211 65.4204 67.1211H58.5532C58.272 67.1211 58.0532 67.043 57.897 66.8867C57.7407 66.7305 57.6509 66.5195 57.6274 66.2539C57.4946 64.8242 57.3032 63.6094 57.0532 62.6094C56.8032 61.6016 56.5298 60.7266 56.2329 59.9844C55.9438 59.2422 55.6665 58.5586 55.4009 57.9336C55.1353 57.3086 54.9165 56.668 54.7446 56.0117C54.5806 55.3555 54.4985 54.6094 54.4985 53.7734C54.4985 52.7969 54.6899 51.8867 55.0728 51.043C55.4556 50.1992 55.9868 49.4648 56.6665 48.8398C57.354 48.207 58.1509 47.7148 59.0571 47.3633C59.9634 47.0117 60.9399 46.8359 61.9868 46.8359ZM61.9868 48.8516C61.2368 48.8516 60.5298 48.9727 59.8657 49.2148C59.2095 49.457 58.6274 49.7969 58.1196 50.2344C57.6196 50.6719 57.2251 51.1914 56.936 51.793C56.647 52.3945 56.5024 53.0547 56.5024 53.7734C56.5024 54.3672 56.5728 54.9023 56.7134 55.3789C56.854 55.8555 57.0376 56.3516 57.2642 56.8672C57.4985 57.375 57.7485 57.9805 58.0142 58.6836C58.2798 59.3789 58.5376 60.2422 58.7876 61.2734C59.0454 62.3047 59.272 63.5859 59.4673 65.1172H64.5063C64.7017 63.5859 64.9243 62.3047 65.1743 61.2734C65.4321 60.2422 65.6938 59.3789 65.9595 58.6836C66.2329 57.9805 66.4829 57.375 66.7095 56.8672C66.9438 56.3516 67.1274 55.8555 67.2603 55.3789C67.4009 54.9023 67.4712 54.3672 67.4712 53.7734C67.4712 53.0547 67.3267 52.3945 67.0376 51.793C66.7563 51.1914 66.3618 50.6719 65.854 50.2344C65.3462 49.7969 64.7603 49.457 64.0962 49.2148C63.4321 48.9727 62.729 48.8516 61.9868 48.8516ZM58.4712 69.6758C58.2603 69.6758 58.0845 69.6055 57.9438 69.4648C57.8032 69.3164 57.7329 69.1406 57.7329 68.9375C57.7329 68.7266 57.8032 68.5508 57.9438 68.4102C58.0845 68.2695 58.2603 68.1992 58.4712 68.1992H65.5024C65.7134 68.1992 65.8892 68.2695 66.0298 68.4102C66.1782 68.5508 66.2524 68.7266 66.2524 68.9375C66.2524 69.1406 66.1782 69.3164 66.0298 69.4648C65.8892 69.6055 65.7134 69.6758 65.5024 69.6758H58.4712ZM61.9868 72.957C61.0962 72.957 60.3306 72.7539 59.6899 72.3477C59.0571 71.9414 58.7212 71.4102 58.6821 70.7539H65.2798C65.2407 71.4102 64.9009 71.9414 64.2603 72.3477C63.6274 72.7539 62.8696 72.957 61.9868 72.957Z" fill="black"/>
<path d="M45.4065 105.52C45.4065 104.16 45.7198 102.94 46.3465 101.86C46.9865 100.78 47.8465 99.94 48.9265 99.34C50.0198 98.7267 51.2132 98.42 52.5065 98.42C53.9865 98.42 55.2998 98.7867 56.4465 99.52C57.6065 100.24 58.4465 101.267 58.9665 102.6H56.2265C55.8665 101.867 55.3665 101.32 54.7265 100.96C54.0865 100.6 53.3465 100.42 52.5065 100.42C51.5865 100.42 50.7665 100.627 50.0465 101.04C49.3265 101.453 48.7598 102.047 48.3465 102.82C47.9465 103.593 47.7465 104.493 47.7465 105.52C47.7465 106.547 47.9465 107.447 48.3465 108.22C48.7598 108.993 49.3265 109.593 50.0465 110.02C50.7665 110.433 51.5865 110.64 52.5065 110.64C53.3465 110.64 54.0865 110.46 54.7265 110.1C55.3665 109.74 55.8665 109.193 56.2265 108.46H58.9665C58.4465 109.793 57.6065 110.82 56.4465 111.54C55.2998 112.26 53.9865 112.62 52.5065 112.62C51.1998 112.62 50.0065 112.32 48.9265 111.72C47.8465 111.107 46.9865 110.26 46.3465 109.18C45.7198 108.1 45.4065 106.88 45.4065 105.52ZM63.9153 103.08C64.2486 102.52 64.6886 102.087 65.2353 101.78C65.7953 101.46 66.4553 101.3 67.2153 101.3V103.66H66.6353C65.7419 103.66 65.0619 103.887 64.5953 104.34C64.1419 104.793 63.9153 105.58 63.9153 106.7V112.5H61.6353V101.48H63.9153V103.08ZM70.471 100.02C70.0577 100.02 69.711 99.88 69.431 99.6C69.151 99.32 69.011 98.9733 69.011 98.56C69.011 98.1467 69.151 97.8 69.431 97.52C69.711 97.24 70.0577 97.1 70.471 97.1C70.871 97.1 71.211 97.24 71.491 97.52C71.771 97.8 71.911 98.1467 71.911 98.56C71.911 98.9733 71.771 99.32 71.491 99.6C71.211 99.88 70.871 100.02 70.471 100.02ZM71.591 101.48V112.5H69.311V101.48H71.591ZM78.5845 112.68C77.7178 112.68 76.9378 112.527 76.2445 112.22C75.5645 111.9 75.0245 111.473 74.6245 110.94C74.2245 110.393 74.0111 109.787 73.9845 109.12H76.3445C76.3845 109.587 76.6045 109.98 77.0045 110.3C77.4178 110.607 77.9311 110.76 78.5445 110.76C79.1845 110.76 79.6778 110.64 80.0245 110.4C80.3845 110.147 80.5645 109.827 80.5645 109.44C80.5645 109.027 80.3645 108.72 79.9645 108.52C79.5778 108.32 78.9578 108.1 78.1045 107.86C77.2778 107.633 76.6045 107.413 76.0845 107.2C75.5645 106.987 75.1111 106.66 74.7245 106.22C74.3511 105.78 74.1645 105.2 74.1645 104.48C74.1645 103.893 74.3378 103.36 74.6845 102.88C75.0311 102.387 75.5245 102 76.1645 101.72C76.8178 101.44 77.5645 101.3 78.4045 101.3C79.6578 101.3 80.6645 101.62 81.4245 102.26C82.1978 102.887 82.6111 103.747 82.6645 104.84H80.3845C80.3445 104.347 80.1445 103.953 79.7845 103.66C79.4245 103.367 78.9378 103.22 78.3245 103.22C77.7245 103.22 77.2645 103.333 76.9445 103.56C76.6245 103.787 76.4645 104.087 76.4645 104.46C76.4645 104.753 76.5711 105 76.7845 105.2C76.9978 105.4 77.2578 105.56 77.5645 105.68C77.8711 105.787 78.3245 105.927 78.9245 106.1C79.7245 106.313 80.3778 106.533 80.8845 106.76C81.4045 106.973 81.8511 107.293 82.2245 107.72C82.5978 108.147 82.7911 108.713 82.8045 109.42C82.8045 110.047 82.6311 110.607 82.2845 111.1C81.9378 111.593 81.4445 111.98 80.8045 112.26C80.1778 112.54 79.4378 112.68 78.5845 112.68ZM86.4281 100.02C86.0147 100.02 85.6681 99.88 85.3881 99.6C85.1081 99.32 84.9681 98.9733 84.9681 98.56C84.9681 98.1467 85.1081 97.8 85.3881 97.52C85.6681 97.24 86.0147 97.1 86.4281 97.1C86.8281 97.1 87.1681 97.24 87.4481 97.52C87.7281 97.8 87.8681 98.1467 87.8681 98.56C87.8681 98.9733 87.7281 99.32 87.4481 99.6C87.1681 99.88 86.8281 100.02 86.4281 100.02ZM87.5481 101.48V112.5H85.2681V101.48H87.5481ZM94.5415 112.68C93.6748 112.68 92.8948 112.527 92.2015 112.22C91.5215 111.9 90.9815 111.473 90.5815 110.94C90.1815 110.393 89.9682 109.787 89.9415 109.12H92.3015C92.3415 109.587 92.5615 109.98 92.9615 110.3C93.3748 110.607 93.8882 110.76 94.5015 110.76C95.1415 110.76 95.6348 110.64 95.9815 110.4C96.3415 110.147 96.5215 109.827 96.5215 109.44C96.5215 109.027 96.3215 108.72 95.9215 108.52C95.5348 108.32 94.9148 108.1 94.0615 107.86C93.2348 107.633 92.5615 107.413 92.0415 107.2C91.5215 106.987 91.0682 106.66 90.6815 106.22C90.3082 105.78 90.1215 105.2 90.1215 104.48C90.1215 103.893 90.2948 103.36 90.6415 102.88C90.9882 102.387 91.4815 102 92.1215 101.72C92.7748 101.44 93.5215 101.3 94.3615 101.3C95.6148 101.3 96.6215 101.62 97.3815 102.26C98.1548 102.887 98.5682 103.747 98.6215 104.84H96.3415C96.3015 104.347 96.1015 103.953 95.7415 103.66C95.3815 103.367 94.8948 103.22 94.2815 103.22C93.6815 103.22 93.2215 103.333 92.9015 103.56C92.5815 103.787 92.4215 104.087 92.4215 104.46C92.4215 104.753 92.5282 105 92.7415 105.2C92.9548 105.4 93.2148 105.56 93.5215 105.68C93.8282 105.787 94.2815 105.927 94.8815 106.1C95.6815 106.313 96.3348 106.533 96.8415 106.76C97.3615 106.973 97.8082 107.293 98.1815 107.72C98.5548 108.147 98.7482 108.713 98.7615 109.42C98.7615 110.047 98.5882 110.607 98.2415 111.1C97.8948 111.593 97.4015 111.98 96.7615 112.26C96.1348 112.54 95.3948 112.68 94.5415 112.68Z" fill="black"/>
<path d="M52.7625 145.348V146.532H49.7225V156.5H48.2665V146.532H45.2105V145.348H52.7625ZM62.5548 151.78C62.5548 152.057 62.5388 152.351 62.5068 152.66H55.4988C55.5521 153.524 55.8454 154.201 56.3788 154.692C56.9228 155.172 57.5788 155.412 58.3468 155.412C58.9761 155.412 59.4988 155.268 59.9148 154.98C60.3414 154.681 60.6401 154.287 60.8108 153.796H62.3788C62.1441 154.639 61.6748 155.327 60.9708 155.86C60.2668 156.383 59.3921 156.644 58.3468 156.644C57.5148 156.644 56.7681 156.457 56.1068 156.084C55.4561 155.711 54.9441 155.183 54.5708 154.5C54.1974 153.807 54.0108 153.007 54.0108 152.1C54.0108 151.193 54.1921 150.399 54.5548 149.716C54.9174 149.033 55.4241 148.511 56.0748 148.148C56.7361 147.775 57.4934 147.588 58.3468 147.588C59.1788 147.588 59.9148 147.769 60.5548 148.132C61.1948 148.495 61.6854 148.996 62.0268 149.636C62.3788 150.265 62.5548 150.98 62.5548 151.78ZM61.0508 151.476C61.0508 150.921 60.9281 150.447 60.6828 150.052C60.4374 149.647 60.1014 149.343 59.6748 149.14C59.2588 148.927 58.7948 148.82 58.2828 148.82C57.5468 148.82 56.9174 149.055 56.3948 149.524C55.8828 149.993 55.5894 150.644 55.5148 151.476H61.0508ZM65.9326 144.66V156.5H64.4766V144.66H65.9326ZM69.8701 144.66V156.5H68.4141V144.66H69.8701ZM84.3933 147.732V156.5H82.9373V155.204C82.6599 155.652 82.2706 156.004 81.7693 156.26C81.2786 156.505 80.7346 156.628 80.1373 156.628C79.4546 156.628 78.8413 156.489 78.2973 156.212C77.7533 155.924 77.3213 155.497 77.0013 154.932C76.6919 154.367 76.5373 153.679 76.5373 152.868V147.732H77.9773V152.676C77.9773 153.54 78.1959 154.207 78.6333 154.676C79.0706 155.135 79.6679 155.364 80.4253 155.364C81.2039 155.364 81.8173 155.124 82.2653 154.644C82.7133 154.164 82.9373 153.465 82.9373 152.548V147.732H84.3933ZM89.9556 156.644C89.2836 156.644 88.681 156.532 88.1476 156.308C87.6143 156.073 87.193 155.753 86.8836 155.348C86.5743 154.932 86.4036 154.457 86.3716 153.924H87.8756C87.9183 154.361 88.121 154.719 88.4836 154.996C88.857 155.273 89.3423 155.412 89.9396 155.412C90.4943 155.412 90.9316 155.289 91.2516 155.044C91.5716 154.799 91.7316 154.489 91.7316 154.116C91.7316 153.732 91.561 153.449 91.2196 153.268C90.8783 153.076 90.3503 152.889 89.6356 152.708C88.985 152.537 88.4516 152.367 88.0356 152.196C87.6303 152.015 87.2783 151.753 86.9796 151.412C86.6916 151.06 86.5476 150.601 86.5476 150.036C86.5476 149.588 86.681 149.177 86.9476 148.804C87.2143 148.431 87.593 148.137 88.0836 147.924C88.5743 147.7 89.1343 147.588 89.7636 147.588C90.7343 147.588 91.5183 147.833 92.1156 148.324C92.713 148.815 93.033 149.487 93.0756 150.34H91.6196C91.5876 149.881 91.401 149.513 91.0596 149.236C90.729 148.959 90.281 148.82 89.7156 148.82C89.193 148.82 88.777 148.932 88.4676 149.156C88.1583 149.38 88.0036 149.673 88.0036 150.036C88.0036 150.324 88.0943 150.564 88.2756 150.756C88.4676 150.937 88.7023 151.087 88.9796 151.204C89.2676 151.311 89.6623 151.433 90.1636 151.572C90.793 151.743 91.305 151.913 91.6996 152.084C92.0943 152.244 92.4303 152.489 92.7076 152.82C92.9956 153.151 93.145 153.583 93.1556 154.116C93.1556 154.596 93.0223 155.028 92.7556 155.412C92.489 155.796 92.1103 156.1 91.6196 156.324C91.1396 156.537 90.585 156.644 89.9556 156.644ZM111.157 147.732L108.421 156.5H106.917L104.805 149.54L102.693 156.5H101.189L98.4366 147.732H99.9246L101.941 155.092L104.117 147.732H105.605L107.733 155.108L109.717 147.732H111.157ZM116.954 147.572C117.615 147.572 118.212 147.716 118.746 148.004C119.279 148.281 119.695 148.703 119.994 149.268C120.303 149.833 120.458 150.521 120.458 151.332V156.5H119.018V151.54C119.018 150.665 118.799 149.999 118.362 149.54C117.924 149.071 117.327 148.836 116.57 148.836C115.802 148.836 115.188 149.076 114.73 149.556C114.282 150.036 114.058 150.735 114.058 151.652V156.5H112.602V144.66H114.058V148.98C114.346 148.532 114.74 148.185 115.242 147.94C115.754 147.695 116.324 147.572 116.954 147.572ZM122.292 152.084C122.292 151.188 122.473 150.404 122.836 149.732C123.199 149.049 123.695 148.521 124.324 148.148C124.964 147.775 125.673 147.588 126.452 147.588C127.22 147.588 127.887 147.753 128.452 148.084C129.017 148.415 129.439 148.831 129.716 149.332V147.732H131.188V156.5H129.716V154.868C129.428 155.38 128.996 155.807 128.42 156.148C127.855 156.479 127.193 156.644 126.436 156.644C125.657 156.644 124.953 156.452 124.324 156.068C123.695 155.684 123.199 155.145 122.836 154.452C122.473 153.759 122.292 152.969 122.292 152.084ZM129.716 152.1C129.716 151.439 129.583 150.863 129.316 150.372C129.049 149.881 128.687 149.508 128.228 149.252C127.78 148.985 127.284 148.852 126.74 148.852C126.196 148.852 125.7 148.98 125.252 149.236C124.804 149.492 124.447 149.865 124.18 150.356C123.913 150.847 123.78 151.423 123.78 152.084C123.78 152.756 123.913 153.343 124.18 153.844C124.447 154.335 124.804 154.713 125.252 154.98C125.7 155.236 126.196 155.364 126.74 155.364C127.284 155.364 127.78 155.236 128.228 154.98C128.687 154.713 129.049 154.335 129.316 153.844C129.583 153.343 129.716 152.761 129.716 152.1ZM135.425 148.932V154.1C135.425 154.527 135.515 154.831 135.697 155.012C135.878 155.183 136.193 155.268 136.641 155.268H137.713V156.5H136.401C135.59 156.5 134.982 156.313 134.577 155.94C134.171 155.567 133.969 154.953 133.969 154.1V148.932H132.833V147.732H133.969V145.524H135.425V147.732H137.713V148.932H135.425ZM143.198 152.1C143.198 151.193 143.38 150.404 143.742 149.732C144.105 149.049 144.606 148.521 145.246 148.148C145.897 147.775 146.638 147.588 147.47 147.588C148.548 147.588 149.433 147.849 150.126 148.372C150.83 148.895 151.294 149.62 151.518 150.548H149.95C149.801 150.015 149.508 149.593 149.07 149.284C148.644 148.975 148.11 148.82 147.47 148.82C146.638 148.82 145.966 149.108 145.454 149.684C144.942 150.249 144.686 151.055 144.686 152.1C144.686 153.156 144.942 153.972 145.454 154.548C145.966 155.124 146.638 155.412 147.47 155.412C148.11 155.412 148.644 155.263 149.07 154.964C149.497 154.665 149.79 154.239 149.95 153.684H151.518C151.284 154.58 150.814 155.3 150.11 155.844C149.406 156.377 148.526 156.644 147.47 156.644C146.638 156.644 145.897 156.457 145.246 156.084C144.606 155.711 144.105 155.183 143.742 154.5C143.38 153.817 143.198 153.017 143.198 152.1ZM154.917 149.156C155.173 148.655 155.536 148.265 156.005 147.988C156.485 147.711 157.066 147.572 157.749 147.572V149.076H157.365C155.733 149.076 154.917 149.961 154.917 151.732V156.5H153.461V147.732H154.917V149.156ZM160.182 146.308C159.904 146.308 159.67 146.212 159.478 146.02C159.286 145.828 159.19 145.593 159.19 145.316C159.19 145.039 159.286 144.804 159.478 144.612C159.67 144.42 159.904 144.324 160.182 144.324C160.448 144.324 160.672 144.42 160.854 144.612C161.046 144.804 161.142 145.039 161.142 145.316C161.142 145.593 161.046 145.828 160.854 146.02C160.672 146.212 160.448 146.308 160.182 146.308ZM160.886 147.732V156.5H159.43V147.732H160.886ZM166.471 156.644C165.799 156.644 165.197 156.532 164.663 156.308C164.13 156.073 163.709 155.753 163.399 155.348C163.09 154.932 162.919 154.457 162.887 153.924H164.391C164.434 154.361 164.637 154.719 164.999 154.996C165.373 155.273 165.858 155.412 166.455 155.412C167.01 155.412 167.447 155.289 167.767 155.044C168.087 154.799 168.247 154.489 168.247 154.116C168.247 153.732 168.077 153.449 167.735 153.268C167.394 153.076 166.866 152.889 166.151 152.708C165.501 152.537 164.967 152.367 164.551 152.196C164.146 152.015 163.794 151.753 163.495 151.412C163.207 151.06 163.063 150.601 163.063 150.036C163.063 149.588 163.197 149.177 163.463 148.804C163.73 148.431 164.109 148.137 164.599 147.924C165.09 147.7 165.65 147.588 166.279 147.588C167.25 147.588 168.034 147.833 168.631 148.324C169.229 148.815 169.549 149.487 169.591 150.34H168.135C168.103 149.881 167.917 149.513 167.575 149.236C167.245 148.959 166.797 148.82 166.231 148.82C165.709 148.82 165.293 148.932 164.983 149.156C164.674 149.38 164.519 149.673 164.519 150.036C164.519 150.324 164.61 150.564 164.791 150.756C164.983 150.937 165.218 151.087 165.495 151.204C165.783 151.311 166.178 151.433 166.679 151.572C167.309 151.743 167.821 151.913 168.215 152.084C168.61 152.244 168.946 152.489 169.223 152.82C169.511 153.151 169.661 153.583 169.671 154.116C169.671 154.596 169.538 155.028 169.271 155.412C169.005 155.796 168.626 156.1 168.135 156.324C167.655 156.537 167.101 156.644 166.471 156.644ZM172.479 146.308C172.201 146.308 171.967 146.212 171.775 146.02C171.583 145.828 171.487 145.593 171.487 145.316C171.487 145.039 171.583 144.804 171.775 144.612C171.967 144.42 172.201 144.324 172.479 144.324C172.745 144.324 172.969 144.42 173.151 144.612C173.343 144.804 173.439 145.039 173.439 145.316C173.439 145.593 173.343 145.828 173.151 146.02C172.969 146.212 172.745 146.308 172.479 146.308ZM173.183 147.732V156.5H171.727V147.732H173.183ZM178.768 156.644C178.096 156.644 177.493 156.532 176.96 156.308C176.427 156.073 176.005 155.753 175.696 155.348C175.387 154.932 175.216 154.457 175.184 153.924H176.688C176.731 154.361 176.933 154.719 177.296 154.996C177.669 155.273 178.155 155.412 178.752 155.412C179.307 155.412 179.744 155.289 180.064 155.044C180.384 154.799 180.544 154.489 180.544 154.116C180.544 153.732 180.373 153.449 180.032 153.268C179.691 153.076 179.163 152.889 178.448 152.708C177.797 152.537 177.264 152.367 176.848 152.196C176.443 152.015 176.091 151.753 175.792 151.412C175.504 151.06 175.36 150.601 175.36 150.036C175.36 149.588 175.493 149.177 175.76 148.804C176.027 148.431 176.405 148.137 176.896 147.924C177.387 147.7 177.947 147.588 178.576 147.588C179.547 147.588 180.331 147.833 180.928 148.324C181.525 148.815 181.845 149.487 181.888 150.34H180.432C180.4 149.881 180.213 149.513 179.872 149.236C179.541 148.959 179.093 148.82 178.528 148.82C178.005 148.82 177.589 148.932 177.28 149.156C176.971 149.38 176.816 149.673 176.816 150.036C176.816 150.324 176.907 150.564 177.088 150.756C177.28 150.937 177.515 151.087 177.792 151.204C178.08 151.311 178.475 151.433 178.976 151.572C179.605 151.743 180.117 151.913 180.512 152.084C180.907 152.244 181.243 152.489 181.52 152.82C181.808 153.151 181.957 153.583 181.968 154.116C181.968 154.596 181.835 155.028 181.568 155.412C181.301 155.796 180.923 156.1 180.432 156.324C179.952 156.537 179.397 156.644 178.768 156.644ZM195.841 147.732L190.561 160.628H189.057L190.785 156.404L187.249 147.732H188.865L191.617 154.836L194.337 147.732H195.841ZM201.129 156.644C200.307 156.644 199.561 156.457 198.889 156.084C198.227 155.711 197.705 155.183 197.321 154.5C196.947 153.807 196.761 153.007 196.761 152.1C196.761 151.204 196.953 150.415 197.337 149.732C197.731 149.039 198.265 148.511 198.937 148.148C199.609 147.775 200.361 147.588 201.193 147.588C202.025 147.588 202.777 147.775 203.449 148.148C204.121 148.511 204.649 149.033 205.033 149.716C205.427 150.399 205.625 151.193 205.625 152.1C205.625 153.007 205.422 153.807 205.017 154.5C204.622 155.183 204.083 155.711 203.401 156.084C202.718 156.457 201.961 156.644 201.129 156.644ZM201.129 155.364C201.651 155.364 202.142 155.241 202.601 154.996C203.059 154.751 203.427 154.383 203.705 153.892C203.993 153.401 204.137 152.804 204.137 152.1C204.137 151.396 203.998 150.799 203.721 150.308C203.443 149.817 203.081 149.455 202.633 149.22C202.185 148.975 201.699 148.852 201.177 148.852C200.643 148.852 200.153 148.975 199.705 149.22C199.267 149.455 198.915 149.817 198.649 150.308C198.382 150.799 198.249 151.396 198.249 152.1C198.249 152.815 198.377 153.417 198.633 153.908C198.899 154.399 199.251 154.767 199.689 155.012C200.126 155.247 200.606 155.364 201.129 155.364ZM215.315 147.732V156.5H213.859V155.204C213.582 155.652 213.192 156.004 212.691 156.26C212.2 156.505 211.656 156.628 211.059 156.628C210.376 156.628 209.763 156.489 209.219 156.212C208.675 155.924 208.243 155.497 207.923 154.932C207.614 154.367 207.459 153.679 207.459 152.868V147.732H208.899V152.676C208.899 153.54 209.118 154.207 209.555 154.676C209.992 155.135 210.59 155.364 211.347 155.364C212.126 155.364 212.739 155.124 213.187 154.644C213.635 154.164 213.859 153.465 213.859 152.548V147.732H215.315ZM217.998 145.348H219.614L218.078 148.98H217.054L217.998 145.348ZM222.73 149.156C222.986 148.655 223.348 148.265 223.818 147.988C224.298 147.711 224.879 147.572 225.562 147.572V149.076H225.178C223.546 149.076 222.73 149.961 222.73 151.732V156.5H221.274V147.732H222.73V149.156ZM235.242 151.78C235.242 152.057 235.226 152.351 235.194 152.66H228.186C228.24 153.524 228.533 154.201 229.066 154.692C229.61 155.172 230.266 155.412 231.034 155.412C231.664 155.412 232.186 155.268 232.602 154.98C233.029 154.681 233.328 154.287 233.498 153.796H235.066C234.832 154.639 234.362 155.327 233.658 155.86C232.954 156.383 232.08 156.644 231.034 156.644C230.202 156.644 229.456 156.457 228.794 156.084C228.144 155.711 227.632 155.183 227.258 154.5C226.885 153.807 226.698 153.007 226.698 152.1C226.698 151.193 226.88 150.399 227.242 149.716C227.605 149.033 228.112 148.511 228.762 148.148C229.424 147.775 230.181 147.588 231.034 147.588C231.866 147.588 232.602 147.769 233.242 148.132C233.882 148.495 234.373 148.996 234.714 149.636C235.066 150.265 235.242 150.98 235.242 151.78ZM233.738 151.476C233.738 150.921 233.616 150.447 233.37 150.052C233.125 149.647 232.789 149.343 232.362 149.14C231.946 148.927 231.482 148.82 230.97 148.82C230.234 148.82 229.605 149.055 229.082 149.524C228.57 149.993 228.277 150.644 228.202 151.476H233.738ZM49.4665 172.932H47.6265V180.5H46.1705V172.932H45.0345V171.732H46.1705V171.108C46.1705 170.127 46.4212 169.412 46.9225 168.964C47.4345 168.505 48.2505 168.276 49.3705 168.276V169.492C48.7305 169.492 48.2772 169.62 48.0105 169.876C47.7545 170.121 47.6265 170.532 47.6265 171.108V171.732H49.4665V172.932ZM50.6201 176.084C50.6201 175.188 50.8015 174.404 51.1641 173.732C51.5268 173.049 52.0228 172.521 52.6521 172.148C53.2921 171.775 54.0015 171.588 54.7801 171.588C55.5481 171.588 56.2148 171.753 56.7801 172.084C57.3455 172.415 57.7668 172.831 58.0441 173.332V171.732H59.5161V180.5H58.0441V178.868C57.7561 179.38 57.3241 179.807 56.7481 180.148C56.1828 180.479 55.5215 180.644 54.7641 180.644C53.9855 180.644 53.2815 180.452 52.6521 180.068C52.0228 179.684 51.5268 179.145 51.1641 178.452C50.8015 177.759 50.6201 176.969 50.6201 176.084ZM58.0441 176.1C58.0441 175.439 57.9108 174.863 57.6441 174.372C57.3775 173.881 57.0148 173.508 56.5561 173.252C56.1081 172.985 55.6121 172.852 55.0681 172.852C54.5241 172.852 54.0281 172.98 53.5801 173.236C53.1321 173.492 52.7748 173.865 52.5081 174.356C52.2415 174.847 52.1081 175.423 52.1081 176.084C52.1081 176.756 52.2415 177.343 52.5081 177.844C52.7748 178.335 53.1321 178.713 53.5801 178.98C54.0281 179.236 54.5241 179.364 55.0681 179.364C55.6121 179.364 56.1081 179.236 56.5561 178.98C57.0148 178.713 57.3775 178.335 57.6441 177.844C57.9108 177.343 58.0441 176.761 58.0441 176.1ZM61.4326 176.1C61.4326 175.193 61.614 174.404 61.9766 173.732C62.3393 173.049 62.8406 172.521 63.4806 172.148C64.1313 171.775 64.8726 171.588 65.7046 171.588C66.782 171.588 67.6673 171.849 68.3606 172.372C69.0646 172.895 69.5286 173.62 69.7526 174.548H68.1846C68.0353 174.015 67.742 173.593 67.3046 173.284C66.878 172.975 66.3446 172.82 65.7046 172.82C64.8726 172.82 64.2006 173.108 63.6886 173.684C63.1766 174.249 62.9206 175.055 62.9206 176.1C62.9206 177.156 63.1766 177.972 63.6886 178.548C64.2006 179.124 64.8726 179.412 65.7046 179.412C66.3446 179.412 66.878 179.263 67.3046 178.964C67.7313 178.665 68.0246 178.239 68.1846 177.684H69.7526C69.518 178.58 69.0486 179.3 68.3446 179.844C67.6406 180.377 66.7606 180.644 65.7046 180.644C64.8726 180.644 64.1313 180.457 63.4806 180.084C62.8406 179.711 62.3393 179.183 61.9766 178.5C61.614 177.817 61.4326 177.017 61.4326 176.1ZM72.4474 170.308C72.17 170.308 71.9354 170.212 71.7434 170.02C71.5514 169.828 71.4554 169.593 71.4554 169.316C71.4554 169.039 71.5514 168.804 71.7434 168.612C71.9354 168.42 72.17 168.324 72.4474 168.324C72.714 168.324 72.938 168.42 73.1194 168.612C73.3114 168.804 73.4074 169.039 73.4074 169.316C73.4074 169.593 73.3114 169.828 73.1194 170.02C72.938 170.212 72.714 170.308 72.4474 170.308ZM73.1514 171.732V180.5H71.6954V171.732H73.1514ZM79.9049 171.572C80.9715 171.572 81.8355 171.897 82.4969 172.548C83.1582 173.188 83.4889 174.116 83.4889 175.332V180.5H82.0489V175.54C82.0489 174.665 81.8302 173.999 81.3929 173.54C80.9555 173.071 80.3582 172.836 79.6009 172.836C78.8329 172.836 78.2195 173.076 77.7609 173.556C77.3129 174.036 77.0889 174.735 77.0889 175.652V180.5H75.6329V171.732H77.0889V172.98C77.3769 172.532 77.7662 172.185 78.2569 171.94C78.7582 171.695 79.3075 171.572 79.9049 171.572ZM89.4833 171.588C90.2406 171.588 90.9019 171.753 91.4673 172.084C92.0433 172.415 92.4699 172.831 92.7473 173.332V171.732H94.2193V180.692C94.2193 181.492 94.0486 182.201 93.7073 182.82C93.3659 183.449 92.8753 183.94 92.2353 184.292C91.6059 184.644 90.8699 184.82 90.0273 184.82C88.8753 184.82 87.9153 184.548 87.1473 184.004C86.3793 183.46 85.9259 182.719 85.7873 181.78H87.2273C87.3873 182.313 87.7179 182.74 88.2193 183.06C88.7206 183.391 89.3233 183.556 90.0273 183.556C90.8273 183.556 91.4779 183.305 91.9793 182.804C92.4913 182.303 92.7473 181.599 92.7473 180.692V178.852C92.4593 179.364 92.0326 179.791 91.4673 180.132C90.9019 180.473 90.2406 180.644 89.4833 180.644C88.7046 180.644 87.9953 180.452 87.3553 180.068C86.7259 179.684 86.2299 179.145 85.8673 178.452C85.5046 177.759 85.3233 176.969 85.3233 176.084C85.3233 175.188 85.5046 174.404 85.8673 173.732C86.2299 173.049 86.7259 172.521 87.3553 172.148C87.9953 171.775 88.7046 171.588 89.4833 171.588ZM92.7473 176.1C92.7473 175.439 92.6139 174.863 92.3473 174.372C92.0806 173.881 91.7179 173.508 91.2593 173.252C90.8113 172.985 90.3153 172.852 89.7713 172.852C89.2273 172.852 88.7313 172.98 88.2833 173.236C87.8353 173.492 87.4779 173.865 87.2113 174.356C86.9446 174.847 86.8113 175.423 86.8113 176.084C86.8113 176.756 86.9446 177.343 87.2113 177.844C87.4779 178.335 87.8353 178.713 88.2833 178.98C88.7313 179.236 89.2273 179.364 89.7713 179.364C90.3153 179.364 90.8113 179.236 91.2593 178.98C91.7179 178.713 92.0806 178.335 92.3473 177.844C92.6139 177.343 92.7473 176.761 92.7473 176.1ZM98.1838 178.484L96.3918 182.788H95.4158L96.5838 178.484H98.1838ZM105.893 172.932V178.1C105.893 178.527 105.984 178.831 106.165 179.012C106.347 179.183 106.661 179.268 107.109 179.268H108.181V180.5H106.869C106.059 180.5 105.451 180.313 105.045 179.94C104.64 179.567 104.437 178.953 104.437 178.1V172.932H103.301V171.732H104.437V169.524H105.893V171.732H108.181V172.932H105.893ZM114.297 171.572C114.959 171.572 115.556 171.716 116.089 172.004C116.623 172.281 117.039 172.703 117.337 173.268C117.647 173.833 117.801 174.521 117.801 175.332V180.5H116.361V175.54C116.361 174.665 116.143 173.999 115.705 173.54C115.268 173.071 114.671 172.836 113.913 172.836C113.145 172.836 112.532 173.076 112.073 173.556C111.625 174.036 111.401 174.735 111.401 175.652V180.5H109.945V168.66H111.401V172.98C111.689 172.532 112.084 172.185 112.585 171.94C113.097 171.695 113.668 171.572 114.297 171.572ZM128.18 175.78C128.18 176.057 128.164 176.351 128.132 176.66H121.124C121.177 177.524 121.47 178.201 122.004 178.692C122.548 179.172 123.204 179.412 123.972 179.412C124.601 179.412 125.124 179.268 125.54 178.98C125.966 178.681 126.265 178.287 126.436 177.796H128.004C127.769 178.639 127.3 179.327 126.596 179.86C125.892 180.383 125.017 180.644 123.972 180.644C123.14 180.644 122.393 180.457 121.732 180.084C121.081 179.711 120.569 179.183 120.196 178.5C119.822 177.807 119.636 177.007 119.636 176.1C119.636 175.193 119.817 174.399 120.18 173.716C120.542 173.033 121.049 172.511 121.7 172.148C122.361 171.775 123.118 171.588 123.972 171.588C124.804 171.588 125.54 171.769 126.18 172.132C126.82 172.495 127.31 172.996 127.652 173.636C128.004 174.265 128.18 174.98 128.18 175.78ZM126.676 175.476C126.676 174.921 126.553 174.447 126.308 174.052C126.062 173.647 125.726 173.343 125.3 173.14C124.884 172.927 124.42 172.82 123.908 172.82C123.172 172.82 122.542 173.055 122.02 173.524C121.508 173.993 121.214 174.644 121.14 175.476H126.676ZM133.823 176.084C133.823 175.188 134.005 174.404 134.367 173.732C134.73 173.049 135.226 172.521 135.855 172.148C136.495 171.775 137.205 171.588 137.983 171.588C138.751 171.588 139.418 171.753 139.983 172.084C140.549 172.415 140.97 172.831 141.247 173.332V171.732H142.719V180.5H141.247V178.868C140.959 179.38 140.527 179.807 139.951 180.148C139.386 180.479 138.725 180.644 137.967 180.644C137.189 180.644 136.485 180.452 135.855 180.068C135.226 179.684 134.73 179.145 134.367 178.452C134.005 177.759 133.823 176.969 133.823 176.084ZM141.247 176.1C141.247 175.439 141.114 174.863 140.847 174.372C140.581 173.881 140.218 173.508 139.759 173.252C139.311 172.985 138.815 172.852 138.271 172.852C137.727 172.852 137.231 172.98 136.783 173.236C136.335 173.492 135.978 173.865 135.711 174.356C135.445 174.847 135.311 175.423 135.311 176.084C135.311 176.756 135.445 177.343 135.711 177.844C135.978 178.335 136.335 178.713 136.783 178.98C137.231 179.236 137.727 179.364 138.271 179.364C138.815 179.364 139.311 179.236 139.759 178.98C140.218 178.713 140.581 178.335 140.847 177.844C141.114 177.343 141.247 176.761 141.247 176.1ZM144.636 176.1C144.636 175.193 144.817 174.404 145.18 173.732C145.542 173.049 146.044 172.521 146.684 172.148C147.334 171.775 148.076 171.588 148.908 171.588C149.985 171.588 150.87 171.849 151.564 172.372C152.268 172.895 152.732 173.62 152.956 174.548H151.388C151.238 174.015 150.945 173.593 150.508 173.284C150.081 172.975 149.548 172.82 148.908 172.82C148.076 172.82 147.404 173.108 146.892 173.684C146.38 174.249 146.124 175.055 146.124 176.1C146.124 177.156 146.38 177.972 146.892 178.548C147.404 179.124 148.076 179.412 148.908 179.412C149.548 179.412 150.081 179.263 150.508 178.964C150.934 178.665 151.228 178.239 151.388 177.684H152.956C152.721 178.58 152.252 179.3 151.548 179.844C150.844 180.377 149.964 180.644 148.908 180.644C148.076 180.644 147.334 180.457 146.684 180.084C146.044 179.711 145.542 179.183 145.18 178.5C144.817 177.817 144.636 177.017 144.636 176.1ZM156.675 172.932V178.1C156.675 178.527 156.765 178.831 156.947 179.012C157.128 179.183 157.443 179.268 157.891 179.268H158.963V180.5H157.651C156.84 180.5 156.232 180.313 155.827 179.94C155.421 179.567 155.219 178.953 155.219 178.1V172.932H154.083V171.732H155.219V169.524H156.675V171.732H158.963V172.932H156.675ZM161.479 170.308C161.201 170.308 160.967 170.212 160.775 170.02C160.583 169.828 160.487 169.593 160.487 169.316C160.487 169.039 160.583 168.804 160.775 168.612C160.967 168.42 161.201 168.324 161.479 168.324C161.745 168.324 161.969 168.42 162.151 168.612C162.343 168.804 162.439 169.039 162.439 169.316C162.439 169.593 162.343 169.828 162.151 170.02C161.969 170.212 161.745 170.308 161.479 170.308ZM162.183 171.732V180.5H160.727V171.732H162.183ZM168.488 180.644C167.667 180.644 166.92 180.457 166.248 180.084C165.587 179.711 165.064 179.183 164.68 178.5C164.307 177.807 164.12 177.007 164.12 176.1C164.12 175.204 164.312 174.415 164.696 173.732C165.091 173.039 165.624 172.511 166.296 172.148C166.968 171.775 167.72 171.588 168.552 171.588C169.384 171.588 170.136 171.775 170.808 172.148C171.48 172.511 172.008 173.033 172.392 173.716C172.787 174.399 172.984 175.193 172.984 176.1C172.984 177.007 172.781 177.807 172.376 178.5C171.981 179.183 171.443 179.711 170.76 180.084C170.077 180.457 169.32 180.644 168.488 180.644ZM168.488 179.364C169.011 179.364 169.501 179.241 169.96 178.996C170.419 178.751 170.787 178.383 171.064 177.892C171.352 177.401 171.496 176.804 171.496 176.1C171.496 175.396 171.357 174.799 171.08 174.308C170.803 173.817 170.44 173.455 169.992 173.22C169.544 172.975 169.059 172.852 168.536 172.852C168.003 172.852 167.512 172.975 167.064 173.22C166.627 173.455 166.275 173.817 166.008 174.308C165.741 174.799 165.608 175.396 165.608 176.1C165.608 176.815 165.736 177.417 165.992 177.908C166.259 178.399 166.611 178.767 167.048 179.012C167.485 179.247 167.965 179.364 168.488 179.364ZM179.171 171.572C180.237 171.572 181.101 171.897 181.763 172.548C182.424 173.188 182.755 174.116 182.755 175.332V180.5H181.315V175.54C181.315 174.665 181.096 173.999 180.659 173.54C180.221 173.071 179.624 172.836 178.867 172.836C178.099 172.836 177.485 173.076 177.027 173.556C176.579 174.036 176.355 174.735 176.355 175.652V180.5H174.899V171.732H176.355V172.98C176.643 172.532 177.032 172.185 177.523 171.94C178.024 171.695 178.573 171.572 179.171 171.572ZM196.951 171.732L191.671 184.628H190.167L191.895 180.404L188.359 171.732H189.975L192.727 178.836L195.447 171.732H196.951ZM202.238 180.644C201.417 180.644 200.67 180.457 199.998 180.084C199.337 179.711 198.814 179.183 198.43 178.5C198.057 177.807 197.87 177.007 197.87 176.1C197.87 175.204 198.062 174.415 198.446 173.732C198.841 173.039 199.374 172.511 200.046 172.148C200.718 171.775 201.47 171.588 202.302 171.588C203.134 171.588 203.886 171.775 204.558 172.148C205.23 172.511 205.758 173.033 206.142 173.716C206.537 174.399 206.734 175.193 206.734 176.1C206.734 177.007 206.531 177.807 206.126 178.5C205.731 179.183 205.193 179.711 204.51 180.084C203.827 180.457 203.07 180.644 202.238 180.644ZM202.238 179.364C202.761 179.364 203.251 179.241 203.71 178.996C204.169 178.751 204.537 178.383 204.814 177.892C205.102 177.401 205.246 176.804 205.246 176.1C205.246 175.396 205.107 174.799 204.83 174.308C204.553 173.817 204.19 173.455 203.742 173.22C203.294 172.975 202.809 172.852 202.286 172.852C201.753 172.852 201.262 172.975 200.814 173.22C200.377 173.455 200.025 173.817 199.758 174.308C199.491 174.799 199.358 175.396 199.358 176.1C199.358 176.815 199.486 177.417 199.742 177.908C200.009 178.399 200.361 178.767 200.798 179.012C201.235 179.247 201.715 179.364 202.238 179.364ZM216.425 171.732V180.5H214.969V179.204C214.691 179.652 214.302 180.004 213.801 180.26C213.31 180.505 212.766 180.628 212.169 180.628C211.486 180.628 210.873 180.489 210.329 180.212C209.785 179.924 209.353 179.497 209.033 178.932C208.723 178.367 208.569 177.679 208.569 176.868V171.732H210.009V176.676C210.009 177.54 210.227 178.207 210.665 178.676C211.102 179.135 211.699 179.364 212.457 179.364C213.235 179.364 213.849 179.124 214.297 178.644C214.745 178.164 214.969 177.465 214.969 176.548V171.732H216.425ZM219.107 169.348H220.723L219.187 172.98H218.163L219.107 169.348ZM223.839 173.156C224.095 172.655 224.458 172.265 224.927 171.988C225.407 171.711 225.988 171.572 226.671 171.572V173.076H226.287C224.655 173.076 223.839 173.961 223.839 175.732V180.5H222.383V171.732H223.839V173.156ZM236.352 175.78C236.352 176.057 236.336 176.351 236.304 176.66H229.296C229.349 177.524 229.642 178.201 230.176 178.692C230.72 179.172 231.376 179.412 232.144 179.412C232.773 179.412 233.296 179.268 233.712 178.98C234.138 178.681 234.437 178.287 234.608 177.796H236.176C235.941 178.639 235.472 179.327 234.768 179.86C234.064 180.383 233.189 180.644 232.144 180.644C231.312 180.644 230.565 180.457 229.904 180.084C229.253 179.711 228.741 179.183 228.368 178.5C227.994 177.807 227.808 177.007 227.808 176.1C227.808 175.193 227.989 174.399 228.352 173.716C228.714 173.033 229.221 172.511 229.872 172.148C230.533 171.775 231.29 171.588 232.144 171.588C232.976 171.588 233.712 171.769 234.352 172.132C234.992 172.495 235.482 172.996 235.824 173.636C236.176 174.265 236.352 174.98 236.352 175.78ZM234.848 175.476C234.848 174.921 234.725 174.447 234.48 174.052C234.234 173.647 233.898 173.343 233.472 173.14C233.056 172.927 232.592 172.82 232.08 172.82C231.344 172.82 230.714 173.055 230.192 173.524C229.68 173.993 229.386 174.644 229.312 175.476H234.848ZM45.3545 200.1C45.3545 199.193 45.5358 198.404 45.8985 197.732C46.2612 197.049 46.7625 196.521 47.4025 196.148C48.0532 195.775 48.7945 195.588 49.6265 195.588C50.7038 195.588 51.5892 195.849 52.2825 196.372C52.9865 196.895 53.4505 197.62 53.6745 198.548H52.1065C51.9572 198.015 51.6638 197.593 51.2265 197.284C50.7998 196.975 50.2665 196.82 49.6265 196.82C48.7945 196.82 48.1225 197.108 47.6105 197.684C47.0985 198.249 46.8425 199.055 46.8425 200.1C46.8425 201.156 47.0985 201.972 47.6105 202.548C48.1225 203.124 48.7945 203.412 49.6265 203.412C50.2665 203.412 50.7998 203.263 51.2265 202.964C51.6532 202.665 51.9465 202.239 52.1065 201.684H53.6745C53.4398 202.58 52.9705 203.3 52.2665 203.844C51.5625 204.377 50.6825 204.644 49.6265 204.644C48.7945 204.644 48.0532 204.457 47.4025 204.084C46.7625 203.711 46.2612 203.183 45.8985 202.5C45.5358 201.817 45.3545 201.017 45.3545 200.1ZM59.4413 204.644C58.6199 204.644 57.8733 204.457 57.2013 204.084C56.5399 203.711 56.0173 203.183 55.6333 202.5C55.2599 201.807 55.0733 201.007 55.0733 200.1C55.0733 199.204 55.2653 198.415 55.6493 197.732C56.0439 197.039 56.5773 196.511 57.2493 196.148C57.9213 195.775 58.6733 195.588 59.5053 195.588C60.3373 195.588 61.0893 195.775 61.7613 196.148C62.4333 196.511 62.9613 197.033 63.3453 197.716C63.7399 198.399 63.9373 199.193 63.9373 200.1C63.9373 201.007 63.7346 201.807 63.3293 202.5C62.9346 203.183 62.3959 203.711 61.7133 204.084C61.0306 204.457 60.2733 204.644 59.4413 204.644ZM59.4413 203.364C59.9639 203.364 60.4546 203.241 60.9133 202.996C61.3719 202.751 61.7399 202.383 62.0173 201.892C62.3053 201.401 62.4493 200.804 62.4493 200.1C62.4493 199.396 62.3106 198.799 62.0333 198.308C61.7559 197.817 61.3933 197.455 60.9453 197.22C60.4973 196.975 60.0119 196.852 59.4893 196.852C58.9559 196.852 58.4653 196.975 58.0173 197.22C57.5799 197.455 57.2279 197.817 56.9613 198.308C56.6946 198.799 56.5613 199.396 56.5613 200.1C56.5613 200.815 56.6893 201.417 56.9453 201.908C57.2119 202.399 57.5639 202.767 58.0013 203.012C58.4386 203.247 58.9186 203.364 59.4413 203.364ZM70.1236 195.572C71.1903 195.572 72.0543 195.897 72.7156 196.548C73.377 197.188 73.7076 198.116 73.7076 199.332V204.5H72.2676V199.54C72.2676 198.665 72.049 197.999 71.6116 197.54C71.1743 197.071 70.577 196.836 69.8196 196.836C69.0516 196.836 68.4383 197.076 67.9796 197.556C67.5316 198.036 67.3076 198.735 67.3076 199.652V204.5H65.8516V195.732H67.3076V196.98C67.5956 196.532 67.985 196.185 68.4756 195.94C68.977 195.695 69.5263 195.572 70.1236 195.572ZM79.19 204.644C78.518 204.644 77.9153 204.532 77.382 204.308C76.8487 204.073 76.4273 203.753 76.118 203.348C75.8087 202.932 75.638 202.457 75.606 201.924H77.11C77.1527 202.361 77.3553 202.719 77.718 202.996C78.0913 203.273 78.5767 203.412 79.174 203.412C79.7287 203.412 80.166 203.289 80.486 203.044C80.806 202.799 80.966 202.489 80.966 202.116C80.966 201.732 80.7953 201.449 80.454 201.268C80.1127 201.076 79.5847 200.889 78.87 200.708C78.2193 200.537 77.686 200.367 77.27 200.196C76.8647 200.015 76.5127 199.753 76.214 199.412C75.926 199.06 75.782 198.601 75.782 198.036C75.782 197.588 75.9153 197.177 76.182 196.804C76.4487 196.431 76.8273 196.137 77.318 195.924C77.8087 195.7 78.3687 195.588 78.998 195.588C79.9687 195.588 80.7527 195.833 81.35 196.324C81.9473 196.815 82.2673 197.487 82.31 198.34H80.854C80.822 197.881 80.6353 197.513 80.294 197.236C79.9633 196.959 79.5153 196.82 78.95 196.82C78.4273 196.82 78.0113 196.932 77.702 197.156C77.3927 197.38 77.238 197.673 77.238 198.036C77.238 198.324 77.3287 198.564 77.51 198.756C77.702 198.937 77.9367 199.087 78.214 199.204C78.502 199.311 78.8967 199.433 79.398 199.572C80.0273 199.743 80.5393 199.913 80.934 200.084C81.3287 200.244 81.6647 200.489 81.942 200.82C82.23 201.151 82.3793 201.583 82.39 202.116C82.39 202.596 82.2567 203.028 81.99 203.412C81.7233 203.796 81.3447 204.1 80.854 204.324C80.374 204.537 79.8193 204.644 79.19 204.644ZM85.1974 194.308C84.92 194.308 84.6854 194.212 84.4934 194.02C84.3014 193.828 84.2054 193.593 84.2054 193.316C84.2054 193.039 84.3014 192.804 84.4934 192.612C84.6854 192.42 84.92 192.324 85.1974 192.324C85.464 192.324 85.688 192.42 85.8694 192.612C86.0614 192.804 86.1574 193.039 86.1574 193.316C86.1574 193.593 86.0614 193.828 85.8694 194.02C85.688 194.212 85.464 194.308 85.1974 194.308ZM85.9014 195.732V204.5H84.4454V195.732H85.9014ZM87.8389 200.084C87.8389 199.188 88.0202 198.404 88.3829 197.732C88.7455 197.049 89.2415 196.521 89.8709 196.148C90.5109 195.775 91.2255 195.588 92.0149 195.588C92.6975 195.588 93.3322 195.748 93.9189 196.068C94.5055 196.377 94.9535 196.788 95.2629 197.3V192.66H96.7349V204.5H95.2629V202.852C94.9749 203.375 94.5482 203.807 93.9829 204.148C93.4175 204.479 92.7562 204.644 91.9989 204.644C91.2202 204.644 90.5109 204.452 89.8709 204.068C89.2415 203.684 88.7455 203.145 88.3829 202.452C88.0202 201.759 87.8389 200.969 87.8389 200.084ZM95.2629 200.1C95.2629 199.439 95.1295 198.863 94.8629 198.372C94.5962 197.881 94.2335 197.508 93.7749 197.252C93.3269 196.985 92.8309 196.852 92.2869 196.852C91.7429 196.852 91.2469 196.98 90.7989 197.236C90.3509 197.492 89.9935 197.865 89.7269 198.356C89.4602 198.847 89.3269 199.423 89.3269 200.084C89.3269 200.756 89.4602 201.343 89.7269 201.844C89.9935 202.335 90.3509 202.713 90.7989 202.98C91.2469 203.236 91.7429 203.364 92.2869 203.364C92.8309 203.364 93.3269 203.236 93.7749 202.98C94.2335 202.713 94.5962 202.335 94.8629 201.844C95.1295 201.343 95.2629 200.761 95.2629 200.1ZM107.195 199.78C107.195 200.057 107.179 200.351 107.147 200.66H100.139C100.193 201.524 100.486 202.201 101.019 202.692C101.563 203.172 102.219 203.412 102.987 203.412C103.617 203.412 104.139 203.268 104.555 202.98C104.982 202.681 105.281 202.287 105.451 201.796H107.019C106.785 202.639 106.315 203.327 105.611 203.86C104.907 204.383 104.033 204.644 102.987 204.644C102.155 204.644 101.409 204.457 100.747 204.084C100.097 203.711 99.5847 203.183 99.2114 202.5C98.838 201.807 98.6514 201.007 98.6514 200.1C98.6514 199.193 98.8327 198.399 99.1954 197.716C99.558 197.033 100.065 196.511 100.715 196.148C101.377 195.775 102.134 195.588 102.987 195.588C103.819 195.588 104.555 195.769 105.195 196.132C105.835 196.495 106.326 196.996 106.667 197.636C107.019 198.265 107.195 198.98 107.195 199.78ZM105.691 199.476C105.691 198.921 105.569 198.447 105.323 198.052C105.078 197.647 104.742 197.343 104.315 197.14C103.899 196.927 103.435 196.82 102.923 196.82C102.187 196.82 101.558 197.055 101.035 197.524C100.523 197.993 100.23 198.644 100.155 199.476H105.691ZM110.573 197.156C110.829 196.655 111.192 196.265 111.661 195.988C112.141 195.711 112.723 195.572 113.405 195.572V197.076H113.021C111.389 197.076 110.573 197.961 110.573 199.732V204.5H109.117V195.732H110.573V197.156ZM115.838 194.308C115.561 194.308 115.326 194.212 115.134 194.02C114.942 193.828 114.846 193.593 114.846 193.316C114.846 193.039 114.942 192.804 115.134 192.612C115.326 192.42 115.561 192.324 115.838 192.324C116.105 192.324 116.329 192.42 116.51 192.612C116.702 192.804 116.798 193.039 116.798 193.316C116.798 193.593 116.702 193.828 116.51 194.02C116.329 194.212 116.105 194.308 115.838 194.308ZM116.542 195.732V204.5H115.086V195.732H116.542ZM123.296 195.572C124.362 195.572 125.226 195.897 125.888 196.548C126.549 197.188 126.88 198.116 126.88 199.332V204.5H125.44V199.54C125.44 198.665 125.221 197.999 124.784 197.54C124.346 197.071 123.749 196.836 122.992 196.836C122.224 196.836 121.61 197.076 121.152 197.556C120.704 198.036 120.48 198.735 120.48 199.652V204.5H119.024V195.732H120.48V196.98C120.768 196.532 121.157 196.185 121.648 195.94C122.149 195.695 122.698 195.572 123.296 195.572ZM132.874 195.588C133.631 195.588 134.293 195.753 134.858 196.084C135.434 196.415 135.861 196.831 136.138 197.332V195.732H137.61V204.692C137.61 205.492 137.439 206.201 137.098 206.82C136.757 207.449 136.266 207.94 135.626 208.292C134.997 208.644 134.261 208.82 133.418 208.82C132.266 208.82 131.306 208.548 130.538 208.004C129.77 207.46 129.317 206.719 129.178 205.78H130.618C130.778 206.313 131.109 206.74 131.61 207.06C132.111 207.391 132.714 207.556 133.418 207.556C134.218 207.556 134.869 207.305 135.37 206.804C135.882 206.303 136.138 205.599 136.138 204.692V202.852C135.85 203.364 135.423 203.791 134.858 204.132C134.293 204.473 133.631 204.644 132.874 204.644C132.095 204.644 131.386 204.452 130.746 204.068C130.117 203.684 129.621 203.145 129.258 202.452C128.895 201.759 128.714 200.969 128.714 200.084C128.714 199.188 128.895 198.404 129.258 197.732C129.621 197.049 130.117 196.521 130.746 196.148C131.386 195.775 132.095 195.588 132.874 195.588ZM136.138 200.1C136.138 199.439 136.005 198.863 135.738 198.372C135.471 197.881 135.109 197.508 134.65 197.252C134.202 196.985 133.706 196.852 133.162 196.852C132.618 196.852 132.122 196.98 131.674 197.236C131.226 197.492 130.869 197.865 130.602 198.356C130.335 198.847 130.202 199.423 130.202 200.084C130.202 200.756 130.335 201.343 130.602 201.844C130.869 202.335 131.226 202.713 131.674 202.98C132.122 203.236 132.618 203.364 133.162 203.364C133.706 203.364 134.202 203.236 134.65 202.98C135.109 202.713 135.471 202.335 135.738 201.844C136.005 201.343 136.138 200.761 136.138 200.1ZM141.574 202.484L139.782 206.788H138.806L139.974 202.484H141.574ZM146.964 200.084C146.964 199.188 147.145 198.404 147.508 197.732C147.871 197.049 148.367 196.521 148.996 196.148C149.636 195.775 150.345 195.588 151.124 195.588C151.892 195.588 152.559 195.753 153.124 196.084C153.689 196.415 154.111 196.831 154.388 197.332V195.732H155.86V204.5H154.388V202.868C154.1 203.38 153.668 203.807 153.092 204.148C152.527 204.479 151.865 204.644 151.108 204.644C150.329 204.644 149.625 204.452 148.996 204.068C148.367 203.684 147.871 203.145 147.508 202.452C147.145 201.759 146.964 200.969 146.964 200.084ZM154.388 200.1C154.388 199.439 154.255 198.863 153.988 198.372C153.721 197.881 153.359 197.508 152.9 197.252C152.452 196.985 151.956 196.852 151.412 196.852C150.868 196.852 150.372 196.98 149.924 197.236C149.476 197.492 149.119 197.865 148.852 198.356C148.585 198.847 148.452 199.423 148.452 200.084C148.452 200.756 148.585 201.343 148.852 201.844C149.119 202.335 149.476 202.713 149.924 202.98C150.372 203.236 150.868 203.364 151.412 203.364C151.956 203.364 152.452 203.236 152.9 202.98C153.359 202.713 153.721 202.335 153.988 201.844C154.255 201.343 154.388 200.761 154.388 200.1ZM162.592 195.572C163.659 195.572 164.523 195.897 165.184 196.548C165.846 197.188 166.176 198.116 166.176 199.332V204.5H164.736V199.54C164.736 198.665 164.518 197.999 164.08 197.54C163.643 197.071 163.046 196.836 162.288 196.836C161.52 196.836 160.907 197.076 160.448 197.556C160 198.036 159.776 198.735 159.776 199.652V204.5H158.32V195.732H159.776V196.98C160.064 196.532 160.454 196.185 160.944 195.94C161.446 195.695 161.995 195.572 162.592 195.572ZM168.011 200.084C168.011 199.188 168.192 198.404 168.555 197.732C168.917 197.049 169.413 196.521 170.043 196.148C170.683 195.775 171.397 195.588 172.187 195.588C172.869 195.588 173.504 195.748 174.091 196.068C174.677 196.377 175.125 196.788 175.435 197.3V192.66H176.907V204.5H175.435V202.852C175.147 203.375 174.72 203.807 174.155 204.148C173.589 204.479 172.928 204.644 172.171 204.644C171.392 204.644 170.683 204.452 170.043 204.068C169.413 203.684 168.917 203.145 168.555 202.452C168.192 201.759 168.011 200.969 168.011 200.084ZM175.435 200.1C175.435 199.439 175.301 198.863 175.035 198.372C174.768 197.881 174.405 197.508 173.947 197.252C173.499 196.985 173.003 196.852 172.459 196.852C171.915 196.852 171.419 196.98 170.971 197.236C170.523 197.492 170.165 197.865 169.899 198.356C169.632 198.847 169.499 199.423 169.499 200.084C169.499 200.756 169.632 201.343 169.899 201.844C170.165 202.335 170.523 202.713 170.971 202.98C171.419 203.236 171.915 203.364 172.459 203.364C173.003 203.364 173.499 203.236 173.947 202.98C174.405 202.713 174.768 202.335 175.035 201.844C175.301 201.343 175.435 200.761 175.435 200.1ZM183.089 200.084C183.089 199.188 183.27 198.404 183.633 197.732C183.996 197.049 184.492 196.521 185.121 196.148C185.761 195.775 186.47 195.588 187.249 195.588C188.017 195.588 188.684 195.753 189.249 196.084C189.814 196.415 190.236 196.831 190.513 197.332V195.732H191.985V204.5H190.513V202.868C190.225 203.38 189.793 203.807 189.217 204.148C188.652 204.479 187.99 204.644 187.233 204.644C186.454 204.644 185.75 204.452 185.121 204.068C184.492 203.684 183.996 203.145 183.633 202.452C183.27 201.759 183.089 200.969 183.089 200.084ZM190.513 200.1C190.513 199.439 190.38 198.863 190.113 198.372C189.846 197.881 189.484 197.508 189.025 197.252C188.577 196.985 188.081 196.852 187.537 196.852C186.993 196.852 186.497 196.98 186.049 197.236C185.601 197.492 185.244 197.865 184.977 198.356C184.71 198.847 184.577 199.423 184.577 200.084C184.577 200.756 184.71 201.343 184.977 201.844C185.244 202.335 185.601 202.713 186.049 202.98C186.497 203.236 186.993 203.364 187.537 203.364C188.081 203.364 188.577 203.236 189.025 202.98C189.484 202.713 189.846 202.335 190.113 201.844C190.38 201.343 190.513 200.761 190.513 200.1ZM198.717 195.572C199.784 195.572 200.648 195.897 201.309 196.548C201.971 197.188 202.301 198.116 202.301 199.332V204.5H200.861V199.54C200.861 198.665 200.643 197.999 200.205 197.54C199.768 197.071 199.171 196.836 198.413 196.836C197.645 196.836 197.032 197.076 196.573 197.556C196.125 198.036 195.901 198.735 195.901 199.652V204.5H194.445V195.732H195.901V196.98C196.189 196.532 196.579 196.185 197.069 195.94C197.571 195.695 198.12 195.572 198.717 195.572ZM212.232 195.732L206.952 208.628H205.448L207.176 204.404L203.64 195.732H205.256L208.008 202.836L210.728 195.732H212.232ZM45.3545 224.1C45.3545 223.193 45.5358 222.404 45.8985 221.732C46.2612 221.049 46.7625 220.521 47.4025 220.148C48.0532 219.775 48.7945 219.588 49.6265 219.588C50.7038 219.588 51.5892 219.849 52.2825 220.372C52.9865 220.895 53.4505 221.62 53.6745 222.548H52.1065C51.9572 222.015 51.6638 221.593 51.2265 221.284C50.7998 220.975 50.2665 220.82 49.6265 220.82C48.7945 220.82 48.1225 221.108 47.6105 221.684C47.0985 222.249 46.8425 223.055 46.8425 224.1C46.8425 225.156 47.0985 225.972 47.6105 226.548C48.1225 227.124 48.7945 227.412 49.6265 227.412C50.2665 227.412 50.7998 227.263 51.2265 226.964C51.6532 226.665 51.9465 226.239 52.1065 225.684H53.6745C53.4398 226.58 52.9705 227.3 52.2665 227.844C51.5625 228.377 50.6825 228.644 49.6265 228.644C48.7945 228.644 48.0532 228.457 47.4025 228.084C46.7625 227.711 46.2612 227.183 45.8985 226.5C45.5358 225.817 45.3545 225.017 45.3545 224.1ZM59.4413 228.644C58.6199 228.644 57.8733 228.457 57.2013 228.084C56.5399 227.711 56.0173 227.183 55.6333 226.5C55.2599 225.807 55.0733 225.007 55.0733 224.1C55.0733 223.204 55.2653 222.415 55.6493 221.732C56.0439 221.039 56.5773 220.511 57.2493 220.148C57.9213 219.775 58.6733 219.588 59.5053 219.588C60.3373 219.588 61.0893 219.775 61.7613 220.148C62.4333 220.511 62.9613 221.033 63.3453 221.716C63.7399 222.399 63.9373 223.193 63.9373 224.1C63.9373 225.007 63.7346 225.807 63.3293 226.5C62.9346 227.183 62.3959 227.711 61.7133 228.084C61.0306 228.457 60.2733 228.644 59.4413 228.644ZM59.4413 227.364C59.9639 227.364 60.4546 227.241 60.9133 226.996C61.3719 226.751 61.7399 226.383 62.0173 225.892C62.3053 225.401 62.4493 224.804 62.4493 224.1C62.4493 223.396 62.3106 222.799 62.0333 222.308C61.7559 221.817 61.3933 221.455 60.9453 221.22C60.4973 220.975 60.0119 220.852 59.4893 220.852C58.9559 220.852 58.4653 220.975 58.0173 221.22C57.5799 221.455 57.2279 221.817 56.9613 222.308C56.6946 222.799 56.5613 223.396 56.5613 224.1C56.5613 224.815 56.6893 225.417 56.9453 225.908C57.2119 226.399 57.5639 226.767 58.0013 227.012C58.4386 227.247 58.9186 227.364 59.4413 227.364ZM70.1236 219.572C71.1903 219.572 72.0543 219.897 72.7156 220.548C73.377 221.188 73.7076 222.116 73.7076 223.332V228.5H72.2676V223.54C72.2676 222.665 72.049 221.999 71.6116 221.54C71.1743 221.071 70.577 220.836 69.8196 220.836C69.0516 220.836 68.4383 221.076 67.9796 221.556C67.5316 222.036 67.3076 222.735 67.3076 223.652V228.5H65.8516V219.732H67.3076V220.98C67.5956 220.532 67.985 220.185 68.4756 219.94C68.977 219.695 69.5263 219.572 70.1236 219.572ZM75.542 224.1C75.542 223.193 75.7233 222.404 76.086 221.732C76.4487 221.049 76.95 220.521 77.59 220.148C78.2407 219.775 78.982 219.588 79.814 219.588C80.8913 219.588 81.7767 219.849 82.47 220.372C83.174 220.895 83.638 221.62 83.862 222.548H82.294C82.1447 222.015 81.8513 221.593 81.414 221.284C80.9873 220.975 80.454 220.82 79.814 220.82C78.982 220.82 78.31 221.108 77.798 221.684C77.286 222.249 77.03 223.055 77.03 224.1C77.03 225.156 77.286 225.972 77.798 226.548C78.31 227.124 78.982 227.412 79.814 227.412C80.454 227.412 80.9873 227.263 81.414 226.964C81.8407 226.665 82.134 226.239 82.294 225.684H83.862C83.6273 226.58 83.158 227.3 82.454 227.844C81.75 228.377 80.87 228.644 79.814 228.644C78.982 228.644 78.2407 228.457 77.59 228.084C76.95 227.711 76.4487 227.183 76.086 226.5C75.7233 225.817 75.542 225.017 75.542 224.1ZM93.8048 223.78C93.8048 224.057 93.7888 224.351 93.7568 224.66H86.7488C86.8021 225.524 87.0954 226.201 87.6288 226.692C88.1728 227.172 88.8288 227.412 89.5968 227.412C90.2261 227.412 90.7488 227.268 91.1648 226.98C91.5914 226.681 91.8901 226.287 92.0608 225.796H93.6288C93.3941 226.639 92.9248 227.327 92.2208 227.86C91.5168 228.383 90.6421 228.644 89.5968 228.644C88.7648 228.644 88.0181 228.457 87.3568 228.084C86.7061 227.711 86.1941 227.183 85.8208 226.5C85.4474 225.807 85.2608 225.007 85.2608 224.1C85.2608 223.193 85.4421 222.399 85.8048 221.716C86.1674 221.033 86.6741 220.511 87.3248 220.148C87.9861 219.775 88.7434 219.588 89.5968 219.588C90.4288 219.588 91.1648 219.769 91.8048 220.132C92.4448 220.495 92.9354 220.996 93.2768 221.636C93.6288 222.265 93.8048 222.98 93.8048 223.78ZM92.3008 223.476C92.3008 222.921 92.1781 222.447 91.9328 222.052C91.6874 221.647 91.3514 221.343 90.9248 221.14C90.5088 220.927 90.0448 220.82 89.5328 220.82C88.7968 220.82 88.1674 221.055 87.6448 221.524C87.1328 221.993 86.8394 222.644 86.7648 223.476H92.3008ZM97.1826 221.156C97.4386 220.655 97.8013 220.265 98.2706 219.988C98.7506 219.711 99.332 219.572 100.015 219.572V221.076H99.6306C97.9986 221.076 97.1826 221.961 97.1826 223.732V228.5H95.7266V219.732H97.1826V221.156ZM105.967 219.572C107.034 219.572 107.898 219.897 108.559 220.548C109.221 221.188 109.551 222.116 109.551 223.332V228.5H108.111V223.54C108.111 222.665 107.893 221.999 107.455 221.54C107.018 221.071 106.421 220.836 105.663 220.836C104.895 220.836 104.282 221.076 103.823 221.556C103.375 222.036 103.151 222.735 103.151 223.652V228.5H101.695V219.732H103.151V220.98C103.439 220.532 103.829 220.185 104.319 219.94C104.821 219.695 105.37 219.572 105.967 219.572ZM115.034 228.644C114.362 228.644 113.759 228.532 113.226 228.308C112.692 228.073 112.271 227.753 111.962 227.348C111.652 226.932 111.482 226.457 111.45 225.924H112.954C112.996 226.361 113.199 226.719 113.562 226.996C113.935 227.273 114.42 227.412 115.018 227.412C115.572 227.412 116.01 227.289 116.33 227.044C116.65 226.799 116.81 226.489 116.81 226.116C116.81 225.732 116.639 225.449 116.298 225.268C115.956 225.076 115.428 224.889 114.714 224.708C114.063 224.537 113.53 224.367 113.114 224.196C112.708 224.015 112.356 223.753 112.058 223.412C111.77 223.06 111.626 222.601 111.626 222.036C111.626 221.588 111.759 221.177 112.026 220.804C112.292 220.431 112.671 220.137 113.162 219.924C113.652 219.7 114.212 219.588 114.842 219.588C115.812 219.588 116.596 219.833 117.194 220.324C117.791 220.815 118.111 221.487 118.154 222.34H116.698C116.666 221.881 116.479 221.513 116.138 221.236C115.807 220.959 115.359 220.82 114.794 220.82C114.271 220.82 113.855 220.932 113.546 221.156C113.236 221.38 113.082 221.673 113.082 222.036C113.082 222.324 113.172 222.564 113.354 222.756C113.546 222.937 113.78 223.087 114.058 223.204C114.346 223.311 114.74 223.433 115.242 223.572C115.871 223.743 116.383 223.913 116.778 224.084C117.172 224.244 117.508 224.489 117.786 224.82C118.074 225.151 118.223 225.583 118.234 226.116C118.234 226.596 118.1 227.028 117.834 227.412C117.567 227.796 117.188 228.1 116.698 228.324C116.218 228.537 115.663 228.644 115.034 228.644ZM124.011 224.084C124.011 223.188 124.192 222.404 124.555 221.732C124.917 221.049 125.413 220.521 126.043 220.148C126.683 219.775 127.392 219.588 128.171 219.588C128.939 219.588 129.605 219.753 130.171 220.084C130.736 220.415 131.157 220.831 131.435 221.332V219.732H132.907V228.5H131.435V226.868C131.147 227.38 130.715 227.807 130.139 228.148C129.573 228.479 128.912 228.644 128.155 228.644C127.376 228.644 126.672 228.452 126.043 228.068C125.413 227.684 124.917 227.145 124.555 226.452C124.192 225.759 124.011 224.969 124.011 224.084ZM131.435 224.1C131.435 223.439 131.301 222.863 131.035 222.372C130.768 221.881 130.405 221.508 129.947 221.252C129.499 220.985 129.003 220.852 128.459 220.852C127.915 220.852 127.419 220.98 126.971 221.236C126.523 221.492 126.165 221.865 125.899 222.356C125.632 222.847 125.499 223.423 125.499 224.084C125.499 224.756 125.632 225.343 125.899 225.844C126.165 226.335 126.523 226.713 126.971 226.98C127.419 227.236 127.915 227.364 128.459 227.364C129.003 227.364 129.499 227.236 129.947 226.98C130.405 226.713 130.768 226.335 131.035 225.844C131.301 225.343 131.435 224.761 131.435 224.1ZM136.823 221.364C137.122 220.841 137.559 220.415 138.135 220.084C138.711 219.753 139.367 219.588 140.103 219.588C140.893 219.588 141.602 219.775 142.231 220.148C142.861 220.521 143.357 221.049 143.719 221.732C144.082 222.404 144.263 223.188 144.263 224.084C144.263 224.969 144.082 225.759 143.719 226.452C143.357 227.145 142.855 227.684 142.215 228.068C141.586 228.452 140.882 228.644 140.103 228.644C139.346 228.644 138.679 228.479 138.103 228.148C137.538 227.817 137.111 227.396 136.823 226.884V228.5H135.367V216.66H136.823V221.364ZM142.775 224.084C142.775 223.423 142.642 222.847 142.375 222.356C142.109 221.865 141.746 221.492 141.287 221.236C140.839 220.98 140.343 220.852 139.799 220.852C139.266 220.852 138.77 220.985 138.311 221.252C137.863 221.508 137.501 221.887 137.223 222.388C136.957 222.879 136.823 223.449 136.823 224.1C136.823 224.761 136.957 225.343 137.223 225.844C137.501 226.335 137.863 226.713 138.311 226.98C138.77 227.236 139.266 227.364 139.799 227.364C140.343 227.364 140.839 227.236 141.287 226.98C141.746 226.713 142.109 226.335 142.375 225.844C142.642 225.343 142.775 224.756 142.775 224.084ZM150.004 228.644C149.182 228.644 148.436 228.457 147.764 228.084C147.102 227.711 146.58 227.183 146.196 226.5C145.822 225.807 145.636 225.007 145.636 224.1C145.636 223.204 145.828 222.415 146.212 221.732C146.606 221.039 147.14 220.511 147.812 220.148C148.484 219.775 149.236 219.588 150.068 219.588C150.9 219.588 151.652 219.775 152.324 220.148C152.996 220.511 153.524 221.033 153.908 221.716C154.302 222.399 154.5 223.193 154.5 224.1C154.5 225.007 154.297 225.807 153.892 226.5C153.497 227.183 152.958 227.711 152.276 228.084C151.593 228.457 150.836 228.644 150.004 228.644ZM150.004 227.364C150.526 227.364 151.017 227.241 151.476 226.996C151.934 226.751 152.302 226.383 152.58 225.892C152.868 225.401 153.012 224.804 153.012 224.1C153.012 223.396 152.873 222.799 152.596 222.308C152.318 221.817 151.956 221.455 151.508 221.22C151.06 220.975 150.574 220.852 150.052 220.852C149.518 220.852 149.028 220.975 148.58 221.22C148.142 221.455 147.79 221.817 147.524 222.308C147.257 222.799 147.124 223.396 147.124 224.1C147.124 224.815 147.252 225.417 147.508 225.908C147.774 226.399 148.126 226.767 148.564 227.012C149.001 227.247 149.481 227.364 150.004 227.364ZM164.19 219.732V228.5H162.734V227.204C162.457 227.652 162.067 228.004 161.566 228.26C161.075 228.505 160.531 228.628 159.934 228.628C159.251 228.628 158.638 228.489 158.094 228.212C157.55 227.924 157.118 227.497 156.798 226.932C156.489 226.367 156.334 225.679 156.334 224.868V219.732H157.774V224.676C157.774 225.54 157.993 226.207 158.43 226.676C158.867 227.135 159.465 227.364 160.222 227.364C161.001 227.364 161.614 227.124 162.062 226.644C162.51 226.164 162.734 225.465 162.734 224.548V219.732H164.19ZM168.425 220.932V226.1C168.425 226.527 168.515 226.831 168.697 227.012C168.878 227.183 169.193 227.268 169.641 227.268H170.713V228.5H169.401C168.59 228.5 167.982 228.313 167.577 227.94C167.171 227.567 166.969 226.953 166.969 226.1V220.932H165.833V219.732H166.969V217.524H168.425V219.732H170.713V220.932H168.425ZM181.094 219.572C181.756 219.572 182.353 219.716 182.886 220.004C183.42 220.281 183.836 220.703 184.134 221.268C184.444 221.833 184.598 222.521 184.598 223.332V228.5H183.158V223.54C183.158 222.665 182.94 221.999 182.502 221.54C182.065 221.071 181.468 220.836 180.71 220.836C179.942 220.836 179.329 221.076 178.87 221.556C178.422 222.036 178.198 222.735 178.198 223.652V228.5H176.742V216.66H178.198V220.98C178.486 220.532 178.881 220.185 179.382 219.94C179.894 219.695 180.465 219.572 181.094 219.572ZM190.801 228.644C189.979 228.644 189.233 228.457 188.561 228.084C187.899 227.711 187.377 227.183 186.993 226.5C186.619 225.807 186.433 225.007 186.433 224.1C186.433 223.204 186.625 222.415 187.009 221.732C187.403 221.039 187.937 220.511 188.609 220.148C189.281 219.775 190.033 219.588 190.865 219.588C191.697 219.588 192.449 219.775 193.121 220.148C193.793 220.511 194.321 221.033 194.705 221.716C195.099 222.399 195.297 223.193 195.297 224.1C195.297 225.007 195.094 225.807 194.689 226.5C194.294 227.183 193.755 227.711 193.073 228.084C192.39 228.457 191.633 228.644 190.801 228.644ZM190.801 227.364C191.323 227.364 191.814 227.241 192.273 226.996C192.731 226.751 193.099 226.383 193.377 225.892C193.665 225.401 193.809 224.804 193.809 224.1C193.809 223.396 193.67 222.799 193.393 222.308C193.115 221.817 192.753 221.455 192.305 221.22C191.857 220.975 191.371 220.852 190.849 220.852C190.315 220.852 189.825 220.975 189.377 221.22C188.939 221.455 188.587 221.817 188.321 222.308C188.054 222.799 187.921 223.396 187.921 224.1C187.921 224.815 188.049 225.417 188.305 225.908C188.571 226.399 188.923 226.767 189.361 227.012C189.798 227.247 190.278 227.364 190.801 227.364ZM208.891 219.732L206.155 228.5H204.651L202.539 221.54L200.427 228.5H198.923L196.171 219.732H197.659L199.675 227.092L201.851 219.732H203.339L205.467 227.108L207.451 219.732H208.891ZM215.354 218.308C215.076 218.308 214.842 218.212 214.65 218.02C214.458 217.828 214.362 217.593 214.362 217.316C214.362 217.039 214.458 216.804 214.65 216.612C214.842 216.42 215.076 216.324 215.354 216.324C215.62 216.324 215.844 216.42 216.026 216.612C216.218 216.804 216.314 217.039 216.314 217.316C216.314 217.593 216.218 217.828 216.026 218.02C215.844 218.212 215.62 218.308 215.354 218.308ZM216.058 219.732V228.5H214.602V219.732H216.058ZM220.315 220.932V226.1C220.315 226.527 220.406 226.831 220.587 227.012C220.768 227.183 221.083 227.268 221.531 227.268H222.603V228.5H221.291C220.48 228.5 219.872 228.313 219.467 227.94C219.062 227.567 218.859 226.953 218.859 226.1V220.932H217.723V219.732H218.859V217.524H220.315V219.732H222.603V220.932H220.315ZM56.4425 243.572C57.1252 243.572 57.7332 243.716 58.2665 244.004C58.7998 244.281 59.2212 244.703 59.5305 245.268C59.8398 245.833 59.9945 246.521 59.9945 247.332V252.5H58.5545V247.54C58.5545 246.665 58.3358 245.999 57.8985 245.54C57.4718 245.071 56.8905 244.836 56.1545 244.836C55.3972 244.836 54.7945 245.081 54.3465 245.572C53.8985 246.052 53.6745 246.751 53.6745 247.668V252.5H52.2345V247.54C52.2345 246.665 52.0158 245.999 51.5785 245.54C51.1518 245.071 50.5705 244.836 49.8345 244.836C49.0772 244.836 48.4745 245.081 48.0265 245.572C47.5785 246.052 47.3545 246.751 47.3545 247.668V252.5H45.8985V243.732H47.3545V244.996C47.6425 244.537 48.0265 244.185 48.5065 243.94C48.9972 243.695 49.5358 243.572 50.1225 243.572C50.8585 243.572 51.5092 243.737 52.0745 244.068C52.6398 244.399 53.0612 244.884 53.3385 245.524C53.5838 244.905 53.9892 244.425 54.5545 244.084C55.1198 243.743 55.7492 243.572 56.4425 243.572ZM63.1349 242.308C62.8575 242.308 62.6229 242.212 62.4309 242.02C62.2389 241.828 62.1429 241.593 62.1429 241.316C62.1429 241.039 62.2389 240.804 62.4309 240.612C62.6229 240.42 62.8575 240.324 63.1349 240.324C63.4015 240.324 63.6255 240.42 63.8069 240.612C63.9989 240.804 64.0949 241.039 64.0949 241.316C64.0949 241.593 63.9989 241.828 63.8069 242.02C63.6255 242.212 63.4015 242.308 63.1349 242.308ZM63.8389 243.732V252.5H62.3829V243.732H63.8389ZM69.9364 243.588C70.6937 243.588 71.355 243.753 71.9204 244.084C72.4964 244.415 72.923 244.831 73.2004 245.332V243.732H74.6724V252.692C74.6724 253.492 74.5017 254.201 74.1604 254.82C73.819 255.449 73.3284 255.94 72.6884 256.292C72.059 256.644 71.323 256.82 70.4804 256.82C69.3284 256.82 68.3684 256.548 67.6004 256.004C66.8324 255.46 66.379 254.719 66.2404 253.78H67.6804C67.8404 254.313 68.171 254.74 68.6724 255.06C69.1737 255.391 69.7764 255.556 70.4804 255.556C71.2804 255.556 71.931 255.305 72.4324 254.804C72.9444 254.303 73.2004 253.599 73.2004 252.692V250.852C72.9124 251.364 72.4857 251.791 71.9204 252.132C71.355 252.473 70.6937 252.644 69.9364 252.644C69.1577 252.644 68.4484 252.452 67.8084 252.068C67.179 251.684 66.683 251.145 66.3204 250.452C65.9577 249.759 65.7764 248.969 65.7764 248.084C65.7764 247.188 65.9577 246.404 66.3204 245.732C66.683 245.049 67.179 244.521 67.8084 244.148C68.4484 243.775 69.1577 243.588 69.9364 243.588ZM73.2004 248.1C73.2004 247.439 73.067 246.863 72.8004 246.372C72.5337 245.881 72.171 245.508 71.7124 245.252C71.2644 244.985 70.7684 244.852 70.2244 244.852C69.6804 244.852 69.1844 244.98 68.7364 245.236C68.2884 245.492 67.931 245.865 67.6644 246.356C67.3977 246.847 67.2644 247.423 67.2644 248.084C67.2644 248.756 67.3977 249.343 67.6644 249.844C67.931 250.335 68.2884 250.713 68.7364 250.98C69.1844 251.236 69.6804 251.364 70.2244 251.364C70.7684 251.364 71.2644 251.236 71.7124 250.98C72.171 250.713 72.5337 250.335 72.8004 249.844C73.067 249.343 73.2004 248.761 73.2004 248.1ZM81.4849 243.572C82.1462 243.572 82.7435 243.716 83.2769 244.004C83.8102 244.281 84.2262 244.703 84.5249 245.268C84.8342 245.833 84.9889 246.521 84.9889 247.332V252.5H83.5489V247.54C83.5489 246.665 83.3302 245.999 82.8929 245.54C82.4555 245.071 81.8582 244.836 81.1009 244.836C80.3329 244.836 79.7195 245.076 79.2609 245.556C78.8129 246.036 78.5889 246.735 78.5889 247.652V252.5H77.1329V240.66H78.5889V244.98C78.8769 244.532 79.2715 244.185 79.7729 243.94C80.2849 243.695 80.8555 243.572 81.4849 243.572ZM89.1433 244.932V250.1C89.1433 250.527 89.2339 250.831 89.4153 251.012C89.5966 251.183 89.9113 251.268 90.3593 251.268H91.4313V252.5H90.1193C89.3086 252.5 88.7006 252.313 88.2953 251.94C87.8899 251.567 87.6873 250.953 87.6873 250.1V244.932H86.5513V243.732H87.6873V241.524H89.1433V243.732H91.4313V244.932H89.1433ZM96.917 248.084C96.917 247.188 97.0983 246.404 97.461 245.732C97.8237 245.049 98.3197 244.521 98.949 244.148C99.589 243.775 100.298 243.588 101.077 243.588C101.845 243.588 102.512 243.753 103.077 244.084C103.642 244.415 104.064 244.831 104.341 245.332V243.732H105.813V252.5H104.341V250.868C104.053 251.38 103.621 251.807 103.045 252.148C102.48 252.479 101.818 252.644 101.061 252.644C100.282 252.644 99.5783 252.452 98.949 252.068C98.3197 251.684 97.8237 251.145 97.461 250.452C97.0983 249.759 96.917 248.969 96.917 248.084ZM104.341 248.1C104.341 247.439 104.208 246.863 103.941 246.372C103.674 245.881 103.312 245.508 102.853 245.252C102.405 244.985 101.909 244.852 101.365 244.852C100.821 244.852 100.325 244.98 99.877 245.236C99.429 245.492 99.0717 245.865 98.805 246.356C98.5383 246.847 98.405 247.423 98.405 248.084C98.405 248.756 98.5383 249.343 98.805 249.844C99.0717 250.335 99.429 250.713 99.877 250.98C100.325 251.236 100.821 251.364 101.365 251.364C101.909 251.364 102.405 251.236 102.853 250.98C103.312 250.713 103.674 250.335 103.941 249.844C104.208 249.343 104.341 248.761 104.341 248.1ZM111.842 244.932H110.002V252.5H108.546V244.932H107.41V243.732H108.546V243.108C108.546 242.127 108.796 241.412 109.298 240.964C109.81 240.505 110.626 240.276 111.746 240.276V241.492C111.106 241.492 110.652 241.62 110.386 241.876C110.13 242.121 110.002 242.532 110.002 243.108V243.732H111.842V244.932ZM117.107 244.932H115.267V252.5H113.811V244.932H112.675V243.732H113.811V243.108C113.811 242.127 114.062 241.412 114.563 240.964C115.075 240.505 115.891 240.276 117.011 240.276V241.492C116.371 241.492 115.918 241.62 115.651 241.876C115.395 242.121 115.267 242.532 115.267 243.108V243.732H117.107V244.932ZM126.805 247.78C126.805 248.057 126.789 248.351 126.757 248.66H119.749C119.802 249.524 120.095 250.201 120.629 250.692C121.173 251.172 121.829 251.412 122.597 251.412C123.226 251.412 123.749 251.268 124.165 250.98C124.591 250.681 124.89 250.287 125.061 249.796H126.629C126.394 250.639 125.925 251.327 125.221 251.86C124.517 252.383 123.642 252.644 122.597 252.644C121.765 252.644 121.018 252.457 120.357 252.084C119.706 251.711 119.194 251.183 118.821 250.5C118.447 249.807 118.261 249.007 118.261 248.1C118.261 247.193 118.442 246.399 118.805 245.716C119.167 245.033 119.674 244.511 120.325 244.148C120.986 243.775 121.743 243.588 122.597 243.588C123.429 243.588 124.165 243.769 124.805 244.132C125.445 244.495 125.935 244.996 126.277 245.636C126.629 246.265 126.805 246.98 126.805 247.78ZM125.301 247.476C125.301 246.921 125.178 246.447 124.933 246.052C124.687 245.647 124.351 245.343 123.925 245.14C123.509 244.927 123.045 244.82 122.533 244.82C121.797 244.82 121.167 245.055 120.645 245.524C120.133 245.993 119.839 246.644 119.765 247.476H125.301ZM128.183 248.1C128.183 247.193 128.364 246.404 128.727 245.732C129.089 245.049 129.591 244.521 130.231 244.148C130.881 243.775 131.623 243.588 132.455 243.588C133.532 243.588 134.417 243.849 135.111 244.372C135.815 244.895 136.279 245.62 136.503 246.548H134.935C134.785 246.015 134.492 245.593 134.055 245.284C133.628 244.975 133.095 244.82 132.455 244.82C131.623 244.82 130.951 245.108 130.439 245.684C129.927 246.249 129.671 247.055 129.671 248.1C129.671 249.156 129.927 249.972 130.439 250.548C130.951 251.124 131.623 251.412 132.455 251.412C133.095 251.412 133.628 251.263 134.055 250.964C134.481 250.665 134.775 250.239 134.935 249.684H136.503C136.268 250.58 135.799 251.3 135.095 251.844C134.391 252.377 133.511 252.644 132.455 252.644C131.623 252.644 130.881 252.457 130.231 252.084C129.591 251.711 129.089 251.183 128.727 250.5C128.364 249.817 128.183 249.017 128.183 248.1ZM140.221 244.932V250.1C140.221 250.527 140.312 250.831 140.493 251.012C140.675 251.183 140.989 251.268 141.437 251.268H142.509V252.5H141.197C140.387 252.5 139.779 252.313 139.373 251.94C138.968 251.567 138.765 250.953 138.765 250.1V244.932H137.629V243.732H138.765V241.524H140.221V243.732H142.509V244.932H140.221ZM151.643 252.644C150.971 252.644 150.368 252.532 149.835 252.308C149.302 252.073 148.88 251.753 148.571 251.348C148.262 250.932 148.091 250.457 148.059 249.924H149.563C149.606 250.361 149.808 250.719 150.171 250.996C150.544 251.273 151.03 251.412 151.627 251.412C152.182 251.412 152.619 251.289 152.939 251.044C153.259 250.799 153.419 250.489 153.419 250.116C153.419 249.732 153.248 249.449 152.907 249.268C152.566 249.076 152.038 248.889 151.323 248.708C150.672 248.537 150.139 248.367 149.723 248.196C149.318 248.015 148.966 247.753 148.667 247.412C148.379 247.06 148.235 246.601 148.235 246.036C148.235 245.588 148.368 245.177 148.635 244.804C148.902 244.431 149.28 244.137 149.771 243.924C150.262 243.7 150.822 243.588 151.451 243.588C152.422 243.588 153.206 243.833 153.803 244.324C154.4 244.815 154.72 245.487 154.763 246.34H153.307C153.275 245.881 153.088 245.513 152.747 245.236C152.416 244.959 151.968 244.82 151.403 244.82C150.88 244.82 150.464 244.932 150.155 245.156C149.846 245.38 149.691 245.673 149.691 246.036C149.691 246.324 149.782 246.564 149.963 246.756C150.155 246.937 150.39 247.087 150.667 247.204C150.955 247.311 151.35 247.433 151.851 247.572C152.48 247.743 152.992 247.913 153.387 248.084C153.782 248.244 154.118 248.489 154.395 248.82C154.683 249.151 154.832 249.583 154.843 250.116C154.843 250.596 154.71 251.028 154.443 251.412C154.176 251.796 153.798 252.1 153.307 252.324C152.827 252.537 152.272 252.644 151.643 252.644ZM158.675 244.932V250.1C158.675 250.527 158.765 250.831 158.947 251.012C159.128 251.183 159.443 251.268 159.891 251.268H160.963V252.5H159.651C158.84 252.5 158.232 252.313 157.827 251.94C157.421 251.567 157.219 250.953 157.219 250.1V244.932H156.083V243.732H157.219V241.524H158.675V243.732H160.963V244.932H158.675ZM162.183 248.084C162.183 247.188 162.364 246.404 162.727 245.732C163.089 245.049 163.585 244.521 164.215 244.148C164.855 243.775 165.564 243.588 166.343 243.588C167.111 243.588 167.777 243.753 168.343 244.084C168.908 244.415 169.329 244.831 169.607 245.332V243.732H171.079V252.5H169.607V250.868C169.319 251.38 168.887 251.807 168.311 252.148C167.745 252.479 167.084 252.644 166.327 252.644C165.548 252.644 164.844 252.452 164.215 252.068C163.585 251.684 163.089 251.145 162.727 250.452C162.364 249.759 162.183 248.969 162.183 248.084ZM169.607 248.1C169.607 247.439 169.473 246.863 169.207 246.372C168.94 245.881 168.577 245.508 168.119 245.252C167.671 244.985 167.175 244.852 166.631 244.852C166.087 244.852 165.591 244.98 165.143 245.236C164.695 245.492 164.337 245.865 164.071 246.356C163.804 246.847 163.671 247.423 163.671 248.084C163.671 248.756 163.804 249.343 164.071 249.844C164.337 250.335 164.695 250.713 165.143 250.98C165.591 251.236 166.087 251.364 166.631 251.364C167.175 251.364 167.671 251.236 168.119 250.98C168.577 250.713 168.94 250.335 169.207 249.844C169.473 249.343 169.607 248.761 169.607 248.1ZM178.435 252.5L174.995 248.628V252.5H173.539V240.66H174.995V247.62L178.371 243.732H180.403L176.275 248.1L180.419 252.5H178.435ZM189.774 247.78C189.774 248.057 189.758 248.351 189.726 248.66H182.718C182.771 249.524 183.064 250.201 183.598 250.692C184.142 251.172 184.798 251.412 185.566 251.412C186.195 251.412 186.718 251.268 187.134 250.98C187.56 250.681 187.859 250.287 188.03 249.796H189.598C189.363 250.639 188.894 251.327 188.19 251.86C187.486 252.383 186.611 252.644 185.566 252.644C184.734 252.644 183.987 252.457 183.326 252.084C182.675 251.711 182.163 251.183 181.79 250.5C181.416 249.807 181.23 249.007 181.23 248.1C181.23 247.193 181.411 246.399 181.774 245.716C182.136 245.033 182.643 244.511 183.294 244.148C183.955 243.775 184.712 243.588 185.566 243.588C186.398 243.588 187.134 243.769 187.774 244.132C188.414 244.495 188.904 244.996 189.246 245.636C189.598 246.265 189.774 246.98 189.774 247.78ZM188.27 247.476C188.27 246.921 188.147 246.447 187.902 246.052C187.656 245.647 187.32 245.343 186.894 245.14C186.478 244.927 186.014 244.82 185.502 244.82C184.766 244.82 184.136 245.055 183.614 245.524C183.102 245.993 182.808 246.644 182.734 247.476H188.27ZM196.047 243.572C196.709 243.572 197.306 243.716 197.839 244.004C198.373 244.281 198.789 244.703 199.087 245.268C199.397 245.833 199.551 246.521 199.551 247.332V252.5H198.111V247.54C198.111 246.665 197.893 245.999 197.455 245.54C197.018 245.071 196.421 244.836 195.663 244.836C194.895 244.836 194.282 245.076 193.823 245.556C193.375 246.036 193.151 246.735 193.151 247.652V252.5H191.695V240.66H193.151V244.98C193.439 244.532 193.834 244.185 194.335 243.94C194.847 243.695 195.418 243.572 196.047 243.572ZM205.754 252.644C204.932 252.644 204.186 252.457 203.514 252.084C202.852 251.711 202.33 251.183 201.946 250.5C201.572 249.807 201.386 249.007 201.386 248.1C201.386 247.204 201.578 246.415 201.962 245.732C202.356 245.039 202.89 244.511 203.562 244.148C204.234 243.775 204.986 243.588 205.818 243.588C206.65 243.588 207.402 243.775 208.074 244.148C208.746 244.511 209.274 245.033 209.658 245.716C210.052 246.399 210.25 247.193 210.25 248.1C210.25 249.007 210.047 249.807 209.642 250.5C209.247 251.183 208.708 251.711 208.026 252.084C207.343 252.457 206.586 252.644 205.754 252.644ZM205.754 251.364C206.276 251.364 206.767 251.241 207.226 250.996C207.684 250.751 208.052 250.383 208.33 249.892C208.618 249.401 208.762 248.804 208.762 248.1C208.762 247.396 208.623 246.799 208.346 246.308C208.068 245.817 207.706 245.455 207.258 245.22C206.81 244.975 206.324 244.852 205.802 244.852C205.268 244.852 204.778 244.975 204.33 245.22C203.892 245.455 203.54 245.817 203.274 246.308C203.007 246.799 202.874 247.396 202.874 248.1C202.874 248.815 203.002 249.417 203.258 249.908C203.524 250.399 203.876 250.767 204.314 251.012C204.751 251.247 205.231 251.364 205.754 251.364ZM213.62 240.66V252.5H212.164V240.66H213.62ZM215.558 248.084C215.558 247.188 215.739 246.404 216.102 245.732C216.464 245.049 216.96 244.521 217.59 244.148C218.23 243.775 218.944 243.588 219.734 243.588C220.416 243.588 221.051 243.748 221.638 244.068C222.224 244.377 222.672 244.788 222.982 245.3V240.66H224.454V252.5H222.982V250.852C222.694 251.375 222.267 251.807 221.702 252.148C221.136 252.479 220.475 252.644 219.718 252.644C218.939 252.644 218.23 252.452 217.59 252.068C216.96 251.684 216.464 251.145 216.102 250.452C215.739 249.759 215.558 248.969 215.558 248.084ZM222.982 248.1C222.982 247.439 222.848 246.863 222.582 246.372C222.315 245.881 221.952 245.508 221.494 245.252C221.046 244.985 220.55 244.852 220.006 244.852C219.462 244.852 218.966 244.98 218.518 245.236C218.07 245.492 217.712 245.865 217.446 246.356C217.179 246.847 217.046 247.423 217.046 248.084C217.046 248.756 217.179 249.343 217.446 249.844C217.712 250.335 218.07 250.713 218.518 250.98C218.966 251.236 219.462 251.364 220.006 251.364C220.55 251.364 221.046 251.236 221.494 250.98C221.952 250.713 222.315 250.335 222.582 249.844C222.848 249.343 222.982 248.761 222.982 248.1ZM234.914 247.78C234.914 248.057 234.898 248.351 234.866 248.66H227.858C227.911 249.524 228.205 250.201 228.738 250.692C229.282 251.172 229.938 251.412 230.706 251.412C231.335 251.412 231.858 251.268 232.274 250.98C232.701 250.681 232.999 250.287 233.17 249.796H234.738C234.503 250.639 234.034 251.327 233.33 251.86C232.626 252.383 231.751 252.644 230.706 252.644C229.874 252.644 229.127 252.457 228.466 252.084C227.815 251.711 227.303 251.183 226.93 250.5C226.557 249.807 226.37 249.007 226.37 248.1C226.37 247.193 226.551 246.399 226.914 245.716C227.277 245.033 227.783 244.511 228.434 244.148C229.095 243.775 229.853 243.588 230.706 243.588C231.538 243.588 232.274 243.769 232.914 244.132C233.554 244.495 234.045 244.996 234.386 245.636C234.738 246.265 234.914 246.98 234.914 247.78ZM233.41 247.476C233.41 246.921 233.287 246.447 233.042 246.052C232.797 245.647 232.461 245.343 232.034 245.14C231.618 244.927 231.154 244.82 230.642 244.82C229.906 244.82 229.277 245.055 228.754 245.524C228.242 245.993 227.949 246.644 227.874 247.476H233.41ZM238.292 245.156C238.548 244.655 238.911 244.265 239.38 243.988C239.86 243.711 240.441 243.572 241.124 243.572V245.076H240.74C239.108 245.076 238.292 245.961 238.292 247.732V252.5H236.836V243.732H238.292V245.156ZM245.909 252.644C245.237 252.644 244.634 252.532 244.101 252.308C243.567 252.073 243.146 251.753 242.837 251.348C242.527 250.932 242.357 250.457 242.325 249.924H243.829C243.871 250.361 244.074 250.719 244.437 250.996C244.81 251.273 245.295 251.412 245.893 251.412C246.447 251.412 246.885 251.289 247.205 251.044C247.525 250.799 247.685 250.489 247.685 250.116C247.685 249.732 247.514 249.449 247.173 249.268C246.831 249.076 246.303 248.889 245.589 248.708C244.938 248.537 244.405 248.367 243.989 248.196C243.583 248.015 243.231 247.753 242.933 247.412C242.645 247.06 242.501 246.601 242.501 246.036C242.501 245.588 242.634 245.177 242.901 244.804C243.167 244.431 243.546 244.137 244.037 243.924C244.527 243.7 245.087 243.588 245.717 243.588C246.687 243.588 247.471 243.833 248.069 244.324C248.666 244.815 248.986 245.487 249.029 246.34H247.573C247.541 245.881 247.354 245.513 247.013 245.236C246.682 244.959 246.234 244.82 245.669 244.82C245.146 244.82 244.73 244.932 244.421 245.156C244.111 245.38 243.957 245.673 243.957 246.036C243.957 246.324 244.047 246.564 244.229 246.756C244.421 246.937 244.655 247.087 244.933 247.204C245.221 247.311 245.615 247.433 246.117 247.572C246.746 247.743 247.258 247.913 247.653 248.084C248.047 248.244 248.383 248.489 248.661 248.82C248.949 249.151 249.098 249.583 249.109 250.116C249.109 250.596 248.975 251.028 248.709 251.412C248.442 251.796 248.063 252.1 247.573 252.324C247.093 252.537 246.538 252.644 245.909 252.644ZM251.628 252.596C251.351 252.596 251.116 252.5 250.924 252.308C250.732 252.116 250.636 251.881 250.636 251.604C250.636 251.327 250.732 251.092 250.924 250.9C251.116 250.708 251.351 250.612 251.628 250.612C251.895 250.612 252.119 250.708 252.3 250.9C252.492 251.092 252.588 251.327 252.588 251.604C252.588 251.881 252.492 252.116 252.3 252.308C252.119 252.5 251.895 252.596 251.628 252.596Z" fill="black"/>
</g>
<defs>
<filter id="filter0_dii_1604_3317" x="-51.3335" y="-53.5" width="418.667" height="432" filterUnits="userSpaceOnUse" color-interpolation-filters="sRGB">
<feFlood flood-opacity="0" result="BackgroundImageFix"/>
<feColorMatrix in="SourceAlpha" type="matrix" values="0 0 0 0 0 0 0 0 0 0 0 0 0 0 0 0 0 0 127 0" result="hardAlpha"/>
<feOffset dy="2"/>
<feGaussianBlur stdDeviation="10"/>
<feComposite in2="hardAlpha" operator="out"/>
<feColorMatrix type="matrix" values="0 0 0 0 0 0 0 0 0 0 0 0 0 0 0 0 0 0 0.02 0"/>
<feBlend mode="normal" in2="BackgroundImageFix" result="effect1_dropShadow_1604_3317"/>
<feBlend mode="normal" in="SourceGraphic" in2="effect1_dropShadow_1604_3317" result="shape"/>
<feColorMatrix in="SourceAlpha" type="matrix" values="0 0 0 0 0 0 0 0 0 0 0 0 0 0 0 0 0 0 127 0" result="hardAlpha"/>
<feOffset/>
<feGaussianBlur stdDeviation="2"/>
<feComposite in2="hardAlpha" operator="arithmetic" k2="-1" k3="1"/>
<feColorMatrix type="matrix" values="0 0 0 0 0.999662 0 0 0 0 0.999662 0 0 0 0 0.999662 0 0 0 0.24 0"/>
<feBlend mode="normal" in2="shape" result="effect2_innerShadow_1604_3317"/>
<feColorMatrix in="SourceAlpha" type="matrix" values="0 0 0 0 0 0 0 0 0 0 0 0 0 0 0 0 0 0 127 0" result="hardAlpha"/>
<feMorphology radius="2" operator="dilate" in="SourceAlpha" result="effect3_innerShadow_1604_3317"/>
<feOffset dx="-1" dy="-1"/>
<feGaussianBlur stdDeviation="2"/>
<feComposite in2="hardAlpha" operator="arithmetic" k2="-1" k3="1"/>
<feColorMatrix type="matrix" values="0 0 0 0 1 0 0 0 0 1 0 0 0 0 1 0 0 0 0.5 0"/>
<feBlend mode="normal" in2="effect2_innerShadow_1604_3317" result="effect3_innerShadow_1604_3317"/>
</filter>
</defs>
</svg>
