<svg width="241" height="280" viewBox="0 0 241 280" fill="none" xmlns="http://www.w3.org/2000/svg">
<g filter="url(#filter0_dii_1604_3281)">
<rect x="20.5" y="18" width="200" height="240" rx="20" fill="white" fill-opacity="0.3" shape-rendering="crispEdges"/>
<path d="M111.418 52.4863H109.523C109.257 52.4863 109.029 52.3919 108.84 52.2031C108.651 52.0078 108.557 51.7767 108.557 51.5098C108.557 51.2493 108.651 51.0215 108.84 50.8262C109.029 50.6309 109.257 50.5332 109.523 50.5332H111.418C111.678 50.5332 111.906 50.6309 112.102 50.8262C112.303 51.015 112.404 51.2428 112.404 51.5098C112.404 51.7767 112.303 52.0078 112.102 52.2031C111.906 52.3919 111.678 52.4863 111.418 52.4863ZM113.371 45.7578L112.033 44.4199C111.844 44.2311 111.75 44.0033 111.75 43.7363C111.75 43.4694 111.844 43.2383 112.033 43.043C112.229 42.8542 112.46 42.7598 112.727 42.7598C113 42.7598 113.228 42.8542 113.41 43.043L114.738 44.3906C114.927 44.5794 115.021 44.8073 115.021 45.0742C115.028 45.3411 114.934 45.569 114.738 45.7578C114.549 45.9531 114.322 46.0508 114.055 46.0508C113.788 46.0443 113.56 45.9466 113.371 45.7578ZM119.523 42.4375V40.543C119.523 40.2826 119.618 40.0547 119.807 39.8594C120.002 39.6641 120.233 39.5664 120.5 39.5664C120.767 39.5664 120.998 39.6641 121.193 39.8594C121.389 40.0547 121.486 40.2826 121.486 40.543V42.4375C121.486 42.6979 121.389 42.9258 121.193 43.1211C121.005 43.3164 120.773 43.4141 120.5 43.4141C120.233 43.4141 120.002 43.3164 119.807 43.1211C119.618 42.9258 119.523 42.6979 119.523 42.4375ZM126.252 44.3906L127.6 43.043C127.788 42.8542 128.013 42.7598 128.273 42.7598C128.54 42.7598 128.771 42.8542 128.967 43.043C129.156 43.2383 129.25 43.4694 129.25 43.7363C129.25 44.0033 129.156 44.2311 128.967 44.4199L127.619 45.7578C127.437 45.9531 127.212 46.0508 126.945 46.0508C126.678 46.0508 126.447 45.9531 126.252 45.7578C126.057 45.569 125.959 45.3411 125.959 45.0742C125.965 44.8073 126.063 44.5794 126.252 44.3906ZM131.457 52.4863H129.572C129.305 52.4863 129.074 52.3919 128.879 52.2031C128.69 52.0078 128.596 51.7767 128.596 51.5098C128.596 51.2428 128.69 51.015 128.879 50.8262C129.074 50.6309 129.305 50.5332 129.572 50.5332H131.457C131.724 50.5332 131.955 50.6309 132.15 50.8262C132.346 51.0215 132.443 51.2493 132.443 51.5098C132.443 51.7767 132.346 52.0078 132.15 52.2031C131.955 52.3919 131.724 52.4863 131.457 52.4863ZM120.5 45.1133C121.366 45.1133 122.176 45.263 122.932 45.5625C123.693 45.8555 124.361 46.2624 124.934 46.7832C125.507 47.304 125.952 47.916 126.271 48.6191C126.59 49.3223 126.75 50.0807 126.75 50.8945C126.75 51.5911 126.678 52.2129 126.535 52.7598C126.398 53.3066 126.216 53.8405 125.988 54.3613C125.767 54.8822 125.533 55.4518 125.285 56.0703C125.044 56.6888 124.82 57.418 124.611 58.2578C124.403 59.0911 124.243 60.1035 124.133 61.2949C124.113 61.5163 124.038 61.6921 123.908 61.8223C123.778 61.9525 123.596 62.0176 123.361 62.0176H117.639C117.404 62.0176 117.222 61.9525 117.092 61.8223C116.962 61.6921 116.887 61.5163 116.867 61.2949C116.757 60.1035 116.597 59.0911 116.389 58.2578C116.18 57.418 115.952 56.6888 115.705 56.0703C115.464 55.4518 115.233 54.8822 115.012 54.3613C114.79 53.8405 114.608 53.3066 114.465 52.7598C114.328 52.2129 114.26 51.5911 114.26 50.8945C114.26 50.0807 114.419 49.3223 114.738 48.6191C115.057 47.916 115.5 47.304 116.066 46.7832C116.639 46.2559 117.303 45.8457 118.059 45.5527C118.814 45.2598 119.628 45.1133 120.5 45.1133ZM120.5 46.793C119.875 46.793 119.286 46.8939 118.732 47.0957C118.186 47.2975 117.701 47.5807 117.277 47.9453C116.861 48.3099 116.532 48.7428 116.291 49.2441C116.05 49.7454 115.93 50.2956 115.93 50.8945C115.93 51.3893 115.988 51.8353 116.105 52.2324C116.223 52.6296 116.376 53.043 116.564 53.4727C116.76 53.8958 116.968 54.4004 117.189 54.9863C117.411 55.5658 117.626 56.2852 117.834 57.1445C118.049 58.0039 118.238 59.0716 118.4 60.3477H122.6C122.762 59.0716 122.948 58.0039 123.156 57.1445C123.371 56.2852 123.589 55.5658 123.811 54.9863C124.038 54.4004 124.247 53.8958 124.436 53.4727C124.631 53.043 124.784 52.6296 124.895 52.2324C125.012 51.8353 125.07 51.3893 125.07 50.8945C125.07 50.2956 124.95 49.7454 124.709 49.2441C124.475 48.7428 124.146 48.3099 123.723 47.9453C123.299 47.5807 122.811 47.2975 122.258 47.0957C121.704 46.8939 121.118 46.793 120.5 46.793ZM117.57 64.1465C117.395 64.1465 117.248 64.0879 117.131 63.9707C117.014 63.847 116.955 63.7005 116.955 63.5312C116.955 63.3555 117.014 63.209 117.131 63.0918C117.248 62.9746 117.395 62.916 117.57 62.916H123.43C123.605 62.916 123.752 62.9746 123.869 63.0918C123.993 63.209 124.055 63.3555 124.055 63.5312C124.055 63.7005 123.993 63.847 123.869 63.9707C123.752 64.0879 123.605 64.1465 123.43 64.1465H117.57ZM120.5 66.8809C119.758 66.8809 119.12 66.7116 118.586 66.373C118.059 66.0345 117.779 65.5918 117.746 65.0449H123.244C123.212 65.5918 122.928 66.0345 122.395 66.373C121.867 66.7116 121.236 66.8809 120.5 66.8809Z" fill="black"/>
<path d="M74.3398 90.88C75.5238 90.88 76.5585 91.1093 77.4438 91.568C78.3398 92.016 79.0278 92.6667 79.5078 93.52C79.9985 94.3627 80.2438 95.3493 80.2438 96.48C80.2438 97.6107 79.9985 98.592 79.5078 99.424C79.0278 100.256 78.3398 100.896 77.4438 101.344C76.5585 101.781 75.5238 102 74.3398 102H70.7078V90.88H74.3398ZM74.3398 100.512C75.6411 100.512 76.6385 100.16 77.3318 99.456C78.0251 98.752 78.3718 97.76 78.3718 96.48C78.3718 95.1893 78.0251 94.1813 77.3318 93.456C76.6385 92.7307 75.6411 92.368 74.3398 92.368H72.5318V100.512H74.3398ZM81.4436 97.552C81.4436 96.6667 81.6249 95.8827 81.9876 95.2C82.3609 94.5173 82.8622 93.9893 83.4916 93.616C84.1316 93.232 84.8356 93.04 85.6036 93.04C86.2969 93.04 86.8996 93.1787 87.4116 93.456C87.9342 93.7227 88.3502 94.0587 88.6596 94.464V93.184H90.4996V102H88.6596V100.688C88.3502 101.104 87.9289 101.451 87.3956 101.728C86.8622 102.005 86.2542 102.144 85.5716 102.144C84.8142 102.144 84.1209 101.952 83.4916 101.568C82.8622 101.173 82.3609 100.629 81.9876 99.936C81.6249 99.232 81.4436 98.4373 81.4436 97.552ZM88.6596 97.584C88.6596 96.976 88.5316 96.448 88.2756 96C88.0302 95.552 87.7049 95.2107 87.2996 94.976C86.8942 94.7413 86.4569 94.624 85.9876 94.624C85.5182 94.624 85.0809 94.7413 84.6756 94.976C84.2702 95.2 83.9396 95.536 83.6836 95.984C83.4382 96.4213 83.3156 96.944 83.3156 97.552C83.3156 98.16 83.4382 98.6933 83.6836 99.152C83.9396 99.6107 84.2702 99.9627 84.6756 100.208C85.0916 100.443 85.5289 100.56 85.9876 100.56C86.4569 100.56 86.8942 100.443 87.2996 100.208C87.7049 99.9733 88.0302 99.632 88.2756 99.184C88.5316 98.7253 88.6596 98.192 88.6596 97.584ZM95.0233 94.672V99.552C95.0233 99.8827 95.098 100.123 95.2473 100.272C95.4073 100.411 95.674 100.48 96.0473 100.48H97.1673V102H95.7273C94.906 102 94.2766 101.808 93.8393 101.424C93.402 101.04 93.1833 100.416 93.1833 99.552V94.672H92.1433V93.184H93.1833V90.992H95.0233V93.184H97.1673V94.672H95.0233ZM98.2404 97.552C98.2404 96.6667 98.4218 95.8827 98.7844 95.2C99.1578 94.5173 99.6591 93.9893 100.288 93.616C100.928 93.232 101.632 93.04 102.4 93.04C103.094 93.04 103.696 93.1787 104.208 93.456C104.731 93.7227 105.147 94.0587 105.456 94.464V93.184H107.296V102H105.456V100.688C105.147 101.104 104.726 101.451 104.192 101.728C103.659 102.005 103.051 102.144 102.368 102.144C101.611 102.144 100.918 101.952 100.288 101.568C99.6591 101.173 99.1578 100.629 98.7844 99.936C98.4218 99.232 98.2404 98.4373 98.2404 97.552ZM105.456 97.584C105.456 96.976 105.328 96.448 105.072 96C104.827 95.552 104.502 95.2107 104.096 94.976C103.691 94.7413 103.254 94.624 102.784 94.624C102.315 94.624 101.878 94.7413 101.472 94.976C101.067 95.2 100.736 95.536 100.48 95.984C100.235 96.4213 100.112 96.944 100.112 97.552C100.112 98.16 100.235 98.6933 100.48 99.152C100.736 99.6107 101.067 99.9627 101.472 100.208C101.888 100.443 102.326 100.56 102.784 100.56C103.254 100.56 103.691 100.443 104.096 100.208C104.502 99.9733 104.827 99.632 105.072 99.184C105.328 98.7253 105.456 98.192 105.456 97.584ZM121.624 94.192C121.624 94.7573 121.491 95.2907 121.224 95.792C120.958 96.2933 120.531 96.704 119.944 97.024C119.358 97.3333 118.606 97.488 117.688 97.488H115.672V102H113.848V90.88H117.688C118.542 90.88 119.262 91.0293 119.848 91.328C120.446 91.616 120.888 92.0107 121.176 92.512C121.475 93.0133 121.624 93.5733 121.624 94.192ZM117.688 96C118.382 96 118.899 95.8453 119.24 95.536C119.582 95.216 119.752 94.768 119.752 94.192C119.752 92.976 119.064 92.368 117.688 92.368H115.672V96H117.688ZM125.188 94.464C125.455 94.016 125.807 93.6693 126.244 93.424C126.692 93.168 127.22 93.04 127.828 93.04V94.928H127.364C126.649 94.928 126.105 95.1093 125.732 95.472C125.369 95.8347 125.188 96.464 125.188 97.36V102H123.364V93.184H125.188V94.464ZM130.433 92.016C130.102 92.016 129.825 91.904 129.601 91.68C129.377 91.456 129.265 91.1787 129.265 90.848C129.265 90.5173 129.377 90.24 129.601 90.016C129.825 89.792 130.102 89.68 130.433 89.68C130.753 89.68 131.025 89.792 131.249 90.016C131.473 90.24 131.585 90.5173 131.585 90.848C131.585 91.1787 131.473 91.456 131.249 91.68C131.025 91.904 130.753 92.016 130.433 92.016ZM131.329 93.184V102H129.505V93.184H131.329ZM137.131 100.368L139.627 93.184H141.563L138.203 102H136.027L132.683 93.184H134.635L137.131 100.368ZM142.334 97.552C142.334 96.6667 142.516 95.8827 142.878 95.2C143.252 94.5173 143.753 93.9893 144.382 93.616C145.022 93.232 145.726 93.04 146.494 93.04C147.188 93.04 147.79 93.1787 148.302 93.456C148.825 93.7227 149.241 94.0587 149.55 94.464V93.184H151.39V102H149.55V100.688C149.241 101.104 148.82 101.451 148.286 101.728C147.753 102.005 147.145 102.144 146.462 102.144C145.705 102.144 145.012 101.952 144.382 101.568C143.753 101.173 143.252 100.629 142.878 99.936C142.516 99.232 142.334 98.4373 142.334 97.552ZM149.55 97.584C149.55 96.976 149.422 96.448 149.166 96C148.921 95.552 148.596 95.2107 148.19 94.976C147.785 94.7413 147.348 94.624 146.878 94.624C146.409 94.624 145.972 94.7413 145.566 94.976C145.161 95.2 144.83 95.536 144.574 95.984C144.329 96.4213 144.206 96.944 144.206 97.552C144.206 98.16 144.329 98.6933 144.574 99.152C144.83 99.6107 145.161 99.9627 145.566 100.208C145.982 100.443 146.42 100.56 146.878 100.56C147.348 100.56 147.785 100.443 148.19 100.208C148.596 99.9733 148.921 99.632 149.166 99.184C149.422 98.7253 149.55 98.192 149.55 97.584ZM153.178 97.584C153.178 96.6773 153.359 95.8827 153.722 95.2C154.095 94.5067 154.607 93.9733 155.258 93.6C155.909 93.2267 156.655 93.04 157.498 93.04C158.565 93.04 159.445 93.296 160.138 93.808C160.842 94.3093 161.317 95.0293 161.562 95.968H159.594C159.434 95.5307 159.178 95.1893 158.826 94.944C158.474 94.6987 158.031 94.576 157.498 94.576C156.751 94.576 156.154 94.8427 155.706 95.376C155.269 95.8987 155.05 96.6347 155.05 97.584C155.05 98.5333 155.269 99.2747 155.706 99.808C156.154 100.341 156.751 100.608 157.498 100.608C158.554 100.608 159.253 100.144 159.594 99.216H161.562C161.306 100.112 160.826 100.827 160.122 101.36C159.418 101.883 158.543 102.144 157.498 102.144C156.655 102.144 155.909 101.957 155.258 101.584C154.607 101.2 154.095 100.667 153.722 99.984C153.359 99.2907 153.178 98.4907 153.178 97.584ZM171.316 93.184L165.908 106.144H164.02L165.812 101.856L162.34 93.184H164.372L166.852 99.904L169.428 93.184H171.316ZM100.272 126.112C99.2373 126.112 98.2827 125.872 97.408 125.392C96.544 124.901 95.856 124.224 95.344 123.36C94.8427 122.485 94.592 121.504 94.592 120.416C94.592 119.328 94.8427 118.352 95.344 117.488C95.856 116.624 96.544 115.952 97.408 115.472C98.2827 114.981 99.2373 114.736 100.272 114.736C101.317 114.736 102.272 114.981 103.136 115.472C104.011 115.952 104.699 116.624 105.2 117.488C105.701 118.352 105.952 119.328 105.952 120.416C105.952 121.504 105.701 122.485 105.2 123.36C104.699 124.224 104.011 124.901 103.136 125.392C102.272 125.872 101.317 126.112 100.272 126.112ZM100.272 124.528C101.008 124.528 101.664 124.363 102.24 124.032C102.816 123.691 103.264 123.211 103.584 122.592C103.915 121.963 104.08 121.237 104.08 120.416C104.08 119.595 103.915 118.875 103.584 118.256C103.264 117.637 102.816 117.163 102.24 116.832C101.664 116.501 101.008 116.336 100.272 116.336C99.536 116.336 98.88 116.501 98.304 116.832C97.728 117.163 97.2747 117.637 96.944 118.256C96.624 118.875 96.464 119.595 96.464 120.416C96.464 121.237 96.624 121.963 96.944 122.592C97.2747 123.211 97.728 123.691 98.304 124.032C98.88 124.363 99.536 124.528 100.272 124.528ZM111.443 118.672H109.811V126H107.971V118.672H106.931V117.184H107.971V116.56C107.971 115.547 108.238 114.811 108.771 114.352C109.315 113.883 110.163 113.648 111.315 113.648V115.168C110.76 115.168 110.371 115.275 110.147 115.488C109.923 115.691 109.811 116.048 109.811 116.56V117.184H111.443V118.672ZM116.755 118.672H115.123V126H113.283V118.672H112.243V117.184H113.283V116.56C113.283 115.547 113.55 114.811 114.083 114.352C114.627 113.883 115.475 113.648 116.627 113.648V115.168C116.073 115.168 115.683 115.275 115.459 115.488C115.235 115.691 115.123 116.048 115.123 116.56V117.184H116.755V118.672ZM119.3 116.016C118.969 116.016 118.692 115.904 118.468 115.68C118.244 115.456 118.132 115.179 118.132 114.848C118.132 114.517 118.244 114.24 118.468 114.016C118.692 113.792 118.969 113.68 119.3 113.68C119.62 113.68 119.892 113.792 120.116 114.016C120.34 114.24 120.452 114.517 120.452 114.848C120.452 115.179 120.34 115.456 120.116 115.68C119.892 115.904 119.62 116.016 119.3 116.016ZM120.196 117.184V126H118.372V117.184H120.196ZM121.983 121.584C121.983 120.677 122.164 119.883 122.527 119.2C122.9 118.507 123.412 117.973 124.063 117.6C124.713 117.227 125.46 117.04 126.303 117.04C127.369 117.04 128.249 117.296 128.943 117.808C129.647 118.309 130.121 119.029 130.367 119.968H128.399C128.239 119.531 127.983 119.189 127.631 118.944C127.279 118.699 126.836 118.576 126.303 118.576C125.556 118.576 124.959 118.843 124.511 119.376C124.073 119.899 123.855 120.635 123.855 121.584C123.855 122.533 124.073 123.275 124.511 123.808C124.959 124.341 125.556 124.608 126.303 124.608C127.359 124.608 128.057 124.144 128.399 123.216H130.367C130.111 124.112 129.631 124.827 128.927 125.36C128.223 125.883 127.348 126.144 126.303 126.144C125.46 126.144 124.713 125.957 124.063 125.584C123.412 125.2 122.9 124.667 122.527 123.984C122.164 123.291 121.983 122.491 121.983 121.584ZM140.264 121.376C140.264 121.707 140.243 122.005 140.2 122.272H133.464C133.518 122.976 133.779 123.541 134.248 123.968C134.718 124.395 135.294 124.608 135.976 124.608C136.958 124.608 137.651 124.197 138.056 123.376H140.024C139.758 124.187 139.272 124.853 138.568 125.376C137.875 125.888 137.011 126.144 135.976 126.144C135.134 126.144 134.376 125.957 133.704 125.584C133.043 125.2 132.52 124.667 132.136 123.984C131.763 123.291 131.576 122.491 131.576 121.584C131.576 120.677 131.758 119.883 132.12 119.2C132.494 118.507 133.011 117.973 133.672 117.6C134.344 117.227 135.112 117.04 135.976 117.04C136.808 117.04 137.55 117.221 138.2 117.584C138.851 117.947 139.358 118.459 139.72 119.12C140.083 119.771 140.264 120.523 140.264 121.376ZM138.36 120.8C138.35 120.128 138.11 119.589 137.64 119.184C137.171 118.779 136.59 118.576 135.896 118.576C135.267 118.576 134.728 118.779 134.28 119.184C133.832 119.579 133.566 120.117 133.48 120.8H138.36ZM143.883 118.464C144.15 118.016 144.502 117.669 144.939 117.424C145.387 117.168 145.915 117.04 146.523 117.04V118.928H146.059C145.345 118.928 144.801 119.109 144.427 119.472C144.065 119.835 143.883 120.464 143.883 121.36V126H142.059V117.184H143.883V118.464Z" fill="black"/>
<path d="M56.1781 155.312V165H54.9041V157.776L51.6841 165H50.7881L47.5541 157.762V165H46.2801V155.312H47.6521L51.2361 163.32L54.8201 155.312H56.1781ZM57.8627 161.136C57.8627 160.352 58.0214 159.666 58.3387 159.078C58.6561 158.481 59.0901 158.019 59.6407 157.692C60.2007 157.365 60.8214 157.202 61.5027 157.202C62.1747 157.202 62.7581 157.347 63.2527 157.636C63.7474 157.925 64.1161 158.289 64.3587 158.728V157.328H65.6467V165H64.3587V163.572C64.1067 164.02 63.7287 164.393 63.2247 164.692C62.7301 164.981 62.1514 165.126 61.4887 165.126C60.8074 165.126 60.1914 164.958 59.6407 164.622C59.0901 164.286 58.6561 163.815 58.3387 163.208C58.0214 162.601 57.8627 161.911 57.8627 161.136ZM64.3587 161.15C64.3587 160.571 64.2421 160.067 64.0087 159.638C63.7754 159.209 63.4581 158.882 63.0567 158.658C62.6647 158.425 62.2307 158.308 61.7547 158.308C61.2787 158.308 60.8447 158.42 60.4527 158.644C60.0607 158.868 59.7481 159.195 59.5147 159.624C59.2814 160.053 59.1647 160.557 59.1647 161.136C59.1647 161.724 59.2814 162.237 59.5147 162.676C59.7481 163.105 60.0607 163.437 60.4527 163.67C60.8447 163.894 61.2787 164.006 61.7547 164.006C62.2307 164.006 62.6647 163.894 63.0567 163.67C63.4581 163.437 63.7754 163.105 64.0087 162.676C64.2421 162.237 64.3587 161.729 64.3587 161.15ZM72.0837 165L69.0737 161.612V165H67.7997V154.64H69.0737V160.73L72.0277 157.328H73.8057L70.1937 161.15L73.8197 165H72.0837ZM82.0048 160.87C82.0048 161.113 81.9908 161.369 81.9628 161.64H75.8308C75.8774 162.396 76.1341 162.989 76.6008 163.418C77.0768 163.838 77.6508 164.048 78.3228 164.048C78.8734 164.048 79.3308 163.922 79.6948 163.67C80.0681 163.409 80.3294 163.063 80.4788 162.634H81.8508C81.6454 163.371 81.2348 163.973 80.6188 164.44C80.0028 164.897 79.2374 165.126 78.3228 165.126C77.5948 165.126 76.9414 164.963 76.3628 164.636C75.7934 164.309 75.3454 163.847 75.0188 163.25C74.6921 162.643 74.5288 161.943 74.5288 161.15C74.5288 160.357 74.6874 159.661 75.0048 159.064C75.3221 158.467 75.7654 158.009 76.3348 157.692C76.9134 157.365 77.5761 157.202 78.3228 157.202C79.0508 157.202 79.6948 157.361 80.2548 157.678C80.8148 157.995 81.2441 158.434 81.5428 158.994C81.8508 159.545 82.0048 160.17 82.0048 160.87ZM80.6888 160.604C80.6888 160.119 80.5814 159.703 80.3668 159.358C80.1521 159.003 79.8581 158.737 79.4848 158.56C79.1208 158.373 78.7148 158.28 78.2668 158.28C77.6228 158.28 77.0721 158.485 76.6148 158.896C76.1668 159.307 75.9101 159.876 75.8448 160.604H80.6888ZM86.4024 165.126C85.8144 165.126 85.2871 165.028 84.8204 164.832C84.3537 164.627 83.9851 164.347 83.7144 163.992C83.4437 163.628 83.2944 163.213 83.2664 162.746H84.5824C84.6197 163.129 84.7971 163.441 85.1144 163.684C85.4411 163.927 85.8657 164.048 86.3884 164.048C86.8737 164.048 87.2564 163.941 87.5364 163.726C87.8164 163.511 87.9564 163.241 87.9564 162.914C87.9564 162.578 87.8071 162.331 87.5084 162.172C87.2097 162.004 86.7477 161.841 86.1224 161.682C85.5531 161.533 85.0864 161.383 84.7224 161.234C84.3677 161.075 84.0597 160.847 83.7984 160.548C83.5464 160.24 83.4204 159.839 83.4204 159.344C83.4204 158.952 83.5371 158.593 83.7704 158.266C84.0037 157.939 84.3351 157.683 84.7644 157.496C85.1937 157.3 85.6837 157.202 86.2344 157.202C87.0837 157.202 87.7697 157.417 88.2924 157.846C88.8151 158.275 89.0951 158.863 89.1324 159.61H87.8584C87.8304 159.209 87.6671 158.887 87.3684 158.644C87.0791 158.401 86.6871 158.28 86.1924 158.28C85.7351 158.28 85.3711 158.378 85.1004 158.574C84.8297 158.77 84.6944 159.027 84.6944 159.344C84.6944 159.596 84.7737 159.806 84.9324 159.974C85.1004 160.133 85.3057 160.263 85.5484 160.366C85.8004 160.459 86.1457 160.567 86.5844 160.688C87.1351 160.837 87.5831 160.987 87.9284 161.136C88.2737 161.276 88.5677 161.491 88.8104 161.78C89.0624 162.069 89.1931 162.447 89.2024 162.914C89.2024 163.334 89.0857 163.712 88.8524 164.048C88.6191 164.384 88.2877 164.65 87.8584 164.846C87.4384 165.033 86.9531 165.126 86.4024 165.126ZM97.4493 165.126C96.8613 165.126 96.3339 165.028 95.8673 164.832C95.4006 164.627 95.0319 164.347 94.7613 163.992C94.4906 163.628 94.3413 163.213 94.3133 162.746H95.6293C95.6666 163.129 95.8439 163.441 96.1613 163.684C96.4879 163.927 96.9126 164.048 97.4353 164.048C97.9206 164.048 98.3033 163.941 98.5833 163.726C98.8633 163.511 99.0033 163.241 99.0033 162.914C99.0033 162.578 98.8539 162.331 98.5553 162.172C98.2566 162.004 97.7946 161.841 97.1693 161.682C96.5999 161.533 96.1333 161.383 95.7693 161.234C95.4146 161.075 95.1066 160.847 94.8453 160.548C94.5933 160.24 94.4673 159.839 94.4673 159.344C94.4673 158.952 94.5839 158.593 94.8173 158.266C95.0506 157.939 95.3819 157.683 95.8113 157.496C96.2406 157.3 96.7306 157.202 97.2813 157.202C98.1306 157.202 98.8166 157.417 99.3393 157.846C99.8619 158.275 100.142 158.863 100.179 159.61H98.9053C98.8773 159.209 98.7139 158.887 98.4153 158.644C98.1259 158.401 97.7339 158.28 97.2393 158.28C96.7819 158.28 96.4179 158.378 96.1473 158.574C95.8766 158.77 95.7413 159.027 95.7413 159.344C95.7413 159.596 95.8206 159.806 95.9793 159.974C96.1473 160.133 96.3526 160.263 96.5953 160.366C96.8473 160.459 97.1926 160.567 97.6313 160.688C98.1819 160.837 98.6299 160.987 98.9753 161.136C99.3206 161.276 99.6146 161.491 99.8573 161.78C100.109 162.069 100.24 162.447 100.249 162.914C100.249 163.334 100.133 163.712 99.8993 164.048C99.6659 164.384 99.3346 164.65 98.9053 164.846C98.4853 165.033 97.9999 165.126 97.4493 165.126ZM108.852 157.328V165H107.578V163.866C107.335 164.258 106.994 164.566 106.556 164.79C106.126 165.005 105.65 165.112 105.128 165.112C104.53 165.112 103.994 164.991 103.518 164.748C103.042 164.496 102.664 164.123 102.384 163.628C102.113 163.133 101.978 162.531 101.978 161.822V157.328H103.238V161.654C103.238 162.41 103.429 162.993 103.812 163.404C104.194 163.805 104.717 164.006 105.38 164.006C106.061 164.006 106.598 163.796 106.99 163.376C107.382 162.956 107.578 162.345 107.578 161.542V157.328H108.852ZM112.277 158.574C112.501 158.135 112.818 157.795 113.229 157.552C113.649 157.309 114.157 157.188 114.755 157.188V158.504H114.419C112.991 158.504 112.277 159.279 112.277 160.828V165H111.003V157.328H112.277V158.574ZM123.225 160.87C123.225 161.113 123.211 161.369 123.183 161.64H117.051C117.098 162.396 117.355 162.989 117.821 163.418C118.297 163.838 118.871 164.048 119.543 164.048C120.094 164.048 120.551 163.922 120.915 163.67C121.289 163.409 121.55 163.063 121.699 162.634H123.071C122.866 163.371 122.455 163.973 121.839 164.44C121.223 164.897 120.458 165.126 119.543 165.126C118.815 165.126 118.162 164.963 117.583 164.636C117.014 164.309 116.566 163.847 116.239 163.25C115.913 162.643 115.749 161.943 115.749 161.15C115.749 160.357 115.908 159.661 116.225 159.064C116.543 158.467 116.986 158.009 117.555 157.692C118.134 157.365 118.797 157.202 119.543 157.202C120.271 157.202 120.915 157.361 121.475 157.678C122.035 157.995 122.465 158.434 122.763 158.994C123.071 159.545 123.225 160.17 123.225 160.87ZM121.909 160.604C121.909 160.119 121.802 159.703 121.587 159.358C121.373 159.003 121.079 158.737 120.705 158.56C120.341 158.373 119.935 158.28 119.487 158.28C118.843 158.28 118.293 158.485 117.835 158.896C117.387 159.307 117.131 159.876 117.065 160.604H121.909ZM135.248 157.328L130.628 168.612H129.312L130.824 164.916L127.73 157.328H129.144L131.552 163.544L133.932 157.328H135.248ZM139.874 165.126C139.156 165.126 138.502 164.963 137.914 164.636C137.336 164.309 136.878 163.847 136.542 163.25C136.216 162.643 136.052 161.943 136.052 161.15C136.052 160.366 136.22 159.675 136.556 159.078C136.902 158.471 137.368 158.009 137.956 157.692C138.544 157.365 139.202 157.202 139.93 157.202C140.658 157.202 141.316 157.365 141.904 157.692C142.492 158.009 142.954 158.467 143.29 159.064C143.636 159.661 143.808 160.357 143.808 161.15C143.808 161.943 143.631 162.643 143.276 163.25C142.931 163.847 142.46 164.309 141.862 164.636C141.265 164.963 140.602 165.126 139.874 165.126ZM139.874 164.006C140.332 164.006 140.761 163.899 141.162 163.684C141.564 163.469 141.886 163.147 142.128 162.718C142.38 162.289 142.506 161.766 142.506 161.15C142.506 160.534 142.385 160.011 142.142 159.582C141.9 159.153 141.582 158.835 141.19 158.63C140.798 158.415 140.374 158.308 139.916 158.308C139.45 158.308 139.02 158.415 138.628 158.63C138.246 158.835 137.938 159.153 137.704 159.582C137.471 160.011 137.354 160.534 137.354 161.15C137.354 161.775 137.466 162.303 137.69 162.732C137.924 163.161 138.232 163.483 138.614 163.698C138.997 163.903 139.417 164.006 139.874 164.006ZM152.287 157.328V165H151.013V163.866C150.771 164.258 150.43 164.566 149.991 164.79C149.562 165.005 149.086 165.112 148.563 165.112C147.966 165.112 147.429 164.991 146.953 164.748C146.477 164.496 146.099 164.123 145.819 163.628C145.549 163.133 145.413 162.531 145.413 161.822V157.328H146.673V161.654C146.673 162.41 146.865 162.993 147.247 163.404C147.63 163.805 148.153 164.006 148.815 164.006C149.497 164.006 150.033 163.796 150.425 163.376C150.817 162.956 151.013 162.345 151.013 161.542V157.328H152.287ZM155.712 158.574C155.936 158.135 156.254 157.795 156.664 157.552C157.084 157.309 157.593 157.188 158.19 157.188V158.504H157.854C156.426 158.504 155.712 159.279 155.712 160.828V165H154.438V157.328H155.712V158.574ZM162.917 161.136C162.917 160.352 163.076 159.666 163.393 159.078C163.711 158.481 164.145 158.019 164.695 157.692C165.255 157.365 165.881 157.202 166.571 157.202C167.169 157.202 167.724 157.342 168.237 157.622C168.751 157.893 169.143 158.252 169.413 158.7V154.64H170.701V165H169.413V163.558C169.161 164.015 168.788 164.393 168.293 164.692C167.799 164.981 167.22 165.126 166.557 165.126C165.876 165.126 165.255 164.958 164.695 164.622C164.145 164.286 163.711 163.815 163.393 163.208C163.076 162.601 162.917 161.911 162.917 161.136ZM169.413 161.15C169.413 160.571 169.297 160.067 169.063 159.638C168.83 159.209 168.513 158.882 168.111 158.658C167.719 158.425 167.285 158.308 166.809 158.308C166.333 158.308 165.899 158.42 165.507 158.644C165.115 158.868 164.803 159.195 164.569 159.624C164.336 160.053 164.219 160.557 164.219 161.136C164.219 161.724 164.336 162.237 164.569 162.676C164.803 163.105 165.115 163.437 165.507 163.67C165.899 163.894 166.333 164.006 166.809 164.006C167.285 164.006 167.719 163.894 168.111 163.67C168.513 163.437 168.83 163.105 169.063 162.676C169.297 162.237 169.413 161.729 169.413 161.15ZM172.378 161.136C172.378 160.352 172.537 159.666 172.854 159.078C173.172 158.481 173.606 158.019 174.156 157.692C174.716 157.365 175.337 157.202 176.018 157.202C176.69 157.202 177.274 157.347 177.768 157.636C178.263 157.925 178.632 158.289 178.874 158.728V157.328H180.162V165H178.874V163.572C178.622 164.02 178.244 164.393 177.74 164.692C177.246 164.981 176.667 165.126 176.004 165.126C175.323 165.126 174.707 164.958 174.156 164.622C173.606 164.286 173.172 163.815 172.854 163.208C172.537 162.601 172.378 161.911 172.378 161.136ZM178.874 161.15C178.874 160.571 178.758 160.067 178.524 159.638C178.291 159.209 177.974 158.882 177.572 158.658C177.18 158.425 176.746 158.308 176.27 158.308C175.794 158.308 175.36 158.42 174.968 158.644C174.576 158.868 174.264 159.195 174.03 159.624C173.797 160.053 173.68 160.557 173.68 161.136C173.68 161.724 173.797 162.237 174.03 162.676C174.264 163.105 174.576 163.437 174.968 163.67C175.36 163.894 175.794 164.006 176.27 164.006C176.746 164.006 177.18 163.894 177.572 163.67C177.974 163.437 178.291 163.105 178.524 162.676C178.758 162.237 178.874 161.729 178.874 161.15ZM183.869 158.378V162.9C183.869 163.273 183.949 163.539 184.107 163.698C184.266 163.847 184.541 163.922 184.933 163.922H185.871V165H184.723C184.014 165 183.482 164.837 183.127 164.51C182.773 164.183 182.595 163.647 182.595 162.9V158.378H181.601V157.328H182.595V155.396H183.869V157.328H185.871V158.378H183.869ZM186.939 161.136C186.939 160.352 187.098 159.666 187.415 159.078C187.732 158.481 188.166 158.019 188.717 157.692C189.277 157.365 189.898 157.202 190.579 157.202C191.251 157.202 191.834 157.347 192.329 157.636C192.824 157.925 193.192 158.289 193.435 158.728V157.328H194.723V165H193.435V163.572C193.183 164.02 192.805 164.393 192.301 164.692C191.806 164.981 191.228 165.126 190.565 165.126C189.884 165.126 189.268 164.958 188.717 164.622C188.166 164.286 187.732 163.815 187.415 163.208C187.098 162.601 186.939 161.911 186.939 161.136ZM193.435 161.15C193.435 160.571 193.318 160.067 193.085 159.638C192.852 159.209 192.534 158.882 192.133 158.658C191.741 158.425 191.307 158.308 190.831 158.308C190.355 158.308 189.921 158.42 189.529 158.644C189.137 158.868 188.824 159.195 188.591 159.624C188.358 160.053 188.241 160.557 188.241 161.136C188.241 161.724 188.358 162.237 188.591 162.676C188.824 163.105 189.137 163.437 189.529 163.67C189.921 163.894 190.355 164.006 190.831 164.006C191.307 164.006 191.741 163.894 192.133 163.67C192.534 163.437 192.852 163.105 193.085 162.676C193.318 162.237 193.435 161.729 193.435 161.15ZM53.5831 186.126C52.9951 186.126 52.4677 186.028 52.0011 185.832C51.5344 185.627 51.1657 185.347 50.8951 184.992C50.6244 184.628 50.4751 184.213 50.4471 183.746H51.7631C51.8004 184.129 51.9777 184.441 52.2951 184.684C52.6217 184.927 53.0464 185.048 53.5691 185.048C54.0544 185.048 54.4371 184.941 54.7171 184.726C54.9971 184.511 55.1371 184.241 55.1371 183.914C55.1371 183.578 54.9877 183.331 54.6891 183.172C54.3904 183.004 53.9284 182.841 53.3031 182.682C52.7337 182.533 52.2671 182.383 51.9031 182.234C51.5484 182.075 51.2404 181.847 50.9791 181.548C50.7271 181.24 50.6011 180.839 50.6011 180.344C50.6011 179.952 50.7177 179.593 50.9511 179.266C51.1844 178.939 51.5157 178.683 51.9451 178.496C52.3744 178.3 52.8644 178.202 53.4151 178.202C54.2644 178.202 54.9504 178.417 55.4731 178.846C55.9957 179.275 56.2757 179.863 56.3131 180.61H55.0391C55.0111 180.209 54.8477 179.887 54.5491 179.644C54.2597 179.401 53.8677 179.28 53.3731 179.28C52.9157 179.28 52.5517 179.378 52.2811 179.574C52.0104 179.77 51.8751 180.027 51.8751 180.344C51.8751 180.596 51.9544 180.806 52.1131 180.974C52.2811 181.133 52.4864 181.263 52.7291 181.366C52.9811 181.459 53.3264 181.567 53.7651 181.688C54.3157 181.837 54.7637 181.987 55.1091 182.136C55.4544 182.276 55.7484 182.491 55.9911 182.78C56.2431 183.069 56.3737 183.447 56.3831 183.914C56.3831 184.334 56.2664 184.712 56.0331 185.048C55.7997 185.384 55.4684 185.65 55.0391 185.846C54.6191 186.033 54.1337 186.126 53.5831 186.126ZM59.7355 179.378V183.9C59.7355 184.273 59.8148 184.539 59.9735 184.698C60.1322 184.847 60.4075 184.922 60.7995 184.922H61.7375V186H60.5895C59.8802 186 59.3482 185.837 58.9935 185.51C58.6388 185.183 58.4615 184.647 58.4615 183.9V179.378H57.4675V178.328H58.4615V176.396H59.7355V178.328H61.7375V179.378H59.7355ZM62.8051 182.136C62.8051 181.352 62.9638 180.666 63.2811 180.078C63.5985 179.481 64.0325 179.019 64.5831 178.692C65.1431 178.365 65.7638 178.202 66.4451 178.202C67.1171 178.202 67.7005 178.347 68.1951 178.636C68.6898 178.925 69.0585 179.289 69.3011 179.728V178.328H70.5891V186H69.3011V184.572C69.0491 185.02 68.6711 185.393 68.1671 185.692C67.6725 185.981 67.0938 186.126 66.4311 186.126C65.7498 186.126 65.1338 185.958 64.5831 185.622C64.0325 185.286 63.5985 184.815 63.2811 184.208C62.9638 183.601 62.8051 182.911 62.8051 182.136ZM69.3011 182.15C69.3011 181.571 69.1845 181.067 68.9511 180.638C68.7178 180.209 68.4005 179.882 67.9991 179.658C67.6071 179.425 67.1731 179.308 66.6971 179.308C66.2211 179.308 65.7871 179.42 65.3951 179.644C65.0031 179.868 64.6905 180.195 64.4571 180.624C64.2238 181.053 64.1071 181.557 64.1071 182.136C64.1071 182.724 64.2238 183.237 64.4571 183.676C64.6905 184.105 65.0031 184.437 65.3951 184.67C65.7871 184.894 66.2211 185.006 66.6971 185.006C67.1731 185.006 67.6071 184.894 67.9991 184.67C68.4005 184.437 68.7178 184.105 68.9511 183.676C69.1845 183.237 69.3011 182.729 69.3011 182.15ZM79.3501 178.328L74.7301 189.612H73.4141L74.9261 185.916L71.8321 178.328H73.2461L75.6541 184.544L78.0341 178.328H79.3501ZM83.3467 186.126C82.7587 186.126 82.2314 186.028 81.7647 185.832C81.2981 185.627 80.9294 185.347 80.6587 184.992C80.3881 184.628 80.2387 184.213 80.2107 183.746H81.5267C81.5641 184.129 81.7414 184.441 82.0587 184.684C82.3854 184.927 82.8101 185.048 83.3327 185.048C83.8181 185.048 84.2007 184.941 84.4807 184.726C84.7607 184.511 84.9007 184.241 84.9007 183.914C84.9007 183.578 84.7514 183.331 84.4527 183.172C84.1541 183.004 83.6921 182.841 83.0667 182.682C82.4974 182.533 82.0307 182.383 81.6667 182.234C81.3121 182.075 81.0041 181.847 80.7427 181.548C80.4907 181.24 80.3647 180.839 80.3647 180.344C80.3647 179.952 80.4814 179.593 80.7147 179.266C80.9481 178.939 81.2794 178.683 81.7087 178.496C82.1381 178.3 82.6281 178.202 83.1787 178.202C84.0281 178.202 84.7141 178.417 85.2367 178.846C85.7594 179.275 86.0394 179.863 86.0767 180.61H84.8027C84.7747 180.209 84.6114 179.887 84.3127 179.644C84.0234 179.401 83.6314 179.28 83.1367 179.28C82.6794 179.28 82.3154 179.378 82.0447 179.574C81.7741 179.77 81.6387 180.027 81.6387 180.344C81.6387 180.596 81.7181 180.806 81.8767 180.974C82.0447 181.133 82.2501 181.263 82.4927 181.366C82.7447 181.459 83.0901 181.567 83.5287 181.688C84.0794 181.837 84.5274 181.987 84.8727 182.136C85.2181 182.276 85.5121 182.491 85.7547 182.78C86.0067 183.069 86.1374 183.447 86.1467 183.914C86.1467 184.334 86.0301 184.712 85.7967 185.048C85.5634 185.384 85.2321 185.65 84.8027 185.846C84.3827 186.033 83.8974 186.126 83.3467 186.126ZM94.3936 186.126C93.8056 186.126 93.2783 186.028 92.8116 185.832C92.3449 185.627 91.9763 185.347 91.7056 184.992C91.4349 184.628 91.2856 184.213 91.2576 183.746H92.5736C92.6109 184.129 92.7883 184.441 93.1056 184.684C93.4323 184.927 93.8569 185.048 94.3796 185.048C94.8649 185.048 95.2476 184.941 95.5276 184.726C95.8076 184.511 95.9476 184.241 95.9476 183.914C95.9476 183.578 95.7983 183.331 95.4996 183.172C95.2009 183.004 94.7389 182.841 94.1136 182.682C93.5443 182.533 93.0776 182.383 92.7136 182.234C92.3589 182.075 92.0509 181.847 91.7896 181.548C91.5376 181.24 91.4116 180.839 91.4116 180.344C91.4116 179.952 91.5283 179.593 91.7616 179.266C91.9949 178.939 92.3263 178.683 92.7556 178.496C93.1849 178.3 93.6749 178.202 94.2256 178.202C95.0749 178.202 95.7609 178.417 96.2836 178.846C96.8063 179.275 97.0863 179.863 97.1236 180.61H95.8496C95.8216 180.209 95.6583 179.887 95.3596 179.644C95.0703 179.401 94.6783 179.28 94.1836 179.28C93.7263 179.28 93.3623 179.378 93.0916 179.574C92.8209 179.77 92.6856 180.027 92.6856 180.344C92.6856 180.596 92.7649 180.806 92.9236 180.974C93.0916 181.133 93.2969 181.263 93.5396 181.366C93.7916 181.459 94.1369 181.567 94.5756 181.688C95.1263 181.837 95.5743 181.987 95.9196 182.136C96.2649 182.276 96.5589 182.491 96.8016 182.78C97.0536 183.069 97.1843 183.447 97.1936 183.914C97.1936 184.334 97.0769 184.712 96.8436 185.048C96.6103 185.384 96.2789 185.65 95.8496 185.846C95.4296 186.033 94.9443 186.126 94.3936 186.126ZM105.992 181.87C105.992 182.113 105.978 182.369 105.95 182.64H99.8181C99.8647 183.396 100.121 183.989 100.588 184.418C101.064 184.838 101.638 185.048 102.31 185.048C102.861 185.048 103.318 184.922 103.682 184.67C104.055 184.409 104.317 184.063 104.466 183.634H105.838C105.633 184.371 105.222 184.973 104.606 185.44C103.99 185.897 103.225 186.126 102.31 186.126C101.582 186.126 100.929 185.963 100.35 185.636C99.7807 185.309 99.3327 184.847 99.0061 184.25C98.6794 183.643 98.5161 182.943 98.5161 182.15C98.5161 181.357 98.6747 180.661 98.9921 180.064C99.3094 179.467 99.7527 179.009 100.322 178.692C100.901 178.365 101.563 178.202 102.31 178.202C103.038 178.202 103.682 178.361 104.242 178.678C104.802 178.995 105.231 179.434 105.53 179.994C105.838 180.545 105.992 181.17 105.992 181.87ZM104.676 181.604C104.676 181.119 104.569 180.703 104.354 180.358C104.139 180.003 103.845 179.737 103.472 179.56C103.108 179.373 102.702 179.28 102.254 179.28C101.61 179.28 101.059 179.485 100.602 179.896C100.154 180.307 99.8974 180.876 99.8321 181.604H104.676ZM107.198 182.15C107.198 181.357 107.356 180.666 107.674 180.078C107.991 179.481 108.43 179.019 108.99 178.692C109.559 178.365 110.208 178.202 110.936 178.202C111.878 178.202 112.653 178.431 113.26 178.888C113.876 179.345 114.282 179.98 114.478 180.792H113.106C112.975 180.325 112.718 179.957 112.336 179.686C111.962 179.415 111.496 179.28 110.936 179.28C110.208 179.28 109.62 179.532 109.172 180.036C108.724 180.531 108.5 181.235 108.5 182.15C108.5 183.074 108.724 183.788 109.172 184.292C109.62 184.796 110.208 185.048 110.936 185.048C111.496 185.048 111.962 184.917 112.336 184.656C112.709 184.395 112.966 184.021 113.106 183.536H114.478C114.272 184.32 113.862 184.95 113.246 185.426C112.63 185.893 111.86 186.126 110.936 186.126C110.208 186.126 109.559 185.963 108.99 185.636C108.43 185.309 107.991 184.847 107.674 184.25C107.356 183.653 107.198 182.953 107.198 182.15ZM122.982 178.328V186H121.708V184.866C121.465 185.258 121.124 185.566 120.686 185.79C120.256 186.005 119.78 186.112 119.258 186.112C118.66 186.112 118.124 185.991 117.648 185.748C117.172 185.496 116.794 185.123 116.514 184.628C116.243 184.133 116.108 183.531 116.108 182.822V178.328H117.368V182.654C117.368 183.41 117.559 183.993 117.942 184.404C118.324 184.805 118.847 185.006 119.51 185.006C120.191 185.006 120.728 184.796 121.12 184.376C121.512 183.956 121.708 183.345 121.708 182.542V178.328H122.982ZM126.407 179.574C126.631 179.135 126.948 178.795 127.359 178.552C127.779 178.309 128.287 178.188 128.885 178.188V179.504H128.549C127.121 179.504 126.407 180.279 126.407 181.828V186H125.133V178.328H126.407V179.574ZM137.355 181.87C137.355 182.113 137.341 182.369 137.313 182.64H131.181C131.228 183.396 131.485 183.989 131.951 184.418C132.427 184.838 133.001 185.048 133.673 185.048C134.224 185.048 134.681 184.922 135.045 184.67C135.419 184.409 135.68 184.063 135.829 183.634H137.201C136.996 184.371 136.585 184.973 135.969 185.44C135.353 185.897 134.588 186.126 133.673 186.126C132.945 186.126 132.292 185.963 131.713 185.636C131.144 185.309 130.696 184.847 130.369 184.25C130.043 183.643 129.879 182.943 129.879 182.15C129.879 181.357 130.038 180.661 130.355 180.064C130.673 179.467 131.116 179.009 131.685 178.692C132.264 178.365 132.927 178.202 133.673 178.202C134.401 178.202 135.045 178.361 135.605 178.678C136.165 178.995 136.595 179.434 136.893 179.994C137.201 180.545 137.355 181.17 137.355 181.87ZM136.039 181.604C136.039 181.119 135.932 180.703 135.717 180.358C135.503 180.003 135.209 179.737 134.835 179.56C134.471 179.373 134.065 179.28 133.617 179.28C132.973 179.28 132.423 179.485 131.965 179.896C131.517 180.307 131.261 180.876 131.195 181.604H136.039ZM142.293 182.136C142.293 181.352 142.452 180.666 142.769 180.078C143.087 179.481 143.521 179.019 144.071 178.692C144.631 178.365 145.252 178.202 145.933 178.202C146.605 178.202 147.189 178.347 147.683 178.636C148.178 178.925 148.547 179.289 148.789 179.728V178.328H150.077V186H148.789V184.572C148.537 185.02 148.159 185.393 147.655 185.692C147.161 185.981 146.582 186.126 145.919 186.126C145.238 186.126 144.622 185.958 144.071 185.622C143.521 185.286 143.087 184.815 142.769 184.208C142.452 183.601 142.293 182.911 142.293 182.136ZM148.789 182.15C148.789 181.571 148.673 181.067 148.439 180.638C148.206 180.209 147.889 179.882 147.487 179.658C147.095 179.425 146.661 179.308 146.185 179.308C145.709 179.308 145.275 179.42 144.883 179.644C144.491 179.868 144.179 180.195 143.945 180.624C143.712 181.053 143.595 181.557 143.595 182.136C143.595 182.724 143.712 183.237 143.945 183.676C144.179 184.105 144.491 184.437 144.883 184.67C145.275 184.894 145.709 185.006 146.185 185.006C146.661 185.006 147.095 184.894 147.487 184.67C147.889 184.437 148.206 184.105 148.439 183.676C148.673 183.237 148.789 182.729 148.789 182.15ZM155.968 178.188C156.902 178.188 157.658 178.473 158.236 179.042C158.815 179.602 159.104 180.414 159.104 181.478V186H157.844V181.66C157.844 180.895 157.653 180.311 157.27 179.91C156.888 179.499 156.365 179.294 155.702 179.294C155.03 179.294 154.494 179.504 154.092 179.924C153.7 180.344 153.504 180.955 153.504 181.758V186H152.23V178.328H153.504V179.42C153.756 179.028 154.097 178.725 154.526 178.51C154.965 178.295 155.446 178.188 155.968 178.188ZM160.709 182.136C160.709 181.352 160.868 180.666 161.185 180.078C161.503 179.481 161.937 179.019 162.487 178.692C163.047 178.365 163.673 178.202 164.363 178.202C164.961 178.202 165.516 178.342 166.029 178.622C166.543 178.893 166.935 179.252 167.205 179.7V175.64H168.493V186H167.205V184.558C166.953 185.015 166.58 185.393 166.085 185.692C165.591 185.981 165.012 186.126 164.349 186.126C163.668 186.126 163.047 185.958 162.487 185.622C161.937 185.286 161.503 184.815 161.185 184.208C160.868 183.601 160.709 182.911 160.709 182.136ZM167.205 182.15C167.205 181.571 167.089 181.067 166.855 180.638C166.622 180.209 166.305 179.882 165.903 179.658C165.511 179.425 165.077 179.308 164.601 179.308C164.125 179.308 163.691 179.42 163.299 179.644C162.907 179.868 162.595 180.195 162.361 180.624C162.128 181.053 162.011 181.557 162.011 182.136C162.011 182.724 162.128 183.237 162.361 183.676C162.595 184.105 162.907 184.437 163.299 184.67C163.691 184.894 164.125 185.006 164.601 185.006C165.077 185.006 165.511 184.894 165.903 184.67C166.305 184.437 166.622 184.105 166.855 183.676C167.089 183.237 167.205 182.729 167.205 182.15ZM178.117 178.188C179.05 178.188 179.806 178.473 180.385 179.042C180.963 179.602 181.253 180.414 181.253 181.478V186H179.993V181.66C179.993 180.895 179.801 180.311 179.419 179.91C179.036 179.499 178.513 179.294 177.851 179.294C177.179 179.294 176.642 179.504 176.241 179.924C175.849 180.344 175.653 180.955 175.653 181.758V186H174.379V178.328H175.653V179.42C175.905 179.028 176.245 178.725 176.675 178.51C177.113 178.295 177.594 178.188 178.117 178.188ZM186.68 186.126C185.961 186.126 185.308 185.963 184.72 185.636C184.141 185.309 183.684 184.847 183.348 184.25C183.021 183.643 182.858 182.943 182.858 182.15C182.858 181.366 183.026 180.675 183.362 180.078C183.707 179.471 184.174 179.009 184.762 178.692C185.35 178.365 186.008 178.202 186.736 178.202C187.464 178.202 188.122 178.365 188.71 178.692C189.298 179.009 189.76 179.467 190.096 180.064C190.441 180.661 190.614 181.357 190.614 182.15C190.614 182.943 190.437 183.643 190.082 184.25C189.737 184.847 189.265 185.309 188.668 185.636C188.071 185.963 187.408 186.126 186.68 186.126ZM186.68 185.006C187.137 185.006 187.567 184.899 187.968 184.684C188.369 184.469 188.691 184.147 188.934 183.718C189.186 183.289 189.312 182.766 189.312 182.15C189.312 181.534 189.191 181.011 188.948 180.582C188.705 180.153 188.388 179.835 187.996 179.63C187.604 179.415 187.179 179.308 186.722 179.308C186.255 179.308 185.826 179.415 185.434 179.63C185.051 179.835 184.743 180.153 184.51 180.582C184.277 181.011 184.16 181.534 184.16 182.15C184.16 182.775 184.272 183.303 184.496 183.732C184.729 184.161 185.037 184.483 185.42 184.698C185.803 184.903 186.223 185.006 186.68 185.006ZM61.5534 198.082C61.3107 198.082 61.1054 197.998 60.9374 197.83C60.7694 197.662 60.6854 197.457 60.6854 197.214C60.6854 196.971 60.7694 196.766 60.9374 196.598C61.1054 196.43 61.3107 196.346 61.5534 196.346C61.7867 196.346 61.9827 196.43 62.1414 196.598C62.3094 196.766 62.3934 196.971 62.3934 197.214C62.3934 197.457 62.3094 197.662 62.1414 197.83C61.9827 197.998 61.7867 198.082 61.5534 198.082ZM62.1694 199.328V207H60.8954V199.328H62.1694ZM68.0787 199.188C69.012 199.188 69.768 199.473 70.3467 200.042C70.9254 200.602 71.2147 201.414 71.2147 202.478V207H69.9547V202.66C69.9547 201.895 69.7634 201.311 69.3807 200.91C68.998 200.499 68.4754 200.294 67.8127 200.294C67.1407 200.294 66.604 200.504 66.2027 200.924C65.8107 201.344 65.6147 201.955 65.6147 202.758V207H64.3407V199.328H65.6147V200.42C65.8667 200.028 66.2074 199.725 66.6367 199.51C67.0754 199.295 67.556 199.188 68.0787 199.188ZM76.4178 200.378H74.8078V207H73.5338V200.378H72.5398V199.328H73.5338V198.782C73.5338 197.923 73.7531 197.298 74.1918 196.906C74.6398 196.505 75.3538 196.304 76.3338 196.304V197.368C75.7738 197.368 75.3771 197.48 75.1438 197.704C74.9198 197.919 74.8078 198.278 74.8078 198.782V199.328H76.4178V200.378ZM81.2492 207.126C80.5305 207.126 79.8772 206.963 79.2892 206.636C78.7105 206.309 78.2532 205.847 77.9172 205.25C77.5905 204.643 77.4272 203.943 77.4272 203.15C77.4272 202.366 77.5952 201.675 77.9312 201.078C78.2765 200.471 78.7432 200.009 79.3312 199.692C79.9192 199.365 80.5772 199.202 81.3052 199.202C82.0332 199.202 82.6912 199.365 83.2792 199.692C83.8672 200.009 84.3292 200.467 84.6652 201.064C85.0105 201.661 85.1832 202.357 85.1832 203.15C85.1832 203.943 85.0059 204.643 84.6512 205.25C84.3059 205.847 83.8345 206.309 83.2372 206.636C82.6399 206.963 81.9772 207.126 81.2492 207.126ZM81.2492 206.006C81.7065 206.006 82.1359 205.899 82.5372 205.684C82.9385 205.469 83.2605 205.147 83.5032 204.718C83.7552 204.289 83.8812 203.766 83.8812 203.15C83.8812 202.534 83.7599 202.011 83.5172 201.582C83.2745 201.153 82.9572 200.835 82.5652 200.63C82.1732 200.415 81.7485 200.308 81.2912 200.308C80.8245 200.308 80.3952 200.415 80.0032 200.63C79.6205 200.835 79.3125 201.153 79.0792 201.582C78.8459 202.011 78.7292 202.534 78.7292 203.15C78.7292 203.775 78.8412 204.303 79.0652 204.732C79.2985 205.161 79.6065 205.483 79.9892 205.698C80.3719 205.903 80.7919 206.006 81.2492 206.006ZM88.1323 200.574C88.3563 200.135 88.6736 199.795 89.0843 199.552C89.5043 199.309 90.0129 199.188 90.6103 199.188V200.504H90.2743C88.8463 200.504 88.1323 201.279 88.1323 202.828V207H86.8583V199.328H88.1323V200.574ZM101.307 199.188C101.904 199.188 102.436 199.314 102.903 199.566C103.37 199.809 103.738 200.177 104.009 200.672C104.28 201.167 104.415 201.769 104.415 202.478V207H103.155V202.66C103.155 201.895 102.964 201.311 102.581 200.91C102.208 200.499 101.699 200.294 101.055 200.294C100.392 200.294 99.8649 200.509 99.4729 200.938C99.0809 201.358 98.8849 201.969 98.8849 202.772V207H97.6249V202.66C97.6249 201.895 97.4336 201.311 97.0509 200.91C96.6776 200.499 96.1689 200.294 95.5249 200.294C94.8623 200.294 94.3349 200.509 93.9429 200.938C93.5509 201.358 93.3549 201.969 93.3549 202.772V207H92.0809V199.328H93.3549V200.434C93.6069 200.033 93.9429 199.725 94.3629 199.51C94.7923 199.295 95.2636 199.188 95.7769 199.188C96.4209 199.188 96.9903 199.333 97.4849 199.622C97.9796 199.911 98.3483 200.336 98.5909 200.896C98.8056 200.355 99.1603 199.935 99.6549 199.636C100.15 199.337 100.7 199.188 101.307 199.188ZM106.029 203.136C106.029 202.352 106.187 201.666 106.505 201.078C106.822 200.481 107.256 200.019 107.807 199.692C108.367 199.365 108.987 199.202 109.669 199.202C110.341 199.202 110.924 199.347 111.419 199.636C111.913 199.925 112.282 200.289 112.525 200.728V199.328H113.813V207H112.525V205.572C112.273 206.02 111.895 206.393 111.391 206.692C110.896 206.981 110.317 207.126 109.655 207.126C108.973 207.126 108.357 206.958 107.807 206.622C107.256 206.286 106.822 205.815 106.505 205.208C106.187 204.601 106.029 203.911 106.029 203.136ZM112.525 203.15C112.525 202.571 112.408 202.067 112.175 201.638C111.941 201.209 111.624 200.882 111.223 200.658C110.831 200.425 110.397 200.308 109.921 200.308C109.445 200.308 109.011 200.42 108.619 200.644C108.227 200.868 107.914 201.195 107.681 201.624C107.447 202.053 107.331 202.557 107.331 203.136C107.331 203.724 107.447 204.237 107.681 204.676C107.914 205.105 108.227 205.437 108.619 205.67C109.011 205.894 109.445 206.006 109.921 206.006C110.397 206.006 110.831 205.894 111.223 205.67C111.624 205.437 111.941 205.105 112.175 204.676C112.408 204.237 112.525 203.729 112.525 203.15ZM117.52 200.378V204.9C117.52 205.273 117.599 205.539 117.758 205.698C117.916 205.847 118.192 205.922 118.584 205.922H119.522V207H118.374C117.664 207 117.132 206.837 116.778 206.51C116.423 206.183 116.246 205.647 116.246 204.9V200.378H115.252V199.328H116.246V197.396H117.52V199.328H119.522V200.378H117.52ZM121.723 198.082C121.481 198.082 121.275 197.998 121.107 197.83C120.939 197.662 120.855 197.457 120.855 197.214C120.855 196.971 120.939 196.766 121.107 196.598C121.275 196.43 121.481 196.346 121.723 196.346C121.957 196.346 122.153 196.43 122.311 196.598C122.479 196.766 122.563 196.971 122.563 197.214C122.563 197.457 122.479 197.662 122.311 197.83C122.153 197.998 121.957 198.082 121.723 198.082ZM122.339 199.328V207H121.065V199.328H122.339ZM127.857 207.126C127.138 207.126 126.485 206.963 125.897 206.636C125.318 206.309 124.861 205.847 124.525 205.25C124.198 204.643 124.035 203.943 124.035 203.15C124.035 202.366 124.203 201.675 124.539 201.078C124.884 200.471 125.351 200.009 125.939 199.692C126.527 199.365 127.185 199.202 127.913 199.202C128.641 199.202 129.299 199.365 129.887 199.692C130.475 200.009 130.937 200.467 131.273 201.064C131.618 201.661 131.791 202.357 131.791 203.15C131.791 203.943 131.613 204.643 131.259 205.25C130.913 205.847 130.442 206.309 129.845 206.636C129.247 206.963 128.585 207.126 127.857 207.126ZM127.857 206.006C128.314 206.006 128.743 205.899 129.145 205.684C129.546 205.469 129.868 205.147 130.111 204.718C130.363 204.289 130.489 203.766 130.489 203.15C130.489 202.534 130.367 202.011 130.125 201.582C129.882 201.153 129.565 200.835 129.173 200.63C128.781 200.415 128.356 200.308 127.899 200.308C127.432 200.308 127.003 200.415 126.611 200.63C126.228 200.835 125.92 201.153 125.687 201.582C125.453 202.011 125.337 202.534 125.337 203.15C125.337 203.775 125.449 204.303 125.673 204.732C125.906 205.161 126.214 205.483 126.597 205.698C126.979 205.903 127.399 206.006 127.857 206.006ZM137.204 199.188C138.137 199.188 138.893 199.473 139.472 200.042C140.05 200.602 140.34 201.414 140.34 202.478V207H139.08V202.66C139.08 201.895 138.888 201.311 138.506 200.91C138.123 200.499 137.6 200.294 136.938 200.294C136.266 200.294 135.729 200.504 135.328 200.924C134.936 201.344 134.74 201.955 134.74 202.758V207H133.466V199.328H134.74V200.42C134.992 200.028 135.332 199.725 135.762 199.51C136.2 199.295 136.681 199.188 137.204 199.188ZM147.427 196.64V207H146.153V196.64H147.427ZM156.599 202.87C156.599 203.113 156.585 203.369 156.557 203.64H150.425C150.471 204.396 150.728 204.989 151.195 205.418C151.671 205.838 152.245 206.048 152.917 206.048C153.467 206.048 153.925 205.922 154.289 205.67C154.662 205.409 154.923 205.063 155.073 204.634H156.445C156.239 205.371 155.829 205.973 155.213 206.44C154.597 206.897 153.831 207.126 152.917 207.126C152.189 207.126 151.535 206.963 150.957 206.636C150.387 206.309 149.939 205.847 149.613 205.25C149.286 204.643 149.123 203.943 149.123 203.15C149.123 202.357 149.281 201.661 149.599 201.064C149.916 200.467 150.359 200.009 150.929 199.692C151.507 199.365 152.17 199.202 152.917 199.202C153.645 199.202 154.289 199.361 154.849 199.678C155.409 199.995 155.838 200.434 156.137 200.994C156.445 201.545 156.599 202.17 156.599 202.87ZM155.283 202.604C155.283 202.119 155.175 201.703 154.961 201.358C154.746 201.003 154.452 200.737 154.079 200.56C153.715 200.373 153.309 200.28 152.861 200.28C152.217 200.28 151.666 200.485 151.209 200.896C150.761 201.307 150.504 201.876 150.439 202.604H155.283ZM157.804 203.136C157.804 202.352 157.963 201.666 158.28 201.078C158.597 200.481 159.031 200.019 159.582 199.692C160.142 199.365 160.763 199.202 161.444 199.202C162.116 199.202 162.699 199.347 163.194 199.636C163.689 199.925 164.057 200.289 164.3 200.728V199.328H165.588V207H164.3V205.572C164.048 206.02 163.67 206.393 163.166 206.692C162.671 206.981 162.093 207.126 161.43 207.126C160.749 207.126 160.133 206.958 159.582 206.622C159.031 206.286 158.597 205.815 158.28 205.208C157.963 204.601 157.804 203.911 157.804 203.136ZM164.3 203.15C164.3 202.571 164.183 202.067 163.95 201.638C163.717 201.209 163.399 200.882 162.998 200.658C162.606 200.425 162.172 200.308 161.696 200.308C161.22 200.308 160.786 200.42 160.394 200.644C160.002 200.868 159.689 201.195 159.456 201.624C159.223 202.053 159.106 202.557 159.106 203.136C159.106 203.724 159.223 204.237 159.456 204.676C159.689 205.105 160.002 205.437 160.394 205.67C160.786 205.894 161.22 206.006 161.696 206.006C162.172 206.006 162.606 205.894 162.998 205.67C163.399 205.437 163.717 205.105 163.95 204.676C164.183 204.237 164.3 203.729 164.3 203.15ZM172.025 207L169.015 203.612V207H167.741V196.64H169.015V202.73L171.969 199.328H173.747L170.135 203.15L173.761 207H172.025ZM177.662 207.126C177.074 207.126 176.547 207.028 176.08 206.832C175.613 206.627 175.245 206.347 174.974 205.992C174.703 205.628 174.554 205.213 174.526 204.746H175.842C175.879 205.129 176.057 205.441 176.374 205.684C176.701 205.927 177.125 206.048 177.648 206.048C178.133 206.048 178.516 205.941 178.796 205.726C179.076 205.511 179.216 205.241 179.216 204.914C179.216 204.578 179.067 204.331 178.768 204.172C178.469 204.004 178.007 203.841 177.382 203.682C176.813 203.533 176.346 203.383 175.982 203.234C175.627 203.075 175.319 202.847 175.058 202.548C174.806 202.24 174.68 201.839 174.68 201.344C174.68 200.952 174.797 200.593 175.03 200.266C175.263 199.939 175.595 199.683 176.024 199.496C176.453 199.3 176.943 199.202 177.494 199.202C178.343 199.202 179.029 199.417 179.552 199.846C180.075 200.275 180.355 200.863 180.392 201.61H179.118C179.09 201.209 178.927 200.887 178.628 200.644C178.339 200.401 177.947 200.28 177.452 200.28C176.995 200.28 176.631 200.378 176.36 200.574C176.089 200.77 175.954 201.027 175.954 201.344C175.954 201.596 176.033 201.806 176.192 201.974C176.36 202.133 176.565 202.263 176.808 202.366C177.06 202.459 177.405 202.567 177.844 202.688C178.395 202.837 178.843 202.987 179.188 203.136C179.533 203.276 179.827 203.491 180.07 203.78C180.322 204.069 180.453 204.447 180.462 204.914C180.462 205.334 180.345 205.712 180.112 206.048C179.879 206.384 179.547 206.65 179.118 206.846C178.698 207.033 178.213 207.126 177.662 207.126ZM104.854 228.126C104.135 228.126 103.482 227.963 102.894 227.636C102.315 227.309 101.858 226.847 101.522 226.25C101.195 225.643 101.032 224.943 101.032 224.15C101.032 223.366 101.2 222.675 101.536 222.078C101.881 221.471 102.348 221.009 102.936 220.692C103.524 220.365 104.182 220.202 104.91 220.202C105.638 220.202 106.296 220.365 106.884 220.692C107.472 221.009 107.934 221.467 108.27 222.064C108.615 222.661 108.788 223.357 108.788 224.15C108.788 224.943 108.61 225.643 108.256 226.25C107.91 226.847 107.439 227.309 106.842 227.636C106.244 227.963 105.582 228.126 104.854 228.126ZM104.854 227.006C105.311 227.006 105.74 226.899 106.142 226.684C106.543 226.469 106.865 226.147 107.108 225.718C107.36 225.289 107.486 224.766 107.486 224.15C107.486 223.534 107.364 223.011 107.122 222.582C106.879 222.153 106.562 221.835 106.17 221.63C105.778 221.415 105.353 221.308 104.896 221.308C104.429 221.308 104 221.415 103.608 221.63C103.225 221.835 102.917 222.153 102.684 222.582C102.45 223.011 102.334 223.534 102.334 224.15C102.334 224.775 102.446 225.303 102.67 225.732C102.903 226.161 103.211 226.483 103.594 226.698C103.976 226.903 104.396 227.006 104.854 227.006ZM109.987 224.15C109.987 223.357 110.145 222.666 110.463 222.078C110.78 221.481 111.219 221.019 111.779 220.692C112.348 220.365 112.997 220.202 113.725 220.202C114.667 220.202 115.442 220.431 116.049 220.888C116.665 221.345 117.071 221.98 117.267 222.792H115.895C115.764 222.325 115.507 221.957 115.125 221.686C114.751 221.415 114.285 221.28 113.725 221.28C112.997 221.28 112.409 221.532 111.961 222.036C111.513 222.531 111.289 223.235 111.289 224.15C111.289 225.074 111.513 225.788 111.961 226.292C112.409 226.796 112.997 227.048 113.725 227.048C114.285 227.048 114.751 226.917 115.125 226.656C115.498 226.395 115.755 226.021 115.895 225.536H117.267C117.061 226.32 116.651 226.95 116.035 227.426C115.419 227.893 114.649 228.126 113.725 228.126C112.997 228.126 112.348 227.963 111.779 227.636C111.219 227.309 110.78 226.847 110.463 226.25C110.145 225.653 109.987 224.953 109.987 224.15ZM118.491 224.15C118.491 223.357 118.649 222.666 118.967 222.078C119.284 221.481 119.723 221.019 120.283 220.692C120.852 220.365 121.501 220.202 122.229 220.202C123.171 220.202 123.946 220.431 124.553 220.888C125.169 221.345 125.575 221.98 125.771 222.792H124.399C124.268 222.325 124.011 221.957 123.629 221.686C123.255 221.415 122.789 221.28 122.229 221.28C121.501 221.28 120.913 221.532 120.465 222.036C120.017 222.531 119.793 223.235 119.793 224.15C119.793 225.074 120.017 225.788 120.465 226.292C120.913 226.796 121.501 227.048 122.229 227.048C122.789 227.048 123.255 226.917 123.629 226.656C124.002 226.395 124.259 226.021 124.399 225.536H125.771C125.565 226.32 125.155 226.95 124.539 227.426C123.923 227.893 123.153 228.126 122.229 228.126C121.501 228.126 120.852 227.963 120.283 227.636C119.723 227.309 119.284 226.847 118.967 226.25C118.649 225.653 118.491 224.953 118.491 224.15ZM134.275 220.328V228H133.001V226.866C132.758 227.258 132.417 227.566 131.979 227.79C131.549 228.005 131.073 228.112 130.551 228.112C129.953 228.112 129.417 227.991 128.941 227.748C128.465 227.496 128.087 227.123 127.807 226.628C127.536 226.133 127.401 225.531 127.401 224.822V220.328H128.661V224.654C128.661 225.41 128.852 225.993 129.235 226.404C129.617 226.805 130.14 227.006 130.803 227.006C131.484 227.006 132.021 226.796 132.413 226.376C132.805 225.956 133.001 225.345 133.001 224.542V220.328H134.275ZM137.7 221.574C137.924 221.135 138.241 220.795 138.652 220.552C139.072 220.309 139.58 220.188 140.178 220.188V221.504H139.842C138.414 221.504 137.7 222.279 137.7 223.828V228H136.426V220.328H137.7V221.574Z" fill="black"/>
</g>
<defs>
<filter id="filter0_dii_1604_3281" x="-51.5" y="-54" width="344" height="384" filterUnits="userSpaceOnUse" color-interpolation-filters="sRGB">
<feFlood flood-opacity="0" result="BackgroundImageFix"/>
<feColorMatrix in="SourceAlpha" type="matrix" values="0 0 0 0 0 0 0 0 0 0 0 0 0 0 0 0 0 0 127 0" result="hardAlpha"/>
<feOffset dy="2"/>
<feGaussianBlur stdDeviation="10"/>
<feComposite in2="hardAlpha" operator="out"/>
<feColorMatrix type="matrix" values="0 0 0 0 0 0 0 0 0 0 0 0 0 0 0 0 0 0 0.02 0"/>
<feBlend mode="normal" in2="BackgroundImageFix" result="effect1_dropShadow_1604_3281"/>
<feBlend mode="normal" in="SourceGraphic" in2="effect1_dropShadow_1604_3281" result="shape"/>
<feColorMatrix in="SourceAlpha" type="matrix" values="0 0 0 0 0 0 0 0 0 0 0 0 0 0 0 0 0 0 127 0" result="hardAlpha"/>
<feOffset/>
<feGaussianBlur stdDeviation="2"/>
<feComposite in2="hardAlpha" operator="arithmetic" k2="-1" k3="1"/>
<feColorMatrix type="matrix" values="0 0 0 0 0.999662 0 0 0 0 0.999662 0 0 0 0 0.999662 0 0 0 0.24 0"/>
<feBlend mode="normal" in2="shape" result="effect2_innerShadow_1604_3281"/>
<feColorMatrix in="SourceAlpha" type="matrix" values="0 0 0 0 0 0 0 0 0 0 0 0 0 0 0 0 0 0 127 0" result="hardAlpha"/>
<feMorphology radius="2" operator="dilate" in="SourceAlpha" result="effect3_innerShadow_1604_3281"/>
<feOffset dx="-1" dy="-1"/>
<feGaussianBlur stdDeviation="2"/>
<feComposite in2="hardAlpha" operator="arithmetic" k2="-1" k3="1"/>
<feColorMatrix type="matrix" values="0 0 0 0 1 0 0 0 0 1 0 0 0 0 1 0 0 0 0.5 0"/>
<feBlend mode="normal" in2="effect2_innerShadow_1604_3281" result="effect3_innerShadow_1604_3281"/>
</filter>
</defs>
</svg>
