<svg width="241" height="280" viewBox="0 0 241 280" fill="none" xmlns="http://www.w3.org/2000/svg">
<g filter="url(#filter0_dii_1604_3279)">
<rect x="20.5" y="18" width="200" height="240" rx="20" fill="white" fill-opacity="0.3" shape-rendering="crispEdges"/>
<path d="M111.418 52.4863H109.523C109.257 52.4863 109.029 52.3919 108.84 52.2031C108.651 52.0078 108.557 51.7767 108.557 51.5098C108.557 51.2493 108.651 51.0215 108.84 50.8262C109.029 50.6309 109.257 50.5332 109.523 50.5332H111.418C111.678 50.5332 111.906 50.6309 112.102 50.8262C112.303 51.015 112.404 51.2428 112.404 51.5098C112.404 51.7767 112.303 52.0078 112.102 52.2031C111.906 52.3919 111.678 52.4863 111.418 52.4863ZM113.371 45.7578L112.033 44.4199C111.844 44.2311 111.75 44.0033 111.75 43.7363C111.75 43.4694 111.844 43.2383 112.033 43.043C112.229 42.8542 112.46 42.7598 112.727 42.7598C113 42.7598 113.228 42.8542 113.41 43.043L114.738 44.3906C114.927 44.5794 115.021 44.8073 115.021 45.0742C115.028 45.3411 114.934 45.569 114.738 45.7578C114.549 45.9531 114.322 46.0508 114.055 46.0508C113.788 46.0443 113.56 45.9466 113.371 45.7578ZM119.523 42.4375V40.543C119.523 40.2826 119.618 40.0547 119.807 39.8594C120.002 39.6641 120.233 39.5664 120.5 39.5664C120.767 39.5664 120.998 39.6641 121.193 39.8594C121.389 40.0547 121.486 40.2826 121.486 40.543V42.4375C121.486 42.6979 121.389 42.9258 121.193 43.1211C121.005 43.3164 120.773 43.4141 120.5 43.4141C120.233 43.4141 120.002 43.3164 119.807 43.1211C119.618 42.9258 119.523 42.6979 119.523 42.4375ZM126.252 44.3906L127.6 43.043C127.788 42.8542 128.013 42.7598 128.273 42.7598C128.54 42.7598 128.771 42.8542 128.967 43.043C129.156 43.2383 129.25 43.4694 129.25 43.7363C129.25 44.0033 129.156 44.2311 128.967 44.4199L127.619 45.7578C127.437 45.9531 127.212 46.0508 126.945 46.0508C126.678 46.0508 126.447 45.9531 126.252 45.7578C126.057 45.569 125.959 45.3411 125.959 45.0742C125.965 44.8073 126.063 44.5794 126.252 44.3906ZM131.457 52.4863H129.572C129.305 52.4863 129.074 52.3919 128.879 52.2031C128.69 52.0078 128.596 51.7767 128.596 51.5098C128.596 51.2428 128.69 51.015 128.879 50.8262C129.074 50.6309 129.305 50.5332 129.572 50.5332H131.457C131.724 50.5332 131.955 50.6309 132.15 50.8262C132.346 51.0215 132.443 51.2493 132.443 51.5098C132.443 51.7767 132.346 52.0078 132.15 52.2031C131.955 52.3919 131.724 52.4863 131.457 52.4863ZM120.5 45.1133C121.366 45.1133 122.176 45.263 122.932 45.5625C123.693 45.8555 124.361 46.2624 124.934 46.7832C125.507 47.304 125.952 47.916 126.271 48.6191C126.59 49.3223 126.75 50.0807 126.75 50.8945C126.75 51.5911 126.678 52.2129 126.535 52.7598C126.398 53.3066 126.216 53.8405 125.988 54.3613C125.767 54.8822 125.533 55.4518 125.285 56.0703C125.044 56.6888 124.82 57.418 124.611 58.2578C124.403 59.0911 124.243 60.1035 124.133 61.2949C124.113 61.5163 124.038 61.6921 123.908 61.8223C123.778 61.9525 123.596 62.0176 123.361 62.0176H117.639C117.404 62.0176 117.222 61.9525 117.092 61.8223C116.962 61.6921 116.887 61.5163 116.867 61.2949C116.757 60.1035 116.597 59.0911 116.389 58.2578C116.18 57.418 115.952 56.6888 115.705 56.0703C115.464 55.4518 115.233 54.8822 115.012 54.3613C114.79 53.8405 114.608 53.3066 114.465 52.7598C114.328 52.2129 114.26 51.5911 114.26 50.8945C114.26 50.0807 114.419 49.3223 114.738 48.6191C115.057 47.916 115.5 47.304 116.066 46.7832C116.639 46.2559 117.303 45.8457 118.059 45.5527C118.814 45.2598 119.628 45.1133 120.5 45.1133ZM120.5 46.793C119.875 46.793 119.286 46.8939 118.732 47.0957C118.186 47.2975 117.701 47.5807 117.277 47.9453C116.861 48.3099 116.532 48.7428 116.291 49.2441C116.05 49.7454 115.93 50.2956 115.93 50.8945C115.93 51.3893 115.988 51.8353 116.105 52.2324C116.223 52.6296 116.376 53.043 116.564 53.4727C116.76 53.8958 116.968 54.4004 117.189 54.9863C117.411 55.5658 117.626 56.2852 117.834 57.1445C118.049 58.0039 118.238 59.0716 118.4 60.3477H122.6C122.762 59.0716 122.948 58.0039 123.156 57.1445C123.371 56.2852 123.589 55.5658 123.811 54.9863C124.038 54.4004 124.247 53.8958 124.436 53.4727C124.631 53.043 124.784 52.6296 124.895 52.2324C125.012 51.8353 125.07 51.3893 125.07 50.8945C125.07 50.2956 124.95 49.7454 124.709 49.2441C124.475 48.7428 124.146 48.3099 123.723 47.9453C123.299 47.5807 122.811 47.2975 122.258 47.0957C121.704 46.8939 121.118 46.793 120.5 46.793ZM117.57 64.1465C117.395 64.1465 117.248 64.0879 117.131 63.9707C117.014 63.847 116.955 63.7005 116.955 63.5312C116.955 63.3555 117.014 63.209 117.131 63.0918C117.248 62.9746 117.395 62.916 117.57 62.916H123.43C123.605 62.916 123.752 62.9746 123.869 63.0918C123.993 63.209 124.055 63.3555 124.055 63.5312C124.055 63.7005 123.993 63.847 123.869 63.9707C123.752 64.0879 123.605 64.1465 123.43 64.1465H117.57ZM120.5 66.8809C119.758 66.8809 119.12 66.7116 118.586 66.373C118.059 66.0345 117.779 65.5918 117.746 65.0449H123.244C123.212 65.5918 122.928 66.0345 122.395 66.373C121.867 66.7116 121.236 66.8809 120.5 66.8809Z" fill="black"/>
<path d="M59.4784 90.88V92.368H54.7584V95.648H58.4384V97.136H54.7584V102H52.9344V90.88H59.4784ZM62.0968 92.016C61.7661 92.016 61.4888 91.904 61.2648 91.68C61.0408 91.456 60.9288 91.1787 60.9288 90.848C60.9288 90.5173 61.0408 90.24 61.2648 90.016C61.4888 89.792 61.7661 89.68 62.0968 89.68C62.4168 89.68 62.6888 89.792 62.9128 90.016C63.1368 90.24 63.2488 90.5173 63.2488 90.848C63.2488 91.1787 63.1368 91.456 62.9128 91.68C62.6888 91.904 62.4168 92.016 62.0968 92.016ZM62.9928 93.184V102H61.1688V93.184H62.9928ZM69.8355 93.04C70.5288 93.04 71.1475 93.184 71.6915 93.472C72.2462 93.76 72.6782 94.1867 72.9875 94.752C73.2968 95.3173 73.4515 96 73.4515 96.8V102H71.6435V97.072C71.6435 96.2827 71.4462 95.68 71.0515 95.264C70.6568 94.8373 70.1182 94.624 69.4355 94.624C68.7528 94.624 68.2088 94.8373 67.8035 95.264C67.4088 95.68 67.2115 96.2827 67.2115 97.072V102H65.3875V93.184H67.2115V94.192C67.5102 93.8293 67.8888 93.5467 68.3475 93.344C68.8168 93.1413 69.3128 93.04 69.8355 93.04ZM75.1701 97.552C75.1701 96.6667 75.3515 95.8827 75.7141 95.2C76.0875 94.5173 76.5888 93.9893 77.2181 93.616C77.8581 93.232 78.5621 93.04 79.3301 93.04C80.0235 93.04 80.6261 93.1787 81.1381 93.456C81.6608 93.7227 82.0768 94.0587 82.3861 94.464V93.184H84.2261V102H82.3861V100.688C82.0768 101.104 81.6555 101.451 81.1221 101.728C80.5888 102.005 79.9808 102.144 79.2981 102.144C78.5408 102.144 77.8475 101.952 77.2181 101.568C76.5888 101.173 76.0875 100.629 75.7141 99.936C75.3515 99.232 75.1701 98.4373 75.1701 97.552ZM82.3861 97.584C82.3861 96.976 82.2581 96.448 82.0021 96C81.7568 95.552 81.4315 95.2107 81.0261 94.976C80.6208 94.7413 80.1835 94.624 79.7141 94.624C79.2448 94.624 78.8075 94.7413 78.4021 94.976C77.9968 95.2 77.6661 95.536 77.4101 95.984C77.1648 96.4213 77.0421 96.944 77.0421 97.552C77.0421 98.16 77.1648 98.6933 77.4101 99.152C77.6661 99.6107 77.9968 99.9627 78.4021 100.208C78.8181 100.443 79.2555 100.56 79.7141 100.56C80.1835 100.56 80.6208 100.443 81.0261 100.208C81.4315 99.9733 81.7568 99.632 82.0021 99.184C82.2581 98.7253 82.3861 98.192 82.3861 97.584ZM91.0699 93.04C91.7632 93.04 92.3819 93.184 92.9259 93.472C93.4805 93.76 93.9125 94.1867 94.2219 94.752C94.5312 95.3173 94.6859 96 94.6859 96.8V102H92.8779V97.072C92.8779 96.2827 92.6805 95.68 92.2859 95.264C91.8912 94.8373 91.3525 94.624 90.6699 94.624C89.9872 94.624 89.4432 94.8373 89.0379 95.264C88.6432 95.68 88.4459 96.2827 88.4459 97.072V102H86.6219V93.184H88.4459V94.192C88.7445 93.8293 89.1232 93.5467 89.5819 93.344C90.0512 93.1413 90.5472 93.04 91.0699 93.04ZM96.4045 97.584C96.4045 96.6773 96.5858 95.8827 96.9485 95.2C97.3218 94.5067 97.8338 93.9733 98.4845 93.6C99.1352 93.2267 99.8818 93.04 100.725 93.04C101.791 93.04 102.671 93.296 103.365 93.808C104.069 94.3093 104.543 95.0293 104.789 95.968H102.821C102.661 95.5307 102.405 95.1893 102.053 94.944C101.701 94.6987 101.258 94.576 100.725 94.576C99.9778 94.576 99.3805 94.8427 98.9325 95.376C98.4952 95.8987 98.2765 96.6347 98.2765 97.584C98.2765 98.5333 98.4952 99.2747 98.9325 99.808C99.3805 100.341 99.9778 100.608 100.725 100.608C101.781 100.608 102.479 100.144 102.821 99.216H104.789C104.533 100.112 104.053 100.827 103.349 101.36C102.645 101.883 101.77 102.144 100.725 102.144C99.8818 102.144 99.1352 101.957 98.4845 101.584C97.8338 101.2 97.3218 100.667 96.9485 99.984C96.5858 99.2907 96.4045 98.4907 96.4045 97.584ZM107.534 92.016C107.204 92.016 106.926 91.904 106.702 91.68C106.478 91.456 106.366 91.1787 106.366 90.848C106.366 90.5173 106.478 90.24 106.702 90.016C106.926 89.792 107.204 89.68 107.534 89.68C107.854 89.68 108.126 89.792 108.35 90.016C108.574 90.24 108.686 90.5173 108.686 90.848C108.686 91.1787 108.574 91.456 108.35 91.68C108.126 91.904 107.854 92.016 107.534 92.016ZM108.43 93.184V102H106.606V93.184H108.43ZM110.217 97.552C110.217 96.6667 110.398 95.8827 110.761 95.2C111.134 94.5173 111.636 93.9893 112.265 93.616C112.905 93.232 113.609 93.04 114.377 93.04C115.07 93.04 115.673 93.1787 116.185 93.456C116.708 93.7227 117.124 94.0587 117.433 94.464V93.184H119.273V102H117.433V100.688C117.124 101.104 116.702 101.451 116.169 101.728C115.636 102.005 115.028 102.144 114.345 102.144C113.588 102.144 112.894 101.952 112.265 101.568C111.636 101.173 111.134 100.629 110.761 99.936C110.398 99.232 110.217 98.4373 110.217 97.552ZM117.433 97.584C117.433 96.976 117.305 96.448 117.049 96C116.804 95.552 116.478 95.2107 116.073 94.976C115.668 94.7413 115.23 94.624 114.761 94.624C114.292 94.624 113.854 94.7413 113.449 94.976C113.044 95.2 112.713 95.536 112.457 95.984C112.212 96.4213 112.089 96.944 112.089 97.552C112.089 98.16 112.212 98.6933 112.457 99.152C112.713 99.6107 113.044 99.9627 113.449 100.208C113.865 100.443 114.302 100.56 114.761 100.56C115.23 100.56 115.668 100.443 116.073 100.208C116.478 99.9733 116.804 99.632 117.049 99.184C117.305 98.7253 117.433 98.192 117.433 97.584ZM123.493 90.16V102H121.669V90.16H123.493ZM136.748 99.728H132.092L131.292 102H129.388L133.372 90.864H135.484L139.468 102H137.548L136.748 99.728ZM136.236 98.24L134.428 93.072L132.604 98.24H136.236ZM145.648 93.04C146.341 93.04 146.96 93.184 147.504 93.472C148.059 93.76 148.491 94.1867 148.8 94.752C149.109 95.3173 149.264 96 149.264 96.8V102H147.456V97.072C147.456 96.2827 147.259 95.68 146.864 95.264C146.469 94.8373 145.931 94.624 145.248 94.624C144.565 94.624 144.021 94.8373 143.616 95.264C143.221 95.68 143.024 96.2827 143.024 97.072V102H141.2V93.184H143.024V94.192C143.323 93.8293 143.701 93.5467 144.16 93.344C144.629 93.1413 145.125 93.04 145.648 93.04ZM150.983 97.552C150.983 96.6667 151.164 95.8827 151.527 95.2C151.9 94.5173 152.401 93.9893 153.031 93.616C153.671 93.232 154.375 93.04 155.143 93.04C155.836 93.04 156.439 93.1787 156.951 93.456C157.473 93.7227 157.889 94.0587 158.199 94.464V93.184H160.039V102H158.199V100.688C157.889 101.104 157.468 101.451 156.935 101.728C156.401 102.005 155.793 102.144 155.111 102.144C154.353 102.144 153.66 101.952 153.031 101.568C152.401 101.173 151.9 100.629 151.527 99.936C151.164 99.232 150.983 98.4373 150.983 97.552ZM158.199 97.584C158.199 96.976 158.071 96.448 157.815 96C157.569 95.552 157.244 95.2107 156.839 94.976C156.433 94.7413 155.996 94.624 155.527 94.624C155.057 94.624 154.62 94.7413 154.215 94.976C153.809 95.2 153.479 95.536 153.223 95.984C152.977 96.4213 152.855 96.944 152.855 97.552C152.855 98.16 152.977 98.6933 153.223 99.152C153.479 99.6107 153.809 99.9627 154.215 100.208C154.631 100.443 155.068 100.56 155.527 100.56C155.996 100.56 156.433 100.443 156.839 100.208C157.244 99.9733 157.569 99.632 157.815 99.184C158.071 98.7253 158.199 98.192 158.199 97.584ZM164.258 90.16V102H162.434V90.16H164.258ZM174.589 93.184L169.181 106.144H167.293L169.085 101.856L165.613 93.184H167.645L170.125 99.904L172.701 93.184H174.589ZM179.166 102.144C178.472 102.144 177.848 102.021 177.294 101.776C176.75 101.52 176.318 101.179 175.998 100.752C175.678 100.315 175.507 99.8293 175.486 99.296H177.374C177.406 99.6693 177.582 99.984 177.902 100.24C178.232 100.485 178.643 100.608 179.134 100.608C179.646 100.608 180.04 100.512 180.318 100.32C180.606 100.117 180.75 99.8613 180.75 99.552C180.75 99.2213 180.59 98.976 180.27 98.816C179.96 98.656 179.464 98.48 178.782 98.288C178.12 98.1067 177.582 97.9307 177.166 97.76C176.75 97.5893 176.387 97.328 176.078 96.976C175.779 96.624 175.63 96.16 175.63 95.584C175.63 95.1147 175.768 94.688 176.046 94.304C176.323 93.9093 176.718 93.6 177.23 93.376C177.752 93.152 178.35 93.04 179.022 93.04C180.024 93.04 180.83 93.296 181.438 93.808C182.056 94.3093 182.387 94.9973 182.43 95.872H180.606C180.574 95.4773 180.414 95.1627 180.126 94.928C179.838 94.6933 179.448 94.576 178.958 94.576C178.478 94.576 178.11 94.6667 177.854 94.848C177.598 95.0293 177.47 95.2693 177.47 95.568C177.47 95.8027 177.555 96 177.726 96.16C177.896 96.32 178.104 96.448 178.35 96.544C178.595 96.6293 178.958 96.7413 179.438 96.88C180.078 97.0507 180.6 97.2267 181.006 97.408C181.422 97.5787 181.779 97.8347 182.078 98.176C182.376 98.5173 182.531 98.9707 182.542 99.536C182.542 100.037 182.403 100.485 182.126 100.88C181.848 101.275 181.454 101.584 180.942 101.808C180.44 102.032 179.848 102.144 179.166 102.144ZM186.641 94.672V99.552C186.641 99.8827 186.715 100.123 186.865 100.272C187.025 100.411 187.291 100.48 187.665 100.48H188.785V102H187.345C186.523 102 185.894 101.808 185.457 101.424C185.019 101.04 184.801 100.416 184.801 99.552V94.672H183.761V93.184H184.801V90.992H186.641V93.184H188.785V94.672H186.641Z" fill="black"/>
<path d="M63.8254 141L61.5014 137.01H59.9614V141H58.6874V131.242H61.8374C62.5747 131.242 63.1954 131.368 63.6994 131.62C64.2127 131.872 64.5954 132.213 64.8474 132.642C65.0994 133.071 65.2254 133.561 65.2254 134.112C65.2254 134.784 65.0294 135.377 64.6374 135.89C64.2547 136.403 63.676 136.744 62.9014 136.912L65.3514 141H63.8254ZM59.9614 135.988H61.8374C62.528 135.988 63.046 135.82 63.3914 135.484C63.7367 135.139 63.9094 134.681 63.9094 134.112C63.9094 133.533 63.7367 133.085 63.3914 132.768C63.0554 132.451 62.5374 132.292 61.8374 132.292H59.9614V135.988ZM74.205 136.87C74.205 137.113 74.191 137.369 74.163 137.64H68.031C68.0776 138.396 68.3343 138.989 68.801 139.418C69.277 139.838 69.851 140.048 70.523 140.048C71.0736 140.048 71.531 139.922 71.895 139.67C72.2683 139.409 72.5296 139.063 72.679 138.634H74.051C73.8456 139.371 73.435 139.973 72.819 140.44C72.203 140.897 71.4376 141.126 70.523 141.126C69.795 141.126 69.1416 140.963 68.563 140.636C67.9936 140.309 67.5456 139.847 67.219 139.25C66.8923 138.643 66.729 137.943 66.729 137.15C66.729 136.357 66.8876 135.661 67.205 135.064C67.5223 134.467 67.9656 134.009 68.535 133.692C69.1136 133.365 69.7763 133.202 70.523 133.202C71.251 133.202 71.895 133.361 72.455 133.678C73.015 133.995 73.4443 134.434 73.743 134.994C74.051 135.545 74.205 136.17 74.205 136.87ZM72.889 136.604C72.889 136.119 72.7816 135.703 72.567 135.358C72.3523 135.003 72.0583 134.737 71.685 134.56C71.321 134.373 70.915 134.28 70.467 134.28C69.823 134.28 69.2723 134.485 68.815 134.896C68.367 135.307 68.1103 135.876 68.045 136.604H72.889ZM78.7426 139.824L81.1226 133.328H82.4806L79.4706 141H77.9866L74.9766 133.328H76.3486L78.7426 139.824ZM84.3923 132.082C84.1496 132.082 83.9443 131.998 83.7763 131.83C83.6083 131.662 83.5243 131.457 83.5243 131.214C83.5243 130.971 83.6083 130.766 83.7763 130.598C83.9443 130.43 84.1496 130.346 84.3923 130.346C84.6256 130.346 84.8216 130.43 84.9803 130.598C85.1483 130.766 85.2323 130.971 85.2323 131.214C85.2323 131.457 85.1483 131.662 84.9803 131.83C84.8216 131.998 84.6256 132.082 84.3923 132.082ZM85.0083 133.328V141H83.7343V133.328H85.0083ZM94.1796 136.87C94.1796 137.113 94.1656 137.369 94.1376 137.64H88.0056C88.0522 138.396 88.3089 138.989 88.7756 139.418C89.2516 139.838 89.8256 140.048 90.4976 140.048C91.0482 140.048 91.5056 139.922 91.8696 139.67C92.2429 139.409 92.5042 139.063 92.6536 138.634H94.0256C93.8202 139.371 93.4096 139.973 92.7936 140.44C92.1776 140.897 91.4122 141.126 90.4976 141.126C89.7696 141.126 89.1162 140.963 88.5376 140.636C87.9682 140.309 87.5202 139.847 87.1936 139.25C86.8669 138.643 86.7036 137.943 86.7036 137.15C86.7036 136.357 86.8622 135.661 87.1796 135.064C87.4969 134.467 87.9402 134.009 88.5096 133.692C89.0882 133.365 89.7509 133.202 90.4976 133.202C91.2256 133.202 91.8696 133.361 92.4296 133.678C92.9896 133.995 93.4189 134.434 93.7176 134.994C94.0256 135.545 94.1796 136.17 94.1796 136.87ZM92.8636 136.604C92.8636 136.119 92.7562 135.703 92.5416 135.358C92.3269 135.003 92.0329 134.737 91.6596 134.56C91.2956 134.373 90.8896 134.28 90.4416 134.28C89.7976 134.28 89.2469 134.485 88.7896 134.896C88.3416 135.307 88.0849 135.876 88.0196 136.604H92.8636ZM106.081 133.328L103.687 141H102.371L100.523 134.91L98.6752 141H97.3592L94.9512 133.328H96.2532L98.0172 139.768L99.9212 133.328H101.223L103.085 139.782L104.821 133.328H106.081ZM110.062 141.126C109.474 141.126 108.946 141.028 108.48 140.832C108.013 140.627 107.644 140.347 107.374 139.992C107.103 139.628 106.954 139.213 106.926 138.746H108.242C108.279 139.129 108.456 139.441 108.774 139.684C109.1 139.927 109.525 140.048 110.048 140.048C110.533 140.048 110.916 139.941 111.196 139.726C111.476 139.511 111.616 139.241 111.616 138.914C111.616 138.578 111.466 138.331 111.168 138.172C110.869 138.004 110.407 137.841 109.782 137.682C109.212 137.533 108.746 137.383 108.382 137.234C108.027 137.075 107.719 136.847 107.458 136.548C107.206 136.24 107.08 135.839 107.08 135.344C107.08 134.952 107.196 134.593 107.43 134.266C107.663 133.939 107.994 133.683 108.424 133.496C108.853 133.3 109.343 133.202 109.894 133.202C110.743 133.202 111.429 133.417 111.952 133.846C112.474 134.275 112.754 134.863 112.792 135.61H111.518C111.49 135.209 111.326 134.887 111.028 134.644C110.738 134.401 110.346 134.28 109.852 134.28C109.394 134.28 109.03 134.378 108.76 134.574C108.489 134.77 108.354 135.027 108.354 135.344C108.354 135.596 108.433 135.806 108.592 135.974C108.76 136.133 108.965 136.263 109.208 136.366C109.46 136.459 109.805 136.567 110.244 136.688C110.794 136.837 111.242 136.987 111.588 137.136C111.933 137.276 112.227 137.491 112.47 137.78C112.722 138.069 112.852 138.447 112.862 138.914C112.862 139.334 112.745 139.712 112.512 140.048C112.278 140.384 111.947 140.65 111.518 140.846C111.098 141.033 110.612 141.126 110.062 141.126ZM117.916 137.136C117.916 136.352 118.075 135.666 118.392 135.078C118.71 134.481 119.144 134.019 119.694 133.692C120.254 133.365 120.88 133.202 121.57 133.202C122.168 133.202 122.723 133.342 123.236 133.622C123.75 133.893 124.142 134.252 124.412 134.7V130.64H125.7V141H124.412V139.558C124.16 140.015 123.787 140.393 123.292 140.692C122.798 140.981 122.219 141.126 121.556 141.126C120.875 141.126 120.254 140.958 119.694 140.622C119.144 140.286 118.71 139.815 118.392 139.208C118.075 138.601 117.916 137.911 117.916 137.136ZM124.412 137.15C124.412 136.571 124.296 136.067 124.062 135.638C123.829 135.209 123.512 134.882 123.11 134.658C122.718 134.425 122.284 134.308 121.808 134.308C121.332 134.308 120.898 134.42 120.506 134.644C120.114 134.868 119.802 135.195 119.568 135.624C119.335 136.053 119.218 136.557 119.218 137.136C119.218 137.724 119.335 138.237 119.568 138.676C119.802 139.105 120.114 139.437 120.506 139.67C120.898 139.894 121.332 140.006 121.808 140.006C122.284 140.006 122.718 139.894 123.11 139.67C123.512 139.437 123.829 139.105 124.062 138.676C124.296 138.237 124.412 137.729 124.412 137.15ZM134.853 136.87C134.853 137.113 134.839 137.369 134.811 137.64H128.679C128.726 138.396 128.983 138.989 129.449 139.418C129.925 139.838 130.499 140.048 131.171 140.048C131.722 140.048 132.179 139.922 132.543 139.67C132.917 139.409 133.178 139.063 133.327 138.634H134.699C134.494 139.371 134.083 139.973 133.467 140.44C132.851 140.897 132.086 141.126 131.171 141.126C130.443 141.126 129.79 140.963 129.211 140.636C128.642 140.309 128.194 139.847 127.867 139.25C127.541 138.643 127.377 137.943 127.377 137.15C127.377 136.357 127.536 135.661 127.853 135.064C128.171 134.467 128.614 134.009 129.183 133.692C129.762 133.365 130.425 133.202 131.171 133.202C131.899 133.202 132.543 133.361 133.103 133.678C133.663 133.995 134.093 134.434 134.391 134.994C134.699 135.545 134.853 136.17 134.853 136.87ZM133.537 136.604C133.537 136.119 133.43 135.703 133.215 135.358C133.001 135.003 132.707 134.737 132.333 134.56C131.969 134.373 131.563 134.28 131.115 134.28C130.471 134.28 129.921 134.485 129.463 134.896C129.015 135.307 128.759 135.876 128.693 136.604H133.537ZM136.059 137.15C136.059 136.357 136.218 135.666 136.535 135.078C136.852 134.481 137.291 134.019 137.851 133.692C138.42 133.365 139.069 133.202 139.797 133.202C140.74 133.202 141.514 133.431 142.121 133.888C142.737 134.345 143.143 134.98 143.339 135.792H141.967C141.836 135.325 141.58 134.957 141.197 134.686C140.824 134.415 140.357 134.28 139.797 134.28C139.069 134.28 138.481 134.532 138.033 135.036C137.585 135.531 137.361 136.235 137.361 137.15C137.361 138.074 137.585 138.788 138.033 139.292C138.481 139.796 139.069 140.048 139.797 140.048C140.357 140.048 140.824 139.917 141.197 139.656C141.57 139.395 141.827 139.021 141.967 138.536H143.339C143.134 139.32 142.723 139.95 142.107 140.426C141.491 140.893 140.721 141.126 139.797 141.126C139.069 141.126 138.42 140.963 137.851 140.636C137.291 140.309 136.852 139.847 136.535 139.25C136.218 138.653 136.059 137.953 136.059 137.15ZM145.697 132.082C145.454 132.082 145.249 131.998 145.081 131.83C144.913 131.662 144.829 131.457 144.829 131.214C144.829 130.971 144.913 130.766 145.081 130.598C145.249 130.43 145.454 130.346 145.697 130.346C145.93 130.346 146.126 130.43 146.285 130.598C146.453 130.766 146.537 130.971 146.537 131.214C146.537 131.457 146.453 131.662 146.285 131.83C146.126 131.998 145.93 132.082 145.697 132.082ZM146.313 133.328V141H145.039V133.328H146.313ZM151.2 141.126C150.612 141.126 150.085 141.028 149.618 140.832C149.152 140.627 148.783 140.347 148.512 139.992C148.242 139.628 148.092 139.213 148.064 138.746H149.38C149.418 139.129 149.595 139.441 149.912 139.684C150.239 139.927 150.664 140.048 151.186 140.048C151.672 140.048 152.054 139.941 152.334 139.726C152.614 139.511 152.754 139.241 152.754 138.914C152.754 138.578 152.605 138.331 152.306 138.172C152.008 138.004 151.546 137.841 150.92 137.682C150.351 137.533 149.884 137.383 149.52 137.234C149.166 137.075 148.858 136.847 148.596 136.548C148.344 136.24 148.218 135.839 148.218 135.344C148.218 134.952 148.335 134.593 148.568 134.266C148.802 133.939 149.133 133.683 149.562 133.496C149.992 133.3 150.482 133.202 151.032 133.202C151.882 133.202 152.568 133.417 153.09 133.846C153.613 134.275 153.893 134.863 153.93 135.61H152.656C152.628 135.209 152.465 134.887 152.166 134.644C151.877 134.401 151.485 134.28 150.99 134.28C150.533 134.28 150.169 134.378 149.898 134.574C149.628 134.77 149.492 135.027 149.492 135.344C149.492 135.596 149.572 135.806 149.73 135.974C149.898 136.133 150.104 136.263 150.346 136.366C150.598 136.459 150.944 136.567 151.382 136.688C151.933 136.837 152.381 136.987 152.726 137.136C153.072 137.276 153.366 137.491 153.608 137.78C153.86 138.069 153.991 138.447 154 138.914C154 139.334 153.884 139.712 153.65 140.048C153.417 140.384 153.086 140.65 152.656 140.846C152.236 141.033 151.751 141.126 151.2 141.126ZM156.457 132.082C156.214 132.082 156.009 131.998 155.841 131.83C155.673 131.662 155.589 131.457 155.589 131.214C155.589 130.971 155.673 130.766 155.841 130.598C156.009 130.43 156.214 130.346 156.457 130.346C156.69 130.346 156.886 130.43 157.045 130.598C157.213 130.766 157.297 130.971 157.297 131.214C157.297 131.457 157.213 131.662 157.045 131.83C156.886 131.998 156.69 132.082 156.457 132.082ZM157.073 133.328V141H155.799V133.328H157.073ZM162.59 141.126C161.871 141.126 161.218 140.963 160.63 140.636C160.051 140.309 159.594 139.847 159.258 139.25C158.931 138.643 158.768 137.943 158.768 137.15C158.768 136.366 158.936 135.675 159.272 135.078C159.617 134.471 160.084 134.009 160.672 133.692C161.26 133.365 161.918 133.202 162.646 133.202C163.374 133.202 164.032 133.365 164.62 133.692C165.208 134.009 165.67 134.467 166.006 135.064C166.351 135.661 166.524 136.357 166.524 137.15C166.524 137.943 166.347 138.643 165.992 139.25C165.647 139.847 165.175 140.309 164.578 140.636C163.981 140.963 163.318 141.126 162.59 141.126ZM162.59 140.006C163.047 140.006 163.477 139.899 163.878 139.684C164.279 139.469 164.601 139.147 164.844 138.718C165.096 138.289 165.222 137.766 165.222 137.15C165.222 136.534 165.101 136.011 164.858 135.582C164.615 135.153 164.298 134.835 163.906 134.63C163.514 134.415 163.089 134.308 162.632 134.308C162.165 134.308 161.736 134.415 161.344 134.63C160.961 134.835 160.653 135.153 160.42 135.582C160.187 136.011 160.07 136.534 160.07 137.15C160.07 137.775 160.182 138.303 160.406 138.732C160.639 139.161 160.947 139.483 161.33 139.698C161.713 139.903 162.133 140.006 162.59 140.006ZM171.937 133.188C172.87 133.188 173.626 133.473 174.205 134.042C174.784 134.602 175.073 135.414 175.073 136.478V141H173.813V136.66C173.813 135.895 173.622 135.311 173.239 134.91C172.856 134.499 172.334 134.294 171.671 134.294C170.999 134.294 170.462 134.504 170.061 134.924C169.669 135.344 169.473 135.955 169.473 136.758V141H168.199V133.328H169.473V134.42C169.725 134.028 170.066 133.725 170.495 133.51C170.934 133.295 171.414 133.188 171.937 133.188ZM179.87 141.126C179.282 141.126 178.755 141.028 178.288 140.832C177.822 140.627 177.453 140.347 177.182 139.992C176.912 139.628 176.762 139.213 176.734 138.746H178.05C178.088 139.129 178.265 139.441 178.582 139.684C178.909 139.927 179.334 140.048 179.856 140.048C180.342 140.048 180.724 139.941 181.004 139.726C181.284 139.511 181.424 139.241 181.424 138.914C181.424 138.578 181.275 138.331 180.976 138.172C180.678 138.004 180.216 137.841 179.59 137.682C179.021 137.533 178.554 137.383 178.19 137.234C177.836 137.075 177.528 136.847 177.266 136.548C177.014 136.24 176.888 135.839 176.888 135.344C176.888 134.952 177.005 134.593 177.238 134.266C177.472 133.939 177.803 133.683 178.232 133.496C178.662 133.3 179.152 133.202 179.702 133.202C180.552 133.202 181.238 133.417 181.76 133.846C182.283 134.275 182.563 134.863 182.6 135.61H181.326C181.298 135.209 181.135 134.887 180.836 134.644C180.547 134.401 180.155 134.28 179.66 134.28C179.203 134.28 178.839 134.378 178.568 134.574C178.298 134.77 178.162 135.027 178.162 135.344C178.162 135.596 178.242 135.806 178.4 135.974C178.568 136.133 178.774 136.263 179.016 136.366C179.268 136.459 179.614 136.567 180.052 136.688C180.603 136.837 181.051 136.987 181.396 137.136C181.742 137.276 182.036 137.491 182.278 137.78C182.53 138.069 182.661 138.447 182.67 138.914C182.67 139.334 182.554 139.712 182.32 140.048C182.087 140.384 181.756 140.65 181.326 140.846C180.906 141.033 180.421 141.126 179.87 141.126ZM50.2771 155.378H48.6671V162H47.3931V155.378H46.3991V154.328H47.3931V153.782C47.3931 152.923 47.6125 152.298 48.0511 151.906C48.4991 151.505 49.2131 151.304 50.1931 151.304V152.368C49.6331 152.368 49.2365 152.48 49.0031 152.704C48.7791 152.919 48.6671 153.278 48.6671 153.782V154.328H50.2771V155.378ZM53.0366 155.574C53.2606 155.135 53.5779 154.795 53.9886 154.552C54.4086 154.309 54.9172 154.188 55.5146 154.188V155.504H55.1786C53.7506 155.504 53.0366 156.279 53.0366 157.828V162H51.7626V154.328H53.0366V155.574ZM60.3312 162.126C59.6126 162.126 58.9592 161.963 58.3712 161.636C57.7926 161.309 57.3352 160.847 56.9992 160.25C56.6726 159.643 56.5092 158.943 56.5092 158.15C56.5092 157.366 56.6772 156.675 57.0132 156.078C57.3586 155.471 57.8252 155.009 58.4132 154.692C59.0012 154.365 59.6592 154.202 60.3872 154.202C61.1152 154.202 61.7732 154.365 62.3612 154.692C62.9492 155.009 63.4112 155.467 63.7472 156.064C64.0926 156.661 64.2652 157.357 64.2652 158.15C64.2652 158.943 64.0879 159.643 63.7332 160.25C63.3879 160.847 62.9166 161.309 62.3192 161.636C61.7219 161.963 61.0592 162.126 60.3312 162.126ZM60.3312 161.006C60.7886 161.006 61.2179 160.899 61.6192 160.684C62.0206 160.469 62.3426 160.147 62.5852 159.718C62.8372 159.289 62.9632 158.766 62.9632 158.15C62.9632 157.534 62.8419 157.011 62.5992 156.582C62.3566 156.153 62.0392 155.835 61.6472 155.63C61.2552 155.415 60.8306 155.308 60.3732 155.308C59.9066 155.308 59.4772 155.415 59.0852 155.63C58.7026 155.835 58.3946 156.153 58.1612 156.582C57.9279 157.011 57.8112 157.534 57.8112 158.15C57.8112 158.775 57.9232 159.303 58.1472 159.732C58.3806 160.161 58.6886 160.483 59.0712 160.698C59.4539 160.903 59.8739 161.006 60.3312 161.006ZM75.1663 154.188C75.7636 154.188 76.2956 154.314 76.7623 154.566C77.229 154.809 77.5976 155.177 77.8683 155.672C78.139 156.167 78.2743 156.769 78.2743 157.478V162H77.0143V157.66C77.0143 156.895 76.823 156.311 76.4403 155.91C76.067 155.499 75.5583 155.294 74.9143 155.294C74.2516 155.294 73.7243 155.509 73.3323 155.938C72.9403 156.358 72.7443 156.969 72.7443 157.772V162H71.4843V157.66C71.4843 156.895 71.293 156.311 70.9103 155.91C70.537 155.499 70.0283 155.294 69.3843 155.294C68.7216 155.294 68.1943 155.509 67.8023 155.938C67.4103 156.358 67.2143 156.969 67.2143 157.772V162H65.9403V154.328H67.2143V155.434C67.4663 155.033 67.8023 154.725 68.2223 154.51C68.6516 154.295 69.123 154.188 69.6363 154.188C70.2803 154.188 70.8496 154.333 71.3443 154.622C71.839 154.911 72.2076 155.336 72.4503 155.896C72.665 155.355 73.0196 154.935 73.5143 154.636C74.009 154.337 74.5596 154.188 75.1663 154.188ZM83.6206 158.136C83.6206 157.352 83.7792 156.666 84.0966 156.078C84.4139 155.481 84.8479 155.019 85.3986 154.692C85.9586 154.365 86.5792 154.202 87.2606 154.202C87.9326 154.202 88.5159 154.347 89.0106 154.636C89.5052 154.925 89.8739 155.289 90.1166 155.728V154.328H91.4046V162H90.1166V160.572C89.8646 161.02 89.4866 161.393 88.9826 161.692C88.4879 161.981 87.9092 162.126 87.2466 162.126C86.5652 162.126 85.9492 161.958 85.3986 161.622C84.8479 161.286 84.4139 160.815 84.0966 160.208C83.7792 159.601 83.6206 158.911 83.6206 158.136ZM90.1166 158.15C90.1166 157.571 89.9999 157.067 89.7666 156.638C89.5332 156.209 89.2159 155.882 88.8146 155.658C88.4226 155.425 87.9886 155.308 87.5126 155.308C87.0366 155.308 86.6026 155.42 86.2106 155.644C85.8186 155.868 85.5059 156.195 85.2726 156.624C85.0392 157.053 84.9226 157.557 84.9226 158.136C84.9226 158.724 85.0392 159.237 85.2726 159.676C85.5059 160.105 85.8186 160.437 86.2106 160.67C86.6026 160.894 87.0366 161.006 87.5126 161.006C87.9886 161.006 88.4226 160.894 88.8146 160.67C89.2159 160.437 89.5332 160.105 89.7666 159.676C89.9999 159.237 90.1166 158.729 90.1166 158.15ZM93.0815 158.15C93.0815 157.357 93.2402 156.666 93.5575 156.078C93.8748 155.481 94.3135 155.019 94.8735 154.692C95.4428 154.365 96.0915 154.202 96.8195 154.202C97.7622 154.202 98.5368 154.431 99.1435 154.888C99.7595 155.345 100.165 155.98 100.361 156.792H98.9895C98.8588 156.325 98.6022 155.957 98.2195 155.686C97.8462 155.415 97.3795 155.28 96.8195 155.28C96.0915 155.28 95.5035 155.532 95.0555 156.036C94.6075 156.531 94.3835 157.235 94.3835 158.15C94.3835 159.074 94.6075 159.788 95.0555 160.292C95.5035 160.796 96.0915 161.048 96.8195 161.048C97.3795 161.048 97.8462 160.917 98.2195 160.656C98.5928 160.395 98.8495 160.021 98.9895 159.536H100.361C100.156 160.32 99.7455 160.95 99.1295 161.426C98.5135 161.893 97.7435 162.126 96.8195 162.126C96.0915 162.126 95.4428 161.963 94.8735 161.636C94.3135 161.309 93.8748 160.847 93.5575 160.25C93.2402 159.653 93.0815 158.953 93.0815 158.15ZM101.585 158.15C101.585 157.357 101.744 156.666 102.061 156.078C102.379 155.481 102.817 155.019 103.377 154.692C103.947 154.365 104.595 154.202 105.323 154.202C106.266 154.202 107.041 154.431 107.647 154.888C108.263 155.345 108.669 155.98 108.865 156.792H107.493C107.363 156.325 107.106 155.957 106.723 155.686C106.35 155.415 105.883 155.28 105.323 155.28C104.595 155.28 104.007 155.532 103.559 156.036C103.111 156.531 102.887 157.235 102.887 158.15C102.887 159.074 103.111 159.788 103.559 160.292C104.007 160.796 104.595 161.048 105.323 161.048C105.883 161.048 106.35 160.917 106.723 160.656C107.097 160.395 107.353 160.021 107.493 159.536H108.865C108.66 160.32 108.249 160.95 107.633 161.426C107.017 161.893 106.247 162.126 105.323 162.126C104.595 162.126 103.947 161.963 103.377 161.636C102.817 161.309 102.379 160.847 102.061 160.25C101.744 159.653 101.585 158.953 101.585 158.15ZM113.911 162.126C113.193 162.126 112.539 161.963 111.951 161.636C111.373 161.309 110.915 160.847 110.579 160.25C110.253 159.643 110.089 158.943 110.089 158.15C110.089 157.366 110.257 156.675 110.593 156.078C110.939 155.471 111.405 155.009 111.993 154.692C112.581 154.365 113.239 154.202 113.967 154.202C114.695 154.202 115.353 154.365 115.941 154.692C116.529 155.009 116.991 155.467 117.327 156.064C117.673 156.661 117.845 157.357 117.845 158.15C117.845 158.943 117.668 159.643 117.313 160.25C116.968 160.847 116.497 161.309 115.899 161.636C115.302 161.963 114.639 162.126 113.911 162.126ZM113.911 161.006C114.369 161.006 114.798 160.899 115.199 160.684C115.601 160.469 115.923 160.147 116.165 159.718C116.417 159.289 116.543 158.766 116.543 158.15C116.543 157.534 116.422 157.011 116.179 156.582C115.937 156.153 115.619 155.835 115.227 155.63C114.835 155.415 114.411 155.308 113.953 155.308C113.487 155.308 113.057 155.415 112.665 155.63C112.283 155.835 111.975 156.153 111.741 156.582C111.508 157.011 111.391 157.534 111.391 158.15C111.391 158.775 111.503 159.303 111.727 159.732C111.961 160.161 112.269 160.483 112.651 160.698C113.034 160.903 113.454 161.006 113.911 161.006ZM126.324 154.328V162H125.05V160.866C124.808 161.258 124.467 161.566 124.028 161.79C123.599 162.005 123.123 162.112 122.6 162.112C122.003 162.112 121.466 161.991 120.99 161.748C120.514 161.496 120.136 161.123 119.856 160.628C119.586 160.133 119.45 159.531 119.45 158.822V154.328H120.71V158.654C120.71 159.41 120.902 159.993 121.284 160.404C121.667 160.805 122.19 161.006 122.852 161.006C123.534 161.006 124.07 160.796 124.462 160.376C124.854 159.956 125.05 159.345 125.05 158.542V154.328H126.324ZM132.213 154.188C133.147 154.188 133.903 154.473 134.481 155.042C135.06 155.602 135.349 156.414 135.349 157.478V162H134.089V157.66C134.089 156.895 133.898 156.311 133.515 155.91C133.133 155.499 132.61 155.294 131.947 155.294C131.275 155.294 130.739 155.504 130.337 155.924C129.945 156.344 129.749 156.955 129.749 157.758V162H128.475V154.328H129.749V155.42C130.001 155.028 130.342 154.725 130.771 154.51C131.21 154.295 131.691 154.188 132.213 154.188ZM138.985 155.378V159.9C138.985 160.273 139.064 160.539 139.223 160.698C139.381 160.847 139.657 160.922 140.049 160.922H140.987V162H139.839C139.129 162 138.597 161.837 138.243 161.51C137.888 161.183 137.711 160.647 137.711 159.9V155.378H136.717V154.328H137.711V152.396H138.985V154.328H140.987V155.378H138.985ZM143.188 153.082C142.945 153.082 142.74 152.998 142.572 152.83C142.404 152.662 142.32 152.457 142.32 152.214C142.32 151.971 142.404 151.766 142.572 151.598C142.74 151.43 142.945 151.346 143.188 151.346C143.421 151.346 143.617 151.43 143.776 151.598C143.944 151.766 144.028 151.971 144.028 152.214C144.028 152.457 143.944 152.662 143.776 152.83C143.617 152.998 143.421 153.082 143.188 153.082ZM143.804 154.328V162H142.53V154.328H143.804ZM149.713 154.188C150.647 154.188 151.403 154.473 151.981 155.042C152.56 155.602 152.849 156.414 152.849 157.478V162H151.589V157.66C151.589 156.895 151.398 156.311 151.015 155.91C150.633 155.499 150.11 155.294 149.447 155.294C148.775 155.294 148.239 155.504 147.837 155.924C147.445 156.344 147.249 156.955 147.249 157.758V162H145.975V154.328H147.249V155.42C147.501 155.028 147.842 154.725 148.271 154.51C148.71 154.295 149.191 154.188 149.713 154.188ZM158.095 154.202C158.757 154.202 159.336 154.347 159.831 154.636C160.335 154.925 160.708 155.289 160.951 155.728V154.328H162.239V162.168C162.239 162.868 162.089 163.489 161.791 164.03C161.492 164.581 161.063 165.01 160.503 165.318C159.952 165.626 159.308 165.78 158.571 165.78C157.563 165.78 156.723 165.542 156.051 165.066C155.379 164.59 154.982 163.941 154.861 163.12H156.121C156.261 163.587 156.55 163.96 156.989 164.24C157.427 164.529 157.955 164.674 158.571 164.674C159.271 164.674 159.84 164.455 160.279 164.016C160.727 163.577 160.951 162.961 160.951 162.168V160.558C160.699 161.006 160.325 161.379 159.831 161.678C159.336 161.977 158.757 162.126 158.095 162.126C157.413 162.126 156.793 161.958 156.233 161.622C155.682 161.286 155.248 160.815 154.931 160.208C154.613 159.601 154.455 158.911 154.455 158.136C154.455 157.352 154.613 156.666 154.931 156.078C155.248 155.481 155.682 155.019 156.233 154.692C156.793 154.365 157.413 154.202 158.095 154.202ZM160.951 158.15C160.951 157.571 160.834 157.067 160.601 156.638C160.367 156.209 160.05 155.882 159.649 155.658C159.257 155.425 158.823 155.308 158.347 155.308C157.871 155.308 157.437 155.42 157.045 155.644C156.653 155.868 156.34 156.195 156.107 156.624C155.873 157.053 155.757 157.557 155.757 158.136C155.757 158.724 155.873 159.237 156.107 159.676C156.34 160.105 156.653 160.437 157.045 160.67C157.437 160.894 157.871 161.006 158.347 161.006C158.823 161.006 159.257 160.894 159.649 160.67C160.05 160.437 160.367 160.105 160.601 159.676C160.834 159.237 160.951 158.729 160.951 158.15ZM167.648 158.136C167.648 157.352 167.807 156.666 168.124 156.078C168.441 155.481 168.875 155.019 169.426 154.692C169.986 154.365 170.607 154.202 171.288 154.202C171.96 154.202 172.543 154.347 173.038 154.636C173.533 154.925 173.901 155.289 174.144 155.728V154.328H175.432V162H174.144V160.572C173.892 161.02 173.514 161.393 173.01 161.692C172.515 161.981 171.937 162.126 171.274 162.126C170.593 162.126 169.977 161.958 169.426 161.622C168.875 161.286 168.441 160.815 168.124 160.208C167.807 159.601 167.648 158.911 167.648 158.136ZM174.144 158.15C174.144 157.571 174.027 157.067 173.794 156.638C173.561 156.209 173.243 155.882 172.842 155.658C172.45 155.425 172.016 155.308 171.54 155.308C171.064 155.308 170.63 155.42 170.238 155.644C169.846 155.868 169.533 156.195 169.3 156.624C169.067 157.053 168.95 157.557 168.95 158.136C168.95 158.724 169.067 159.237 169.3 159.676C169.533 160.105 169.846 160.437 170.238 160.67C170.63 160.894 171.064 161.006 171.54 161.006C172.016 161.006 172.45 160.894 172.842 160.67C173.243 160.437 173.561 160.105 173.794 159.676C174.027 159.237 174.144 158.729 174.144 158.15ZM181.323 154.188C182.256 154.188 183.012 154.473 183.591 155.042C184.17 155.602 184.459 156.414 184.459 157.478V162H183.199V157.66C183.199 156.895 183.008 156.311 182.625 155.91C182.242 155.499 181.72 155.294 181.057 155.294C180.385 155.294 179.848 155.504 179.447 155.924C179.055 156.344 178.859 156.955 178.859 157.758V162H177.585V154.328H178.859V155.42C179.111 155.028 179.452 154.725 179.881 154.51C180.32 154.295 180.8 154.188 181.323 154.188ZM186.064 158.136C186.064 157.352 186.223 156.666 186.54 156.078C186.857 155.481 187.291 155.019 187.842 154.692C188.402 154.365 189.027 154.202 189.718 154.202C190.315 154.202 190.871 154.342 191.384 154.622C191.897 154.893 192.289 155.252 192.56 155.7V151.64H193.848V162H192.56V160.558C192.308 161.015 191.935 161.393 191.44 161.692C190.945 161.981 190.367 162.126 189.704 162.126C189.023 162.126 188.402 161.958 187.842 161.622C187.291 161.286 186.857 160.815 186.54 160.208C186.223 159.601 186.064 158.911 186.064 158.136ZM192.56 158.15C192.56 157.571 192.443 157.067 192.21 156.638C191.977 156.209 191.659 155.882 191.258 155.658C190.866 155.425 190.432 155.308 189.956 155.308C189.48 155.308 189.046 155.42 188.654 155.644C188.262 155.868 187.949 156.195 187.716 156.624C187.483 157.053 187.366 157.557 187.366 158.136C187.366 158.724 187.483 159.237 187.716 159.676C187.949 160.105 188.262 160.437 188.654 160.67C189.046 160.894 189.48 161.006 189.956 161.006C190.432 161.006 190.866 160.894 191.258 160.67C191.659 160.437 191.977 160.105 192.21 159.676C192.443 159.237 192.56 158.729 192.56 158.15ZM49.4067 176.574C49.6307 176.135 49.948 175.795 50.3587 175.552C50.7787 175.309 51.2874 175.188 51.8847 175.188V176.504H51.5487C50.1207 176.504 49.4067 177.279 49.4067 178.828V183H48.1327V175.328H49.4067V176.574ZM60.3553 178.87C60.3553 179.113 60.3413 179.369 60.3133 179.64H54.1813C54.228 180.396 54.4847 180.989 54.9513 181.418C55.4273 181.838 56.0013 182.048 56.6733 182.048C57.224 182.048 57.6813 181.922 58.0453 181.67C58.4187 181.409 58.68 181.063 58.8293 180.634H60.2013C59.996 181.371 59.5853 181.973 58.9693 182.44C58.3533 182.897 57.588 183.126 56.6733 183.126C55.9453 183.126 55.292 182.963 54.7133 182.636C54.144 182.309 53.696 181.847 53.3693 181.25C53.0427 180.643 52.8793 179.943 52.8793 179.15C52.8793 178.357 53.038 177.661 53.3553 177.064C53.6727 176.467 54.116 176.009 54.6853 175.692C55.264 175.365 55.9267 175.202 56.6733 175.202C57.4013 175.202 58.0453 175.361 58.6053 175.678C59.1653 175.995 59.5947 176.434 59.8933 176.994C60.2013 177.545 60.3553 178.17 60.3553 178.87ZM59.0393 178.604C59.0393 178.119 58.932 177.703 58.7173 177.358C58.5027 177.003 58.2087 176.737 57.8353 176.56C57.4713 176.373 57.0653 176.28 56.6173 176.28C55.9733 176.28 55.4227 176.485 54.9653 176.896C54.5173 177.307 54.2607 177.876 54.1953 178.604H59.0393ZM64.893 181.824L67.273 175.328H68.631L65.621 183H64.137L61.127 175.328H62.499L64.893 181.824ZM76.8846 178.87C76.8846 179.113 76.8706 179.369 76.8426 179.64H70.7106C70.7573 180.396 71.014 180.989 71.4806 181.418C71.9566 181.838 72.5306 182.048 73.2026 182.048C73.7533 182.048 74.2106 181.922 74.5746 181.67C74.948 181.409 75.2093 181.063 75.3586 180.634H76.7306C76.5253 181.371 76.1146 181.973 75.4986 182.44C74.8826 182.897 74.1173 183.126 73.2026 183.126C72.4746 183.126 71.8213 182.963 71.2426 182.636C70.6733 182.309 70.2253 181.847 69.8986 181.25C69.572 180.643 69.4086 179.943 69.4086 179.15C69.4086 178.357 69.5673 177.661 69.8846 177.064C70.202 176.467 70.6453 176.009 71.2146 175.692C71.7933 175.365 72.456 175.202 73.2026 175.202C73.9306 175.202 74.5746 175.361 75.1346 175.678C75.6946 175.995 76.124 176.434 76.4226 176.994C76.7306 177.545 76.8846 178.17 76.8846 178.87ZM75.5686 178.604C75.5686 178.119 75.4613 177.703 75.2466 177.358C75.032 177.003 74.738 176.737 74.3646 176.56C74.0006 176.373 73.5946 176.28 73.1466 176.28C72.5026 176.28 71.952 176.485 71.4946 176.896C71.0466 177.307 70.79 177.876 70.7246 178.604H75.5686ZM82.3043 175.188C83.2376 175.188 83.9936 175.473 84.5723 176.042C85.1509 176.602 85.4403 177.414 85.4403 178.478V183H84.1803V178.66C84.1803 177.895 83.9889 177.311 83.6063 176.91C83.2236 176.499 82.7009 176.294 82.0383 176.294C81.3663 176.294 80.8296 176.504 80.4283 176.924C80.0363 177.344 79.8403 177.955 79.8403 178.758V183H78.5663V175.328H79.8403V176.42C80.0923 176.028 80.4329 175.725 80.8623 175.51C81.3009 175.295 81.7816 175.188 82.3043 175.188ZM94.3254 175.328V183H93.0514V181.866C92.8087 182.258 92.468 182.566 92.0294 182.79C91.6 183.005 91.124 183.112 90.6014 183.112C90.004 183.112 89.4674 182.991 88.9914 182.748C88.5154 182.496 88.1374 182.123 87.8574 181.628C87.5867 181.133 87.4514 180.531 87.4514 179.822V175.328H88.7114V179.654C88.7114 180.41 88.9027 180.993 89.2854 181.404C89.668 181.805 90.1907 182.006 90.8534 182.006C91.5347 182.006 92.0714 181.796 92.4634 181.376C92.8554 180.956 93.0514 180.345 93.0514 179.542V175.328H94.3254ZM103.476 178.87C103.476 179.113 103.462 179.369 103.434 179.64H97.3024C97.3491 180.396 97.6058 180.989 98.0724 181.418C98.5484 181.838 99.1224 182.048 99.7944 182.048C100.345 182.048 100.802 181.922 101.166 181.67C101.54 181.409 101.801 181.063 101.95 180.634H103.322C103.117 181.371 102.706 181.973 102.09 182.44C101.474 182.897 100.709 183.126 99.7944 183.126C99.0664 183.126 98.4131 182.963 97.8344 182.636C97.2651 182.309 96.8171 181.847 96.4904 181.25C96.1638 180.643 96.0004 179.943 96.0004 179.15C96.0004 178.357 96.1591 177.661 96.4764 177.064C96.7938 176.467 97.2371 176.009 97.8064 175.692C98.3851 175.365 99.0478 175.202 99.7944 175.202C100.522 175.202 101.166 175.361 101.726 175.678C102.286 175.995 102.716 176.434 103.014 176.994C103.322 177.545 103.476 178.17 103.476 178.87ZM102.16 178.604C102.16 178.119 102.053 177.703 101.838 177.358C101.624 177.003 101.33 176.737 100.956 176.56C100.592 176.373 100.186 176.28 99.7384 176.28C99.0944 176.28 98.5438 176.485 98.0864 176.896C97.6384 177.307 97.3818 177.876 97.3164 178.604H102.16ZM113.897 176.742C114.149 176.303 114.522 175.939 115.017 175.65C115.521 175.351 116.104 175.202 116.767 175.202C117.448 175.202 118.064 175.365 118.615 175.692C119.175 176.019 119.614 176.481 119.931 177.078C120.248 177.666 120.407 178.352 120.407 179.136C120.407 179.911 120.248 180.601 119.931 181.208C119.614 181.815 119.175 182.286 118.615 182.622C118.064 182.958 117.448 183.126 116.767 183.126C116.114 183.126 115.535 182.981 115.031 182.692C114.536 182.393 114.158 182.025 113.897 181.586V186.64H112.623V175.328H113.897V176.742ZM119.105 179.136C119.105 178.557 118.988 178.053 118.755 177.624C118.522 177.195 118.204 176.868 117.803 176.644C117.411 176.42 116.977 176.308 116.501 176.308C116.034 176.308 115.6 176.425 115.199 176.658C114.807 176.882 114.49 177.213 114.247 177.652C114.014 178.081 113.897 178.581 113.897 179.15C113.897 179.729 114.014 180.237 114.247 180.676C114.49 181.105 114.807 181.437 115.199 181.67C115.6 181.894 116.034 182.006 116.501 182.006C116.977 182.006 117.411 181.894 117.803 181.67C118.204 181.437 118.522 181.105 118.755 180.676C118.988 180.237 119.105 179.724 119.105 179.136ZM129.084 178.87C129.084 179.113 129.07 179.369 129.042 179.64H122.91C122.957 180.396 123.213 180.989 123.68 181.418C124.156 181.838 124.73 182.048 125.402 182.048C125.953 182.048 126.41 181.922 126.774 181.67C127.147 181.409 127.409 181.063 127.558 180.634H128.93C128.725 181.371 128.314 181.973 127.698 182.44C127.082 182.897 126.317 183.126 125.402 183.126C124.674 183.126 124.021 182.963 123.442 182.636C122.873 182.309 122.425 181.847 122.098 181.25C121.771 180.643 121.608 179.943 121.608 179.15C121.608 178.357 121.767 177.661 122.084 177.064C122.401 176.467 122.845 176.009 123.414 175.692C123.993 175.365 124.655 175.202 125.402 175.202C126.13 175.202 126.774 175.361 127.334 175.678C127.894 175.995 128.323 176.434 128.622 176.994C128.93 177.545 129.084 178.17 129.084 178.87ZM127.768 178.604C127.768 178.119 127.661 177.703 127.446 177.358C127.231 177.003 126.937 176.737 126.564 176.56C126.2 176.373 125.794 176.28 125.346 176.28C124.702 176.28 124.151 176.485 123.694 176.896C123.246 177.307 122.989 177.876 122.924 178.604H127.768ZM132.04 176.574C132.264 176.135 132.581 175.795 132.992 175.552C133.412 175.309 133.92 175.188 134.518 175.188V176.504H134.182C132.754 176.504 132.04 177.279 132.04 178.828V183H130.766V175.328H132.04V176.574ZM138.704 183.126C138.116 183.126 137.589 183.028 137.122 182.832C136.655 182.627 136.287 182.347 136.016 181.992C135.745 181.628 135.596 181.213 135.568 180.746H136.884C136.921 181.129 137.099 181.441 137.416 181.684C137.743 181.927 138.167 182.048 138.69 182.048C139.175 182.048 139.558 181.941 139.838 181.726C140.118 181.511 140.258 181.241 140.258 180.914C140.258 180.578 140.109 180.331 139.81 180.172C139.511 180.004 139.049 179.841 138.424 179.682C137.855 179.533 137.388 179.383 137.024 179.234C136.669 179.075 136.361 178.847 136.1 178.548C135.848 178.24 135.722 177.839 135.722 177.344C135.722 176.952 135.839 176.593 136.072 176.266C136.305 175.939 136.637 175.683 137.066 175.496C137.495 175.3 137.985 175.202 138.536 175.202C139.385 175.202 140.071 175.417 140.594 175.846C141.117 176.275 141.397 176.863 141.434 177.61H140.16C140.132 177.209 139.969 176.887 139.67 176.644C139.381 176.401 138.989 176.28 138.494 176.28C138.037 176.28 137.673 176.378 137.402 176.574C137.131 176.77 136.996 177.027 136.996 177.344C136.996 177.596 137.075 177.806 137.234 177.974C137.402 178.133 137.607 178.263 137.85 178.366C138.102 178.459 138.447 178.567 138.886 178.688C139.437 178.837 139.885 178.987 140.23 179.136C140.575 179.276 140.869 179.491 141.112 179.78C141.364 180.069 141.495 180.447 141.504 180.914C141.504 181.334 141.387 181.712 141.154 182.048C140.921 182.384 140.589 182.65 140.16 182.846C139.74 183.033 139.255 183.126 138.704 183.126ZM144.577 176.742C144.829 176.303 145.202 175.939 145.697 175.65C146.201 175.351 146.784 175.202 147.447 175.202C148.128 175.202 148.744 175.365 149.295 175.692C149.855 176.019 150.293 176.481 150.611 177.078C150.928 177.666 151.087 178.352 151.087 179.136C151.087 179.911 150.928 180.601 150.611 181.208C150.293 181.815 149.855 182.286 149.295 182.622C148.744 182.958 148.128 183.126 147.447 183.126C146.793 183.126 146.215 182.981 145.711 182.692C145.216 182.393 144.838 182.025 144.577 181.586V186.64H143.303V175.328H144.577V176.742ZM149.785 179.136C149.785 178.557 149.668 178.053 149.435 177.624C149.201 177.195 148.884 176.868 148.483 176.644C148.091 176.42 147.657 176.308 147.181 176.308C146.714 176.308 146.28 176.425 145.879 176.658C145.487 176.882 145.169 177.213 144.927 177.652C144.693 178.081 144.577 178.581 144.577 179.15C144.577 179.729 144.693 180.237 144.927 180.676C145.169 181.105 145.487 181.437 145.879 181.67C146.28 181.894 146.714 182.006 147.181 182.006C147.657 182.006 148.091 181.894 148.483 181.67C148.884 181.437 149.201 181.105 149.435 180.676C149.668 180.237 149.785 179.724 149.785 179.136ZM159.764 178.87C159.764 179.113 159.75 179.369 159.722 179.64H153.59C153.636 180.396 153.893 180.989 154.36 181.418C154.836 181.838 155.41 182.048 156.082 182.048C156.632 182.048 157.09 181.922 157.454 181.67C157.827 181.409 158.088 181.063 158.238 180.634H159.61C159.404 181.371 158.994 181.973 158.378 182.44C157.762 182.897 156.996 183.126 156.082 183.126C155.354 183.126 154.7 182.963 154.122 182.636C153.552 182.309 153.104 181.847 152.778 181.25C152.451 180.643 152.288 179.943 152.288 179.15C152.288 178.357 152.446 177.661 152.764 177.064C153.081 176.467 153.524 176.009 154.094 175.692C154.672 175.365 155.335 175.202 156.082 175.202C156.81 175.202 157.454 175.361 158.014 175.678C158.574 175.995 159.003 176.434 159.302 176.994C159.61 177.545 159.764 178.17 159.764 178.87ZM158.448 178.604C158.448 178.119 158.34 177.703 158.126 177.358C157.911 177.003 157.617 176.737 157.244 176.56C156.88 176.373 156.474 176.28 156.026 176.28C155.382 176.28 154.831 176.485 154.374 176.896C153.926 177.307 153.669 177.876 153.604 178.604H158.448ZM160.969 179.15C160.969 178.357 161.128 177.666 161.445 177.078C161.763 176.481 162.201 176.019 162.761 175.692C163.331 175.365 163.979 175.202 164.707 175.202C165.65 175.202 166.425 175.431 167.031 175.888C167.647 176.345 168.053 176.98 168.249 177.792H166.877C166.747 177.325 166.49 176.957 166.107 176.686C165.734 176.415 165.267 176.28 164.707 176.28C163.979 176.28 163.391 176.532 162.943 177.036C162.495 177.531 162.271 178.235 162.271 179.15C162.271 180.074 162.495 180.788 162.943 181.292C163.391 181.796 163.979 182.048 164.707 182.048C165.267 182.048 165.734 181.917 166.107 181.656C166.481 181.395 166.737 181.021 166.877 180.536H168.249C168.044 181.32 167.633 181.95 167.017 182.426C166.401 182.893 165.631 183.126 164.707 183.126C163.979 183.126 163.331 182.963 162.761 182.636C162.201 182.309 161.763 181.847 161.445 181.25C161.128 180.653 160.969 179.953 160.969 179.15ZM171.503 176.378V180.9C171.503 181.273 171.582 181.539 171.741 181.698C171.9 181.847 172.175 181.922 172.567 181.922H173.505V183H172.357C171.648 183 171.116 182.837 170.761 182.51C170.406 182.183 170.229 181.647 170.229 180.9V176.378H169.235V175.328H170.229V173.396H171.503V175.328H173.505V176.378H171.503ZM175.707 174.082C175.464 174.082 175.259 173.998 175.091 173.83C174.923 173.662 174.839 173.457 174.839 173.214C174.839 172.971 174.923 172.766 175.091 172.598C175.259 172.43 175.464 172.346 175.707 172.346C175.94 172.346 176.136 172.43 176.295 172.598C176.463 172.766 176.547 172.971 176.547 173.214C176.547 173.457 176.463 173.662 176.295 173.83C176.136 173.998 175.94 174.082 175.707 174.082ZM176.323 175.328V183H175.049V175.328H176.323ZM181.35 181.824L183.73 175.328H185.088L182.078 183H180.594L177.584 175.328H178.956L181.35 181.824ZM193.342 178.87C193.342 179.113 193.328 179.369 193.3 179.64H187.168C187.214 180.396 187.471 180.989 187.938 181.418C188.414 181.838 188.988 182.048 189.66 182.048C190.21 182.048 190.668 181.922 191.032 181.67C191.405 181.409 191.666 181.063 191.816 180.634H193.188C192.982 181.371 192.572 181.973 191.956 182.44C191.34 182.897 190.574 183.126 189.66 183.126C188.932 183.126 188.278 182.963 187.7 182.636C187.13 182.309 186.682 181.847 186.356 181.25C186.029 180.643 185.866 179.943 185.866 179.15C185.866 178.357 186.024 177.661 186.342 177.064C186.659 176.467 187.102 176.009 187.672 175.692C188.25 175.365 188.913 175.202 189.66 175.202C190.388 175.202 191.032 175.361 191.592 175.678C192.152 175.995 192.581 176.434 192.88 176.994C193.188 177.545 193.342 178.17 193.342 178.87ZM192.026 178.604C192.026 178.119 191.918 177.703 191.704 177.358C191.489 177.003 191.195 176.737 190.822 176.56C190.458 176.373 190.052 176.28 189.604 176.28C188.96 176.28 188.409 176.485 187.952 176.896C187.504 177.307 187.247 177.876 187.182 178.604H192.026Z" fill="black"/>
</g>
<defs>
<filter id="filter0_dii_1604_3279" x="-51.5" y="-54" width="344" height="384" filterUnits="userSpaceOnUse" color-interpolation-filters="sRGB">
<feFlood flood-opacity="0" result="BackgroundImageFix"/>
<feColorMatrix in="SourceAlpha" type="matrix" values="0 0 0 0 0 0 0 0 0 0 0 0 0 0 0 0 0 0 127 0" result="hardAlpha"/>
<feOffset dy="2"/>
<feGaussianBlur stdDeviation="10"/>
<feComposite in2="hardAlpha" operator="out"/>
<feColorMatrix type="matrix" values="0 0 0 0 0 0 0 0 0 0 0 0 0 0 0 0 0 0 0.02 0"/>
<feBlend mode="normal" in2="BackgroundImageFix" result="effect1_dropShadow_1604_3279"/>
<feBlend mode="normal" in="SourceGraphic" in2="effect1_dropShadow_1604_3279" result="shape"/>
<feColorMatrix in="SourceAlpha" type="matrix" values="0 0 0 0 0 0 0 0 0 0 0 0 0 0 0 0 0 0 127 0" result="hardAlpha"/>
<feOffset/>
<feGaussianBlur stdDeviation="2"/>
<feComposite in2="hardAlpha" operator="arithmetic" k2="-1" k3="1"/>
<feColorMatrix type="matrix" values="0 0 0 0 0.999662 0 0 0 0 0.999662 0 0 0 0 0.999662 0 0 0 0.24 0"/>
<feBlend mode="normal" in2="shape" result="effect2_innerShadow_1604_3279"/>
<feColorMatrix in="SourceAlpha" type="matrix" values="0 0 0 0 0 0 0 0 0 0 0 0 0 0 0 0 0 0 127 0" result="hardAlpha"/>
<feMorphology radius="2" operator="dilate" in="SourceAlpha" result="effect3_innerShadow_1604_3279"/>
<feOffset dx="-1" dy="-1"/>
<feGaussianBlur stdDeviation="2"/>
<feComposite in2="hardAlpha" operator="arithmetic" k2="-1" k3="1"/>
<feColorMatrix type="matrix" values="0 0 0 0 1 0 0 0 0 1 0 0 0 0 1 0 0 0 0.5 0"/>
<feBlend mode="normal" in2="effect2_innerShadow_1604_3279" result="effect3_innerShadow_1604_3279"/>
</filter>
</defs>
</svg>
