<svg width="30" height="33" viewBox="0 0 30 33" fill="none" xmlns="http://www.w3.org/2000/svg">
<path d="M4.42188 15.6836H2.14844C1.82812 15.6836 1.55469 15.5703 1.32812 15.3438C1.10156 15.1094 0.988281 14.832 0.988281 14.5117C0.988281 14.1992 1.10156 13.9258 1.32812 13.6914C1.55469 13.457 1.82812 13.3398 2.14844 13.3398H4.42188C4.73438 13.3398 5.00781 13.457 5.24219 13.6914C5.48438 13.918 5.60547 14.1914 5.60547 14.5117C5.60547 14.832 5.48438 15.1094 5.24219 15.3438C5.00781 15.5703 4.73438 15.6836 4.42188 15.6836ZM6.76562 7.60938L5.16016 6.00391C4.93359 5.77734 4.82031 5.50391 4.82031 5.18359C4.82031 4.86328 4.93359 4.58594 5.16016 4.35156C5.39453 4.125 5.67188 4.01172 5.99219 4.01172C6.32031 4.01172 6.59375 4.125 6.8125 4.35156L8.40625 5.96875C8.63281 6.19531 8.74609 6.46875 8.74609 6.78906C8.75391 7.10937 8.64062 7.38281 8.40625 7.60938C8.17969 7.84375 7.90625 7.96094 7.58594 7.96094C7.26562 7.95312 6.99219 7.83594 6.76562 7.60938ZM14.1484 3.625V1.35156C14.1484 1.03906 14.2617 0.765625 14.4883 0.53125C14.7227 0.296875 15 0.179688 15.3203 0.179688C15.6406 0.179688 15.918 0.296875 16.1523 0.53125C16.3867 0.765625 16.5039 1.03906 16.5039 1.35156V3.625C16.5039 3.9375 16.3867 4.21094 16.1523 4.44531C15.9258 4.67969 15.6484 4.79688 15.3203 4.79688C15 4.79688 14.7227 4.67969 14.4883 4.44531C14.2617 4.21094 14.1484 3.9375 14.1484 3.625ZM22.2227 5.96875L23.8398 4.35156C24.0664 4.125 24.3359 4.01172 24.6484 4.01172C24.9688 4.01172 25.2461 4.125 25.4805 4.35156C25.707 4.58594 25.8203 4.86328 25.8203 5.18359C25.8203 5.50391 25.707 5.77734 25.4805 6.00391L23.8633 7.60938C23.6445 7.84375 23.375 7.96094 23.0547 7.96094C22.7344 7.96094 22.457 7.84375 22.2227 7.60938C21.9883 7.38281 21.8711 7.10937 21.8711 6.78906C21.8789 6.46875 21.9961 6.19531 22.2227 5.96875ZM28.4688 15.6836H26.207C25.8867 15.6836 25.6094 15.5703 25.375 15.3438C25.1484 15.1094 25.0352 14.832 25.0352 14.5117C25.0352 14.1914 25.1484 13.918 25.375 13.6914C25.6094 13.457 25.8867 13.3398 26.207 13.3398H28.4688C28.7891 13.3398 29.0664 13.457 29.3008 13.6914C29.5352 13.9258 29.6523 14.1992 29.6523 14.5117C29.6523 14.832 29.5352 15.1094 29.3008 15.3438C29.0664 15.5703 28.7891 15.6836 28.4688 15.6836ZM15.3203 6.83594C16.3594 6.83594 17.332 7.01562 18.2383 7.375C19.1523 7.72656 19.9531 8.21484 20.6406 8.83984C21.3281 9.46484 21.8633 10.1992 22.2461 11.043C22.6289 11.8867 22.8203 12.7969 22.8203 13.7734C22.8203 14.6094 22.7344 15.3555 22.5625 16.0117C22.3984 16.668 22.1797 17.3086 21.9062 17.9336C21.6406 18.5586 21.3594 19.2422 21.0625 19.9844C20.7734 20.7266 20.5039 21.6016 20.2539 22.6094C20.0039 23.6094 19.8125 24.8242 19.6797 26.2539C19.6562 26.5195 19.5664 26.7305 19.4102 26.8867C19.2539 27.043 19.0352 27.1211 18.7539 27.1211H11.8867C11.6055 27.1211 11.3867 27.043 11.2305 26.8867C11.0742 26.7305 10.9844 26.5195 10.9609 26.2539C10.8281 24.8242 10.6367 23.6094 10.3867 22.6094C10.1367 21.6016 9.86328 20.7266 9.56641 19.9844C9.27734 19.2422 9 18.5586 8.73438 17.9336C8.46875 17.3086 8.25 16.668 8.07812 16.0117C7.91406 15.3555 7.83203 14.6094 7.83203 13.7734C7.83203 12.7969 8.02344 11.8867 8.40625 11.043C8.78906 10.1992 9.32031 9.46484 10 8.83984C10.6875 8.20703 11.4844 7.71484 12.3906 7.36328C13.2969 7.01172 14.2734 6.83594 15.3203 6.83594ZM15.3203 8.85156C14.5703 8.85156 13.8633 8.97266 13.1992 9.21484C12.543 9.45703 11.9609 9.79688 11.4531 10.2344C10.9531 10.6719 10.5586 11.1914 10.2695 11.793C9.98047 12.3945 9.83594 13.0547 9.83594 13.7734C9.83594 14.3672 9.90625 14.9023 10.0469 15.3789C10.1875 15.8555 10.3711 16.3516 10.5977 16.8672C10.832 17.375 11.082 17.9805 11.3477 18.6836C11.6133 19.3789 11.8711 20.2422 12.1211 21.2734C12.3789 22.3047 12.6055 23.5859 12.8008 25.1172H17.8398C18.0352 23.5859 18.2578 22.3047 18.5078 21.2734C18.7656 20.2422 19.0273 19.3789 19.293 18.6836C19.5664 17.9805 19.8164 17.375 20.043 16.8672C20.2773 16.3516 20.4609 15.8555 20.5938 15.3789C20.7344 14.9023 20.8047 14.3672 20.8047 13.7734C20.8047 13.0547 20.6602 12.3945 20.3711 11.793C20.0898 11.1914 19.6953 10.6719 19.1875 10.2344C18.6797 9.79688 18.0938 9.45703 17.4297 9.21484C16.7656 8.97266 16.0625 8.85156 15.3203 8.85156ZM11.8047 29.6758C11.5938 29.6758 11.418 29.6055 11.2773 29.4648C11.1367 29.3164 11.0664 29.1406 11.0664 28.9375C11.0664 28.7266 11.1367 28.5508 11.2773 28.4102C11.418 28.2695 11.5938 28.1992 11.8047 28.1992H18.8359C19.0469 28.1992 19.2227 28.2695 19.3633 28.4102C19.5117 28.5508 19.5859 28.7266 19.5859 28.9375C19.5859 29.1406 19.5117 29.3164 19.3633 29.4648C19.2227 29.6055 19.0469 29.6758 18.8359 29.6758H11.8047ZM15.3203 32.957C14.4297 32.957 13.6641 32.7539 13.0234 32.3477C12.3906 31.9414 12.0547 31.4102 12.0156 30.7539H18.6133C18.5742 31.4102 18.2344 31.9414 17.5938 32.3477C16.9609 32.7539 16.2031 32.957 15.3203 32.957Z" fill="black"/>
</svg>
