<svg width="315" height="329" viewBox="0 0 315 329" fill="none" xmlns="http://www.w3.org/2000/svg">
<g filter="url(#filter0_dii_3019_4331)">
<rect x="20" y="18.5" width="274.667" height="288" rx="20" fill="white" fill-opacity="0.3" shape-rendering="crispEdges"/>
<path d="M50.4219 55.6836H48.1484C47.8281 55.6836 47.5547 55.5703 47.3281 55.3438C47.1016 55.1094 46.9883 54.832 46.9883 54.5117C46.9883 54.1992 47.1016 53.9258 47.3281 53.6914C47.5547 53.457 47.8281 53.3398 48.1484 53.3398H50.4219C50.7344 53.3398 51.0078 53.457 51.2422 53.6914C51.4844 53.918 51.6055 54.1914 51.6055 54.5117C51.6055 54.832 51.4844 55.1094 51.2422 55.3438C51.0078 55.5703 50.7344 55.6836 50.4219 55.6836ZM52.7656 47.6094L51.1602 46.0039C50.9336 45.7773 50.8203 45.5039 50.8203 45.1836C50.8203 44.8633 50.9336 44.5859 51.1602 44.3516C51.3945 44.125 51.6719 44.0117 51.9922 44.0117C52.3203 44.0117 52.5938 44.125 52.8125 44.3516L54.4062 45.9688C54.6328 46.1953 54.7461 46.4688 54.7461 46.7891C54.7539 47.1094 54.6406 47.3828 54.4062 47.6094C54.1797 47.8438 53.9062 47.9609 53.5859 47.9609C53.2656 47.9531 52.9922 47.8359 52.7656 47.6094ZM60.1484 43.625V41.3516C60.1484 41.0391 60.2617 40.7656 60.4883 40.5312C60.7227 40.2969 61 40.1797 61.3203 40.1797C61.6406 40.1797 61.918 40.2969 62.1523 40.5312C62.3867 40.7656 62.5039 41.0391 62.5039 41.3516V43.625C62.5039 43.9375 62.3867 44.2109 62.1523 44.4453C61.9258 44.6797 61.6484 44.7969 61.3203 44.7969C61 44.7969 60.7227 44.6797 60.4883 44.4453C60.2617 44.2109 60.1484 43.9375 60.1484 43.625ZM68.2227 45.9688L69.8398 44.3516C70.0664 44.125 70.3359 44.0117 70.6484 44.0117C70.9688 44.0117 71.2461 44.125 71.4805 44.3516C71.707 44.5859 71.8203 44.8633 71.8203 45.1836C71.8203 45.5039 71.707 45.7773 71.4805 46.0039L69.8633 47.6094C69.6445 47.8438 69.375 47.9609 69.0547 47.9609C68.7344 47.9609 68.457 47.8438 68.2227 47.6094C67.9883 47.3828 67.8711 47.1094 67.8711 46.7891C67.8789 46.4688 67.9961 46.1953 68.2227 45.9688ZM74.4688 55.6836H72.207C71.8867 55.6836 71.6094 55.5703 71.375 55.3438C71.1484 55.1094 71.0352 54.832 71.0352 54.5117C71.0352 54.1914 71.1484 53.918 71.375 53.6914C71.6094 53.457 71.8867 53.3398 72.207 53.3398H74.4688C74.7891 53.3398 75.0664 53.457 75.3008 53.6914C75.5352 53.9258 75.6523 54.1992 75.6523 54.5117C75.6523 54.832 75.5352 55.1094 75.3008 55.3438C75.0664 55.5703 74.7891 55.6836 74.4688 55.6836ZM61.3203 46.8359C62.3594 46.8359 63.332 47.0156 64.2383 47.375C65.1523 47.7266 65.9531 48.2148 66.6406 48.8398C67.3281 49.4648 67.8633 50.1992 68.2461 51.043C68.6289 51.8867 68.8203 52.7969 68.8203 53.7734C68.8203 54.6094 68.7344 55.3555 68.5625 56.0117C68.3984 56.668 68.1797 57.3086 67.9062 57.9336C67.6406 58.5586 67.3594 59.2422 67.0625 59.9844C66.7734 60.7266 66.5039 61.6016 66.2539 62.6094C66.0039 63.6094 65.8125 64.8242 65.6797 66.2539C65.6562 66.5195 65.5664 66.7305 65.4102 66.8867C65.2539 67.043 65.0352 67.1211 64.7539 67.1211H57.8867C57.6055 67.1211 57.3867 67.043 57.2305 66.8867C57.0742 66.7305 56.9844 66.5195 56.9609 66.2539C56.8281 64.8242 56.6367 63.6094 56.3867 62.6094C56.1367 61.6016 55.8633 60.7266 55.5664 59.9844C55.2773 59.2422 55 58.5586 54.7344 57.9336C54.4688 57.3086 54.25 56.668 54.0781 56.0117C53.9141 55.3555 53.832 54.6094 53.832 53.7734C53.832 52.7969 54.0234 51.8867 54.4062 51.043C54.7891 50.1992 55.3203 49.4648 56 48.8398C56.6875 48.207 57.4844 47.7148 58.3906 47.3633C59.2969 47.0117 60.2734 46.8359 61.3203 46.8359ZM61.3203 48.8516C60.5703 48.8516 59.8633 48.9727 59.1992 49.2148C58.543 49.457 57.9609 49.7969 57.4531 50.2344C56.9531 50.6719 56.5586 51.1914 56.2695 51.793C55.9805 52.3945 55.8359 53.0547 55.8359 53.7734C55.8359 54.3672 55.9062 54.9023 56.0469 55.3789C56.1875 55.8555 56.3711 56.3516 56.5977 56.8672C56.832 57.375 57.082 57.9805 57.3477 58.6836C57.6133 59.3789 57.8711 60.2422 58.1211 61.2734C58.3789 62.3047 58.6055 63.5859 58.8008 65.1172H63.8398C64.0352 63.5859 64.2578 62.3047 64.5078 61.2734C64.7656 60.2422 65.0273 59.3789 65.293 58.6836C65.5664 57.9805 65.8164 57.375 66.043 56.8672C66.2773 56.3516 66.4609 55.8555 66.5938 55.3789C66.7344 54.9023 66.8047 54.3672 66.8047 53.7734C66.8047 53.0547 66.6602 52.3945 66.3711 51.793C66.0898 51.1914 65.6953 50.6719 65.1875 50.2344C64.6797 49.7969 64.0938 49.457 63.4297 49.2148C62.7656 48.9727 62.0625 48.8516 61.3203 48.8516ZM57.8047 69.6758C57.5938 69.6758 57.418 69.6055 57.2773 69.4648C57.1367 69.3164 57.0664 69.1406 57.0664 68.9375C57.0664 68.7266 57.1367 68.5508 57.2773 68.4102C57.418 68.2695 57.5938 68.1992 57.8047 68.1992H64.8359C65.0469 68.1992 65.2227 68.2695 65.3633 68.4102C65.5117 68.5508 65.5859 68.7266 65.5859 68.9375C65.5859 69.1406 65.5117 69.3164 65.3633 69.4648C65.2227 69.6055 65.0469 69.6758 64.8359 69.6758H57.8047ZM61.3203 72.957C60.4297 72.957 59.6641 72.7539 59.0234 72.3477C58.3906 71.9414 58.0547 71.4102 58.0156 70.7539H64.6133C64.5742 71.4102 64.2344 71.9414 63.5938 72.3477C62.9609 72.7539 62.2031 72.957 61.3203 72.957Z" fill="black"/>
<path d="M55.22 102.74C55.22 103.447 55.0533 104.113 54.72 104.74C54.3867 105.367 53.8533 105.88 53.12 106.28C52.3867 106.667 51.4467 106.86 50.3 106.86H47.78V112.5H45.5V98.6H50.3C51.3667 98.6 52.2667 98.7867 53 99.16C53.7467 99.52 54.3 100.013 54.66 100.64C55.0333 101.267 55.22 101.967 55.22 102.74ZM50.3 105C51.1667 105 51.8133 104.807 52.24 104.42C52.6667 104.02 52.88 103.46 52.88 102.74C52.88 101.22 52.02 100.46 50.3 100.46H47.78V105H50.3ZM62.1745 112.68C61.1345 112.68 60.1945 112.447 59.3545 111.98C58.5145 111.5 57.8545 110.833 57.3745 109.98C56.8945 109.113 56.6545 108.113 56.6545 106.98C56.6545 105.86 56.9012 104.867 57.3945 104C57.8879 103.133 58.5612 102.467 59.4145 102C60.2679 101.533 61.2212 101.3 62.2745 101.3C63.3279 101.3 64.2812 101.533 65.1345 102C65.9879 102.467 66.6612 103.133 67.1545 104C67.6479 104.867 67.8945 105.86 67.8945 106.98C67.8945 108.1 67.6412 109.093 67.1345 109.96C66.6279 110.827 65.9345 111.5 65.0545 111.98C64.1879 112.447 63.2279 112.68 62.1745 112.68ZM62.1745 110.7C62.7612 110.7 63.3079 110.56 63.8145 110.28C64.3345 110 64.7545 109.58 65.0745 109.02C65.3945 108.46 65.5545 107.78 65.5545 106.98C65.5545 106.18 65.4012 105.507 65.0945 104.96C64.7879 104.4 64.3812 103.98 63.8745 103.7C63.3679 103.42 62.8212 103.28 62.2345 103.28C61.6479 103.28 61.1012 103.42 60.5945 103.7C60.1012 103.98 59.7079 104.4 59.4145 104.96C59.1212 105.507 58.9745 106.18 58.9745 106.98C58.9745 108.167 59.2745 109.087 59.8745 109.74C60.4879 110.38 61.2545 110.7 62.1745 110.7ZM72.4284 97.7V112.5H70.1484V97.7H72.4284ZM76.5819 100.02C76.1685 100.02 75.8219 99.88 75.5419 99.6C75.2619 99.32 75.1219 98.9733 75.1219 98.56C75.1219 98.1467 75.2619 97.8 75.5419 97.52C75.8219 97.24 76.1685 97.1 76.5819 97.1C76.9819 97.1 77.3219 97.24 77.6019 97.52C77.8819 97.8 78.0219 98.1467 78.0219 98.56C78.0219 98.9733 77.8819 99.32 77.6019 99.6C77.3219 99.88 76.9819 100.02 76.5819 100.02ZM77.7019 101.48V112.5H75.4219V101.48H77.7019ZM79.9353 106.98C79.9353 105.847 80.162 104.853 80.6153 104C81.082 103.133 81.722 102.467 82.5353 102C83.3486 101.533 84.282 101.3 85.3353 101.3C86.6686 101.3 87.7686 101.62 88.6353 102.26C89.5153 102.887 90.1086 103.787 90.4153 104.96H87.9553C87.7553 104.413 87.4353 103.987 86.9953 103.68C86.5553 103.373 86.002 103.22 85.3353 103.22C84.402 103.22 83.6553 103.553 83.0953 104.22C82.5486 104.873 82.2753 105.793 82.2753 106.98C82.2753 108.167 82.5486 109.093 83.0953 109.76C83.6553 110.427 84.402 110.76 85.3353 110.76C86.6553 110.76 87.5286 110.18 87.9553 109.02H90.4153C90.0953 110.14 89.4953 111.033 88.6153 111.7C87.7353 112.353 86.642 112.68 85.3353 112.68C84.282 112.68 83.3486 112.447 82.5353 111.98C81.722 111.5 81.082 110.833 80.6153 109.98C80.162 109.113 79.9353 108.113 79.9353 106.98ZM102.608 101.48L95.8475 117.68H93.4875L95.7275 112.32L91.3875 101.48H93.9275L97.0275 109.88L100.248 101.48H102.608ZM108.763 105.52C108.763 104.16 109.077 102.94 109.703 101.86C110.343 100.78 111.203 99.94 112.283 99.34C113.377 98.7267 114.57 98.42 115.863 98.42C117.343 98.42 118.657 98.7867 119.803 99.52C120.963 100.24 121.803 101.267 122.323 102.6H119.583C119.223 101.867 118.723 101.32 118.083 100.96C117.443 100.6 116.703 100.42 115.863 100.42C114.943 100.42 114.123 100.627 113.403 101.04C112.683 101.453 112.117 102.047 111.703 102.82C111.303 103.593 111.103 104.493 111.103 105.52C111.103 106.547 111.303 107.447 111.703 108.22C112.117 108.993 112.683 109.593 113.403 110.02C114.123 110.433 114.943 110.64 115.863 110.64C116.703 110.64 117.443 110.46 118.083 110.1C118.723 109.74 119.223 109.193 119.583 108.46H122.323C121.803 109.793 120.963 110.82 119.803 111.54C118.657 112.26 117.343 112.62 115.863 112.62C114.557 112.62 113.363 112.32 112.283 111.72C111.203 111.107 110.343 110.26 109.703 109.18C109.077 108.1 108.763 106.88 108.763 105.52ZM130.692 101.3C131.532 101.3 132.279 101.48 132.932 101.84C133.599 102.2 134.119 102.733 134.492 103.44C134.879 104.147 135.072 105 135.072 106V112.5H132.812V106.34C132.812 105.353 132.566 104.6 132.072 104.08C131.579 103.547 130.906 103.28 130.052 103.28C129.199 103.28 128.519 103.547 128.012 104.08C127.519 104.6 127.272 105.353 127.272 106.34V112.5H124.992V97.7H127.272V102.76C127.659 102.293 128.146 101.933 128.732 101.68C129.332 101.427 129.986 101.3 130.692 101.3ZM137.22 106.94C137.22 105.833 137.447 104.853 137.9 104C138.367 103.147 138.994 102.487 139.78 102.02C140.58 101.54 141.46 101.3 142.42 101.3C143.287 101.3 144.04 101.473 144.68 101.82C145.334 102.153 145.854 102.573 146.24 103.08V101.48H148.54V112.5H146.24V110.86C145.854 111.38 145.327 111.813 144.66 112.16C143.994 112.507 143.234 112.68 142.38 112.68C141.434 112.68 140.567 112.44 139.78 111.96C138.994 111.467 138.367 110.787 137.9 109.92C137.447 109.04 137.22 108.047 137.22 106.94ZM146.24 106.98C146.24 106.22 146.08 105.56 145.76 105C145.454 104.44 145.047 104.013 144.54 103.72C144.034 103.427 143.487 103.28 142.9 103.28C142.314 103.28 141.767 103.427 141.26 103.72C140.754 104 140.34 104.42 140.02 104.98C139.714 105.527 139.56 106.18 139.56 106.94C139.56 107.7 139.714 108.367 140.02 108.94C140.34 109.513 140.754 109.953 141.26 110.26C141.78 110.553 142.327 110.7 142.9 110.7C143.487 110.7 144.034 110.553 144.54 110.26C145.047 109.967 145.454 109.54 145.76 108.98C146.08 108.407 146.24 107.74 146.24 106.98ZM157.095 101.3C157.962 101.3 158.735 101.48 159.415 101.84C160.108 102.2 160.648 102.733 161.035 103.44C161.422 104.147 161.615 105 161.615 106V112.5H159.355V106.34C159.355 105.353 159.108 104.6 158.615 104.08C158.122 103.547 157.448 103.28 156.595 103.28C155.742 103.28 155.062 103.547 154.555 104.08C154.062 104.6 153.815 105.353 153.815 106.34V112.5H151.535V101.48H153.815V102.74C154.188 102.287 154.662 101.933 155.235 101.68C155.822 101.427 156.442 101.3 157.095 101.3ZM168.963 101.3C169.817 101.3 170.57 101.473 171.223 101.82C171.89 102.153 172.41 102.573 172.783 103.08V101.48H175.083V112.68C175.083 113.693 174.87 114.593 174.443 115.38C174.017 116.18 173.397 116.807 172.583 117.26C171.783 117.713 170.823 117.94 169.703 117.94C168.21 117.94 166.97 117.587 165.983 116.88C164.997 116.187 164.437 115.24 164.303 114.04H166.563C166.737 114.613 167.103 115.073 167.663 115.42C168.237 115.78 168.917 115.96 169.703 115.96C170.623 115.96 171.363 115.68 171.923 115.12C172.497 114.56 172.783 113.747 172.783 112.68V110.84C172.397 111.36 171.87 111.8 171.203 112.16C170.55 112.507 169.803 112.68 168.963 112.68C168.003 112.68 167.123 112.44 166.323 111.96C165.537 111.467 164.91 110.787 164.443 109.92C163.99 109.04 163.763 108.047 163.763 106.94C163.763 105.833 163.99 104.853 164.443 104C164.91 103.147 165.537 102.487 166.323 102.02C167.123 101.54 168.003 101.3 168.963 101.3ZM172.783 106.98C172.783 106.22 172.623 105.56 172.303 105C171.997 104.44 171.59 104.013 171.083 103.72C170.577 103.427 170.03 103.28 169.443 103.28C168.857 103.28 168.31 103.427 167.803 103.72C167.297 104 166.883 104.42 166.563 104.98C166.257 105.527 166.103 106.18 166.103 106.94C166.103 107.7 166.257 108.367 166.563 108.94C166.883 109.513 167.297 109.953 167.803 110.26C168.323 110.553 168.87 110.7 169.443 110.7C170.03 110.7 170.577 110.553 171.083 110.26C171.59 109.967 171.997 109.54 172.303 108.98C172.623 108.407 172.783 107.74 172.783 106.98ZM188.178 106.72C188.178 107.133 188.151 107.507 188.098 107.84H179.678C179.745 108.72 180.071 109.427 180.658 109.96C181.245 110.493 181.965 110.76 182.818 110.76C184.045 110.76 184.911 110.247 185.418 109.22H187.878C187.545 110.233 186.938 111.067 186.058 111.72C185.191 112.36 184.111 112.68 182.818 112.68C181.765 112.68 180.818 112.447 179.978 111.98C179.151 111.5 178.498 110.833 178.018 109.98C177.551 109.113 177.318 108.113 177.318 106.98C177.318 105.847 177.545 104.853 177.998 104C178.465 103.133 179.111 102.467 179.938 102C180.778 101.533 181.738 101.3 182.818 101.3C183.858 101.3 184.785 101.527 185.598 101.98C186.411 102.433 187.045 103.073 187.498 103.9C187.951 104.713 188.178 105.653 188.178 106.72ZM185.798 106C185.785 105.16 185.485 104.487 184.898 103.98C184.311 103.473 183.585 103.22 182.718 103.22C181.931 103.22 181.258 103.473 180.698 103.98C180.138 104.473 179.805 105.147 179.698 106H185.798Z" fill="black"/>
<path d="M52.096 145.348V146.532H49.056V156.5H47.6V146.532H44.544V145.348H52.096ZM61.8883 151.78C61.8883 152.057 61.8723 152.351 61.8403 152.66H54.8323C54.8856 153.524 55.1789 154.201 55.7123 154.692C56.2563 155.172 56.9123 155.412 57.6803 155.412C58.3096 155.412 58.8323 155.268 59.2483 154.98C59.6749 154.681 59.9736 154.287 60.1443 153.796H61.7123C61.4776 154.639 61.0083 155.327 60.3043 155.86C59.6003 156.383 58.7256 156.644 57.6803 156.644C56.8483 156.644 56.1016 156.457 55.4403 156.084C54.7896 155.711 54.2776 155.183 53.9043 154.5C53.5309 153.807 53.3443 153.007 53.3443 152.1C53.3443 151.193 53.5256 150.399 53.8883 149.716C54.2509 149.033 54.7576 148.511 55.4083 148.148C56.0696 147.775 56.8269 147.588 57.6803 147.588C58.5123 147.588 59.2483 147.769 59.8883 148.132C60.5283 148.495 61.0189 148.996 61.3603 149.636C61.7123 150.265 61.8883 150.98 61.8883 151.78ZM60.3843 151.476C60.3843 150.921 60.2616 150.447 60.0163 150.052C59.7709 149.647 59.4349 149.343 59.0083 149.14C58.5923 148.927 58.1283 148.82 57.6163 148.82C56.8803 148.82 56.2509 149.055 55.7283 149.524C55.2163 149.993 54.9229 150.644 54.8483 151.476H60.3843ZM65.2661 144.66V156.5H63.8101V144.66H65.2661ZM69.2036 144.66V156.5H67.7476V144.66H69.2036ZM83.7268 147.732V156.5H82.2708V155.204C81.9934 155.652 81.6041 156.004 81.1028 156.26C80.6121 156.505 80.0681 156.628 79.4708 156.628C78.7881 156.628 78.1748 156.489 77.6308 156.212C77.0868 155.924 76.6548 155.497 76.3348 154.932C76.0254 154.367 75.8708 153.679 75.8708 152.868V147.732H77.3108V152.676C77.3108 153.54 77.5294 154.207 77.9668 154.676C78.4041 155.135 79.0014 155.364 79.7588 155.364C80.5374 155.364 81.1508 155.124 81.5988 154.644C82.0468 154.164 82.2708 153.465 82.2708 152.548V147.732H83.7268ZM89.2891 156.644C88.6171 156.644 88.0145 156.532 87.4811 156.308C86.9478 156.073 86.5265 155.753 86.2171 155.348C85.9078 154.932 85.7371 154.457 85.7051 153.924H87.2091C87.2518 154.361 87.4545 154.719 87.8171 154.996C88.1905 155.273 88.6758 155.412 89.2731 155.412C89.8278 155.412 90.2651 155.289 90.5851 155.044C90.9051 154.799 91.0651 154.489 91.0651 154.116C91.0651 153.732 90.8945 153.449 90.5531 153.268C90.2118 153.076 89.6838 152.889 88.9691 152.708C88.3185 152.537 87.7851 152.367 87.3691 152.196C86.9638 152.015 86.6118 151.753 86.3131 151.412C86.0251 151.06 85.8811 150.601 85.8811 150.036C85.8811 149.588 86.0145 149.177 86.2811 148.804C86.5478 148.431 86.9265 148.137 87.4171 147.924C87.9078 147.7 88.4678 147.588 89.0971 147.588C90.0678 147.588 90.8518 147.833 91.4491 148.324C92.0465 148.815 92.3665 149.487 92.4091 150.34H90.9531C90.9211 149.881 90.7345 149.513 90.3931 149.236C90.0625 148.959 89.6145 148.82 89.0491 148.82C88.5265 148.82 88.1105 148.932 87.8011 149.156C87.4918 149.38 87.3371 149.673 87.3371 150.036C87.3371 150.324 87.4278 150.564 87.6091 150.756C87.8011 150.937 88.0358 151.087 88.3131 151.204C88.6011 151.311 88.9958 151.433 89.4971 151.572C90.1265 151.743 90.6385 151.913 91.0331 152.084C91.4278 152.244 91.7638 152.489 92.0411 152.82C92.3291 153.151 92.4785 153.583 92.4891 154.116C92.4891 154.596 92.3558 155.028 92.0891 155.412C91.8225 155.796 91.4438 156.1 90.9531 156.324C90.4731 156.537 89.9185 156.644 89.2891 156.644ZM110.49 147.732L107.754 156.5H106.25L104.138 149.54L102.026 156.5H100.522L97.7701 147.732H99.2581L101.274 155.092L103.45 147.732H104.938L107.066 155.108L109.05 147.732H110.49ZM116.287 147.572C116.948 147.572 117.546 147.716 118.079 148.004C118.612 148.281 119.028 148.703 119.327 149.268C119.636 149.833 119.791 150.521 119.791 151.332V156.5H118.351V151.54C118.351 150.665 118.132 149.999 117.695 149.54C117.258 149.071 116.66 148.836 115.903 148.836C115.135 148.836 114.522 149.076 114.063 149.556C113.615 150.036 113.391 150.735 113.391 151.652V156.5H111.935V144.66H113.391V148.98C113.679 148.532 114.074 148.185 114.575 147.94C115.087 147.695 115.658 147.572 116.287 147.572ZM121.626 152.084C121.626 151.188 121.807 150.404 122.17 149.732C122.532 149.049 123.028 148.521 123.658 148.148C124.298 147.775 125.007 147.588 125.786 147.588C126.554 147.588 127.22 147.753 127.786 148.084C128.351 148.415 128.772 148.831 129.05 149.332V147.732H130.522V156.5H129.05V154.868C128.762 155.38 128.33 155.807 127.754 156.148C127.188 156.479 126.527 156.644 125.77 156.644C124.991 156.644 124.287 156.452 123.658 156.068C123.028 155.684 122.532 155.145 122.17 154.452C121.807 153.759 121.626 152.969 121.626 152.084ZM129.05 152.1C129.05 151.439 128.916 150.863 128.65 150.372C128.383 149.881 128.02 149.508 127.562 149.252C127.114 148.985 126.618 148.852 126.074 148.852C125.53 148.852 125.034 148.98 124.586 149.236C124.138 149.492 123.78 149.865 123.514 150.356C123.247 150.847 123.114 151.423 123.114 152.084C123.114 152.756 123.247 153.343 123.514 153.844C123.78 154.335 124.138 154.713 124.586 154.98C125.034 155.236 125.53 155.364 126.074 155.364C126.618 155.364 127.114 155.236 127.562 154.98C128.02 154.713 128.383 154.335 128.65 153.844C128.916 153.343 129.05 152.761 129.05 152.1ZM134.758 148.932V154.1C134.758 154.527 134.849 154.831 135.03 155.012C135.211 155.183 135.526 155.268 135.974 155.268H137.046V156.5H135.734C134.923 156.5 134.315 156.313 133.91 155.94C133.505 155.567 133.302 154.953 133.302 154.1V148.932H132.166V147.732H133.302V145.524H134.758V147.732H137.046V148.932H134.758ZM144.532 149.348C144.82 148.847 145.246 148.431 145.812 148.1C146.388 147.759 147.054 147.588 147.812 147.588C148.59 147.588 149.294 147.775 149.924 148.148C150.564 148.521 151.065 149.049 151.428 149.732C151.79 150.404 151.972 151.188 151.972 152.084C151.972 152.969 151.79 153.759 151.428 154.452C151.065 155.145 150.564 155.684 149.924 156.068C149.294 156.452 148.59 156.644 147.812 156.644C147.065 156.644 146.404 156.479 145.828 156.148C145.262 155.807 144.83 155.385 144.532 154.884V160.66H143.076V147.732H144.532V149.348ZM150.484 152.084C150.484 151.423 150.35 150.847 150.084 150.356C149.817 149.865 149.454 149.492 148.996 149.236C148.548 148.98 148.052 148.852 147.508 148.852C146.974 148.852 146.478 148.985 146.02 149.252C145.572 149.508 145.209 149.887 144.932 150.388C144.665 150.879 144.532 151.449 144.532 152.1C144.532 152.761 144.665 153.343 144.932 153.844C145.209 154.335 145.572 154.713 146.02 154.98C146.478 155.236 146.974 155.364 147.508 155.364C148.052 155.364 148.548 155.236 148.996 154.98C149.454 154.713 149.817 154.335 150.084 153.844C150.35 153.343 150.484 152.756 150.484 152.084ZM157.712 156.644C156.891 156.644 156.144 156.457 155.472 156.084C154.811 155.711 154.288 155.183 153.904 154.5C153.531 153.807 153.344 153.007 153.344 152.1C153.344 151.204 153.536 150.415 153.92 149.732C154.315 149.039 154.848 148.511 155.52 148.148C156.192 147.775 156.944 147.588 157.776 147.588C158.608 147.588 159.36 147.775 160.032 148.148C160.704 148.511 161.232 149.033 161.616 149.716C162.011 150.399 162.208 151.193 162.208 152.1C162.208 153.007 162.006 153.807 161.6 154.5C161.206 155.183 160.667 155.711 159.984 156.084C159.302 156.457 158.544 156.644 157.712 156.644ZM157.712 155.364C158.235 155.364 158.726 155.241 159.184 154.996C159.643 154.751 160.011 154.383 160.288 153.892C160.576 153.401 160.72 152.804 160.72 152.1C160.72 151.396 160.582 150.799 160.304 150.308C160.027 149.817 159.664 149.455 159.216 149.22C158.768 148.975 158.283 148.852 157.76 148.852C157.227 148.852 156.736 148.975 156.288 149.22C155.851 149.455 155.499 149.817 155.232 150.308C154.966 150.799 154.832 151.396 154.832 152.1C154.832 152.815 154.96 153.417 155.216 153.908C155.483 154.399 155.835 154.767 156.272 155.012C156.71 155.247 157.19 155.364 157.712 155.364ZM165.579 144.66V156.5H164.123V144.66H165.579ZM168.812 146.308C168.535 146.308 168.3 146.212 168.108 146.02C167.916 145.828 167.82 145.593 167.82 145.316C167.82 145.039 167.916 144.804 168.108 144.612C168.3 144.42 168.535 144.324 168.812 144.324C169.079 144.324 169.303 144.42 169.484 144.612C169.676 144.804 169.772 145.039 169.772 145.316C169.772 145.593 169.676 145.828 169.484 146.02C169.303 146.212 169.079 146.308 168.812 146.308ZM169.516 147.732V156.5H168.06V147.732H169.516ZM171.454 152.1C171.454 151.193 171.635 150.404 171.998 149.732C172.36 149.049 172.862 148.521 173.502 148.148C174.152 147.775 174.894 147.588 175.726 147.588C176.803 147.588 177.688 147.849 178.382 148.372C179.086 148.895 179.55 149.62 179.774 150.548H178.206C178.056 150.015 177.763 149.593 177.326 149.284C176.899 148.975 176.366 148.82 175.726 148.82C174.894 148.82 174.222 149.108 173.71 149.684C173.198 150.249 172.942 151.055 172.942 152.1C172.942 153.156 173.198 153.972 173.71 154.548C174.222 155.124 174.894 155.412 175.726 155.412C176.366 155.412 176.899 155.263 177.326 154.964C177.752 154.665 178.046 154.239 178.206 153.684H179.774C179.539 154.58 179.07 155.3 178.366 155.844C177.662 156.377 176.782 156.644 175.726 156.644C174.894 156.644 174.152 156.457 173.502 156.084C172.862 155.711 172.36 155.183 171.998 154.5C171.635 153.817 171.454 153.017 171.454 152.1ZM189.268 147.732L183.988 160.628H182.484L184.212 156.404L180.676 147.732H182.292L185.044 154.836L187.764 147.732H189.268ZM202.55 147.732L197.27 160.628H195.766L197.494 156.404L193.958 147.732H195.574L198.326 154.836L201.046 147.732H202.55ZM207.837 156.644C207.016 156.644 206.269 156.457 205.597 156.084C204.936 155.711 204.413 155.183 204.029 154.5C203.656 153.807 203.469 153.007 203.469 152.1C203.469 151.204 203.661 150.415 204.045 149.732C204.44 149.039 204.973 148.511 205.645 148.148C206.317 147.775 207.069 147.588 207.901 147.588C208.733 147.588 209.485 147.775 210.157 148.148C210.829 148.511 211.357 149.033 211.741 149.716C212.136 150.399 212.333 151.193 212.333 152.1C212.333 153.007 212.131 153.807 211.725 154.5C211.331 155.183 210.792 155.711 210.109 156.084C209.427 156.457 208.669 156.644 207.837 156.644ZM207.837 155.364C208.36 155.364 208.851 155.241 209.309 154.996C209.768 154.751 210.136 154.383 210.413 153.892C210.701 153.401 210.845 152.804 210.845 152.1C210.845 151.396 210.707 150.799 210.429 150.308C210.152 149.817 209.789 149.455 209.341 149.22C208.893 148.975 208.408 148.852 207.885 148.852C207.352 148.852 206.861 148.975 206.413 149.22C205.976 149.455 205.624 149.817 205.357 150.308C205.091 150.799 204.957 151.396 204.957 152.1C204.957 152.815 205.085 153.417 205.341 153.908C205.608 154.399 205.96 154.767 206.397 155.012C206.835 155.247 207.315 155.364 207.837 155.364ZM222.024 147.732V156.5H220.568V155.204C220.29 155.652 219.901 156.004 219.4 156.26C218.909 156.505 218.365 156.628 217.768 156.628C217.085 156.628 216.472 156.489 215.928 156.212C215.384 155.924 214.952 155.497 214.632 154.932C214.322 154.367 214.168 153.679 214.168 152.868V147.732H215.608V152.676C215.608 153.54 215.826 154.207 216.264 154.676C216.701 155.135 217.298 155.364 218.056 155.364C218.834 155.364 219.448 155.124 219.896 154.644C220.344 154.164 220.568 153.465 220.568 152.548V147.732H222.024ZM240.428 147.732L237.692 156.5H236.188L234.076 149.54L231.964 156.5H230.46L227.708 147.732H229.196L231.212 155.092L233.388 147.732H234.876L237.004 155.108L238.988 147.732H240.428ZM241.329 152.084C241.329 151.188 241.51 150.404 241.873 149.732C242.235 149.049 242.731 148.521 243.361 148.148C244.001 147.775 244.71 147.588 245.489 147.588C246.257 147.588 246.923 147.753 247.489 148.084C248.054 148.415 248.475 148.831 248.753 149.332V147.732H250.225V156.5H248.753V154.868C248.465 155.38 248.033 155.807 247.457 156.148C246.891 156.479 246.23 156.644 245.473 156.644C244.694 156.644 243.99 156.452 243.361 156.068C242.731 155.684 242.235 155.145 241.873 154.452C241.51 153.759 241.329 152.969 241.329 152.084ZM248.753 152.1C248.753 151.439 248.619 150.863 248.353 150.372C248.086 149.881 247.723 149.508 247.265 149.252C246.817 148.985 246.321 148.852 245.777 148.852C245.233 148.852 244.737 148.98 244.289 149.236C243.841 149.492 243.483 149.865 243.217 150.356C242.95 150.847 242.817 151.423 242.817 152.084C242.817 152.756 242.95 153.343 243.217 153.844C243.483 154.335 243.841 154.713 244.289 154.98C244.737 155.236 245.233 155.364 245.777 155.364C246.321 155.364 246.817 155.236 247.265 154.98C247.723 154.713 248.086 154.335 248.353 153.844C248.619 153.343 248.753 152.761 248.753 152.1ZM256.957 147.572C258.024 147.572 258.888 147.897 259.549 148.548C260.21 149.188 260.541 150.116 260.541 151.332V156.5H259.101V151.54C259.101 150.665 258.882 149.999 258.445 149.54C258.008 149.071 257.41 148.836 256.653 148.836C255.885 148.836 255.272 149.076 254.813 149.556C254.365 150.036 254.141 150.735 254.141 151.652V156.5H252.685V147.732H254.141V148.98C254.429 148.532 254.818 148.185 255.309 147.94C255.81 147.695 256.36 147.572 256.957 147.572ZM264.696 148.932V154.1C264.696 154.527 264.786 154.831 264.968 155.012C265.149 155.183 265.464 155.268 265.911 155.268H266.984V156.5H265.672C264.861 156.5 264.253 156.313 263.848 155.94C263.442 155.567 263.24 154.953 263.24 154.1V148.932H262.104V147.732H263.24V145.524H264.696V147.732H266.984V148.932H264.696ZM47.008 172.932V178.1C47.008 178.527 47.0987 178.831 47.28 179.012C47.4613 179.183 47.776 179.268 48.224 179.268H49.296V180.5H47.984C47.1733 180.5 46.5653 180.313 46.16 179.94C45.7547 179.567 45.552 178.953 45.552 178.1V172.932H44.416V171.732H45.552V169.524H47.008V171.732H49.296V172.932H47.008ZM54.8841 180.644C54.0628 180.644 53.3161 180.457 52.6441 180.084C51.9828 179.711 51.4601 179.183 51.0761 178.5C50.7028 177.807 50.5161 177.007 50.5161 176.1C50.5161 175.204 50.7081 174.415 51.0921 173.732C51.4868 173.039 52.0201 172.511 52.6921 172.148C53.3641 171.775 54.1161 171.588 54.9481 171.588C55.7801 171.588 56.5321 171.775 57.2041 172.148C57.8761 172.511 58.4041 173.033 58.7881 173.716C59.1828 174.399 59.3801 175.193 59.3801 176.1C59.3801 177.007 59.1775 177.807 58.7721 178.5C58.3775 179.183 57.8388 179.711 57.1561 180.084C56.4735 180.457 55.7161 180.644 54.8841 180.644ZM54.8841 179.364C55.4068 179.364 55.8975 179.241 56.3561 178.996C56.8148 178.751 57.1828 178.383 57.4601 177.892C57.7481 177.401 57.8921 176.804 57.8921 176.1C57.8921 175.396 57.7535 174.799 57.4761 174.308C57.1988 173.817 56.8361 173.455 56.3881 173.22C55.9401 172.975 55.4548 172.852 54.9321 172.852C54.3988 172.852 53.9081 172.975 53.4601 173.22C53.0228 173.455 52.6708 173.817 52.4041 174.308C52.1375 174.799 52.0041 175.396 52.0041 176.1C52.0041 176.815 52.1321 177.417 52.3881 177.908C52.6548 178.399 53.0068 178.767 53.4441 179.012C53.8815 179.247 54.3615 179.364 54.8841 179.364ZM65.0161 176.1C65.0161 175.193 65.1975 174.404 65.5601 173.732C65.9228 173.049 66.4241 172.521 67.0641 172.148C67.7148 171.775 68.4561 171.588 69.2881 171.588C70.3655 171.588 71.2508 171.849 71.9441 172.372C72.6481 172.895 73.1121 173.62 73.3361 174.548H71.7681C71.6188 174.015 71.3255 173.593 70.8881 173.284C70.4615 172.975 69.9281 172.82 69.2881 172.82C68.4561 172.82 67.7841 173.108 67.2721 173.684C66.7601 174.249 66.5041 175.055 66.5041 176.1C66.5041 177.156 66.7601 177.972 67.2721 178.548C67.7841 179.124 68.4561 179.412 69.2881 179.412C69.9281 179.412 70.4615 179.263 70.8881 178.964C71.3148 178.665 71.6081 178.239 71.7681 177.684H73.3361C73.1015 178.58 72.6321 179.3 71.9281 179.844C71.2241 180.377 70.3441 180.644 69.2881 180.644C68.4561 180.644 67.7148 180.457 67.0641 180.084C66.4241 179.711 65.9228 179.183 65.5601 178.5C65.1975 177.817 65.0161 177.017 65.0161 176.1ZM79.6309 171.572C80.2922 171.572 80.8895 171.716 81.4229 172.004C81.9562 172.281 82.3722 172.703 82.6709 173.268C82.9802 173.833 83.1349 174.521 83.1349 175.332V180.5H81.6949V175.54C81.6949 174.665 81.4762 173.999 81.0389 173.54C80.6015 173.071 80.0042 172.836 79.2469 172.836C78.4789 172.836 77.8655 173.076 77.4069 173.556C76.9589 174.036 76.7349 174.735 76.7349 175.652V180.5H75.2789V168.66H76.7349V172.98C77.0229 172.532 77.4175 172.185 77.9189 171.94C78.4309 171.695 79.0015 171.572 79.6309 171.572ZM84.9693 176.084C84.9693 175.188 85.1506 174.404 85.5133 173.732C85.8759 173.049 86.3719 172.521 87.0013 172.148C87.6413 171.775 88.3506 171.588 89.1293 171.588C89.8973 171.588 90.5639 171.753 91.1293 172.084C91.6946 172.415 92.1159 172.831 92.3933 173.332V171.732H93.8653V180.5H92.3933V178.868C92.1053 179.38 91.6733 179.807 91.0973 180.148C90.5319 180.479 89.8706 180.644 89.1133 180.644C88.3346 180.644 87.6306 180.452 87.0013 180.068C86.3719 179.684 85.8759 179.145 85.5133 178.452C85.1506 177.759 84.9693 176.969 84.9693 176.084ZM92.3933 176.1C92.3933 175.439 92.2599 174.863 91.9933 174.372C91.7266 173.881 91.3639 173.508 90.9053 173.252C90.4573 172.985 89.9613 172.852 89.4173 172.852C88.8733 172.852 88.3773 172.98 87.9293 173.236C87.4813 173.492 87.1239 173.865 86.8573 174.356C86.5906 174.847 86.4573 175.423 86.4573 176.084C86.4573 176.756 86.5906 177.343 86.8573 177.844C87.1239 178.335 87.4813 178.713 87.9293 178.98C88.3773 179.236 88.8733 179.364 89.4173 179.364C89.9613 179.364 90.4573 179.236 90.9053 178.98C91.3639 178.713 91.7266 178.335 91.9933 177.844C92.2599 177.343 92.3933 176.761 92.3933 176.1ZM100.598 171.572C101.664 171.572 102.528 171.897 103.19 172.548C103.851 173.188 104.182 174.116 104.182 175.332V180.5H102.742V175.54C102.742 174.665 102.523 173.999 102.086 173.54C101.648 173.071 101.051 172.836 100.294 172.836C99.5258 172.836 98.9124 173.076 98.4538 173.556C98.0058 174.036 97.7818 174.735 97.7818 175.652V180.5H96.3258V171.732H97.7818V172.98C98.0698 172.532 98.4591 172.185 98.9498 171.94C99.4511 171.695 100 171.572 100.598 171.572ZM110.176 171.588C110.933 171.588 111.595 171.753 112.16 172.084C112.736 172.415 113.163 172.831 113.44 173.332V171.732H114.912V180.692C114.912 181.492 114.741 182.201 114.4 182.82C114.059 183.449 113.568 183.94 112.928 184.292C112.299 184.644 111.563 184.82 110.72 184.82C109.568 184.82 108.608 184.548 107.84 184.004C107.072 183.46 106.619 182.719 106.48 181.78H107.92C108.08 182.313 108.411 182.74 108.912 183.06C109.413 183.391 110.016 183.556 110.72 183.556C111.52 183.556 112.171 183.305 112.672 182.804C113.184 182.303 113.44 181.599 113.44 180.692V178.852C113.152 179.364 112.725 179.791 112.16 180.132C111.595 180.473 110.933 180.644 110.176 180.644C109.397 180.644 108.688 180.452 108.048 180.068C107.419 179.684 106.923 179.145 106.56 178.452C106.197 177.759 106.016 176.969 106.016 176.084C106.016 175.188 106.197 174.404 106.56 173.732C106.923 173.049 107.419 172.521 108.048 172.148C108.688 171.775 109.397 171.588 110.176 171.588ZM113.44 176.1C113.44 175.439 113.307 174.863 113.04 174.372C112.773 173.881 112.411 173.508 111.952 173.252C111.504 172.985 111.008 172.852 110.464 172.852C109.92 172.852 109.424 172.98 108.976 173.236C108.528 173.492 108.171 173.865 107.904 174.356C107.637 174.847 107.504 175.423 107.504 176.084C107.504 176.756 107.637 177.343 107.904 177.844C108.171 178.335 108.528 178.713 108.976 178.98C109.424 179.236 109.92 179.364 110.464 179.364C111.008 179.364 111.504 179.236 111.952 178.98C112.411 178.713 112.773 178.335 113.04 177.844C113.307 177.343 113.44 176.761 113.44 176.1ZM125.373 175.78C125.373 176.057 125.357 176.351 125.325 176.66H118.317C118.37 177.524 118.663 178.201 119.197 178.692C119.741 179.172 120.397 179.412 121.165 179.412C121.794 179.412 122.317 179.268 122.733 178.98C123.159 178.681 123.458 178.287 123.629 177.796H125.197C124.962 178.639 124.493 179.327 123.789 179.86C123.085 180.383 122.21 180.644 121.165 180.644C120.333 180.644 119.586 180.457 118.925 180.084C118.274 179.711 117.762 179.183 117.389 178.5C117.015 177.807 116.829 177.007 116.829 176.1C116.829 175.193 117.01 174.399 117.373 173.716C117.735 173.033 118.242 172.511 118.893 172.148C119.554 171.775 120.311 171.588 121.165 171.588C121.997 171.588 122.733 171.769 123.373 172.132C124.013 172.495 124.503 172.996 124.845 173.636C125.197 174.265 125.373 174.98 125.373 175.78ZM123.869 175.476C123.869 174.921 123.746 174.447 123.501 174.052C123.255 173.647 122.919 173.343 122.493 173.14C122.077 172.927 121.613 172.82 121.101 172.82C120.365 172.82 119.735 173.055 119.213 173.524C118.701 173.993 118.407 174.644 118.333 175.476H123.869ZM128.799 178.484L127.007 182.788H126.03L127.199 178.484H128.799ZM146.412 171.732L143.676 180.5H142.172L140.06 173.54L137.948 180.5H136.444L133.692 171.732H135.18L137.196 179.092L139.372 171.732H140.86L142.988 179.108L144.972 171.732H146.412ZM152.209 171.572C152.87 171.572 153.468 171.716 154.001 172.004C154.534 172.281 154.95 172.703 155.249 173.268C155.558 173.833 155.713 174.521 155.713 175.332V180.5H154.273V175.54C154.273 174.665 154.054 173.999 153.617 173.54C153.18 173.071 152.582 172.836 151.825 172.836C151.057 172.836 150.444 173.076 149.985 173.556C149.537 174.036 149.313 174.735 149.313 175.652V180.5H147.857V168.66H149.313V172.98C149.601 172.532 149.996 172.185 150.497 171.94C151.009 171.695 151.58 171.572 152.209 171.572ZM165.643 171.732L160.363 184.628H158.859L160.587 180.404L157.051 171.732H158.667L161.419 178.836L164.139 171.732H165.643ZM168.611 178.484L166.819 182.788H165.843L167.011 178.484H168.611ZM174.001 176.084C174.001 175.188 174.182 174.404 174.545 173.732C174.907 173.049 175.403 172.521 176.033 172.148C176.673 171.775 177.382 171.588 178.161 171.588C178.929 171.588 179.595 171.753 180.161 172.084C180.726 172.415 181.147 172.831 181.425 173.332V171.732H182.897V180.5H181.425V178.868C181.137 179.38 180.705 179.807 180.129 180.148C179.563 180.479 178.902 180.644 178.145 180.644C177.366 180.644 176.662 180.452 176.033 180.068C175.403 179.684 174.907 179.145 174.545 178.452C174.182 177.759 174.001 176.969 174.001 176.084ZM181.425 176.1C181.425 175.439 181.291 174.863 181.025 174.372C180.758 173.881 180.395 173.508 179.937 173.252C179.489 172.985 178.993 172.852 178.449 172.852C177.905 172.852 177.409 172.98 176.961 173.236C176.513 173.492 176.155 173.865 175.889 174.356C175.622 174.847 175.489 175.423 175.489 176.084C175.489 176.756 175.622 177.343 175.889 177.844C176.155 178.335 176.513 178.713 176.961 178.98C177.409 179.236 177.905 179.364 178.449 179.364C178.993 179.364 179.489 179.236 179.937 178.98C180.395 178.713 180.758 178.335 181.025 177.844C181.291 177.343 181.425 176.761 181.425 176.1ZM189.629 171.572C190.696 171.572 191.56 171.897 192.221 172.548C192.882 173.188 193.213 174.116 193.213 175.332V180.5H191.773V175.54C191.773 174.665 191.554 173.999 191.117 173.54C190.68 173.071 190.082 172.836 189.325 172.836C188.557 172.836 187.944 173.076 187.485 173.556C187.037 174.036 186.813 174.735 186.813 175.652V180.5H185.357V171.732H186.813V172.98C187.101 172.532 187.49 172.185 187.981 171.94C188.482 171.695 189.032 171.572 189.629 171.572ZM195.047 176.084C195.047 175.188 195.229 174.404 195.591 173.732C195.954 173.049 196.45 172.521 197.079 172.148C197.719 171.775 198.434 171.588 199.223 171.588C199.906 171.588 200.541 171.748 201.127 172.068C201.714 172.377 202.162 172.788 202.471 173.3V168.66H203.943V180.5H202.471V178.852C202.183 179.375 201.757 179.807 201.191 180.148C200.626 180.479 199.965 180.644 199.207 180.644C198.429 180.644 197.719 180.452 197.079 180.068C196.45 179.684 195.954 179.145 195.591 178.452C195.229 177.759 195.047 176.969 195.047 176.084ZM202.471 176.1C202.471 175.439 202.338 174.863 202.071 174.372C201.805 173.881 201.442 173.508 200.983 173.252C200.535 172.985 200.039 172.852 199.495 172.852C198.951 172.852 198.455 172.98 198.007 173.236C197.559 173.492 197.202 173.865 196.935 174.356C196.669 174.847 196.535 175.423 196.535 176.084C196.535 176.756 196.669 177.343 196.935 177.844C197.202 178.335 197.559 178.713 198.007 178.98C198.455 179.236 198.951 179.364 199.495 179.364C200.039 179.364 200.535 179.236 200.983 178.98C201.442 178.713 201.805 178.335 202.071 177.844C202.338 177.343 202.471 176.761 202.471 176.1ZM222.35 171.732L219.614 180.5H218.11L215.998 173.54L213.886 180.5H212.382L209.63 171.732H211.118L213.134 179.092L215.31 171.732H216.798L218.926 179.108L220.91 171.732H222.35ZM228.147 171.572C228.808 171.572 229.405 171.716 229.939 172.004C230.472 172.281 230.888 172.703 231.187 173.268C231.496 173.833 231.651 174.521 231.651 175.332V180.5H230.211V175.54C230.211 174.665 229.992 173.999 229.555 173.54C229.117 173.071 228.52 172.836 227.763 172.836C226.995 172.836 226.381 173.076 225.923 173.556C225.475 174.036 225.251 174.735 225.251 175.652V180.5H223.795V168.66H225.251V172.98C225.539 172.532 225.933 172.185 226.435 171.94C226.947 171.695 227.517 171.572 228.147 171.572ZM233.485 176.084C233.485 175.188 233.666 174.404 234.029 173.732C234.392 173.049 234.888 172.521 235.517 172.148C236.157 171.775 236.866 171.588 237.645 171.588C238.413 171.588 239.08 171.753 239.645 172.084C240.21 172.415 240.632 172.831 240.909 173.332V171.732H242.381V180.5H240.909V178.868C240.621 179.38 240.189 179.807 239.613 180.148C239.048 180.479 238.386 180.644 237.629 180.644C236.85 180.644 236.146 180.452 235.517 180.068C234.888 179.684 234.392 179.145 234.029 178.452C233.666 177.759 233.485 176.969 233.485 176.084ZM240.909 176.1C240.909 175.439 240.776 174.863 240.509 174.372C240.242 173.881 239.88 173.508 239.421 173.252C238.973 172.985 238.477 172.852 237.933 172.852C237.389 172.852 236.893 172.98 236.445 173.236C235.997 173.492 235.64 173.865 235.373 174.356C235.106 174.847 234.973 175.423 234.973 176.084C234.973 176.756 235.106 177.343 235.373 177.844C235.64 178.335 235.997 178.713 236.445 178.98C236.893 179.236 237.389 179.364 237.933 179.364C238.477 179.364 238.973 179.236 239.421 178.98C239.88 178.713 240.242 178.335 240.509 177.844C240.776 177.343 240.909 176.761 240.909 176.1ZM246.617 172.932V178.1C246.617 178.527 246.708 178.831 246.889 179.012C247.071 179.183 247.385 179.268 247.833 179.268H248.905V180.5H247.593C246.783 180.5 246.175 180.313 245.769 179.94C245.364 179.567 245.161 178.953 245.161 178.1V172.932H244.025V171.732H245.161V169.524H246.617V171.732H248.905V172.932H246.617ZM44.688 200.1C44.688 199.193 44.8693 198.404 45.232 197.732C45.5947 197.049 46.096 196.521 46.736 196.148C47.3867 195.775 48.128 195.588 48.96 195.588C50.0373 195.588 50.9227 195.849 51.616 196.372C52.32 196.895 52.784 197.62 53.008 198.548H51.44C51.2907 198.015 50.9973 197.593 50.56 197.284C50.1333 196.975 49.6 196.82 48.96 196.82C48.128 196.82 47.456 197.108 46.944 197.684C46.432 198.249 46.176 199.055 46.176 200.1C46.176 201.156 46.432 201.972 46.944 202.548C47.456 203.124 48.128 203.412 48.96 203.412C49.6 203.412 50.1333 203.263 50.56 202.964C50.9867 202.665 51.28 202.239 51.44 201.684H53.008C52.7733 202.58 52.304 203.3 51.6 203.844C50.896 204.377 50.016 204.644 48.96 204.644C48.128 204.644 47.3867 204.457 46.736 204.084C46.096 203.711 45.5947 203.183 45.232 202.5C44.8693 201.817 44.688 201.017 44.688 200.1ZM59.3028 195.572C59.9641 195.572 60.5614 195.716 61.0948 196.004C61.6281 196.281 62.0441 196.703 62.3428 197.268C62.6521 197.833 62.8068 198.521 62.8068 199.332V204.5H61.3668V199.54C61.3668 198.665 61.1481 197.999 60.7108 197.54C60.2734 197.071 59.6761 196.836 58.9188 196.836C58.1508 196.836 57.5374 197.076 57.0788 197.556C56.6308 198.036 56.4068 198.735 56.4068 199.652V204.5H54.9508V192.66H56.4068V196.98C56.6948 196.532 57.0894 196.185 57.5908 195.94C58.1028 195.695 58.6734 195.572 59.3028 195.572ZM64.6411 200.084C64.6411 199.188 64.8225 198.404 65.1851 197.732C65.5478 197.049 66.0438 196.521 66.6731 196.148C67.3131 195.775 68.0225 195.588 68.8011 195.588C69.5691 195.588 70.2358 195.753 70.8011 196.084C71.3665 196.415 71.7878 196.831 72.0651 197.332V195.732H73.5371V204.5H72.0651V202.868C71.7771 203.38 71.3451 203.807 70.7691 204.148C70.2038 204.479 69.5425 204.644 68.7851 204.644C68.0065 204.644 67.3025 204.452 66.6731 204.068C66.0438 203.684 65.5478 203.145 65.1851 202.452C64.8225 201.759 64.6411 200.969 64.6411 200.084ZM72.0651 200.1C72.0651 199.439 71.9318 198.863 71.6651 198.372C71.3985 197.881 71.0358 197.508 70.5771 197.252C70.1291 196.985 69.6331 196.852 69.0891 196.852C68.5451 196.852 68.0491 196.98 67.6011 197.236C67.1531 197.492 66.7958 197.865 66.5291 198.356C66.2625 198.847 66.1291 199.423 66.1291 200.084C66.1291 200.756 66.2625 201.343 66.5291 201.844C66.7958 202.335 67.1531 202.713 67.6011 202.98C68.0491 203.236 68.5451 203.364 69.0891 203.364C69.6331 203.364 70.1291 203.236 70.5771 202.98C71.0358 202.713 71.3985 202.335 71.6651 201.844C71.9318 201.343 72.0651 200.761 72.0651 200.1ZM77.4536 192.66V204.5H75.9976V192.66H77.4536ZM81.3911 192.66V204.5H79.9351V192.66H81.3911ZM91.8726 199.78C91.8726 200.057 91.8566 200.351 91.8246 200.66H84.8166C84.87 201.524 85.1633 202.201 85.6966 202.692C86.2406 203.172 86.8966 203.412 87.6646 203.412C88.294 203.412 88.8166 203.268 89.2326 202.98C89.6593 202.681 89.958 202.287 90.1286 201.796H91.6966C91.462 202.639 90.9926 203.327 90.2886 203.86C89.5846 204.383 88.71 204.644 87.6646 204.644C86.8326 204.644 86.086 204.457 85.4246 204.084C84.774 203.711 84.262 203.183 83.8886 202.5C83.5153 201.807 83.3286 201.007 83.3286 200.1C83.3286 199.193 83.51 198.399 83.8726 197.716C84.2353 197.033 84.742 196.511 85.3926 196.148C86.054 195.775 86.8113 195.588 87.6646 195.588C88.4966 195.588 89.2326 195.769 89.8726 196.132C90.5126 196.495 91.0033 196.996 91.3446 197.636C91.6966 198.265 91.8726 198.98 91.8726 199.78ZM90.3686 199.476C90.3686 198.921 90.246 198.447 90.0006 198.052C89.7553 197.647 89.4193 197.343 88.9926 197.14C88.5766 196.927 88.1126 196.82 87.6006 196.82C86.8646 196.82 86.2353 197.055 85.7126 197.524C85.2006 197.993 84.9073 198.644 84.8326 199.476H90.3686ZM98.0665 195.572C99.1332 195.572 99.9972 195.897 100.659 196.548C101.32 197.188 101.651 198.116 101.651 199.332V204.5H100.211V199.54C100.211 198.665 99.9918 197.999 99.5545 197.54C99.1172 197.071 98.5198 196.836 97.7625 196.836C96.9945 196.836 96.3812 197.076 95.9225 197.556C95.4745 198.036 95.2505 198.735 95.2505 199.652V204.5H93.7945V195.732H95.2505V196.98C95.5385 196.532 95.9278 196.185 96.4185 195.94C96.9198 195.695 97.4692 195.572 98.0665 195.572ZM107.645 195.588C108.402 195.588 109.064 195.753 109.629 196.084C110.205 196.415 110.632 196.831 110.909 197.332V195.732H112.381V204.692C112.381 205.492 112.21 206.201 111.869 206.82C111.528 207.449 111.037 207.94 110.397 208.292C109.768 208.644 109.032 208.82 108.189 208.82C107.037 208.82 106.077 208.548 105.309 208.004C104.541 207.46 104.088 206.719 103.949 205.78H105.389C105.549 206.313 105.88 206.74 106.381 207.06C106.882 207.391 107.485 207.556 108.189 207.556C108.989 207.556 109.64 207.305 110.141 206.804C110.653 206.303 110.909 205.599 110.909 204.692V202.852C110.621 203.364 110.194 203.791 109.629 204.132C109.064 204.473 108.402 204.644 107.645 204.644C106.866 204.644 106.157 204.452 105.517 204.068C104.888 203.684 104.392 203.145 104.029 202.452C103.666 201.759 103.485 200.969 103.485 200.084C103.485 199.188 103.666 198.404 104.029 197.732C104.392 197.049 104.888 196.521 105.517 196.148C106.157 195.775 106.866 195.588 107.645 195.588ZM110.909 200.1C110.909 199.439 110.776 198.863 110.509 198.372C110.242 197.881 109.88 197.508 109.421 197.252C108.973 196.985 108.477 196.852 107.933 196.852C107.389 196.852 106.893 196.98 106.445 197.236C105.997 197.492 105.64 197.865 105.373 198.356C105.106 198.847 104.973 199.423 104.973 200.084C104.973 200.756 105.106 201.343 105.373 201.844C105.64 202.335 105.997 202.713 106.445 202.98C106.893 203.236 107.389 203.364 107.933 203.364C108.477 203.364 108.973 203.236 109.421 202.98C109.88 202.713 110.242 202.335 110.509 201.844C110.776 201.343 110.909 200.761 110.909 200.1ZM122.841 199.78C122.841 200.057 122.825 200.351 122.793 200.66H115.785C115.839 201.524 116.132 202.201 116.665 202.692C117.209 203.172 117.865 203.412 118.633 203.412C119.263 203.412 119.785 203.268 120.201 202.98C120.628 202.681 120.927 202.287 121.097 201.796H122.665C122.431 202.639 121.961 203.327 121.257 203.86C120.553 204.383 119.679 204.644 118.633 204.644C117.801 204.644 117.055 204.457 116.393 204.084C115.743 203.711 115.231 203.183 114.857 202.5C114.484 201.807 114.297 201.007 114.297 200.1C114.297 199.193 114.479 198.399 114.841 197.716C115.204 197.033 115.711 196.511 116.361 196.148C117.023 195.775 117.78 195.588 118.633 195.588C119.465 195.588 120.201 195.769 120.841 196.132C121.481 196.495 121.972 196.996 122.313 197.636C122.665 198.265 122.841 198.98 122.841 199.78ZM121.337 199.476C121.337 198.921 121.215 198.447 120.969 198.052C120.724 197.647 120.388 197.343 119.961 197.14C119.545 196.927 119.081 196.82 118.569 196.82C117.833 196.82 117.204 197.055 116.681 197.524C116.169 197.993 115.876 198.644 115.801 199.476H121.337ZM127.867 204.644C127.195 204.644 126.593 204.532 126.059 204.308C125.526 204.073 125.105 203.753 124.795 203.348C124.486 202.932 124.315 202.457 124.283 201.924H125.787C125.83 202.361 126.033 202.719 126.395 202.996C126.769 203.273 127.254 203.412 127.851 203.412C128.406 203.412 128.843 203.289 129.163 203.044C129.483 202.799 129.643 202.489 129.643 202.116C129.643 201.732 129.473 201.449 129.131 201.268C128.79 201.076 128.262 200.889 127.547 200.708C126.897 200.537 126.363 200.367 125.947 200.196C125.542 200.015 125.19 199.753 124.891 199.412C124.603 199.06 124.459 198.601 124.459 198.036C124.459 197.588 124.593 197.177 124.859 196.804C125.126 196.431 125.505 196.137 125.995 195.924C126.486 195.7 127.046 195.588 127.675 195.588C128.646 195.588 129.43 195.833 130.027 196.324C130.625 196.815 130.945 197.487 130.987 198.34H129.531C129.499 197.881 129.313 197.513 128.971 197.236C128.641 196.959 128.193 196.82 127.627 196.82C127.105 196.82 126.689 196.932 126.379 197.156C126.07 197.38 125.915 197.673 125.915 198.036C125.915 198.324 126.006 198.564 126.187 198.756C126.379 198.937 126.614 199.087 126.891 199.204C127.179 199.311 127.574 199.433 128.075 199.572C128.705 199.743 129.217 199.913 129.611 200.084C130.006 200.244 130.342 200.489 130.619 200.82C130.907 201.151 131.057 201.583 131.067 202.116C131.067 202.596 130.934 203.028 130.667 203.412C130.401 203.796 130.022 204.1 129.531 204.324C129.051 204.537 128.497 204.644 127.867 204.644ZM141.212 204.644C140.391 204.644 139.644 204.457 138.972 204.084C138.311 203.711 137.788 203.183 137.404 202.5C137.031 201.807 136.844 201.007 136.844 200.1C136.844 199.204 137.036 198.415 137.42 197.732C137.815 197.039 138.348 196.511 139.02 196.148C139.692 195.775 140.444 195.588 141.276 195.588C142.108 195.588 142.86 195.775 143.532 196.148C144.204 196.511 144.732 197.033 145.116 197.716C145.511 198.399 145.708 199.193 145.708 200.1C145.708 201.007 145.506 201.807 145.1 202.5C144.706 203.183 144.167 203.711 143.484 204.084C142.802 204.457 142.044 204.644 141.212 204.644ZM141.212 203.364C141.735 203.364 142.226 203.241 142.684 202.996C143.143 202.751 143.511 202.383 143.788 201.892C144.076 201.401 144.22 200.804 144.22 200.1C144.22 199.396 144.082 198.799 143.804 198.308C143.527 197.817 143.164 197.455 142.716 197.22C142.268 196.975 141.783 196.852 141.26 196.852C140.727 196.852 140.236 196.975 139.788 197.22C139.351 197.455 138.999 197.817 138.732 198.308C138.466 198.799 138.332 199.396 138.332 200.1C138.332 200.815 138.46 201.417 138.716 201.908C138.983 202.399 139.335 202.767 139.772 203.012C140.21 203.247 140.69 203.364 141.212 203.364ZM149.079 197.156C149.335 196.655 149.697 196.265 150.167 195.988C150.647 195.711 151.228 195.572 151.911 195.572V197.076H151.527C149.895 197.076 149.079 197.961 149.079 199.732V204.5H147.623V195.732H149.079V197.156ZM159.313 197.156C159.569 196.655 159.932 196.265 160.401 195.988C160.881 195.711 161.462 195.572 162.145 195.572V197.076H161.761C160.129 197.076 159.313 197.961 159.313 199.732V204.5H157.857V195.732H159.313V197.156ZM164.578 194.308C164.3 194.308 164.066 194.212 163.874 194.02C163.682 193.828 163.586 193.593 163.586 193.316C163.586 193.039 163.682 192.804 163.874 192.612C164.066 192.42 164.3 192.324 164.578 192.324C164.844 192.324 165.068 192.42 165.25 192.612C165.442 192.804 165.538 193.039 165.538 193.316C165.538 193.593 165.442 193.828 165.25 194.02C165.068 194.212 164.844 194.308 164.578 194.308ZM165.282 195.732V204.5H163.826V195.732H165.282ZM170.867 204.644C170.195 204.644 169.593 204.532 169.059 204.308C168.526 204.073 168.105 203.753 167.795 203.348C167.486 202.932 167.315 202.457 167.283 201.924H168.787C168.83 202.361 169.033 202.719 169.395 202.996C169.769 203.273 170.254 203.412 170.851 203.412C171.406 203.412 171.843 203.289 172.163 203.044C172.483 202.799 172.643 202.489 172.643 202.116C172.643 201.732 172.473 201.449 172.131 201.268C171.79 201.076 171.262 200.889 170.547 200.708C169.897 200.537 169.363 200.367 168.947 200.196C168.542 200.015 168.19 199.753 167.891 199.412C167.603 199.06 167.459 198.601 167.459 198.036C167.459 197.588 167.593 197.177 167.859 196.804C168.126 196.431 168.505 196.137 168.995 195.924C169.486 195.7 170.046 195.588 170.675 195.588C171.646 195.588 172.43 195.833 173.027 196.324C173.625 196.815 173.945 197.487 173.987 198.34H172.531C172.499 197.881 172.313 197.513 171.971 197.236C171.641 196.959 171.193 196.82 170.627 196.82C170.105 196.82 169.689 196.932 169.379 197.156C169.07 197.38 168.915 197.673 168.915 198.036C168.915 198.324 169.006 198.564 169.187 198.756C169.379 198.937 169.614 199.087 169.891 199.204C170.179 199.311 170.574 199.433 171.075 199.572C171.705 199.743 172.217 199.913 172.611 200.084C173.006 200.244 173.342 200.489 173.619 200.82C173.907 201.151 174.057 201.583 174.067 202.116C174.067 202.596 173.934 203.028 173.667 203.412C173.401 203.796 173.022 204.1 172.531 204.324C172.051 204.537 171.497 204.644 170.867 204.644ZM181.019 204.5L177.579 200.628V204.5H176.123V192.66H177.579V199.62L180.955 195.732H182.987L178.859 200.1L183.003 204.5H181.019ZM187.461 204.644C186.789 204.644 186.186 204.532 185.653 204.308C185.12 204.073 184.698 203.753 184.389 203.348C184.08 202.932 183.909 202.457 183.877 201.924H185.381C185.424 202.361 185.626 202.719 185.989 202.996C186.362 203.273 186.848 203.412 187.445 203.412C188 203.412 188.437 203.289 188.757 203.044C189.077 202.799 189.237 202.489 189.237 202.116C189.237 201.732 189.066 201.449 188.725 201.268C188.384 201.076 187.856 200.889 187.141 200.708C186.49 200.537 185.957 200.367 185.541 200.196C185.136 200.015 184.784 199.753 184.485 199.412C184.197 199.06 184.053 198.601 184.053 198.036C184.053 197.588 184.186 197.177 184.453 196.804C184.72 196.431 185.098 196.137 185.589 195.924C186.08 195.7 186.64 195.588 187.269 195.588C188.24 195.588 189.024 195.833 189.621 196.324C190.218 196.815 190.538 197.487 190.581 198.34H189.125C189.093 197.881 188.906 197.513 188.565 197.236C188.234 196.959 187.786 196.82 187.221 196.82C186.698 196.82 186.282 196.932 185.973 197.156C185.664 197.38 185.509 197.673 185.509 198.036C185.509 198.324 185.6 198.564 185.781 198.756C185.973 198.937 186.208 199.087 186.485 199.204C186.773 199.311 187.168 199.433 187.669 199.572C188.298 199.743 188.81 199.913 189.205 200.084C189.6 200.244 189.936 200.489 190.213 200.82C190.501 201.151 190.65 201.583 190.661 202.116C190.661 202.596 190.528 203.028 190.261 203.412C189.994 203.796 189.616 204.1 189.125 204.324C188.645 204.537 188.09 204.644 187.461 204.644ZM204.534 195.732L199.254 208.628H197.75L199.478 204.404L195.942 195.732H197.558L200.31 202.836L203.03 195.732H204.534ZM209.822 204.644C209 204.644 208.254 204.457 207.582 204.084C206.92 203.711 206.398 203.183 206.014 202.5C205.64 201.807 205.454 201.007 205.454 200.1C205.454 199.204 205.646 198.415 206.03 197.732C206.424 197.039 206.958 196.511 207.63 196.148C208.302 195.775 209.054 195.588 209.886 195.588C210.718 195.588 211.47 195.775 212.142 196.148C212.814 196.511 213.342 197.033 213.726 197.716C214.12 198.399 214.318 199.193 214.318 200.1C214.318 201.007 214.115 201.807 213.71 202.5C213.315 203.183 212.776 203.711 212.094 204.084C211.411 204.457 210.654 204.644 209.822 204.644ZM209.822 203.364C210.344 203.364 210.835 203.241 211.294 202.996C211.752 202.751 212.12 202.383 212.398 201.892C212.686 201.401 212.83 200.804 212.83 200.1C212.83 199.396 212.691 198.799 212.414 198.308C212.136 197.817 211.774 197.455 211.326 197.22C210.878 196.975 210.392 196.852 209.87 196.852C209.336 196.852 208.846 196.975 208.398 197.22C207.96 197.455 207.608 197.817 207.342 198.308C207.075 198.799 206.942 199.396 206.942 200.1C206.942 200.815 207.07 201.417 207.326 201.908C207.592 202.399 207.944 202.767 208.382 203.012C208.819 203.247 209.299 203.364 209.822 203.364ZM224.008 195.732V204.5H222.552V203.204C222.275 203.652 221.885 204.004 221.384 204.26C220.893 204.505 220.349 204.628 219.752 204.628C219.069 204.628 218.456 204.489 217.912 204.212C217.368 203.924 216.936 203.497 216.616 202.932C216.307 202.367 216.152 201.679 216.152 200.868V195.732H217.592V200.676C217.592 201.54 217.811 202.207 218.248 202.676C218.685 203.135 219.283 203.364 220.04 203.364C220.819 203.364 221.432 203.124 221.88 202.644C222.328 202.164 222.552 201.465 222.552 200.548V195.732H224.008ZM226.69 193.348H228.306L226.77 196.98H225.746L226.69 193.348ZM231.422 197.156C231.678 196.655 232.041 196.265 232.51 195.988C232.99 195.711 233.572 195.572 234.254 195.572V197.076H233.87C232.238 197.076 231.422 197.961 231.422 199.732V204.5H229.966V195.732H231.422V197.156ZM243.935 199.78C243.935 200.057 243.919 200.351 243.887 200.66H236.879C236.932 201.524 237.226 202.201 237.759 202.692C238.303 203.172 238.959 203.412 239.727 203.412C240.356 203.412 240.879 203.268 241.295 202.98C241.722 202.681 242.02 202.287 242.191 201.796H243.759C243.524 202.639 243.055 203.327 242.351 203.86C241.647 204.383 240.772 204.644 239.727 204.644C238.895 204.644 238.148 204.457 237.487 204.084C236.836 203.711 236.324 203.183 235.951 202.5C235.578 201.807 235.391 201.007 235.391 200.1C235.391 199.193 235.572 198.399 235.935 197.716C236.298 197.033 236.804 196.511 237.455 196.148C238.116 195.775 238.874 195.588 239.727 195.588C240.559 195.588 241.295 195.769 241.935 196.132C242.575 196.495 243.066 196.996 243.407 197.636C243.759 198.265 243.935 198.98 243.935 199.78ZM242.431 199.476C242.431 198.921 242.308 198.447 242.063 198.052C241.818 197.647 241.482 197.343 241.055 197.14C240.639 196.927 240.175 196.82 239.663 196.82C238.927 196.82 238.298 197.055 237.775 197.524C237.263 197.993 236.97 198.644 236.895 199.476H242.431ZM47.008 220.932V226.1C47.008 226.527 47.0987 226.831 47.28 227.012C47.4613 227.183 47.776 227.268 48.224 227.268H49.296V228.5H47.984C47.1733 228.5 46.5653 228.313 46.16 227.94C45.7547 227.567 45.552 226.953 45.552 226.1V220.932H44.416V219.732H45.552V217.524H47.008V219.732H49.296V220.932H47.008ZM52.5161 221.156C52.7721 220.655 53.1348 220.265 53.6041 219.988C54.0841 219.711 54.6655 219.572 55.3481 219.572V221.076H54.9641C53.3321 221.076 52.5161 221.961 52.5161 223.732V228.5H51.0601V219.732H52.5161V221.156ZM64.5809 219.732L59.3009 232.628H57.7969L59.5249 228.404L55.9889 219.732H57.6049L60.3569 226.836L63.0769 219.732H64.5809ZM66.7965 218.308C66.5192 218.308 66.2845 218.212 66.0925 218.02C65.9005 217.828 65.8045 217.593 65.8045 217.316C65.8045 217.039 65.9005 216.804 66.0925 216.612C66.2845 216.42 66.5192 216.324 66.7965 216.324C67.0632 216.324 67.2872 216.42 67.4685 216.612C67.6605 216.804 67.7565 217.039 67.7565 217.316C67.7565 217.593 67.6605 217.828 67.4685 218.02C67.2872 218.212 67.0632 218.308 66.7965 218.308ZM67.5005 219.732V228.5H66.0445V219.732H67.5005ZM74.254 219.572C75.3207 219.572 76.1847 219.897 76.846 220.548C77.5073 221.188 77.838 222.116 77.838 223.332V228.5H76.398V223.54C76.398 222.665 76.1793 221.999 75.742 221.54C75.3047 221.071 74.7073 220.836 73.95 220.836C73.182 220.836 72.5687 221.076 72.11 221.556C71.662 222.036 71.438 222.735 71.438 223.652V228.5H69.982V219.732H71.438V220.98C71.726 220.532 72.1153 220.185 72.606 219.94C73.1073 219.695 73.6567 219.572 74.254 219.572ZM83.8324 219.588C84.5897 219.588 85.251 219.753 85.8164 220.084C86.3924 220.415 86.819 220.831 87.0964 221.332V219.732H88.5684V228.692C88.5684 229.492 88.3977 230.201 88.0564 230.82C87.715 231.449 87.2244 231.94 86.5844 232.292C85.955 232.644 85.219 232.82 84.3764 232.82C83.2244 232.82 82.2644 232.548 81.4964 232.004C80.7284 231.46 80.275 230.719 80.1364 229.78H81.5764C81.7364 230.313 82.067 230.74 82.5684 231.06C83.0697 231.391 83.6724 231.556 84.3764 231.556C85.1764 231.556 85.827 231.305 86.3284 230.804C86.8404 230.303 87.0964 229.599 87.0964 228.692V226.852C86.8084 227.364 86.3817 227.791 85.8164 228.132C85.251 228.473 84.5897 228.644 83.8324 228.644C83.0537 228.644 82.3444 228.452 81.7044 228.068C81.075 227.684 80.579 227.145 80.2164 226.452C79.8537 225.759 79.6724 224.969 79.6724 224.084C79.6724 223.188 79.8537 222.404 80.2164 221.732C80.579 221.049 81.075 220.521 81.7044 220.148C82.3444 219.775 83.0537 219.588 83.8324 219.588ZM87.0964 224.1C87.0964 223.439 86.963 222.863 86.6964 222.372C86.4297 221.881 86.067 221.508 85.6084 221.252C85.1604 220.985 84.6644 220.852 84.1204 220.852C83.5764 220.852 83.0804 220.98 82.6324 221.236C82.1844 221.492 81.827 221.865 81.5604 222.356C81.2937 222.847 81.1604 223.423 81.1604 224.084C81.1604 224.756 81.2937 225.343 81.5604 225.844C81.827 226.335 82.1844 226.713 82.6324 226.98C83.0804 227.236 83.5764 227.364 84.1204 227.364C84.6644 227.364 85.1604 227.236 85.6084 226.98C86.067 226.713 86.4297 226.335 86.6964 225.844C86.963 225.343 87.0964 224.761 87.0964 224.1ZM97.0705 220.932V226.1C97.0705 226.527 97.1612 226.831 97.3425 227.012C97.5238 227.183 97.8385 227.268 98.2865 227.268H99.3585V228.5H98.0465C97.2358 228.5 96.6278 228.313 96.2225 227.94C95.8172 227.567 95.6145 226.953 95.6145 226.1V220.932H94.4785V219.732H95.6145V217.524H97.0705V219.732H99.3585V220.932H97.0705ZM104.947 228.644C104.125 228.644 103.379 228.457 102.707 228.084C102.045 227.711 101.523 227.183 101.139 226.5C100.765 225.807 100.579 225.007 100.579 224.1C100.579 223.204 100.771 222.415 101.155 221.732C101.549 221.039 102.083 220.511 102.755 220.148C103.427 219.775 104.179 219.588 105.011 219.588C105.843 219.588 106.595 219.775 107.267 220.148C107.939 220.511 108.467 221.033 108.851 221.716C109.245 222.399 109.443 223.193 109.443 224.1C109.443 225.007 109.24 225.807 108.835 226.5C108.44 227.183 107.901 227.711 107.219 228.084C106.536 228.457 105.779 228.644 104.947 228.644ZM104.947 227.364C105.469 227.364 105.96 227.241 106.419 226.996C106.877 226.751 107.245 226.383 107.523 225.892C107.811 225.401 107.955 224.804 107.955 224.1C107.955 223.396 107.816 222.799 107.539 222.308C107.261 221.817 106.899 221.455 106.451 221.22C106.003 220.975 105.517 220.852 104.995 220.852C104.461 220.852 103.971 220.975 103.523 221.22C103.085 221.455 102.733 221.817 102.467 222.308C102.2 222.799 102.067 223.396 102.067 224.1C102.067 224.815 102.195 225.417 102.451 225.908C102.717 226.399 103.069 226.767 103.507 227.012C103.944 227.247 104.424 227.364 104.947 227.364ZM117.079 221.364C117.377 220.841 117.815 220.415 118.391 220.084C118.967 219.753 119.623 219.588 120.359 219.588C121.148 219.588 121.857 219.775 122.487 220.148C123.116 220.521 123.612 221.049 123.975 221.732C124.337 222.404 124.519 223.188 124.519 224.084C124.519 224.969 124.337 225.759 123.975 226.452C123.612 227.145 123.111 227.684 122.471 228.068C121.841 228.452 121.137 228.644 120.359 228.644C119.601 228.644 118.935 228.479 118.359 228.148C117.793 227.817 117.367 227.396 117.079 226.884V228.5H115.623V216.66H117.079V221.364ZM123.031 224.084C123.031 223.423 122.897 222.847 122.631 222.356C122.364 221.865 122.001 221.492 121.543 221.236C121.095 220.98 120.599 220.852 120.055 220.852C119.521 220.852 119.025 220.985 118.567 221.252C118.119 221.508 117.756 221.887 117.479 222.388C117.212 222.879 117.079 223.449 117.079 224.1C117.079 224.761 117.212 225.343 117.479 225.844C117.756 226.335 118.119 226.713 118.567 226.98C119.025 227.236 119.521 227.364 120.055 227.364C120.599 227.364 121.095 227.236 121.543 226.98C122.001 226.713 122.364 226.335 122.631 225.844C122.897 225.343 123.031 224.756 123.031 224.084ZM125.891 224.084C125.891 223.188 126.072 222.404 126.435 221.732C126.798 221.049 127.294 220.521 127.923 220.148C128.563 219.775 129.272 219.588 130.051 219.588C130.819 219.588 131.486 219.753 132.051 220.084C132.616 220.415 133.038 220.831 133.315 221.332V219.732H134.787V228.5H133.315V226.868C133.027 227.38 132.595 227.807 132.019 228.148C131.454 228.479 130.792 228.644 130.035 228.644C129.256 228.644 128.552 228.452 127.923 228.068C127.294 227.684 126.798 227.145 126.435 226.452C126.072 225.759 125.891 224.969 125.891 224.084ZM133.315 224.1C133.315 223.439 133.182 222.863 132.915 222.372C132.648 221.881 132.286 221.508 131.827 221.252C131.379 220.985 130.883 220.852 130.339 220.852C129.795 220.852 129.299 220.98 128.851 221.236C128.403 221.492 128.046 221.865 127.779 222.356C127.512 222.847 127.379 223.423 127.379 224.084C127.379 224.756 127.512 225.343 127.779 225.844C128.046 226.335 128.403 226.713 128.851 226.98C129.299 227.236 129.795 227.364 130.339 227.364C130.883 227.364 131.379 227.236 131.827 226.98C132.286 226.713 132.648 226.335 132.915 225.844C133.182 225.343 133.315 224.761 133.315 224.1ZM138.704 216.66V228.5H137.248V216.66H138.704ZM140.641 224.084C140.641 223.188 140.822 222.404 141.185 221.732C141.548 221.049 142.044 220.521 142.673 220.148C143.313 219.775 144.022 219.588 144.801 219.588C145.569 219.588 146.236 219.753 146.801 220.084C147.366 220.415 147.788 220.831 148.065 221.332V219.732H149.537V228.5H148.065V226.868C147.777 227.38 147.345 227.807 146.769 228.148C146.204 228.479 145.542 228.644 144.785 228.644C144.006 228.644 143.302 228.452 142.673 228.068C142.044 227.684 141.548 227.145 141.185 226.452C140.822 225.759 140.641 224.969 140.641 224.084ZM148.065 224.1C148.065 223.439 147.932 222.863 147.665 222.372C147.398 221.881 147.036 221.508 146.577 221.252C146.129 220.985 145.633 220.852 145.089 220.852C144.545 220.852 144.049 220.98 143.601 221.236C143.153 221.492 142.796 221.865 142.529 222.356C142.262 222.847 142.129 223.423 142.129 224.084C142.129 224.756 142.262 225.343 142.529 225.844C142.796 226.335 143.153 226.713 143.601 226.98C144.049 227.236 144.545 227.364 145.089 227.364C145.633 227.364 146.129 227.236 146.577 226.98C147.036 226.713 147.398 226.335 147.665 225.844C147.932 225.343 148.065 224.761 148.065 224.1ZM156.27 219.572C157.336 219.572 158.2 219.897 158.862 220.548C159.523 221.188 159.854 222.116 159.854 223.332V228.5H158.414V223.54C158.414 222.665 158.195 221.999 157.758 221.54C157.32 221.071 156.723 220.836 155.966 220.836C155.198 220.836 154.584 221.076 154.126 221.556C153.678 222.036 153.454 222.735 153.454 223.652V228.5H151.998V219.732H153.454V220.98C153.742 220.532 154.131 220.185 154.622 219.94C155.123 219.695 155.672 219.572 156.27 219.572ZM161.688 224.1C161.688 223.193 161.869 222.404 162.232 221.732C162.595 221.049 163.096 220.521 163.736 220.148C164.387 219.775 165.128 219.588 165.96 219.588C167.037 219.588 167.923 219.849 168.616 220.372C169.32 220.895 169.784 221.62 170.008 222.548H168.44C168.291 222.015 167.997 221.593 167.56 221.284C167.133 220.975 166.6 220.82 165.96 220.82C165.128 220.82 164.456 221.108 163.944 221.684C163.432 222.249 163.176 223.055 163.176 224.1C163.176 225.156 163.432 225.972 163.944 226.548C164.456 227.124 165.128 227.412 165.96 227.412C166.6 227.412 167.133 227.263 167.56 226.964C167.987 226.665 168.28 226.239 168.44 225.684H170.008C169.773 226.58 169.304 227.3 168.6 227.844C167.896 228.377 167.016 228.644 165.96 228.644C165.128 228.644 164.387 228.457 163.736 228.084C163.096 227.711 162.595 227.183 162.232 226.5C161.869 225.817 161.688 225.017 161.688 224.1ZM179.951 223.78C179.951 224.057 179.935 224.351 179.903 224.66H172.895C172.948 225.524 173.241 226.201 173.775 226.692C174.319 227.172 174.975 227.412 175.743 227.412C176.372 227.412 176.895 227.268 177.311 226.98C177.737 226.681 178.036 226.287 178.207 225.796H179.775C179.54 226.639 179.071 227.327 178.367 227.86C177.663 228.383 176.788 228.644 175.743 228.644C174.911 228.644 174.164 228.457 173.503 228.084C172.852 227.711 172.34 227.183 171.967 226.5C171.593 225.807 171.407 225.007 171.407 224.1C171.407 223.193 171.588 222.399 171.951 221.716C172.313 221.033 172.82 220.511 173.471 220.148C174.132 219.775 174.889 219.588 175.743 219.588C176.575 219.588 177.311 219.769 177.951 220.132C178.591 220.495 179.081 220.996 179.423 221.636C179.775 222.265 179.951 222.98 179.951 223.78ZM178.447 223.476C178.447 222.921 178.324 222.447 178.079 222.052C177.833 221.647 177.497 221.343 177.071 221.14C176.655 220.927 176.191 220.82 175.679 220.82C174.943 220.82 174.313 221.055 173.791 221.524C173.279 221.993 172.985 222.644 172.911 223.476H178.447ZM182.337 228.596C182.059 228.596 181.825 228.5 181.633 228.308C181.441 228.116 181.345 227.881 181.345 227.604C181.345 227.327 181.441 227.092 181.633 226.9C181.825 226.708 182.059 226.612 182.337 226.612C182.603 226.612 182.827 226.708 183.009 226.9C183.201 227.092 183.297 227.327 183.297 227.604C183.297 227.881 183.201 228.116 183.009 228.308C182.827 228.5 182.603 228.596 182.337 228.596Z" fill="black"/>
</g>
<defs>
<filter id="filter0_dii_3019_4331" x="-52" y="-53.5" width="418.667" height="432" filterUnits="userSpaceOnUse" color-interpolation-filters="sRGB">
<feFlood flood-opacity="0" result="BackgroundImageFix"/>
<feColorMatrix in="SourceAlpha" type="matrix" values="0 0 0 0 0 0 0 0 0 0 0 0 0 0 0 0 0 0 127 0" result="hardAlpha"/>
<feOffset dy="2"/>
<feGaussianBlur stdDeviation="10"/>
<feComposite in2="hardAlpha" operator="out"/>
<feColorMatrix type="matrix" values="0 0 0 0 0 0 0 0 0 0 0 0 0 0 0 0 0 0 0.02 0"/>
<feBlend mode="normal" in2="BackgroundImageFix" result="effect1_dropShadow_3019_4331"/>
<feBlend mode="normal" in="SourceGraphic" in2="effect1_dropShadow_3019_4331" result="shape"/>
<feColorMatrix in="SourceAlpha" type="matrix" values="0 0 0 0 0 0 0 0 0 0 0 0 0 0 0 0 0 0 127 0" result="hardAlpha"/>
<feOffset/>
<feGaussianBlur stdDeviation="2"/>
<feComposite in2="hardAlpha" operator="arithmetic" k2="-1" k3="1"/>
<feColorMatrix type="matrix" values="0 0 0 0 0.999662 0 0 0 0 0.999662 0 0 0 0 0.999662 0 0 0 0.24 0"/>
<feBlend mode="normal" in2="shape" result="effect2_innerShadow_3019_4331"/>
<feColorMatrix in="SourceAlpha" type="matrix" values="0 0 0 0 0 0 0 0 0 0 0 0 0 0 0 0 0 0 127 0" result="hardAlpha"/>
<feMorphology radius="2" operator="dilate" in="SourceAlpha" result="effect3_innerShadow_3019_4331"/>
<feOffset dx="-1" dy="-1"/>
<feGaussianBlur stdDeviation="2"/>
<feComposite in2="hardAlpha" operator="arithmetic" k2="-1" k3="1"/>
<feColorMatrix type="matrix" values="0 0 0 0 1 0 0 0 0 1 0 0 0 0 1 0 0 0 0.5 0"/>
<feBlend mode="normal" in2="effect2_innerShadow_3019_4331" result="effect3_innerShadow_3019_4331"/>
</filter>
</defs>
</svg>
