<svg width="315" height="329" viewBox="0 0 315 329" fill="none" xmlns="http://www.w3.org/2000/svg">
<g filter="url(#filter0_dii_1604_3318)">
<rect x="20.3335" y="18.5" width="274.667" height="288" rx="20" fill="white" fill-opacity="0.3" shape-rendering="crispEdges"/>
<path d="M50.7554 55.6836H48.4819C48.1616 55.6836 47.8882 55.5703 47.6616 55.3438C47.4351 55.1094 47.3218 54.832 47.3218 54.5117C47.3218 54.1992 47.4351 53.9258 47.6616 53.6914C47.8882 53.457 48.1616 53.3398 48.4819 53.3398H50.7554C51.0679 53.3398 51.3413 53.457 51.5757 53.6914C51.8179 53.918 51.939 54.1914 51.939 54.5117C51.939 54.832 51.8179 55.1094 51.5757 55.3438C51.3413 55.5703 51.0679 55.6836 50.7554 55.6836ZM53.0991 47.6094L51.4937 46.0039C51.2671 45.7773 51.1538 45.5039 51.1538 45.1836C51.1538 44.8633 51.2671 44.5859 51.4937 44.3516C51.728 44.125 52.0054 44.0117 52.3257 44.0117C52.6538 44.0117 52.9272 44.125 53.146 44.3516L54.7397 45.9688C54.9663 46.1953 55.0796 46.4688 55.0796 46.7891C55.0874 47.1094 54.9741 47.3828 54.7397 47.6094C54.5132 47.8438 54.2397 47.9609 53.9194 47.9609C53.5991 47.9531 53.3257 47.8359 53.0991 47.6094ZM60.4819 43.625V41.3516C60.4819 41.0391 60.5952 40.7656 60.8218 40.5312C61.0562 40.2969 61.3335 40.1797 61.6538 40.1797C61.9741 40.1797 62.2515 40.2969 62.4858 40.5312C62.7202 40.7656 62.8374 41.0391 62.8374 41.3516V43.625C62.8374 43.9375 62.7202 44.2109 62.4858 44.4453C62.2593 44.6797 61.9819 44.7969 61.6538 44.7969C61.3335 44.7969 61.0562 44.6797 60.8218 44.4453C60.5952 44.2109 60.4819 43.9375 60.4819 43.625ZM68.5562 45.9688L70.1733 44.3516C70.3999 44.125 70.6694 44.0117 70.9819 44.0117C71.3022 44.0117 71.5796 44.125 71.814 44.3516C72.0405 44.5859 72.1538 44.8633 72.1538 45.1836C72.1538 45.5039 72.0405 45.7773 71.814 46.0039L70.1968 47.6094C69.978 47.8438 69.7085 47.9609 69.3882 47.9609C69.0679 47.9609 68.7905 47.8438 68.5562 47.6094C68.3218 47.3828 68.2046 47.1094 68.2046 46.7891C68.2124 46.4688 68.3296 46.1953 68.5562 45.9688ZM74.8022 55.6836H72.5405C72.2202 55.6836 71.9429 55.5703 71.7085 55.3438C71.4819 55.1094 71.3687 54.832 71.3687 54.5117C71.3687 54.1914 71.4819 53.918 71.7085 53.6914C71.9429 53.457 72.2202 53.3398 72.5405 53.3398H74.8022C75.1226 53.3398 75.3999 53.457 75.6343 53.6914C75.8687 53.9258 75.9858 54.1992 75.9858 54.5117C75.9858 54.832 75.8687 55.1094 75.6343 55.3438C75.3999 55.5703 75.1226 55.6836 74.8022 55.6836ZM61.6538 46.8359C62.6929 46.8359 63.6655 47.0156 64.5718 47.375C65.4858 47.7266 66.2866 48.2148 66.9741 48.8398C67.6616 49.4648 68.1968 50.1992 68.5796 51.043C68.9624 51.8867 69.1538 52.7969 69.1538 53.7734C69.1538 54.6094 69.0679 55.3555 68.896 56.0117C68.7319 56.668 68.5132 57.3086 68.2397 57.9336C67.9741 58.5586 67.6929 59.2422 67.396 59.9844C67.1069 60.7266 66.8374 61.6016 66.5874 62.6094C66.3374 63.6094 66.146 64.8242 66.0132 66.2539C65.9897 66.5195 65.8999 66.7305 65.7437 66.8867C65.5874 67.043 65.3687 67.1211 65.0874 67.1211H58.2202C57.939 67.1211 57.7202 67.043 57.564 66.8867C57.4077 66.7305 57.3179 66.5195 57.2944 66.2539C57.1616 64.8242 56.9702 63.6094 56.7202 62.6094C56.4702 61.6016 56.1968 60.7266 55.8999 59.9844C55.6108 59.2422 55.3335 58.5586 55.0679 57.9336C54.8022 57.3086 54.5835 56.668 54.4116 56.0117C54.2476 55.3555 54.1655 54.6094 54.1655 53.7734C54.1655 52.7969 54.3569 51.8867 54.7397 51.043C55.1226 50.1992 55.6538 49.4648 56.3335 48.8398C57.021 48.207 57.8179 47.7148 58.7241 47.3633C59.6304 47.0117 60.6069 46.8359 61.6538 46.8359ZM61.6538 48.8516C60.9038 48.8516 60.1968 48.9727 59.5327 49.2148C58.8765 49.457 58.2944 49.7969 57.7866 50.2344C57.2866 50.6719 56.8921 51.1914 56.603 51.793C56.314 52.3945 56.1694 53.0547 56.1694 53.7734C56.1694 54.3672 56.2397 54.9023 56.3804 55.3789C56.521 55.8555 56.7046 56.3516 56.9312 56.8672C57.1655 57.375 57.4155 57.9805 57.6812 58.6836C57.9468 59.3789 58.2046 60.2422 58.4546 61.2734C58.7124 62.3047 58.939 63.5859 59.1343 65.1172H64.1733C64.3687 63.5859 64.5913 62.3047 64.8413 61.2734C65.0991 60.2422 65.3608 59.3789 65.6265 58.6836C65.8999 57.9805 66.1499 57.375 66.3765 56.8672C66.6108 56.3516 66.7944 55.8555 66.9272 55.3789C67.0679 54.9023 67.1382 54.3672 67.1382 53.7734C67.1382 53.0547 66.9937 52.3945 66.7046 51.793C66.4233 51.1914 66.0288 50.6719 65.521 50.2344C65.0132 49.7969 64.4272 49.457 63.7632 49.2148C63.0991 48.9727 62.396 48.8516 61.6538 48.8516ZM58.1382 69.6758C57.9272 69.6758 57.7515 69.6055 57.6108 69.4648C57.4702 69.3164 57.3999 69.1406 57.3999 68.9375C57.3999 68.7266 57.4702 68.5508 57.6108 68.4102C57.7515 68.2695 57.9272 68.1992 58.1382 68.1992H65.1694C65.3804 68.1992 65.5562 68.2695 65.6968 68.4102C65.8452 68.5508 65.9194 68.7266 65.9194 68.9375C65.9194 69.1406 65.8452 69.3164 65.6968 69.4648C65.5562 69.6055 65.3804 69.6758 65.1694 69.6758H58.1382ZM61.6538 72.957C60.7632 72.957 59.9976 72.7539 59.3569 72.3477C58.7241 71.9414 58.3882 71.4102 58.3491 70.7539H64.9468C64.9077 71.4102 64.5679 71.9414 63.9272 72.3477C63.2944 72.7539 62.5366 72.957 61.6538 72.957Z" fill="black"/>
<path d="M55.5535 102.74C55.5535 103.447 55.3868 104.113 55.0535 104.74C54.7202 105.367 54.1868 105.88 53.4535 106.28C52.7202 106.667 51.7802 106.86 50.6335 106.86H48.1135V112.5H45.8335V98.6H50.6335C51.7002 98.6 52.6002 98.7867 53.3335 99.16C54.0802 99.52 54.6335 100.013 54.9935 100.64C55.3668 101.267 55.5535 101.967 55.5535 102.74ZM50.6335 105C51.5002 105 52.1468 104.807 52.5735 104.42C53.0002 104.02 53.2135 103.46 53.2135 102.74C53.2135 101.22 52.3535 100.46 50.6335 100.46H48.1135V105H50.6335ZM60.008 103.08C60.3414 102.52 60.7814 102.087 61.328 101.78C61.888 101.46 62.548 101.3 63.308 101.3V103.66H62.728C61.8347 103.66 61.1547 103.887 60.688 104.34C60.2347 104.793 60.008 105.58 60.008 106.7V112.5H57.728V101.48H60.008V103.08ZM70.1838 112.68C69.1438 112.68 68.2038 112.447 67.3638 111.98C66.5238 111.5 65.8638 110.833 65.3838 109.98C64.9038 109.113 64.6638 108.113 64.6638 106.98C64.6638 105.86 64.9105 104.867 65.4038 104C65.8971 103.133 66.5705 102.467 67.4238 102C68.2771 101.533 69.2305 101.3 70.2838 101.3C71.3371 101.3 72.2905 101.533 73.1438 102C73.9971 102.467 74.6705 103.133 75.1638 104C75.6571 104.867 75.9038 105.86 75.9038 106.98C75.9038 108.1 75.6505 109.093 75.1438 109.96C74.6371 110.827 73.9438 111.5 73.0638 111.98C72.1971 112.447 71.2371 112.68 70.1838 112.68ZM70.1838 110.7C70.7705 110.7 71.3171 110.56 71.8238 110.28C72.3438 110 72.7638 109.58 73.0838 109.02C73.4038 108.46 73.5638 107.78 73.5638 106.98C73.5638 106.18 73.4105 105.507 73.1038 104.96C72.7971 104.4 72.3905 103.98 71.8838 103.7C71.3771 103.42 70.8305 103.28 70.2438 103.28C69.6571 103.28 69.1105 103.42 68.6038 103.7C68.1105 103.98 67.7171 104.4 67.4238 104.96C67.1305 105.507 66.9838 106.18 66.9838 106.98C66.9838 108.167 67.2838 109.087 67.8838 109.74C68.4971 110.38 69.2638 110.7 70.1838 110.7ZM77.3977 106.94C77.3977 105.833 77.6244 104.853 78.0777 104C78.5444 103.147 79.171 102.487 79.9577 102.02C80.7577 101.54 81.6444 101.3 82.6177 101.3C83.3377 101.3 84.0444 101.46 84.7377 101.78C85.4444 102.087 86.0044 102.5 86.4177 103.02V97.7H88.7177V112.5H86.4177V110.84C86.0444 111.373 85.5244 111.813 84.8577 112.16C84.2044 112.507 83.451 112.68 82.5977 112.68C81.6377 112.68 80.7577 112.44 79.9577 111.96C79.171 111.467 78.5444 110.787 78.0777 109.92C77.6244 109.04 77.3977 108.047 77.3977 106.94ZM86.4177 106.98C86.4177 106.22 86.2577 105.56 85.9377 105C85.631 104.44 85.2244 104.013 84.7177 103.72C84.211 103.427 83.6644 103.28 83.0777 103.28C82.491 103.28 81.9444 103.427 81.4377 103.72C80.931 104 80.5177 104.42 80.1977 104.98C79.891 105.527 79.7377 106.18 79.7377 106.94C79.7377 107.7 79.891 108.367 80.1977 108.94C80.5177 109.513 80.931 109.953 81.4377 110.26C81.9577 110.553 82.5044 110.7 83.0777 110.7C83.6644 110.7 84.211 110.553 84.7177 110.26C85.2244 109.967 85.631 109.54 85.9377 108.98C86.2577 108.407 86.4177 107.74 86.4177 106.98ZM101.692 101.48V112.5H99.4124V111.2C99.0524 111.653 98.5791 112.013 97.9924 112.28C97.4191 112.533 96.8057 112.66 96.1524 112.66C95.2857 112.66 94.5057 112.48 93.8124 112.12C93.1324 111.76 92.5924 111.227 92.1924 110.52C91.8057 109.813 91.6124 108.96 91.6124 107.96V101.48H93.8724V107.62C93.8724 108.607 94.1191 109.367 94.6124 109.9C95.1057 110.42 95.7791 110.68 96.6324 110.68C97.4857 110.68 98.1591 110.42 98.6524 109.9C99.1591 109.367 99.4124 108.607 99.4124 107.62V101.48H101.692ZM103.941 106.98C103.941 105.847 104.167 104.853 104.621 104C105.087 103.133 105.727 102.467 106.541 102C107.354 101.533 108.287 101.3 109.341 101.3C110.674 101.3 111.774 101.62 112.641 102.26C113.521 102.887 114.114 103.787 114.421 104.96H111.961C111.761 104.413 111.441 103.987 111.001 103.68C110.561 103.373 110.007 103.22 109.341 103.22C108.407 103.22 107.661 103.553 107.101 104.22C106.554 104.873 106.281 105.793 106.281 106.98C106.281 108.167 106.554 109.093 107.101 109.76C107.661 110.427 108.407 110.76 109.341 110.76C110.661 110.76 111.534 110.18 111.961 109.02H114.421C114.101 110.14 113.501 111.033 112.621 111.7C111.741 112.353 110.647 112.68 109.341 112.68C108.287 112.68 107.354 112.447 106.541 111.98C105.727 111.5 105.087 110.833 104.621 109.98C104.167 109.113 103.941 108.113 103.941 106.98ZM119.353 103.34V109.44C119.353 109.853 119.446 110.153 119.633 110.34C119.833 110.513 120.166 110.6 120.633 110.6H122.033V112.5H120.233C119.206 112.5 118.42 112.26 117.873 111.78C117.326 111.3 117.053 110.52 117.053 109.44V103.34H115.753V101.48H117.053V98.74H119.353V101.48H122.033V103.34H119.353ZM131.61 110.66H136.31V112.5H129.33V98.6H131.61V110.66ZM137.456 106.94C137.456 105.833 137.683 104.853 138.136 104C138.603 103.147 139.23 102.487 140.016 102.02C140.816 101.54 141.696 101.3 142.656 101.3C143.523 101.3 144.276 101.473 144.916 101.82C145.57 102.153 146.09 102.573 146.476 103.08V101.48H148.776V112.5H146.476V110.86C146.09 111.38 145.563 111.813 144.896 112.16C144.23 112.507 143.47 112.68 142.616 112.68C141.67 112.68 140.803 112.44 140.016 111.96C139.23 111.467 138.603 110.787 138.136 109.92C137.683 109.04 137.456 108.047 137.456 106.94ZM146.476 106.98C146.476 106.22 146.316 105.56 145.996 105C145.69 104.44 145.283 104.013 144.776 103.72C144.27 103.427 143.723 103.28 143.136 103.28C142.55 103.28 142.003 103.427 141.496 103.72C140.99 104 140.576 104.42 140.256 104.98C139.95 105.527 139.796 106.18 139.796 106.94C139.796 107.7 139.95 108.367 140.256 108.94C140.576 109.513 140.99 109.953 141.496 110.26C142.016 110.553 142.563 110.7 143.136 110.7C143.723 110.7 144.27 110.553 144.776 110.26C145.283 109.967 145.69 109.54 145.996 108.98C146.316 108.407 146.476 107.74 146.476 106.98ZM161.751 101.48V112.5H159.471V111.2C159.111 111.653 158.638 112.013 158.051 112.28C157.478 112.533 156.864 112.66 156.211 112.66C155.344 112.66 154.564 112.48 153.871 112.12C153.191 111.76 152.651 111.227 152.251 110.52C151.864 109.813 151.671 108.96 151.671 107.96V101.48H153.931V107.62C153.931 108.607 154.178 109.367 154.671 109.9C155.164 110.42 155.838 110.68 156.691 110.68C157.544 110.68 158.218 110.42 158.711 109.9C159.218 109.367 159.471 108.607 159.471 107.62V101.48H161.751ZM170.319 101.3C171.186 101.3 171.959 101.48 172.639 101.84C173.333 102.2 173.873 102.733 174.259 103.44C174.646 104.147 174.839 105 174.839 106V112.5H172.579V106.34C172.579 105.353 172.333 104.6 171.839 104.08C171.346 103.547 170.673 103.28 169.819 103.28C168.966 103.28 168.286 103.547 167.779 104.08C167.286 104.6 167.039 105.353 167.039 106.34V112.5H164.759V101.48H167.039V102.74C167.413 102.287 167.886 101.933 168.459 101.68C169.046 101.427 169.666 101.3 170.319 101.3ZM176.988 106.98C176.988 105.847 177.214 104.853 177.668 104C178.134 103.133 178.774 102.467 179.588 102C180.401 101.533 181.334 101.3 182.388 101.3C183.721 101.3 184.821 101.62 185.688 102.26C186.568 102.887 187.161 103.787 187.468 104.96H185.008C184.808 104.413 184.488 103.987 184.048 103.68C183.608 103.373 183.054 103.22 182.388 103.22C181.454 103.22 180.708 103.553 180.148 104.22C179.601 104.873 179.328 105.793 179.328 106.98C179.328 108.167 179.601 109.093 180.148 109.76C180.708 110.427 181.454 110.76 182.388 110.76C183.708 110.76 184.581 110.18 185.008 109.02H187.468C187.148 110.14 186.548 111.033 185.668 111.7C184.788 112.353 183.694 112.68 182.388 112.68C181.334 112.68 180.401 112.447 179.588 111.98C178.774 111.5 178.134 110.833 177.668 109.98C177.214 109.113 176.988 108.113 176.988 106.98ZM195.44 101.3C196.28 101.3 197.026 101.48 197.68 101.84C198.346 102.2 198.866 102.733 199.24 103.44C199.626 104.147 199.82 105 199.82 106V112.5H197.56V106.34C197.56 105.353 197.313 104.6 196.82 104.08C196.326 103.547 195.653 103.28 194.8 103.28C193.946 103.28 193.266 103.547 192.76 104.08C192.266 104.6 192.02 105.353 192.02 106.34V112.5H189.74V97.7H192.02V102.76C192.406 102.293 192.893 101.933 193.48 101.68C194.08 101.427 194.733 101.3 195.44 101.3Z" fill="black"/>
<path d="M49.1015 156.612C48.3655 156.612 47.7042 156.484 47.1175 156.228C46.5415 155.961 46.0882 155.599 45.7575 155.14C45.4268 154.671 45.2562 154.132 45.2455 153.524H46.7975C46.8508 154.047 47.0642 154.489 47.4375 154.852C47.8215 155.204 48.3762 155.38 49.1015 155.38C49.7948 155.38 50.3388 155.209 50.7335 154.868C51.1388 154.516 51.3415 154.068 51.3415 153.524C51.3415 153.097 51.2242 152.751 50.9895 152.484C50.7548 152.217 50.4615 152.015 50.1095 151.876C49.7575 151.737 49.2828 151.588 48.6855 151.428C47.9495 151.236 47.3575 151.044 46.9095 150.852C46.4722 150.66 46.0935 150.361 45.7735 149.956C45.4642 149.54 45.3095 148.985 45.3095 148.292C45.3095 147.684 45.4642 147.145 45.7735 146.676C46.0828 146.207 46.5148 145.844 47.0695 145.588C47.6348 145.332 48.2802 145.204 49.0055 145.204C50.0508 145.204 50.9042 145.465 51.5655 145.988C52.2375 146.511 52.6162 147.204 52.7015 148.068H51.1015C51.0482 147.641 50.8242 147.268 50.4295 146.948C50.0348 146.617 49.5122 146.452 48.8615 146.452C48.2535 146.452 47.7575 146.612 47.3735 146.932C46.9895 147.241 46.7975 147.679 46.7975 148.244C46.7975 148.649 46.9095 148.98 47.1335 149.236C47.3682 149.492 47.6508 149.689 47.9815 149.828C48.3228 149.956 48.7975 150.105 49.4055 150.276C50.1415 150.479 50.7335 150.681 51.1815 150.884C51.6295 151.076 52.0135 151.38 52.3335 151.796C52.6535 152.201 52.8135 152.756 52.8135 153.46C52.8135 154.004 52.6695 154.516 52.3815 154.996C52.0935 155.476 51.6668 155.865 51.1015 156.164C50.5362 156.463 49.8695 156.612 49.1015 156.612ZM59.3081 147.572C59.9695 147.572 60.5668 147.716 61.1001 148.004C61.6335 148.281 62.0495 148.703 62.3481 149.268C62.6575 149.833 62.8121 150.521 62.8121 151.332V156.5H61.3721V151.54C61.3721 150.665 61.1535 149.999 60.7161 149.54C60.2788 149.071 59.6815 148.836 58.9241 148.836C58.1561 148.836 57.5428 149.076 57.0841 149.556C56.6361 150.036 56.4121 150.735 56.4121 151.652V156.5H54.9561V144.66H56.4121V148.98C56.7001 148.532 57.0948 148.185 57.5961 147.94C58.1081 147.695 58.6788 147.572 59.3081 147.572ZM64.6465 152.084C64.6465 151.188 64.8278 150.404 65.1905 149.732C65.5532 149.049 66.0492 148.521 66.6785 148.148C67.3185 147.775 68.0278 147.588 68.8065 147.588C69.5745 147.588 70.2412 147.753 70.8065 148.084C71.3718 148.415 71.7932 148.831 72.0705 149.332V147.732H73.5425V156.5H72.0705V154.868C71.7825 155.38 71.3505 155.807 70.7745 156.148C70.2092 156.479 69.5478 156.644 68.7905 156.644C68.0118 156.644 67.3078 156.452 66.6785 156.068C66.0492 155.684 65.5532 155.145 65.1905 154.452C64.8278 153.759 64.6465 152.969 64.6465 152.084ZM72.0705 152.1C72.0705 151.439 71.9372 150.863 71.6705 150.372C71.4038 149.881 71.0412 149.508 70.5825 149.252C70.1345 148.985 69.6385 148.852 69.0945 148.852C68.5505 148.852 68.0545 148.98 67.6065 149.236C67.1585 149.492 66.8012 149.865 66.5345 150.356C66.2678 150.847 66.1345 151.423 66.1345 152.084C66.1345 152.756 66.2678 153.343 66.5345 153.844C66.8012 154.335 67.1585 154.713 67.6065 154.98C68.0545 155.236 68.5505 155.364 69.0945 155.364C69.6385 155.364 70.1345 155.236 70.5825 154.98C71.0412 154.713 71.4038 154.335 71.6705 153.844C71.9372 153.343 72.0705 152.761 72.0705 152.1ZM77.459 149.156C77.715 148.655 78.0777 148.265 78.547 147.988C79.027 147.711 79.6083 147.572 80.291 147.572V149.076H79.907C78.275 149.076 77.459 149.961 77.459 151.732V156.5H76.003V147.732H77.459V149.156ZM89.9717 151.78C89.9717 152.057 89.9557 152.351 89.9237 152.66H82.9157C82.9691 153.524 83.2624 154.201 83.7957 154.692C84.3397 155.172 84.9957 155.412 85.7637 155.412C86.3931 155.412 86.9157 155.268 87.3317 154.98C87.7584 154.681 88.0571 154.287 88.2277 153.796H89.7957C89.5611 154.639 89.0917 155.327 88.3877 155.86C87.6837 156.383 86.8091 156.644 85.7637 156.644C84.9317 156.644 84.1851 156.457 83.5237 156.084C82.8731 155.711 82.3611 155.183 81.9877 154.5C81.6144 153.807 81.4277 153.007 81.4277 152.1C81.4277 151.193 81.6091 150.399 81.9717 149.716C82.3344 149.033 82.8411 148.511 83.4917 148.148C84.1531 147.775 84.9104 147.588 85.7637 147.588C86.5957 147.588 87.3317 147.769 87.9717 148.132C88.6117 148.495 89.1024 148.996 89.4437 149.636C89.7957 150.265 89.9717 150.98 89.9717 151.78ZM88.4677 151.476C88.4677 150.921 88.3451 150.447 88.0997 150.052C87.8544 149.647 87.5184 149.343 87.0917 149.14C86.6757 148.927 86.2117 148.82 85.6997 148.82C84.9637 148.82 84.3344 149.055 83.8117 149.524C83.2997 149.993 83.0064 150.644 82.9317 151.476H88.4677ZM97.9352 148.932V154.1C97.9352 154.527 98.0259 154.831 98.2072 155.012C98.3886 155.183 98.7032 155.268 99.1512 155.268H100.223V156.5H98.9112C98.1006 156.5 97.4926 156.313 97.0872 155.94C96.6819 155.567 96.4792 154.953 96.4792 154.1V148.932H95.3432V147.732H96.4792V145.524H97.9352V147.732H100.223V148.932H97.9352ZM106.339 147.572C107.001 147.572 107.598 147.716 108.131 148.004C108.665 148.281 109.081 148.703 109.379 149.268C109.689 149.833 109.843 150.521 109.843 151.332V156.5H108.403V151.54C108.403 150.665 108.185 149.999 107.747 149.54C107.31 149.071 106.713 148.836 105.955 148.836C105.187 148.836 104.574 149.076 104.115 149.556C103.667 150.036 103.443 150.735 103.443 151.652V156.5H101.987V144.66H103.443V148.98C103.731 148.532 104.126 148.185 104.627 147.94C105.139 147.695 105.71 147.572 106.339 147.572ZM120.222 151.78C120.222 152.057 120.206 152.351 120.174 152.66H113.166C113.219 153.524 113.512 154.201 114.046 154.692C114.59 155.172 115.246 155.412 116.014 155.412C116.643 155.412 117.166 155.268 117.582 154.98C118.008 154.681 118.307 154.287 118.478 153.796H120.046C119.811 154.639 119.342 155.327 118.638 155.86C117.934 156.383 117.059 156.644 116.014 156.644C115.182 156.644 114.435 156.457 113.774 156.084C113.123 155.711 112.611 155.183 112.238 154.5C111.864 153.807 111.678 153.007 111.678 152.1C111.678 151.193 111.859 150.399 112.222 149.716C112.584 149.033 113.091 148.511 113.742 148.148C114.403 147.775 115.16 147.588 116.014 147.588C116.846 147.588 117.582 147.769 118.222 148.132C118.862 148.495 119.352 148.996 119.694 149.636C120.046 150.265 120.222 150.98 120.222 151.78ZM118.718 151.476C118.718 150.921 118.595 150.447 118.35 150.052C118.104 149.647 117.768 149.343 117.342 149.14C116.926 148.927 116.462 148.82 115.95 148.82C115.214 148.82 114.584 149.055 114.062 149.524C113.55 149.993 113.256 150.644 113.182 151.476H118.718ZM127.865 149.348C128.153 148.847 128.58 148.431 129.145 148.1C129.721 147.759 130.388 147.588 131.145 147.588C131.924 147.588 132.628 147.775 133.257 148.148C133.897 148.521 134.399 149.049 134.761 149.732C135.124 150.404 135.305 151.188 135.305 152.084C135.305 152.969 135.124 153.759 134.761 154.452C134.399 155.145 133.897 155.684 133.257 156.068C132.628 156.452 131.924 156.644 131.145 156.644C130.399 156.644 129.737 156.479 129.161 156.148C128.596 155.807 128.164 155.385 127.865 154.884V160.66H126.409V147.732H127.865V149.348ZM133.817 152.084C133.817 151.423 133.684 150.847 133.417 150.356C133.151 149.865 132.788 149.492 132.329 149.236C131.881 148.98 131.385 148.852 130.841 148.852C130.308 148.852 129.812 148.985 129.353 149.252C128.905 149.508 128.543 149.887 128.265 150.388C127.999 150.879 127.865 151.449 127.865 152.1C127.865 152.761 127.999 153.343 128.265 153.844C128.543 154.335 128.905 154.713 129.353 154.98C129.812 155.236 130.308 155.364 130.841 155.364C131.385 155.364 131.881 155.236 132.329 154.98C132.788 154.713 133.151 154.335 133.417 153.844C133.684 153.343 133.817 152.756 133.817 152.084ZM138.678 149.156C138.934 148.655 139.296 148.265 139.766 147.988C140.246 147.711 140.827 147.572 141.51 147.572V149.076H141.126C139.494 149.076 138.678 149.961 138.678 151.732V156.5H137.222V147.732H138.678V149.156ZM147.014 156.644C146.193 156.644 145.446 156.457 144.774 156.084C144.113 155.711 143.59 155.183 143.206 154.5C142.833 153.807 142.646 153.007 142.646 152.1C142.646 151.204 142.838 150.415 143.222 149.732C143.617 149.039 144.15 148.511 144.822 148.148C145.494 147.775 146.246 147.588 147.078 147.588C147.91 147.588 148.662 147.775 149.334 148.148C150.006 148.511 150.534 149.033 150.918 149.716C151.313 150.399 151.51 151.193 151.51 152.1C151.51 153.007 151.308 153.807 150.902 154.5C150.508 155.183 149.969 155.711 149.286 156.084C148.604 156.457 147.846 156.644 147.014 156.644ZM147.014 155.364C147.537 155.364 148.028 155.241 148.486 154.996C148.945 154.751 149.313 154.383 149.59 153.892C149.878 153.401 150.022 152.804 150.022 152.1C150.022 151.396 149.884 150.799 149.606 150.308C149.329 149.817 148.966 149.455 148.518 149.22C148.07 148.975 147.585 148.852 147.062 148.852C146.529 148.852 146.038 148.975 145.59 149.22C145.153 149.455 144.801 149.817 144.534 150.308C144.268 150.799 144.134 151.396 144.134 152.1C144.134 152.815 144.262 153.417 144.518 153.908C144.785 154.399 145.137 154.767 145.574 155.012C146.012 155.247 146.492 155.364 147.014 155.364ZM152.881 152.084C152.881 151.188 153.062 150.404 153.425 149.732C153.788 149.049 154.284 148.521 154.913 148.148C155.553 147.775 156.268 147.588 157.057 147.588C157.74 147.588 158.374 147.748 158.961 148.068C159.548 148.377 159.996 148.788 160.305 149.3V144.66H161.777V156.5H160.305V154.852C160.017 155.375 159.59 155.807 159.025 156.148C158.46 156.479 157.798 156.644 157.041 156.644C156.262 156.644 155.553 156.452 154.913 156.068C154.284 155.684 153.788 155.145 153.425 154.452C153.062 153.759 152.881 152.969 152.881 152.084ZM160.305 152.1C160.305 151.439 160.172 150.863 159.905 150.372C159.638 149.881 159.276 149.508 158.817 149.252C158.369 148.985 157.873 148.852 157.329 148.852C156.785 148.852 156.289 148.98 155.841 149.236C155.393 149.492 155.036 149.865 154.769 150.356C154.502 150.847 154.369 151.423 154.369 152.084C154.369 152.756 154.502 153.343 154.769 153.844C155.036 154.335 155.393 154.713 155.841 154.98C156.289 155.236 156.785 155.364 157.329 155.364C157.873 155.364 158.369 155.236 158.817 154.98C159.276 154.713 159.638 154.335 159.905 153.844C160.172 153.343 160.305 152.761 160.305 152.1ZM172.013 147.732V156.5H170.557V155.204C170.28 155.652 169.891 156.004 169.389 156.26C168.899 156.505 168.355 156.628 167.757 156.628C167.075 156.628 166.461 156.489 165.917 156.212C165.373 155.924 164.941 155.497 164.621 154.932C164.312 154.367 164.157 153.679 164.157 152.868V147.732H165.597V152.676C165.597 153.54 165.816 154.207 166.253 154.676C166.691 155.135 167.288 155.364 168.045 155.364C168.824 155.364 169.437 155.124 169.885 154.644C170.333 154.164 170.557 153.465 170.557 152.548V147.732H172.013ZM173.928 152.1C173.928 151.193 174.109 150.404 174.472 149.732C174.834 149.049 175.336 148.521 175.976 148.148C176.626 147.775 177.368 147.588 178.2 147.588C179.277 147.588 180.162 147.849 180.856 148.372C181.56 148.895 182.024 149.62 182.248 150.548H180.68C180.53 150.015 180.237 149.593 179.8 149.284C179.373 148.975 178.84 148.82 178.2 148.82C177.368 148.82 176.696 149.108 176.184 149.684C175.672 150.249 175.416 151.055 175.416 152.1C175.416 153.156 175.672 153.972 176.184 154.548C176.696 155.124 177.368 155.412 178.2 155.412C178.84 155.412 179.373 155.263 179.8 154.964C180.226 154.665 180.52 154.239 180.68 153.684H182.248C182.013 154.58 181.544 155.3 180.84 155.844C180.136 156.377 179.256 156.644 178.2 156.644C177.368 156.644 176.626 156.457 175.976 156.084C175.336 155.711 174.834 155.183 174.472 154.5C174.109 153.817 173.928 153.017 173.928 152.1ZM185.966 148.932V154.1C185.966 154.527 186.057 154.831 186.238 155.012C186.42 155.183 186.734 155.268 187.182 155.268H188.254V156.5H186.942C186.132 156.5 185.524 156.313 185.118 155.94C184.713 155.567 184.51 154.953 184.51 154.1V148.932H183.374V147.732H184.51V145.524H185.966V147.732H188.254V148.932H185.966ZM201.836 147.732L196.556 160.628H195.052L196.78 156.404L193.244 147.732H194.86L197.612 154.836L200.332 147.732H201.836ZM207.124 156.644C206.303 156.644 205.556 156.457 204.884 156.084C204.223 155.711 203.7 155.183 203.316 154.5C202.943 153.807 202.756 153.007 202.756 152.1C202.756 151.204 202.948 150.415 203.332 149.732C203.727 149.039 204.26 148.511 204.932 148.148C205.604 147.775 206.356 147.588 207.188 147.588C208.02 147.588 208.772 147.775 209.444 148.148C210.116 148.511 210.644 149.033 211.028 149.716C211.423 150.399 211.62 151.193 211.62 152.1C211.62 153.007 211.417 153.807 211.012 154.5C210.617 155.183 210.079 155.711 209.396 156.084C208.713 156.457 207.956 156.644 207.124 156.644ZM207.124 155.364C207.647 155.364 208.137 155.241 208.596 154.996C209.055 154.751 209.423 154.383 209.7 153.892C209.988 153.401 210.132 152.804 210.132 152.1C210.132 151.396 209.993 150.799 209.716 150.308C209.439 149.817 209.076 149.455 208.628 149.22C208.18 148.975 207.695 148.852 207.172 148.852C206.639 148.852 206.148 148.975 205.7 149.22C205.263 149.455 204.911 149.817 204.644 150.308C204.377 150.799 204.244 151.396 204.244 152.1C204.244 152.815 204.372 153.417 204.628 153.908C204.895 154.399 205.247 154.767 205.684 155.012C206.121 155.247 206.601 155.364 207.124 155.364ZM221.31 147.732V156.5H219.854V155.204C219.577 155.652 219.188 156.004 218.686 156.26C218.196 156.505 217.652 156.628 217.054 156.628C216.372 156.628 215.758 156.489 215.214 156.212C214.67 155.924 214.238 155.497 213.918 154.932C213.609 154.367 213.454 153.679 213.454 152.868V147.732H214.894V152.676C214.894 153.54 215.113 154.207 215.55 154.676C215.988 155.135 216.585 155.364 217.342 155.364C218.121 155.364 218.734 155.124 219.182 154.644C219.63 154.164 219.854 153.465 219.854 152.548V147.732H221.31ZM223.993 145.348H225.609L224.073 148.98H223.049L223.993 145.348ZM228.725 149.156C228.981 148.655 229.343 148.265 229.813 147.988C230.293 147.711 230.874 147.572 231.557 147.572V149.076H231.173C229.541 149.076 228.725 149.961 228.725 151.732V156.5H227.269V147.732H228.725V149.156ZM241.237 151.78C241.237 152.057 241.221 152.351 241.189 152.66H234.181C234.235 153.524 234.528 154.201 235.061 154.692C235.605 155.172 236.261 155.412 237.029 155.412C237.659 155.412 238.181 155.268 238.597 154.98C239.024 154.681 239.323 154.287 239.493 153.796H241.061C240.827 154.639 240.357 155.327 239.653 155.86C238.949 156.383 238.075 156.644 237.029 156.644C236.197 156.644 235.451 156.457 234.789 156.084C234.139 155.711 233.627 155.183 233.253 154.5C232.88 153.807 232.693 153.007 232.693 152.1C232.693 151.193 232.875 150.399 233.237 149.716C233.6 149.033 234.107 148.511 234.757 148.148C235.419 147.775 236.176 147.588 237.029 147.588C237.861 147.588 238.597 147.769 239.237 148.132C239.877 148.495 240.368 148.996 240.709 149.636C241.061 150.265 241.237 150.98 241.237 151.78ZM239.733 151.476C239.733 150.921 239.611 150.447 239.365 150.052C239.12 149.647 238.784 149.343 238.357 149.14C237.941 148.927 237.477 148.82 236.965 148.82C236.229 148.82 235.6 149.055 235.077 149.524C234.565 149.993 234.272 150.644 234.197 151.476H239.733ZM47.0215 173.348C47.3095 172.847 47.7362 172.431 48.3015 172.1C48.8775 171.759 49.5442 171.588 50.3015 171.588C51.0802 171.588 51.7842 171.775 52.4135 172.148C53.0535 172.521 53.5548 173.049 53.9175 173.732C54.2802 174.404 54.4615 175.188 54.4615 176.084C54.4615 176.969 54.2802 177.759 53.9175 178.452C53.5548 179.145 53.0535 179.684 52.4135 180.068C51.7842 180.452 51.0802 180.644 50.3015 180.644C49.5548 180.644 48.8935 180.479 48.3175 180.148C47.7522 179.807 47.3202 179.385 47.0215 178.884V184.66H45.5655V171.732H47.0215V173.348ZM52.9735 176.084C52.9735 175.423 52.8402 174.847 52.5735 174.356C52.3068 173.865 51.9442 173.492 51.4855 173.236C51.0375 172.98 50.5415 172.852 49.9975 172.852C49.4642 172.852 48.9682 172.985 48.5095 173.252C48.0615 173.508 47.6988 173.887 47.4215 174.388C47.1548 174.879 47.0215 175.449 47.0215 176.1C47.0215 176.761 47.1548 177.343 47.4215 177.844C47.6988 178.335 48.0615 178.713 48.5095 178.98C48.9682 179.236 49.4642 179.364 49.9975 179.364C50.5415 179.364 51.0375 179.236 51.4855 178.98C51.9442 178.713 52.3068 178.335 52.5735 177.844C52.8402 177.343 52.9735 176.756 52.9735 176.084ZM57.834 168.66V180.5H56.378V168.66H57.834ZM59.7715 176.084C59.7715 175.188 59.9528 174.404 60.3155 173.732C60.6782 173.049 61.1742 172.521 61.8035 172.148C62.4435 171.775 63.1528 171.588 63.9315 171.588C64.6995 171.588 65.3662 171.753 65.9315 172.084C66.4968 172.415 66.9182 172.831 67.1955 173.332V171.732H68.6675V180.5H67.1955V178.868C66.9075 179.38 66.4755 179.807 65.8995 180.148C65.3342 180.479 64.6728 180.644 63.9155 180.644C63.1368 180.644 62.4328 180.452 61.8035 180.068C61.1742 179.684 60.6782 179.145 60.3155 178.452C59.9528 177.759 59.7715 176.969 59.7715 176.084ZM67.1955 176.1C67.1955 175.439 67.0622 174.863 66.7955 174.372C66.5288 173.881 66.1662 173.508 65.7075 173.252C65.2595 172.985 64.7635 172.852 64.2195 172.852C63.6755 172.852 63.1795 172.98 62.7315 173.236C62.2835 173.492 61.9262 173.865 61.6595 174.356C61.3928 174.847 61.2595 175.423 61.2595 176.084C61.2595 176.756 61.3928 177.343 61.6595 177.844C61.9262 178.335 62.2835 178.713 62.7315 178.98C63.1795 179.236 63.6755 179.364 64.2195 179.364C64.7635 179.364 65.2595 179.236 65.7075 178.98C66.1662 178.713 66.5288 178.335 66.7955 177.844C67.0622 177.343 67.1955 176.761 67.1955 176.1ZM75.4 171.572C76.4667 171.572 77.3307 171.897 77.992 172.548C78.6533 173.188 78.984 174.116 78.984 175.332V180.5H77.544V175.54C77.544 174.665 77.3253 173.999 76.888 173.54C76.4507 173.071 75.8533 172.836 75.096 172.836C74.328 172.836 73.7147 173.076 73.256 173.556C72.808 174.036 72.584 174.735 72.584 175.652V180.5H71.128V171.732H72.584V172.98C72.872 172.532 73.2613 172.185 73.752 171.94C74.2533 171.695 74.8027 171.572 75.4 171.572ZM85.6344 171.572C86.701 171.572 87.565 171.897 88.2264 172.548C88.8877 173.188 89.2184 174.116 89.2184 175.332V180.5H87.7784V175.54C87.7784 174.665 87.5597 173.999 87.1224 173.54C86.685 173.071 86.0877 172.836 85.3304 172.836C84.5624 172.836 83.949 173.076 83.4904 173.556C83.0424 174.036 82.8184 174.735 82.8184 175.652V180.5H81.3624V171.732H82.8184V172.98C83.1064 172.532 83.4957 172.185 83.9864 171.94C84.4877 171.695 85.037 171.572 85.6344 171.572ZM92.3487 170.308C92.0714 170.308 91.8367 170.212 91.6447 170.02C91.4527 169.828 91.3567 169.593 91.3567 169.316C91.3567 169.039 91.4527 168.804 91.6447 168.612C91.8367 168.42 92.0714 168.324 92.3487 168.324C92.6154 168.324 92.8394 168.42 93.0207 168.612C93.2127 168.804 93.3087 169.039 93.3087 169.316C93.3087 169.593 93.2127 169.828 93.0207 170.02C92.8394 170.212 92.6154 170.308 92.3487 170.308ZM93.0527 171.732V180.5H91.5967V171.732H93.0527ZM99.8062 171.572C100.873 171.572 101.737 171.897 102.398 172.548C103.06 173.188 103.39 174.116 103.39 175.332V180.5H101.95V175.54C101.95 174.665 101.732 173.999 101.294 173.54C100.857 173.071 100.26 172.836 99.5022 172.836C98.7342 172.836 98.1209 173.076 97.6622 173.556C97.2142 174.036 96.9902 174.735 96.9902 175.652V180.5H95.5342V171.732H96.9902V172.98C97.2782 172.532 97.6676 172.185 98.1582 171.94C98.6596 171.695 99.2089 171.572 99.8062 171.572ZM109.385 171.588C110.142 171.588 110.803 171.753 111.369 172.084C111.945 172.415 112.371 172.831 112.649 173.332V171.732H114.121V180.692C114.121 181.492 113.95 182.201 113.609 182.82C113.267 183.449 112.777 183.94 112.137 184.292C111.507 184.644 110.771 184.82 109.929 184.82C108.777 184.82 107.817 184.548 107.049 184.004C106.281 183.46 105.827 182.719 105.689 181.78H107.129C107.289 182.313 107.619 182.74 108.121 183.06C108.622 183.391 109.225 183.556 109.929 183.556C110.729 183.556 111.379 183.305 111.881 182.804C112.393 182.303 112.649 181.599 112.649 180.692V178.852C112.361 179.364 111.934 179.791 111.369 180.132C110.803 180.473 110.142 180.644 109.385 180.644C108.606 180.644 107.897 180.452 107.257 180.068C106.627 179.684 106.131 179.145 105.769 178.452C105.406 177.759 105.225 176.969 105.225 176.084C105.225 175.188 105.406 174.404 105.769 173.732C106.131 173.049 106.627 172.521 107.257 172.148C107.897 171.775 108.606 171.588 109.385 171.588ZM112.649 176.1C112.649 175.439 112.515 174.863 112.249 174.372C111.982 173.881 111.619 173.508 111.161 173.252C110.713 172.985 110.217 172.852 109.673 172.852C109.129 172.852 108.633 172.98 108.185 173.236C107.737 173.492 107.379 173.865 107.113 174.356C106.846 174.847 106.713 175.423 106.713 176.084C106.713 176.756 106.846 177.343 107.113 177.844C107.379 178.335 107.737 178.713 108.185 178.98C108.633 179.236 109.129 179.364 109.673 179.364C110.217 179.364 110.713 179.236 111.161 178.98C111.619 178.713 111.982 178.335 112.249 177.844C112.515 177.343 112.649 176.761 112.649 176.1ZM122.623 172.932V178.1C122.623 178.527 122.713 178.831 122.895 179.012C123.076 179.183 123.391 179.268 123.839 179.268H124.911V180.5H123.599C122.788 180.5 122.18 180.313 121.775 179.94C121.369 179.567 121.167 178.953 121.167 178.1V172.932H120.031V171.732H121.167V169.524H122.623V171.732H124.911V172.932H122.623ZM130.499 180.644C129.678 180.644 128.931 180.457 128.259 180.084C127.598 179.711 127.075 179.183 126.691 178.5C126.318 177.807 126.131 177.007 126.131 176.1C126.131 175.204 126.323 174.415 126.707 173.732C127.102 173.039 127.635 172.511 128.307 172.148C128.979 171.775 129.731 171.588 130.563 171.588C131.395 171.588 132.147 171.775 132.819 172.148C133.491 172.511 134.019 173.033 134.403 173.716C134.798 174.399 134.995 175.193 134.995 176.1C134.995 177.007 134.792 177.807 134.387 178.5C133.992 179.183 133.454 179.711 132.771 180.084C132.088 180.457 131.331 180.644 130.499 180.644ZM130.499 179.364C131.022 179.364 131.512 179.241 131.971 178.996C132.43 178.751 132.798 178.383 133.075 177.892C133.363 177.401 133.507 176.804 133.507 176.1C133.507 175.396 133.368 174.799 133.091 174.308C132.814 173.817 132.451 173.455 132.003 173.22C131.555 172.975 131.07 172.852 130.547 172.852C130.014 172.852 129.523 172.975 129.075 173.22C128.638 173.455 128.286 173.817 128.019 174.308C127.752 174.799 127.619 175.396 127.619 176.1C127.619 176.815 127.747 177.417 128.003 177.908C128.27 178.399 128.622 178.767 129.059 179.012C129.496 179.247 129.976 179.364 130.499 179.364ZM142.631 168.66V180.5H141.175V168.66H142.631ZM144.568 176.084C144.568 175.188 144.75 174.404 145.112 173.732C145.475 173.049 145.971 172.521 146.6 172.148C147.24 171.775 147.95 171.588 148.728 171.588C149.496 171.588 150.163 171.753 150.728 172.084C151.294 172.415 151.715 172.831 151.992 173.332V171.732H153.464V180.5H151.992V178.868C151.704 179.38 151.272 179.807 150.696 180.148C150.131 180.479 149.47 180.644 148.712 180.644C147.934 180.644 147.23 180.452 146.6 180.068C145.971 179.684 145.475 179.145 145.112 178.452C144.75 177.759 144.568 176.969 144.568 176.084ZM151.992 176.1C151.992 175.439 151.859 174.863 151.592 174.372C151.326 173.881 150.963 173.508 150.504 173.252C150.056 172.985 149.56 172.852 149.016 172.852C148.472 172.852 147.976 172.98 147.528 173.236C147.08 173.492 146.723 173.865 146.456 174.356C146.19 174.847 146.056 175.423 146.056 176.084C146.056 176.756 146.19 177.343 146.456 177.844C146.723 178.335 147.08 178.713 147.528 178.98C147.976 179.236 148.472 179.364 149.016 179.364C149.56 179.364 150.056 179.236 150.504 178.98C150.963 178.713 151.326 178.335 151.592 177.844C151.859 177.343 151.992 176.761 151.992 176.1ZM163.701 171.732V180.5H162.245V179.204C161.968 179.652 161.578 180.004 161.077 180.26C160.586 180.505 160.042 180.628 159.445 180.628C158.762 180.628 158.149 180.489 157.605 180.212C157.061 179.924 156.629 179.497 156.309 178.932C156 178.367 155.845 177.679 155.845 176.868V171.732H157.285V176.676C157.285 177.54 157.504 178.207 157.941 178.676C158.378 179.135 158.976 179.364 159.733 179.364C160.512 179.364 161.125 179.124 161.573 178.644C162.021 178.164 162.245 177.465 162.245 176.548V171.732H163.701ZM170.431 171.572C171.498 171.572 172.362 171.897 173.023 172.548C173.685 173.188 174.015 174.116 174.015 175.332V180.5H172.575V175.54C172.575 174.665 172.357 173.999 171.919 173.54C171.482 173.071 170.885 172.836 170.127 172.836C169.359 172.836 168.746 173.076 168.287 173.556C167.839 174.036 167.615 174.735 167.615 175.652V180.5H166.159V171.732H167.615V172.98C167.903 172.532 168.293 172.185 168.783 171.94C169.285 171.695 169.834 171.572 170.431 171.572ZM175.85 176.1C175.85 175.193 176.031 174.404 176.394 173.732C176.756 173.049 177.258 172.521 177.898 172.148C178.548 171.775 179.29 171.588 180.122 171.588C181.199 171.588 182.084 171.849 182.778 172.372C183.482 172.895 183.946 173.62 184.17 174.548H182.602C182.452 174.015 182.159 173.593 181.722 173.284C181.295 172.975 180.762 172.82 180.122 172.82C179.29 172.82 178.618 173.108 178.106 173.684C177.594 174.249 177.338 175.055 177.338 176.1C177.338 177.156 177.594 177.972 178.106 178.548C178.618 179.124 179.29 179.412 180.122 179.412C180.762 179.412 181.295 179.263 181.722 178.964C182.148 178.665 182.442 178.239 182.602 177.684H184.17C183.935 178.58 183.466 179.3 182.762 179.844C182.058 180.377 181.178 180.644 180.122 180.644C179.29 180.644 178.548 180.457 177.898 180.084C177.258 179.711 176.756 179.183 176.394 178.5C176.031 177.817 175.85 177.017 175.85 176.1ZM190.464 171.572C191.126 171.572 191.723 171.716 192.256 172.004C192.79 172.281 193.206 172.703 193.504 173.268C193.814 173.833 193.968 174.521 193.968 175.332V180.5H192.528V175.54C192.528 174.665 192.31 173.999 191.872 173.54C191.435 173.071 190.838 172.836 190.08 172.836C189.312 172.836 188.699 173.076 188.24 173.556C187.792 174.036 187.568 174.735 187.568 175.652V180.5H186.112V168.66H187.568V172.98C187.856 172.532 188.251 172.185 188.752 171.94C189.264 171.695 189.835 171.572 190.464 171.572ZM197.851 178.484L196.059 182.788H195.083L196.251 178.484H197.851ZM211.336 171.732L206.056 184.628H204.552L206.28 180.404L202.744 171.732H204.36L207.112 178.836L209.832 171.732H211.336ZM216.624 180.644C215.803 180.644 215.056 180.457 214.384 180.084C213.723 179.711 213.2 179.183 212.816 178.5C212.443 177.807 212.256 177.007 212.256 176.1C212.256 175.204 212.448 174.415 212.832 173.732C213.227 173.039 213.76 172.511 214.432 172.148C215.104 171.775 215.856 171.588 216.688 171.588C217.52 171.588 218.272 171.775 218.944 172.148C219.616 172.511 220.144 173.033 220.528 173.716C220.923 174.399 221.12 175.193 221.12 176.1C221.12 177.007 220.917 177.807 220.512 178.5C220.117 179.183 219.579 179.711 218.896 180.084C218.213 180.457 217.456 180.644 216.624 180.644ZM216.624 179.364C217.147 179.364 217.637 179.241 218.096 178.996C218.555 178.751 218.923 178.383 219.2 177.892C219.488 177.401 219.632 176.804 219.632 176.1C219.632 175.396 219.493 174.799 219.216 174.308C218.939 173.817 218.576 173.455 218.128 173.22C217.68 172.975 217.195 172.852 216.672 172.852C216.139 172.852 215.648 172.975 215.2 173.22C214.763 173.455 214.411 173.817 214.144 174.308C213.877 174.799 213.744 175.396 213.744 176.1C213.744 176.815 213.872 177.417 214.128 177.908C214.395 178.399 214.747 178.767 215.184 179.012C215.621 179.247 216.101 179.364 216.624 179.364ZM230.81 171.732V180.5H229.354V179.204C229.077 179.652 228.688 180.004 228.186 180.26C227.696 180.505 227.152 180.628 226.554 180.628C225.872 180.628 225.258 180.489 224.714 180.212C224.17 179.924 223.738 179.497 223.418 178.932C223.109 178.367 222.954 177.679 222.954 176.868V171.732H224.394V176.676C224.394 177.54 224.613 178.207 225.05 178.676C225.488 179.135 226.085 179.364 226.842 179.364C227.621 179.364 228.234 179.124 228.682 178.644C229.13 178.164 229.354 177.465 229.354 176.548V171.732H230.81ZM234.725 173.156C234.981 172.655 235.343 172.265 235.813 171.988C236.293 171.711 236.874 171.572 237.557 171.572V173.076H237.173C235.541 173.076 234.725 173.961 234.725 175.732V180.5H233.269V171.732H234.725V173.156ZM56.1095 195.572C56.7922 195.572 57.4002 195.716 57.9335 196.004C58.4668 196.281 58.8882 196.703 59.1975 197.268C59.5068 197.833 59.6615 198.521 59.6615 199.332V204.5H58.2215V199.54C58.2215 198.665 58.0028 197.999 57.5655 197.54C57.1388 197.071 56.5575 196.836 55.8215 196.836C55.0642 196.836 54.4615 197.081 54.0135 197.572C53.5655 198.052 53.3415 198.751 53.3415 199.668V204.5H51.9015V199.54C51.9015 198.665 51.6828 197.999 51.2455 197.54C50.8188 197.071 50.2375 196.836 49.5015 196.836C48.7442 196.836 48.1415 197.081 47.6935 197.572C47.2455 198.052 47.0215 198.751 47.0215 199.668V204.5H45.5655V195.732H47.0215V196.996C47.3095 196.537 47.6935 196.185 48.1735 195.94C48.6642 195.695 49.2028 195.572 49.7895 195.572C50.5255 195.572 51.1762 195.737 51.7415 196.068C52.3068 196.399 52.7282 196.884 53.0055 197.524C53.2508 196.905 53.6562 196.425 54.2215 196.084C54.7868 195.743 55.4162 195.572 56.1095 195.572ZM61.5059 200.084C61.5059 199.188 61.6872 198.404 62.0499 197.732C62.4125 197.049 62.9085 196.521 63.5379 196.148C64.1779 195.775 64.8872 195.588 65.6659 195.588C66.4339 195.588 67.1005 195.753 67.6659 196.084C68.2312 196.415 68.6525 196.831 68.9299 197.332V195.732H70.4019V204.5H68.9299V202.868C68.6419 203.38 68.2099 203.807 67.6339 204.148C67.0685 204.479 66.4072 204.644 65.6499 204.644C64.8712 204.644 64.1672 204.452 63.5379 204.068C62.9085 203.684 62.4125 203.145 62.0499 202.452C61.6872 201.759 61.5059 200.969 61.5059 200.084ZM68.9299 200.1C68.9299 199.439 68.7965 198.863 68.5299 198.372C68.2632 197.881 67.9005 197.508 67.4419 197.252C66.9939 196.985 66.4979 196.852 65.9539 196.852C65.4099 196.852 64.9139 196.98 64.4659 197.236C64.0179 197.492 63.6605 197.865 63.3939 198.356C63.1272 198.847 62.9939 199.423 62.9939 200.084C62.9939 200.756 63.1272 201.343 63.3939 201.844C63.6605 202.335 64.0179 202.713 64.4659 202.98C64.9139 203.236 65.4099 203.364 65.9539 203.364C66.4979 203.364 66.9939 203.236 67.4419 202.98C67.9005 202.713 68.2632 202.335 68.5299 201.844C68.7965 201.343 68.9299 200.761 68.9299 200.1ZM73.6144 194.308C73.337 194.308 73.1024 194.212 72.9104 194.02C72.7184 193.828 72.6224 193.593 72.6224 193.316C72.6224 193.039 72.7184 192.804 72.9104 192.612C73.1024 192.42 73.337 192.324 73.6144 192.324C73.881 192.324 74.105 192.42 74.2864 192.612C74.4784 192.804 74.5744 193.039 74.5744 193.316C74.5744 193.593 74.4784 193.828 74.2864 194.02C74.105 194.212 73.881 194.308 73.6144 194.308ZM74.3184 195.732V204.5H72.8624V195.732H74.3184ZM81.0719 195.572C82.1385 195.572 83.0025 195.897 83.6639 196.548C84.3252 197.188 84.6559 198.116 84.6559 199.332V204.5H83.2159V199.54C83.2159 198.665 82.9972 197.999 82.5599 197.54C82.1225 197.071 81.5252 196.836 80.7679 196.836C79.9999 196.836 79.3865 197.076 78.9279 197.556C78.4799 198.036 78.2559 198.735 78.2559 199.652V204.5H76.7999V195.732H78.2559V196.98C78.5439 196.532 78.9332 196.185 79.4239 195.94C79.9252 195.695 80.4745 195.572 81.0719 195.572ZM94.9159 195.588C95.6732 195.588 96.3345 195.753 96.8999 196.084C97.4759 196.415 97.9025 196.831 98.1799 197.332V195.732H99.6519V204.692C99.6519 205.492 99.4812 206.201 99.1399 206.82C98.7985 207.449 98.3079 207.94 97.6679 208.292C97.0385 208.644 96.3025 208.82 95.4599 208.82C94.3079 208.82 93.3479 208.548 92.5799 208.004C91.8119 207.46 91.3585 206.719 91.2199 205.78H92.6599C92.8199 206.313 93.1505 206.74 93.6519 207.06C94.1532 207.391 94.7559 207.556 95.4599 207.556C96.2599 207.556 96.9105 207.305 97.4119 206.804C97.9239 206.303 98.1799 205.599 98.1799 204.692V202.852C97.8919 203.364 97.4652 203.791 96.8999 204.132C96.3345 204.473 95.6732 204.644 94.9159 204.644C94.1372 204.644 93.4279 204.452 92.7879 204.068C92.1585 203.684 91.6625 203.145 91.2999 202.452C90.9372 201.759 90.7559 200.969 90.7559 200.084C90.7559 199.188 90.9372 198.404 91.2999 197.732C91.6625 197.049 92.1585 196.521 92.7879 196.148C93.4279 195.775 94.1372 195.588 94.9159 195.588ZM98.1799 200.1C98.1799 199.439 98.0465 198.863 97.7799 198.372C97.5132 197.881 97.1505 197.508 96.6919 197.252C96.2439 196.985 95.7479 196.852 95.2039 196.852C94.6599 196.852 94.1639 196.98 93.7159 197.236C93.2679 197.492 92.9105 197.865 92.6439 198.356C92.3772 198.847 92.2439 199.423 92.2439 200.084C92.2439 200.756 92.3772 201.343 92.6439 201.844C92.9105 202.335 93.2679 202.713 93.7159 202.98C94.1639 203.236 94.6599 203.364 95.2039 203.364C95.7479 203.364 96.2439 203.236 96.6919 202.98C97.1505 202.713 97.5132 202.335 97.7799 201.844C98.0465 201.343 98.1799 200.761 98.1799 200.1ZM105.936 204.644C105.115 204.644 104.368 204.457 103.696 204.084C103.035 203.711 102.512 203.183 102.128 202.5C101.755 201.807 101.568 201.007 101.568 200.1C101.568 199.204 101.76 198.415 102.144 197.732C102.539 197.039 103.072 196.511 103.744 196.148C104.416 195.775 105.168 195.588 106 195.588C106.832 195.588 107.584 195.775 108.256 196.148C108.928 196.511 109.456 197.033 109.84 197.716C110.235 198.399 110.432 199.193 110.432 200.1C110.432 201.007 110.23 201.807 109.824 202.5C109.43 203.183 108.891 203.711 108.208 204.084C107.526 204.457 106.768 204.644 105.936 204.644ZM105.936 203.364C106.459 203.364 106.95 203.241 107.408 202.996C107.867 202.751 108.235 202.383 108.512 201.892C108.8 201.401 108.944 200.804 108.944 200.1C108.944 199.396 108.806 198.799 108.528 198.308C108.251 197.817 107.888 197.455 107.44 197.22C106.992 196.975 106.507 196.852 105.984 196.852C105.451 196.852 104.96 196.975 104.512 197.22C104.075 197.455 103.723 197.817 103.456 198.308C103.19 198.799 103.056 199.396 103.056 200.1C103.056 200.815 103.184 201.417 103.44 201.908C103.707 202.399 104.059 202.767 104.496 203.012C104.934 203.247 105.414 203.364 105.936 203.364ZM111.803 200.084C111.803 199.188 111.984 198.404 112.347 197.732C112.709 197.049 113.205 196.521 113.835 196.148C114.475 195.775 115.184 195.588 115.963 195.588C116.731 195.588 117.397 195.753 117.963 196.084C118.528 196.415 118.949 196.831 119.227 197.332V195.732H120.699V204.5H119.227V202.868C118.939 203.38 118.507 203.807 117.931 204.148C117.365 204.479 116.704 204.644 115.947 204.644C115.168 204.644 114.464 204.452 113.835 204.068C113.205 203.684 112.709 203.145 112.347 202.452C111.984 201.759 111.803 200.969 111.803 200.084ZM119.227 200.1C119.227 199.439 119.093 198.863 118.827 198.372C118.56 197.881 118.197 197.508 117.739 197.252C117.291 196.985 116.795 196.852 116.251 196.852C115.707 196.852 115.211 196.98 114.763 197.236C114.315 197.492 113.957 197.865 113.691 198.356C113.424 198.847 113.291 199.423 113.291 200.084C113.291 200.756 113.424 201.343 113.691 201.844C113.957 202.335 114.315 202.713 114.763 202.98C115.211 203.236 115.707 203.364 116.251 203.364C116.795 203.364 117.291 203.236 117.739 202.98C118.197 202.713 118.56 202.335 118.827 201.844C119.093 201.343 119.227 200.761 119.227 200.1ZM124.615 192.66V204.5H123.159V192.66H124.615ZM135.106 207.476C134.082 206.473 133.282 205.199 132.706 203.652C132.141 202.105 131.858 200.436 131.858 198.644C131.858 196.809 132.157 195.097 132.754 193.508C133.362 191.908 134.226 190.591 135.346 189.556H136.866V189.7C135.672 190.82 134.77 192.169 134.162 193.748C133.565 195.316 133.266 196.948 133.266 198.644C133.266 200.297 133.549 201.876 134.114 203.38C134.69 204.884 135.528 206.201 136.626 207.332V207.476H135.106ZM146.628 199.78C146.628 200.057 146.612 200.351 146.58 200.66H139.572C139.625 201.524 139.919 202.201 140.452 202.692C140.996 203.172 141.652 203.412 142.42 203.412C143.049 203.412 143.572 203.268 143.988 202.98C144.415 202.681 144.713 202.287 144.884 201.796H146.452C146.217 202.639 145.748 203.327 145.044 203.86C144.34 204.383 143.465 204.644 142.42 204.644C141.588 204.644 140.841 204.457 140.18 204.084C139.529 203.711 139.017 203.183 138.644 202.5C138.271 201.807 138.084 201.007 138.084 200.1C138.084 199.193 138.265 198.399 138.628 197.716C138.991 197.033 139.497 196.511 140.148 196.148C140.809 195.775 141.567 195.588 142.42 195.588C143.252 195.588 143.988 195.769 144.628 196.132C145.268 196.495 145.759 196.996 146.1 197.636C146.452 198.265 146.628 198.98 146.628 199.78ZM145.124 199.476C145.124 198.921 145.001 198.447 144.756 198.052C144.511 197.647 144.175 197.343 143.748 197.14C143.332 196.927 142.868 196.82 142.356 196.82C141.62 196.82 140.991 197.055 140.468 197.524C139.956 197.993 139.663 198.644 139.588 199.476H145.124ZM149.014 204.596C148.737 204.596 148.502 204.5 148.31 204.308C148.118 204.116 148.022 203.881 148.022 203.604C148.022 203.327 148.118 203.092 148.31 202.9C148.502 202.708 148.737 202.612 149.014 202.612C149.281 202.612 149.505 202.708 149.686 202.9C149.878 203.092 149.974 203.327 149.974 203.604C149.974 203.881 149.878 204.116 149.686 204.308C149.505 204.5 149.281 204.596 149.014 204.596ZM155.525 195.588C156.283 195.588 156.944 195.753 157.509 196.084C158.085 196.415 158.512 196.831 158.789 197.332V195.732H160.261V204.692C160.261 205.492 160.091 206.201 159.749 206.82C159.408 207.449 158.917 207.94 158.277 208.292C157.648 208.644 156.912 208.82 156.069 208.82C154.917 208.82 153.957 208.548 153.189 208.004C152.421 207.46 151.968 206.719 151.829 205.78H153.269C153.429 206.313 153.76 206.74 154.261 207.06C154.763 207.391 155.365 207.556 156.069 207.556C156.869 207.556 157.52 207.305 158.021 206.804C158.533 206.303 158.789 205.599 158.789 204.692V202.852C158.501 203.364 158.075 203.791 157.509 204.132C156.944 204.473 156.283 204.644 155.525 204.644C154.747 204.644 154.037 204.452 153.397 204.068C152.768 203.684 152.272 203.145 151.909 202.452C151.547 201.759 151.365 200.969 151.365 200.084C151.365 199.188 151.547 198.404 151.909 197.732C152.272 197.049 152.768 196.521 153.397 196.148C154.037 195.775 154.747 195.588 155.525 195.588ZM158.789 200.1C158.789 199.439 158.656 198.863 158.389 198.372C158.123 197.881 157.76 197.508 157.301 197.252C156.853 196.985 156.357 196.852 155.813 196.852C155.269 196.852 154.773 196.98 154.325 197.236C153.877 197.492 153.52 197.865 153.253 198.356C152.987 198.847 152.853 199.423 152.853 200.084C152.853 200.756 152.987 201.343 153.253 201.844C153.52 202.335 153.877 202.713 154.325 202.98C154.773 203.236 155.269 203.364 155.813 203.364C156.357 203.364 156.853 203.236 157.301 202.98C157.76 202.713 158.123 202.335 158.389 201.844C158.656 201.343 158.789 200.761 158.789 200.1ZM163.186 204.596C162.908 204.596 162.674 204.5 162.482 204.308C162.29 204.116 162.194 203.881 162.194 203.604C162.194 203.327 162.29 203.092 162.482 202.9C162.674 202.708 162.908 202.612 163.186 202.612C163.452 202.612 163.676 202.708 163.858 202.9C164.05 203.092 164.146 203.327 164.146 203.604C164.146 203.881 164.05 204.116 163.858 204.308C163.676 204.5 163.452 204.596 163.186 204.596ZM167.585 202.484L165.793 206.788H164.817L165.985 202.484H167.585ZM184.063 195.572C184.745 195.572 185.353 195.716 185.887 196.004C186.42 196.281 186.841 196.703 187.151 197.268C187.46 197.833 187.615 198.521 187.615 199.332V204.5H186.175V199.54C186.175 198.665 185.956 197.999 185.519 197.54C185.092 197.071 184.511 196.836 183.775 196.836C183.017 196.836 182.415 197.081 181.967 197.572C181.519 198.052 181.295 198.751 181.295 199.668V204.5H179.855V199.54C179.855 198.665 179.636 197.999 179.199 197.54C178.772 197.071 178.191 196.836 177.455 196.836C176.697 196.836 176.095 197.081 175.647 197.572C175.199 198.052 174.975 198.751 174.975 199.668V204.5H173.519V195.732H174.975V196.996C175.263 196.537 175.647 196.185 176.127 195.94C176.617 195.695 177.156 195.572 177.743 195.572C178.479 195.572 179.129 195.737 179.695 196.068C180.26 196.399 180.681 196.884 180.959 197.524C181.204 196.905 181.609 196.425 182.175 196.084C182.74 195.743 183.369 195.572 184.063 195.572ZM189.459 200.084C189.459 199.188 189.64 198.404 190.003 197.732C190.366 197.049 190.862 196.521 191.491 196.148C192.131 195.775 192.84 195.588 193.619 195.588C194.387 195.588 195.054 195.753 195.619 196.084C196.184 196.415 196.606 196.831 196.883 197.332V195.732H198.355V204.5H196.883V202.868C196.595 203.38 196.163 203.807 195.587 204.148C195.022 204.479 194.36 204.644 193.603 204.644C192.824 204.644 192.12 204.452 191.491 204.068C190.862 203.684 190.366 203.145 190.003 202.452C189.64 201.759 189.459 200.969 189.459 200.084ZM196.883 200.1C196.883 199.439 196.75 198.863 196.483 198.372C196.216 197.881 195.854 197.508 195.395 197.252C194.947 196.985 194.451 196.852 193.907 196.852C193.363 196.852 192.867 196.98 192.419 197.236C191.971 197.492 191.614 197.865 191.347 198.356C191.08 198.847 190.947 199.423 190.947 200.084C190.947 200.756 191.08 201.343 191.347 201.844C191.614 202.335 191.971 202.713 192.419 202.98C192.867 203.236 193.363 203.364 193.907 203.364C194.451 203.364 194.947 203.236 195.395 202.98C195.854 202.713 196.216 202.335 196.483 201.844C196.75 201.343 196.883 200.761 196.883 200.1ZM202.271 197.156C202.527 196.655 202.89 196.265 203.359 195.988C203.839 195.711 204.421 195.572 205.103 195.572V197.076H204.719C203.087 197.076 202.271 197.961 202.271 199.732V204.5H200.815V195.732H202.271V197.156ZM211.68 204.5L208.24 200.628V204.5H206.784V192.66H208.24V199.62L211.616 195.732H213.648L209.52 200.1L213.664 204.5H211.68ZM223.019 199.78C223.019 200.057 223.003 200.351 222.971 200.66H215.963C216.016 201.524 216.309 202.201 216.843 202.692C217.387 203.172 218.043 203.412 218.811 203.412C219.44 203.412 219.963 203.268 220.379 202.98C220.805 202.681 221.104 202.287 221.275 201.796H222.843C222.608 202.639 222.139 203.327 221.435 203.86C220.731 204.383 219.856 204.644 218.811 204.644C217.979 204.644 217.232 204.457 216.571 204.084C215.92 203.711 215.408 203.183 215.035 202.5C214.661 201.807 214.475 201.007 214.475 200.1C214.475 199.193 214.656 198.399 215.019 197.716C215.381 197.033 215.888 196.511 216.539 196.148C217.2 195.775 217.957 195.588 218.811 195.588C219.643 195.588 220.379 195.769 221.019 196.132C221.659 196.495 222.149 196.996 222.491 197.636C222.843 198.265 223.019 198.98 223.019 199.78ZM221.515 199.476C221.515 198.921 221.392 198.447 221.147 198.052C220.901 197.647 220.565 197.343 220.139 197.14C219.723 196.927 219.259 196.82 218.747 196.82C218.011 196.82 217.381 197.055 216.859 197.524C216.347 197.993 216.053 198.644 215.979 199.476H221.515ZM226.716 196.932V202.1C226.716 202.527 226.807 202.831 226.988 203.012C227.17 203.183 227.484 203.268 227.932 203.268H229.004V204.5H227.692C226.882 204.5 226.274 204.313 225.868 203.94C225.463 203.567 225.26 202.953 225.26 202.1V196.932H224.124V195.732H225.26V193.524H226.716V195.732H229.004V196.932H226.716ZM48.6695 228.644C47.9975 228.644 47.3948 228.532 46.8615 228.308C46.3282 228.073 45.9068 227.753 45.5975 227.348C45.2882 226.932 45.1175 226.457 45.0855 225.924H46.5895C46.6322 226.361 46.8348 226.719 47.1975 226.996C47.5708 227.273 48.0562 227.412 48.6535 227.412C49.2082 227.412 49.6455 227.289 49.9655 227.044C50.2855 226.799 50.4455 226.489 50.4455 226.116C50.4455 225.732 50.2748 225.449 49.9335 225.268C49.5922 225.076 49.0642 224.889 48.3495 224.708C47.6988 224.537 47.1655 224.367 46.7495 224.196C46.3442 224.015 45.9922 223.753 45.6935 223.412C45.4055 223.06 45.2615 222.601 45.2615 222.036C45.2615 221.588 45.3948 221.177 45.6615 220.804C45.9282 220.431 46.3068 220.137 46.7975 219.924C47.2882 219.7 47.8482 219.588 48.4775 219.588C49.4482 219.588 50.2322 219.833 50.8295 220.324C51.4268 220.815 51.7468 221.487 51.7895 222.34H50.3335C50.3015 221.881 50.1148 221.513 49.7735 221.236C49.4428 220.959 48.9948 220.82 48.4295 220.82C47.9068 220.82 47.4908 220.932 47.1815 221.156C46.8722 221.38 46.7175 221.673 46.7175 222.036C46.7175 222.324 46.8082 222.564 46.9895 222.756C47.1815 222.937 47.4162 223.087 47.6935 223.204C47.9815 223.311 48.3762 223.433 48.8775 223.572C49.5068 223.743 50.0188 223.913 50.4135 224.084C50.8082 224.244 51.1442 224.489 51.4215 224.82C51.7095 225.151 51.8588 225.583 51.8695 226.116C51.8695 226.596 51.7362 227.028 51.4695 227.412C51.2028 227.796 50.8242 228.1 50.3335 228.324C49.8535 228.537 49.2988 228.644 48.6695 228.644ZM58.2769 219.572C58.9382 219.572 59.5355 219.716 60.0689 220.004C60.6022 220.281 61.0182 220.703 61.3169 221.268C61.6262 221.833 61.7809 222.521 61.7809 223.332V228.5H60.3409V223.54C60.3409 222.665 60.1222 221.999 59.6849 221.54C59.2475 221.071 58.6502 220.836 57.8929 220.836C57.1249 220.836 56.5115 221.076 56.0529 221.556C55.6049 222.036 55.3809 222.735 55.3809 223.652V228.5H53.9249V216.66H55.3809V220.98C55.6689 220.532 56.0635 220.185 56.5649 219.94C57.0769 219.695 57.6475 219.572 58.2769 219.572ZM63.6152 224.084C63.6152 223.188 63.7966 222.404 64.1592 221.732C64.5219 221.049 65.0179 220.521 65.6472 220.148C66.2872 219.775 66.9966 219.588 67.7752 219.588C68.5432 219.588 69.2099 219.753 69.7752 220.084C70.3406 220.415 70.7619 220.831 71.0392 221.332V219.732H72.5112V228.5H71.0392V226.868C70.7512 227.38 70.3192 227.807 69.7432 228.148C69.1779 228.479 68.5166 228.644 67.7592 228.644C66.9806 228.644 66.2766 228.452 65.6472 228.068C65.0179 227.684 64.5219 227.145 64.1592 226.452C63.7966 225.759 63.6152 224.969 63.6152 224.084ZM71.0392 224.1C71.0392 223.439 70.9059 222.863 70.6392 222.372C70.3726 221.881 70.0099 221.508 69.5512 221.252C69.1032 220.985 68.6072 220.852 68.0632 220.852C67.5192 220.852 67.0232 220.98 66.5752 221.236C66.1272 221.492 65.7699 221.865 65.5032 222.356C65.2366 222.847 65.1032 223.423 65.1032 224.084C65.1032 224.756 65.2366 225.343 65.5032 225.844C65.7699 226.335 66.1272 226.713 66.5752 226.98C67.0232 227.236 67.5192 227.364 68.0632 227.364C68.6072 227.364 69.1032 227.236 69.5512 226.98C70.0099 226.713 70.3726 226.335 70.6392 225.844C70.9059 225.343 71.0392 224.761 71.0392 224.1ZM76.4277 221.156C76.6837 220.655 77.0464 220.265 77.5157 219.988C77.9957 219.711 78.5771 219.572 79.2597 219.572V221.076H78.8757C77.2437 221.076 76.4277 221.961 76.4277 223.732V228.5H74.9717V219.732H76.4277V221.156ZM88.9405 223.78C88.9405 224.057 88.9245 224.351 88.8925 224.66H81.8845C81.9378 225.524 82.2312 226.201 82.7645 226.692C83.3085 227.172 83.9645 227.412 84.7325 227.412C85.3618 227.412 85.8845 227.268 86.3005 226.98C86.7272 226.681 87.0258 226.287 87.1965 225.796H88.7645C88.5298 226.639 88.0605 227.327 87.3565 227.86C86.6525 228.383 85.7778 228.644 84.7325 228.644C83.9005 228.644 83.1538 228.457 82.4925 228.084C81.8418 227.711 81.3298 227.183 80.9565 226.5C80.5832 225.807 80.3965 225.007 80.3965 224.1C80.3965 223.193 80.5778 222.399 80.9405 221.716C81.3032 221.033 81.8098 220.511 82.4605 220.148C83.1218 219.775 83.8792 219.588 84.7325 219.588C85.5645 219.588 86.3005 219.769 86.9405 220.132C87.5805 220.495 88.0712 220.996 88.4125 221.636C88.7645 222.265 88.9405 222.98 88.9405 223.78ZM87.4365 223.476C87.4365 222.921 87.3138 222.447 87.0685 222.052C86.8232 221.647 86.4872 221.343 86.0605 221.14C85.6445 220.927 85.1805 220.82 84.6685 220.82C83.9325 220.82 83.3032 221.055 82.7805 221.524C82.2685 221.993 81.9752 222.644 81.9005 223.476H87.4365ZM92.3664 226.484L90.5744 230.788H89.5984L90.7664 226.484H92.3664ZM99.7559 221.156C100.012 220.655 100.375 220.265 100.844 219.988C101.324 219.711 101.905 219.572 102.588 219.572V221.076H102.204C100.572 221.076 99.7559 221.961 99.7559 223.732V228.5H98.2999V219.732H99.7559V221.156ZM112.269 223.78C112.269 224.057 112.253 224.351 112.221 224.66H105.213C105.266 225.524 105.559 226.201 106.093 226.692C106.637 227.172 107.293 227.412 108.061 227.412C108.69 227.412 109.213 227.268 109.629 226.98C110.055 226.681 110.354 226.287 110.525 225.796H112.093C111.858 226.639 111.389 227.327 110.685 227.86C109.981 228.383 109.106 228.644 108.061 228.644C107.229 228.644 106.482 228.457 105.821 228.084C105.17 227.711 104.658 227.183 104.285 226.5C103.911 225.807 103.725 225.007 103.725 224.1C103.725 223.193 103.906 222.399 104.269 221.716C104.631 221.033 105.138 220.511 105.789 220.148C106.45 219.775 107.207 219.588 108.061 219.588C108.893 219.588 109.629 219.769 110.269 220.132C110.909 220.495 111.399 220.996 111.741 221.636C112.093 222.265 112.269 222.98 112.269 223.78ZM110.765 223.476C110.765 222.921 110.642 222.447 110.397 222.052C110.151 221.647 109.815 221.343 109.389 221.14C108.973 220.927 108.509 220.82 107.997 220.82C107.261 220.82 106.631 221.055 106.109 221.524C105.597 221.993 105.303 222.644 105.229 223.476H110.765ZM115.966 220.932V226.1C115.966 226.527 116.057 226.831 116.238 227.012C116.42 227.183 116.734 227.268 117.182 227.268H118.254V228.5H116.942C116.132 228.5 115.524 228.313 115.118 227.94C114.713 227.567 114.51 226.953 114.51 226.1V220.932H113.374V219.732H114.51V217.524H115.966V219.732H118.254V220.932H115.966ZM128.019 223.78C128.019 224.057 128.003 224.351 127.971 224.66H120.963C121.016 225.524 121.309 226.201 121.843 226.692C122.387 227.172 123.043 227.412 123.811 227.412C124.44 227.412 124.963 227.268 125.379 226.98C125.805 226.681 126.104 226.287 126.275 225.796H127.843C127.608 226.639 127.139 227.327 126.435 227.86C125.731 228.383 124.856 228.644 123.811 228.644C122.979 228.644 122.232 228.457 121.571 228.084C120.92 227.711 120.408 227.183 120.035 226.5C119.661 225.807 119.475 225.007 119.475 224.1C119.475 223.193 119.656 222.399 120.019 221.716C120.381 221.033 120.888 220.511 121.539 220.148C122.2 219.775 122.957 219.588 123.811 219.588C124.643 219.588 125.379 219.769 126.019 220.132C126.659 220.495 127.149 220.996 127.491 221.636C127.843 222.265 128.019 222.98 128.019 223.78ZM126.515 223.476C126.515 222.921 126.392 222.447 126.147 222.052C125.901 221.647 125.565 221.343 125.139 221.14C124.723 220.927 124.259 220.82 123.747 220.82C123.011 220.82 122.381 221.055 121.859 221.524C121.347 221.993 121.053 222.644 120.979 223.476H126.515ZM134.212 219.572C135.279 219.572 136.143 219.897 136.804 220.548C137.466 221.188 137.796 222.116 137.796 223.332V228.5H136.356V223.54C136.356 222.665 136.138 221.999 135.7 221.54C135.263 221.071 134.666 220.836 133.908 220.836C133.14 220.836 132.527 221.076 132.068 221.556C131.62 222.036 131.396 222.735 131.396 223.652V228.5H129.94V219.732H131.396V220.98C131.684 220.532 132.074 220.185 132.564 219.94C133.066 219.695 133.615 219.572 134.212 219.572ZM141.951 220.932V226.1C141.951 226.527 142.042 226.831 142.223 227.012C142.404 227.183 142.719 227.268 143.167 227.268H144.239V228.5H142.927C142.116 228.5 141.508 228.313 141.103 227.94C140.698 227.567 140.495 226.953 140.495 226.1V220.932H139.359V219.732H140.495V217.524H141.951V219.732H144.239V220.932H141.951ZM146.755 218.308C146.478 218.308 146.243 218.212 146.051 218.02C145.859 217.828 145.763 217.593 145.763 217.316C145.763 217.039 145.859 216.804 146.051 216.612C146.243 216.42 146.478 216.324 146.755 216.324C147.022 216.324 147.246 216.42 147.427 216.612C147.619 216.804 147.715 217.039 147.715 217.316C147.715 217.593 147.619 217.828 147.427 218.02C147.246 218.212 147.022 218.308 146.755 218.308ZM147.459 219.732V228.5H146.003V219.732H147.459ZM153.764 228.644C152.943 228.644 152.196 228.457 151.524 228.084C150.863 227.711 150.34 227.183 149.956 226.5C149.583 225.807 149.396 225.007 149.396 224.1C149.396 223.204 149.588 222.415 149.972 221.732C150.367 221.039 150.9 220.511 151.572 220.148C152.244 219.775 152.996 219.588 153.828 219.588C154.66 219.588 155.412 219.775 156.084 220.148C156.756 220.511 157.284 221.033 157.668 221.716C158.063 222.399 158.26 223.193 158.26 224.1C158.26 225.007 158.058 225.807 157.652 226.5C157.258 227.183 156.719 227.711 156.036 228.084C155.354 228.457 154.596 228.644 153.764 228.644ZM153.764 227.364C154.287 227.364 154.778 227.241 155.236 226.996C155.695 226.751 156.063 226.383 156.34 225.892C156.628 225.401 156.772 224.804 156.772 224.1C156.772 223.396 156.634 222.799 156.356 222.308C156.079 221.817 155.716 221.455 155.268 221.22C154.82 220.975 154.335 220.852 153.812 220.852C153.279 220.852 152.788 220.975 152.34 221.22C151.903 221.455 151.551 221.817 151.284 222.308C151.018 222.799 150.884 223.396 150.884 224.1C150.884 224.815 151.012 225.417 151.268 225.908C151.535 226.399 151.887 226.767 152.324 227.012C152.762 227.247 153.242 227.364 153.764 227.364ZM164.447 219.572C165.514 219.572 166.378 219.897 167.039 220.548C167.7 221.188 168.031 222.116 168.031 223.332V228.5H166.591V223.54C166.591 222.665 166.372 221.999 165.935 221.54C165.498 221.071 164.9 220.836 164.143 220.836C163.375 220.836 162.762 221.076 162.303 221.556C161.855 222.036 161.631 222.735 161.631 223.652V228.5H160.175V219.732H161.631V220.98C161.919 220.532 162.308 220.185 162.799 219.94C163.3 219.695 163.85 219.572 164.447 219.572ZM169.945 231.476V231.332C171.044 230.201 171.876 228.884 172.441 227.38C173.017 225.876 173.305 224.297 173.305 222.644C173.305 220.948 173.001 219.316 172.393 217.748C171.796 216.169 170.9 214.82 169.705 213.7V213.556H171.225C172.345 214.591 173.204 215.908 173.801 217.508C174.409 219.097 174.713 220.809 174.713 222.644C174.713 224.436 174.425 226.105 173.849 227.652C173.284 229.199 172.489 230.473 171.465 231.476H169.945ZM179.179 226.484L177.387 230.788H176.411L177.579 226.484H179.179ZM184.568 224.084C184.568 223.188 184.75 222.404 185.112 221.732C185.475 221.049 185.971 220.521 186.6 220.148C187.24 219.775 187.95 219.588 188.728 219.588C189.496 219.588 190.163 219.753 190.728 220.084C191.294 220.415 191.715 220.831 191.992 221.332V219.732H193.464V228.5H191.992V226.868C191.704 227.38 191.272 227.807 190.696 228.148C190.131 228.479 189.47 228.644 188.712 228.644C187.934 228.644 187.23 228.452 186.6 228.068C185.971 227.684 185.475 227.145 185.112 226.452C184.75 225.759 184.568 224.969 184.568 224.084ZM191.992 224.1C191.992 223.439 191.859 222.863 191.592 222.372C191.326 221.881 190.963 221.508 190.504 221.252C190.056 220.985 189.56 220.852 189.016 220.852C188.472 220.852 187.976 220.98 187.528 221.236C187.08 221.492 186.723 221.865 186.456 222.356C186.19 222.847 186.056 223.423 186.056 224.084C186.056 224.756 186.19 225.343 186.456 225.844C186.723 226.335 187.08 226.713 187.528 226.98C187.976 227.236 188.472 227.364 189.016 227.364C189.56 227.364 190.056 227.236 190.504 226.98C190.963 226.713 191.326 226.335 191.592 225.844C191.859 225.343 191.992 224.761 191.992 224.1ZM200.197 219.572C201.264 219.572 202.128 219.897 202.789 220.548C203.45 221.188 203.781 222.116 203.781 223.332V228.5H202.341V223.54C202.341 222.665 202.122 221.999 201.685 221.54C201.248 221.071 200.65 220.836 199.893 220.836C199.125 220.836 198.512 221.076 198.053 221.556C197.605 222.036 197.381 222.735 197.381 223.652V228.5H195.925V219.732H197.381V220.98C197.669 220.532 198.058 220.185 198.549 219.94C199.05 219.695 199.6 219.572 200.197 219.572ZM205.615 224.084C205.615 223.188 205.797 222.404 206.159 221.732C206.522 221.049 207.018 220.521 207.647 220.148C208.287 219.775 209.002 219.588 209.791 219.588C210.474 219.588 211.109 219.748 211.695 220.068C212.282 220.377 212.73 220.788 213.039 221.3V216.66H214.511V228.5H213.039V226.852C212.751 227.375 212.325 227.807 211.759 228.148C211.194 228.479 210.533 228.644 209.775 228.644C208.997 228.644 208.287 228.452 207.647 228.068C207.018 227.684 206.522 227.145 206.159 226.452C205.797 225.759 205.615 224.969 205.615 224.084ZM213.039 224.1C213.039 223.439 212.906 222.863 212.639 222.372C212.373 221.881 212.01 221.508 211.551 221.252C211.103 220.985 210.607 220.852 210.063 220.852C209.519 220.852 209.023 220.98 208.575 221.236C208.127 221.492 207.77 221.865 207.503 222.356C207.237 222.847 207.103 223.423 207.103 224.084C207.103 224.756 207.237 225.343 207.503 225.844C207.77 226.335 208.127 226.713 208.575 226.98C209.023 227.236 209.519 227.364 210.063 227.364C210.607 227.364 211.103 227.236 211.551 226.98C212.01 226.713 212.373 226.335 212.639 225.844C212.906 225.343 213.039 224.761 213.039 224.1ZM232.917 219.732L230.181 228.5H228.677L226.565 221.54L224.453 228.5H222.949L220.197 219.732H221.685L223.701 227.092L225.877 219.732H227.365L229.493 227.108L231.477 219.732H232.917ZM238.714 219.572C239.376 219.572 239.973 219.716 240.506 220.004C241.04 220.281 241.456 220.703 241.754 221.268C242.064 221.833 242.218 222.521 242.218 223.332V228.5H240.778V223.54C240.778 222.665 240.56 221.999 240.122 221.54C239.685 221.071 239.088 220.836 238.33 220.836C237.562 220.836 236.949 221.076 236.49 221.556C236.042 222.036 235.818 222.735 235.818 223.652V228.5H234.362V216.66H235.818V220.98C236.106 220.532 236.501 220.185 237.002 219.94C237.514 219.695 238.085 219.572 238.714 219.572ZM244.053 224.084C244.053 223.188 244.234 222.404 244.597 221.732C244.959 221.049 245.455 220.521 246.085 220.148C246.725 219.775 247.434 219.588 248.213 219.588C248.981 219.588 249.647 219.753 250.213 220.084C250.778 220.415 251.199 220.831 251.477 221.332V219.732H252.949V228.5H251.477V226.868C251.189 227.38 250.757 227.807 250.181 228.148C249.615 228.479 248.954 228.644 248.197 228.644C247.418 228.644 246.714 228.452 246.085 228.068C245.455 227.684 244.959 227.145 244.597 226.452C244.234 225.759 244.053 224.969 244.053 224.084ZM251.477 224.1C251.477 223.439 251.343 222.863 251.077 222.372C250.81 221.881 250.447 221.508 249.989 221.252C249.541 220.985 249.045 220.852 248.501 220.852C247.957 220.852 247.461 220.98 247.013 221.236C246.565 221.492 246.207 221.865 245.941 222.356C245.674 222.847 245.541 223.423 245.541 224.084C245.541 224.756 245.674 225.343 245.941 225.844C246.207 226.335 246.565 226.713 247.013 226.98C247.461 227.236 247.957 227.364 248.501 227.364C249.045 227.364 249.541 227.236 249.989 226.98C250.447 226.713 250.81 226.335 251.077 225.844C251.343 225.343 251.477 224.761 251.477 224.1ZM257.185 220.932V226.1C257.185 226.527 257.276 226.831 257.457 227.012C257.639 227.183 257.953 227.268 258.401 227.268H259.473V228.5H258.161C257.351 228.5 256.743 228.313 256.337 227.94C255.932 227.567 255.729 226.953 255.729 226.1V220.932H254.593V219.732H255.729V217.524H257.185V219.732H259.473V220.932H257.185ZM46.3175 242.308C46.0402 242.308 45.8055 242.212 45.6135 242.02C45.4215 241.828 45.3255 241.593 45.3255 241.316C45.3255 241.039 45.4215 240.804 45.6135 240.612C45.8055 240.42 46.0402 240.324 46.3175 240.324C46.5842 240.324 46.8082 240.42 46.9895 240.612C47.1815 240.804 47.2775 241.039 47.2775 241.316C47.2775 241.593 47.1815 241.828 46.9895 242.02C46.8082 242.212 46.5842 242.308 46.3175 242.308ZM47.0215 243.732V252.5H45.5655V243.732H47.0215ZM52.607 252.644C51.935 252.644 51.3323 252.532 50.799 252.308C50.2657 252.073 49.8443 251.753 49.535 251.348C49.2257 250.932 49.055 250.457 49.023 249.924H50.527C50.5697 250.361 50.7723 250.719 51.135 250.996C51.5083 251.273 51.9937 251.412 52.591 251.412C53.1457 251.412 53.583 251.289 53.903 251.044C54.223 250.799 54.383 250.489 54.383 250.116C54.383 249.732 54.2123 249.449 53.871 249.268C53.5297 249.076 53.0017 248.889 52.287 248.708C51.6363 248.537 51.103 248.367 50.687 248.196C50.2817 248.015 49.9297 247.753 49.631 247.412C49.343 247.06 49.199 246.601 49.199 246.036C49.199 245.588 49.3323 245.177 49.599 244.804C49.8657 244.431 50.2443 244.137 50.735 243.924C51.2257 243.7 51.7857 243.588 52.415 243.588C53.3857 243.588 54.1697 243.833 54.767 244.324C55.3643 244.815 55.6843 245.487 55.727 246.34H54.271C54.239 245.881 54.0523 245.513 53.711 245.236C53.3803 244.959 52.9323 244.82 52.367 244.82C51.8443 244.82 51.4283 244.932 51.119 245.156C50.8097 245.38 50.655 245.673 50.655 246.036C50.655 246.324 50.7457 246.564 50.927 246.756C51.119 246.937 51.3537 247.087 51.631 247.204C51.919 247.311 52.3137 247.433 52.815 247.572C53.4443 247.743 53.9563 247.913 54.351 248.084C54.7457 248.244 55.0817 248.489 55.359 248.82C55.647 249.151 55.7963 249.583 55.807 250.116C55.807 250.596 55.6737 251.028 55.407 251.412C55.1403 251.796 54.7617 252.1 54.271 252.324C53.791 252.537 53.2363 252.644 52.607 252.644ZM60.9664 252.644C60.2944 252.644 59.6917 252.532 59.1584 252.308C58.625 252.073 58.2037 251.753 57.8944 251.348C57.585 250.932 57.4144 250.457 57.3824 249.924H58.8864C58.929 250.361 59.1317 250.719 59.4944 250.996C59.8677 251.273 60.353 251.412 60.9504 251.412C61.505 251.412 61.9424 251.289 62.2624 251.044C62.5824 250.799 62.7424 250.489 62.7424 250.116C62.7424 249.732 62.5717 249.449 62.2304 249.268C61.889 249.076 61.361 248.889 60.6464 248.708C59.9957 248.537 59.4624 248.367 59.0464 248.196C58.641 248.015 58.289 247.753 57.9904 247.412C57.7024 247.06 57.5584 246.601 57.5584 246.036C57.5584 245.588 57.6917 245.177 57.9584 244.804C58.225 244.431 58.6037 244.137 59.0944 243.924C59.585 243.7 60.145 243.588 60.7744 243.588C61.745 243.588 62.529 243.833 63.1264 244.324C63.7237 244.815 64.0437 245.487 64.0864 246.34H62.6304C62.5984 245.881 62.4117 245.513 62.0704 245.236C61.7397 244.959 61.2917 244.82 60.7264 244.82C60.2037 244.82 59.7877 244.932 59.4784 245.156C59.169 245.38 59.0144 245.673 59.0144 246.036C59.0144 246.324 59.105 246.564 59.2864 246.756C59.4784 246.937 59.713 247.087 59.9904 247.204C60.2784 247.311 60.673 247.433 61.1744 247.572C61.8037 247.743 62.3157 247.913 62.7104 248.084C63.105 248.244 63.441 248.489 63.7184 248.82C64.0064 249.151 64.1557 249.583 64.1664 250.116C64.1664 250.596 64.033 251.028 63.7664 251.412C63.4997 251.796 63.121 252.1 62.6304 252.324C62.1504 252.537 61.5957 252.644 60.9664 252.644ZM73.9977 243.732V252.5H72.5417V251.204C72.2644 251.652 71.8751 252.004 71.3737 252.26C70.8831 252.505 70.3391 252.628 69.7417 252.628C69.0591 252.628 68.4457 252.489 67.9017 252.212C67.3577 251.924 66.9257 251.497 66.6057 250.932C66.2964 250.367 66.1417 249.679 66.1417 248.868V243.732H67.5817V248.676C67.5817 249.54 67.8004 250.207 68.2377 250.676C68.6751 251.135 69.2724 251.364 70.0297 251.364C70.8084 251.364 71.4217 251.124 71.8697 250.644C72.3177 250.164 72.5417 249.465 72.5417 248.548V243.732H73.9977ZM84.4561 247.78C84.4561 248.057 84.4401 248.351 84.4081 248.66H77.4001C77.4535 249.524 77.7468 250.201 78.2801 250.692C78.8241 251.172 79.4801 251.412 80.2481 251.412C80.8775 251.412 81.4001 251.268 81.8161 250.98C82.2428 250.681 82.5415 250.287 82.7121 249.796H84.2801C84.0455 250.639 83.5761 251.327 82.8721 251.86C82.1681 252.383 81.2935 252.644 80.2481 252.644C79.4161 252.644 78.6695 252.457 78.0081 252.084C77.3575 251.711 76.8455 251.183 76.4721 250.5C76.0988 249.807 75.9121 249.007 75.9121 248.1C75.9121 247.193 76.0935 246.399 76.4561 245.716C76.8188 245.033 77.3255 244.511 77.9761 244.148C78.6375 243.775 79.3948 243.588 80.2481 243.588C81.0801 243.588 81.8161 243.769 82.4561 244.132C83.0961 244.495 83.5868 244.996 83.9281 245.636C84.2801 246.265 84.4561 246.98 84.4561 247.78ZM82.9521 247.476C82.9521 246.921 82.8295 246.447 82.5841 246.052C82.3388 245.647 82.0028 245.343 81.5761 245.14C81.1601 244.927 80.6961 244.82 80.1841 244.82C79.4481 244.82 78.8188 245.055 78.2961 245.524C77.7841 245.993 77.4908 246.644 77.4161 247.476H82.9521ZM89.482 252.644C88.81 252.644 88.2073 252.532 87.674 252.308C87.1407 252.073 86.7193 251.753 86.41 251.348C86.1007 250.932 85.93 250.457 85.898 249.924H87.402C87.4447 250.361 87.6473 250.719 88.01 250.996C88.3833 251.273 88.8687 251.412 89.466 251.412C90.0207 251.412 90.458 251.289 90.778 251.044C91.098 250.799 91.258 250.489 91.258 250.116C91.258 249.732 91.0873 249.449 90.746 249.268C90.4047 249.076 89.8767 248.889 89.162 248.708C88.5113 248.537 87.978 248.367 87.562 248.196C87.1567 248.015 86.8047 247.753 86.506 247.412C86.218 247.06 86.074 246.601 86.074 246.036C86.074 245.588 86.2073 245.177 86.474 244.804C86.7407 244.431 87.1193 244.137 87.61 243.924C88.1007 243.7 88.6607 243.588 89.29 243.588C90.2607 243.588 91.0447 243.833 91.642 244.324C92.2393 244.815 92.5593 245.487 92.602 246.34H91.146C91.114 245.881 90.9273 245.513 90.586 245.236C90.2553 244.959 89.8073 244.82 89.242 244.82C88.7193 244.82 88.3033 244.932 87.994 245.156C87.6847 245.38 87.53 245.673 87.53 246.036C87.53 246.324 87.6207 246.564 87.802 246.756C87.994 246.937 88.2287 247.087 88.506 247.204C88.794 247.311 89.1887 247.433 89.69 247.572C90.3193 247.743 90.8313 247.913 91.226 248.084C91.6207 248.244 91.9567 248.489 92.234 248.82C92.522 249.151 92.6713 249.583 92.682 250.116C92.682 250.596 92.5487 251.028 92.282 251.412C92.0153 251.796 91.6367 252.1 91.146 252.324C90.666 252.537 90.1113 252.644 89.482 252.644ZM98.459 248.084C98.459 247.188 98.6403 246.404 99.003 245.732C99.3657 245.049 99.8617 244.521 100.491 244.148C101.131 243.775 101.84 243.588 102.619 243.588C103.387 243.588 104.054 243.753 104.619 244.084C105.184 244.415 105.606 244.831 105.883 245.332V243.732H107.355V252.5H105.883V250.868C105.595 251.38 105.163 251.807 104.587 252.148C104.022 252.479 103.36 252.644 102.603 252.644C101.824 252.644 101.12 252.452 100.491 252.068C99.8617 251.684 99.3657 251.145 99.003 250.452C98.6403 249.759 98.459 248.969 98.459 248.084ZM105.883 248.1C105.883 247.439 105.75 246.863 105.483 246.372C105.216 245.881 104.854 245.508 104.395 245.252C103.947 244.985 103.451 244.852 102.907 244.852C102.363 244.852 101.867 244.98 101.419 245.236C100.971 245.492 100.614 245.865 100.347 246.356C100.08 246.847 99.947 247.423 99.947 248.084C99.947 248.756 100.08 249.343 100.347 249.844C100.614 250.335 100.971 250.713 101.419 250.98C101.867 251.236 102.363 251.364 102.907 251.364C103.451 251.364 103.947 251.236 104.395 250.98C104.854 250.713 105.216 250.335 105.483 249.844C105.75 249.343 105.883 248.761 105.883 248.1ZM111.271 245.156C111.527 244.655 111.89 244.265 112.359 243.988C112.839 243.711 113.421 243.572 114.103 243.572V245.076H113.719C112.087 245.076 111.271 245.961 111.271 247.732V252.5H109.815V243.732H111.271V245.156ZM123.784 247.78C123.784 248.057 123.768 248.351 123.736 248.66H116.728C116.782 249.524 117.075 250.201 117.608 250.692C118.152 251.172 118.808 251.412 119.576 251.412C120.206 251.412 120.728 251.268 121.144 250.98C121.571 250.681 121.87 250.287 122.04 249.796H123.608C123.374 250.639 122.904 251.327 122.2 251.86C121.496 252.383 120.622 252.644 119.576 252.644C118.744 252.644 117.998 252.457 117.336 252.084C116.686 251.711 116.174 251.183 115.8 250.5C115.427 249.807 115.24 249.007 115.24 248.1C115.24 247.193 115.422 246.399 115.784 245.716C116.147 245.033 116.654 244.511 117.304 244.148C117.966 243.775 118.723 243.588 119.576 243.588C120.408 243.588 121.144 243.769 121.784 244.132C122.424 244.495 122.915 244.996 123.256 245.636C123.608 246.265 123.784 246.98 123.784 247.78ZM122.28 247.476C122.28 246.921 122.158 246.447 121.912 246.052C121.667 245.647 121.331 245.343 120.904 245.14C120.488 244.927 120.024 244.82 119.512 244.82C118.776 244.82 118.147 245.055 117.624 245.524C117.112 245.993 116.819 246.644 116.744 247.476H122.28ZM140.516 243.572C141.198 243.572 141.806 243.716 142.34 244.004C142.873 244.281 143.294 244.703 143.604 245.268C143.913 245.833 144.068 246.521 144.068 247.332V252.5H142.628V247.54C142.628 246.665 142.409 245.999 141.972 245.54C141.545 245.071 140.964 244.836 140.228 244.836C139.47 244.836 138.868 245.081 138.42 245.572C137.972 246.052 137.748 246.751 137.748 247.668V252.5H136.308V247.54C136.308 246.665 136.089 245.999 135.652 245.54C135.225 245.071 134.644 244.836 133.908 244.836C133.15 244.836 132.548 245.081 132.1 245.572C131.652 246.052 131.428 246.751 131.428 247.668V252.5H129.972V243.732H131.428V244.996C131.716 244.537 132.1 244.185 132.58 243.94C133.07 243.695 133.609 243.572 134.196 243.572C134.932 243.572 135.582 243.737 136.148 244.068C136.713 244.399 137.134 244.884 137.412 245.524C137.657 244.905 138.062 244.425 138.628 244.084C139.193 243.743 139.822 243.572 140.516 243.572ZM145.912 248.084C145.912 247.188 146.093 246.404 146.456 245.732C146.819 245.049 147.315 244.521 147.944 244.148C148.584 243.775 149.293 243.588 150.072 243.588C150.84 243.588 151.507 243.753 152.072 244.084C152.637 244.415 153.059 244.831 153.336 245.332V243.732H154.808V252.5H153.336V250.868C153.048 251.38 152.616 251.807 152.04 252.148C151.475 252.479 150.813 252.644 150.056 252.644C149.277 252.644 148.573 252.452 147.944 252.068C147.315 251.684 146.819 251.145 146.456 250.452C146.093 249.759 145.912 248.969 145.912 248.084ZM153.336 248.1C153.336 247.439 153.203 246.863 152.936 246.372C152.669 245.881 152.307 245.508 151.848 245.252C151.4 244.985 150.904 244.852 150.36 244.852C149.816 244.852 149.32 244.98 148.872 245.236C148.424 245.492 148.067 245.865 147.8 246.356C147.533 246.847 147.4 247.423 147.4 248.084C147.4 248.756 147.533 249.343 147.8 249.844C148.067 250.335 148.424 250.713 148.872 250.98C149.32 251.236 149.816 251.364 150.36 251.364C150.904 251.364 151.4 251.236 151.848 250.98C152.307 250.713 152.669 250.335 152.936 249.844C153.203 249.343 153.336 248.761 153.336 248.1ZM162.165 252.5L158.725 248.628V252.5H157.269V240.66H158.725V247.62L162.101 243.732H164.133L160.005 248.1L164.149 252.5H162.165ZM166.255 242.308C165.978 242.308 165.743 242.212 165.551 242.02C165.359 241.828 165.263 241.593 165.263 241.316C165.263 241.039 165.359 240.804 165.551 240.612C165.743 240.42 165.978 240.324 166.255 240.324C166.522 240.324 166.746 240.42 166.927 240.612C167.119 240.804 167.215 241.039 167.215 241.316C167.215 241.593 167.119 241.828 166.927 242.02C166.746 242.212 166.522 242.308 166.255 242.308ZM166.959 243.732V252.5H165.503V243.732H166.959ZM173.712 243.572C174.779 243.572 175.643 243.897 176.304 244.548C176.966 245.188 177.296 246.116 177.296 247.332V252.5H175.856V247.54C175.856 246.665 175.638 245.999 175.2 245.54C174.763 245.071 174.166 244.836 173.408 244.836C172.64 244.836 172.027 245.076 171.568 245.556C171.12 246.036 170.896 246.735 170.896 247.652V252.5H169.44V243.732H170.896V244.98C171.184 244.532 171.574 244.185 172.064 243.94C172.566 243.695 173.115 243.572 173.712 243.572ZM183.291 243.588C184.048 243.588 184.71 243.753 185.275 244.084C185.851 244.415 186.278 244.831 186.555 245.332V243.732H188.027V252.692C188.027 253.492 187.856 254.201 187.515 254.82C187.174 255.449 186.683 255.94 186.043 256.292C185.414 256.644 184.678 256.82 183.835 256.82C182.683 256.82 181.723 256.548 180.955 256.004C180.187 255.46 179.734 254.719 179.595 253.78H181.035C181.195 254.313 181.526 254.74 182.027 255.06C182.528 255.391 183.131 255.556 183.835 255.556C184.635 255.556 185.286 255.305 185.787 254.804C186.299 254.303 186.555 253.599 186.555 252.692V250.852C186.267 251.364 185.84 251.791 185.275 252.132C184.71 252.473 184.048 252.644 183.291 252.644C182.512 252.644 181.803 252.452 181.163 252.068C180.534 251.684 180.038 251.145 179.675 250.452C179.312 249.759 179.131 248.969 179.131 248.084C179.131 247.188 179.312 246.404 179.675 245.732C180.038 245.049 180.534 244.521 181.163 244.148C181.803 243.775 182.512 243.588 183.291 243.588ZM186.555 248.1C186.555 247.439 186.422 246.863 186.155 246.372C185.888 245.881 185.526 245.508 185.067 245.252C184.619 244.985 184.123 244.852 183.579 244.852C183.035 244.852 182.539 244.98 182.091 245.236C181.643 245.492 181.286 245.865 181.019 246.356C180.752 246.847 180.619 247.423 180.619 248.084C180.619 248.756 180.752 249.343 181.019 249.844C181.286 250.335 181.643 250.713 182.091 250.98C182.539 251.236 183.035 251.364 183.579 251.364C184.123 251.364 184.619 251.236 185.067 250.98C185.526 250.713 185.888 250.335 186.155 249.844C186.422 249.343 186.555 248.761 186.555 248.1ZM196.529 244.932V250.1C196.529 250.527 196.62 250.831 196.801 251.012C196.982 251.183 197.297 251.268 197.745 251.268H198.817V252.5H197.505C196.694 252.5 196.086 252.313 195.681 251.94C195.276 251.567 195.073 250.953 195.073 250.1V244.932H193.937V243.732H195.073V241.524H196.529V243.732H198.817V244.932H196.529ZM204.933 243.572C205.594 243.572 206.192 243.716 206.725 244.004C207.258 244.281 207.674 244.703 207.973 245.268C208.282 245.833 208.437 246.521 208.437 247.332V252.5H206.997V247.54C206.997 246.665 206.778 245.999 206.341 245.54C205.904 245.071 205.306 244.836 204.549 244.836C203.781 244.836 203.168 245.076 202.709 245.556C202.261 246.036 202.037 246.735 202.037 247.652V252.5H200.581V240.66H202.037V244.98C202.325 244.532 202.72 244.185 203.221 243.94C203.733 243.695 204.304 243.572 204.933 243.572ZM218.815 247.78C218.815 248.057 218.799 248.351 218.767 248.66H211.759C211.813 249.524 212.106 250.201 212.639 250.692C213.183 251.172 213.839 251.412 214.607 251.412C215.237 251.412 215.759 251.268 216.175 250.98C216.602 250.681 216.901 250.287 217.071 249.796H218.639C218.405 250.639 217.935 251.327 217.231 251.86C216.527 252.383 215.653 252.644 214.607 252.644C213.775 252.644 213.029 252.457 212.367 252.084C211.717 251.711 211.205 251.183 210.831 250.5C210.458 249.807 210.271 249.007 210.271 248.1C210.271 247.193 210.453 246.399 210.815 245.716C211.178 245.033 211.685 244.511 212.335 244.148C212.997 243.775 213.754 243.588 214.607 243.588C215.439 243.588 216.175 243.769 216.815 244.132C217.455 244.495 217.946 244.996 218.287 245.636C218.639 246.265 218.815 246.98 218.815 247.78ZM217.311 247.476C217.311 246.921 217.189 246.447 216.943 246.052C216.698 245.647 216.362 245.343 215.935 245.14C215.519 244.927 215.055 244.82 214.543 244.82C213.807 244.82 213.178 245.055 212.655 245.524C212.143 245.993 211.85 246.644 211.775 247.476H217.311ZM45.0215 272.084C45.0215 271.188 45.2028 270.404 45.5655 269.732C45.9282 269.049 46.4242 268.521 47.0535 268.148C47.6935 267.775 48.4082 267.588 49.1975 267.588C49.8802 267.588 50.5148 267.748 51.1015 268.068C51.6882 268.377 52.1362 268.788 52.4455 269.3V264.66H53.9175V276.5H52.4455V274.852C52.1575 275.375 51.7308 275.807 51.1655 276.148C50.6002 276.479 49.9388 276.644 49.1815 276.644C48.4028 276.644 47.6935 276.452 47.0535 276.068C46.4242 275.684 45.9282 275.145 45.5655 274.452C45.2028 273.759 45.0215 272.969 45.0215 272.084ZM52.4455 272.1C52.4455 271.439 52.3122 270.863 52.0455 270.372C51.7788 269.881 51.4162 269.508 50.9575 269.252C50.5095 268.985 50.0135 268.852 49.4695 268.852C48.9255 268.852 48.4295 268.98 47.9815 269.236C47.5335 269.492 47.1762 269.865 46.9095 270.356C46.6428 270.847 46.5095 271.423 46.5095 272.084C46.5095 272.756 46.6428 273.343 46.9095 273.844C47.1762 274.335 47.5335 274.713 47.9815 274.98C48.4295 275.236 48.9255 275.364 49.4695 275.364C50.0135 275.364 50.5095 275.236 50.9575 274.98C51.4162 274.713 51.7788 274.335 52.0455 273.844C52.3122 273.343 52.4455 272.761 52.4455 272.1ZM64.378 271.78C64.378 272.057 64.362 272.351 64.33 272.66H57.322C57.3753 273.524 57.6687 274.201 58.202 274.692C58.746 275.172 59.402 275.412 60.17 275.412C60.7993 275.412 61.322 275.268 61.738 274.98C62.1647 274.681 62.4633 274.287 62.634 273.796H64.202C63.9673 274.639 63.498 275.327 62.794 275.86C62.09 276.383 61.2153 276.644 60.17 276.644C59.338 276.644 58.5913 276.457 57.93 276.084C57.2793 275.711 56.7673 275.183 56.394 274.5C56.0207 273.807 55.834 273.007 55.834 272.1C55.834 271.193 56.0153 270.399 56.378 269.716C56.7407 269.033 57.2473 268.511 57.898 268.148C58.5593 267.775 59.3167 267.588 60.17 267.588C61.002 267.588 61.738 267.769 62.378 268.132C63.018 268.495 63.5087 268.996 63.85 269.636C64.202 270.265 64.378 270.98 64.378 271.78ZM62.874 271.476C62.874 270.921 62.7513 270.447 62.506 270.052C62.2607 269.647 61.9247 269.343 61.498 269.14C61.082 268.927 60.618 268.82 60.106 268.82C59.37 268.82 58.7407 269.055 58.218 269.524C57.706 269.993 57.4127 270.644 57.338 271.476H62.874ZM65.7559 272.1C65.7559 271.193 65.9372 270.404 66.2999 269.732C66.6625 269.049 67.1639 268.521 67.8039 268.148C68.4545 267.775 69.1959 267.588 70.0279 267.588C71.1052 267.588 71.9905 267.849 72.6839 268.372C73.3879 268.895 73.8519 269.62 74.0759 270.548H72.5079C72.3585 270.015 72.0652 269.593 71.6279 269.284C71.2012 268.975 70.6679 268.82 70.0279 268.82C69.1959 268.82 68.5239 269.108 68.0119 269.684C67.4999 270.249 67.2439 271.055 67.2439 272.1C67.2439 273.156 67.4999 273.972 68.0119 274.548C68.5239 275.124 69.1959 275.412 70.0279 275.412C70.6679 275.412 71.2012 275.263 71.6279 274.964C72.0545 274.665 72.3479 274.239 72.5079 273.684H74.0759C73.8412 274.58 73.3719 275.3 72.6679 275.844C71.9639 276.377 71.0839 276.644 70.0279 276.644C69.1959 276.644 68.4545 276.457 67.8039 276.084C67.1639 275.711 66.6625 275.183 66.2999 274.5C65.9372 273.817 65.7559 273.017 65.7559 272.1ZM76.7706 266.308C76.4933 266.308 76.2586 266.212 76.0666 266.02C75.8746 265.828 75.7786 265.593 75.7786 265.316C75.7786 265.039 75.8746 264.804 76.0666 264.612C76.2586 264.42 76.4933 264.324 76.7706 264.324C77.0373 264.324 77.2613 264.42 77.4426 264.612C77.6346 264.804 77.7306 265.039 77.7306 265.316C77.7306 265.593 77.6346 265.828 77.4426 266.02C77.2613 266.212 77.0373 266.308 76.7706 266.308ZM77.4746 267.732V276.5H76.0186V267.732H77.4746ZM83.0601 276.644C82.3881 276.644 81.7855 276.532 81.2521 276.308C80.7188 276.073 80.2975 275.753 79.9881 275.348C79.6788 274.932 79.5081 274.457 79.4761 273.924H80.9801C81.0228 274.361 81.2255 274.719 81.5881 274.996C81.9615 275.273 82.4468 275.412 83.0441 275.412C83.5988 275.412 84.0361 275.289 84.3561 275.044C84.6761 274.799 84.8361 274.489 84.8361 274.116C84.8361 273.732 84.6655 273.449 84.3241 273.268C83.9828 273.076 83.4548 272.889 82.7401 272.708C82.0895 272.537 81.5561 272.367 81.1401 272.196C80.7348 272.015 80.3828 271.753 80.0841 271.412C79.7961 271.06 79.6521 270.601 79.6521 270.036C79.6521 269.588 79.7855 269.177 80.0521 268.804C80.3188 268.431 80.6975 268.137 81.1881 267.924C81.6788 267.7 82.2388 267.588 82.8681 267.588C83.8388 267.588 84.6228 267.833 85.2201 268.324C85.8175 268.815 86.1375 269.487 86.1801 270.34H84.7241C84.6921 269.881 84.5055 269.513 84.1641 269.236C83.8335 268.959 83.3855 268.82 82.8201 268.82C82.2975 268.82 81.8815 268.932 81.5721 269.156C81.2628 269.38 81.1081 269.673 81.1081 270.036C81.1081 270.324 81.1988 270.564 81.3801 270.756C81.5721 270.937 81.8068 271.087 82.0841 271.204C82.3721 271.311 82.7668 271.433 83.2681 271.572C83.8975 271.743 84.4095 271.913 84.8041 272.084C85.1988 272.244 85.5348 272.489 85.8121 272.82C86.1001 273.151 86.2495 273.583 86.2601 274.116C86.2601 274.596 86.1268 275.028 85.8601 275.412C85.5935 275.796 85.2148 276.1 84.7241 276.324C84.2441 276.537 83.6895 276.644 83.0601 276.644ZM89.0675 266.308C88.7902 266.308 88.5555 266.212 88.3635 266.02C88.1715 265.828 88.0755 265.593 88.0755 265.316C88.0755 265.039 88.1715 264.804 88.3635 264.612C88.5555 264.42 88.7902 264.324 89.0675 264.324C89.3342 264.324 89.5582 264.42 89.7395 264.612C89.9315 264.804 90.0275 265.039 90.0275 265.316C90.0275 265.593 89.9315 265.828 89.7395 266.02C89.5582 266.212 89.3342 266.308 89.0675 266.308ZM89.7715 267.732V276.5H88.3155V267.732H89.7715ZM96.077 276.644C95.2557 276.644 94.509 276.457 93.837 276.084C93.1757 275.711 92.653 275.183 92.269 274.5C91.8957 273.807 91.709 273.007 91.709 272.1C91.709 271.204 91.901 270.415 92.285 269.732C92.6797 269.039 93.213 268.511 93.885 268.148C94.557 267.775 95.309 267.588 96.141 267.588C96.973 267.588 97.725 267.775 98.397 268.148C99.069 268.511 99.597 269.033 99.981 269.716C100.376 270.399 100.573 271.193 100.573 272.1C100.573 273.007 100.37 273.807 99.965 274.5C99.5703 275.183 99.0317 275.711 98.349 276.084C97.6663 276.457 96.909 276.644 96.077 276.644ZM96.077 275.364C96.5997 275.364 97.0903 275.241 97.549 274.996C98.0077 274.751 98.3757 274.383 98.653 273.892C98.941 273.401 99.085 272.804 99.085 272.1C99.085 271.396 98.9463 270.799 98.669 270.308C98.3917 269.817 98.029 269.455 97.581 269.22C97.133 268.975 96.6477 268.852 96.125 268.852C95.5917 268.852 95.101 268.975 94.653 269.22C94.2157 269.455 93.8637 269.817 93.597 270.308C93.3303 270.799 93.197 271.396 93.197 272.1C93.197 272.815 93.325 273.417 93.581 273.908C93.8477 274.399 94.1997 274.767 94.637 275.012C95.0743 275.247 95.5543 275.364 96.077 275.364ZM106.759 267.572C107.826 267.572 108.69 267.897 109.351 268.548C110.013 269.188 110.343 270.116 110.343 271.332V276.5H108.903V271.54C108.903 270.665 108.685 269.999 108.247 269.54C107.81 269.071 107.213 268.836 106.455 268.836C105.687 268.836 105.074 269.076 104.615 269.556C104.167 270.036 103.943 270.735 103.943 271.652V276.5H102.487V267.732H103.943V268.98C104.231 268.532 104.621 268.185 105.111 267.94C105.613 267.695 106.162 267.572 106.759 267.572ZM121.339 267.572C122.001 267.572 122.598 267.716 123.131 268.004C123.665 268.281 124.081 268.703 124.379 269.268C124.689 269.833 124.843 270.521 124.843 271.332V276.5H123.403V271.54C123.403 270.665 123.185 269.999 122.747 269.54C122.31 269.071 121.713 268.836 120.955 268.836C120.187 268.836 119.574 269.076 119.115 269.556C118.667 270.036 118.443 270.735 118.443 271.652V276.5H116.987V264.66H118.443V268.98C118.731 268.532 119.126 268.185 119.627 267.94C120.139 267.695 120.71 267.572 121.339 267.572ZM126.678 272.084C126.678 271.188 126.859 270.404 127.222 269.732C127.584 269.049 128.08 268.521 128.71 268.148C129.35 267.775 130.059 267.588 130.838 267.588C131.606 267.588 132.272 267.753 132.838 268.084C133.403 268.415 133.824 268.831 134.102 269.332V267.732H135.574V276.5H134.102V274.868C133.814 275.38 133.382 275.807 132.806 276.148C132.24 276.479 131.579 276.644 130.822 276.644C130.043 276.644 129.339 276.452 128.71 276.068C128.08 275.684 127.584 275.145 127.222 274.452C126.859 273.759 126.678 272.969 126.678 272.084ZM134.102 272.1C134.102 271.439 133.968 270.863 133.702 270.372C133.435 269.881 133.072 269.508 132.614 269.252C132.166 268.985 131.67 268.852 131.126 268.852C130.582 268.852 130.086 268.98 129.638 269.236C129.19 269.492 128.832 269.865 128.566 270.356C128.299 270.847 128.166 271.423 128.166 272.084C128.166 272.756 128.299 273.343 128.566 273.844C128.832 274.335 129.19 274.713 129.638 274.98C130.086 275.236 130.582 275.364 131.126 275.364C131.67 275.364 132.166 275.236 132.614 274.98C133.072 274.713 133.435 274.335 133.702 273.844C133.968 273.343 134.102 272.761 134.102 272.1ZM139.49 269.156C139.746 268.655 140.109 268.265 140.578 267.988C141.058 267.711 141.64 267.572 142.322 267.572V269.076H141.938C140.306 269.076 139.49 269.961 139.49 271.732V276.5H138.034V267.732H139.49V269.156ZM143.459 272.084C143.459 271.188 143.64 270.404 144.003 269.732C144.366 269.049 144.862 268.521 145.491 268.148C146.131 267.775 146.846 267.588 147.635 267.588C148.318 267.588 148.952 267.748 149.539 268.068C150.126 268.377 150.574 268.788 150.883 269.3V264.66H152.355V276.5H150.883V274.852C150.595 275.375 150.168 275.807 149.603 276.148C149.038 276.479 148.376 276.644 147.619 276.644C146.84 276.644 146.131 276.452 145.491 276.068C144.862 275.684 144.366 275.145 144.003 274.452C143.64 273.759 143.459 272.969 143.459 272.084ZM150.883 272.1C150.883 271.439 150.75 270.863 150.483 270.372C150.216 269.881 149.854 269.508 149.395 269.252C148.947 268.985 148.451 268.852 147.907 268.852C147.363 268.852 146.867 268.98 146.419 269.236C145.971 269.492 145.614 269.865 145.347 270.356C145.08 270.847 144.947 271.423 144.947 272.084C144.947 272.756 145.08 273.343 145.347 273.844C145.614 274.335 145.971 274.713 146.419 274.98C146.867 275.236 147.363 275.364 147.907 275.364C148.451 275.364 148.947 275.236 149.395 274.98C149.854 274.713 150.216 274.335 150.483 273.844C150.75 273.343 150.883 272.761 150.883 272.1ZM155.279 276.596C155.002 276.596 154.767 276.5 154.575 276.308C154.383 276.116 154.287 275.881 154.287 275.604C154.287 275.327 154.383 275.092 154.575 274.9C154.767 274.708 155.002 274.612 155.279 274.612C155.546 274.612 155.77 274.708 155.951 274.9C156.143 275.092 156.239 275.327 156.239 275.604C156.239 275.881 156.143 276.116 155.951 276.308C155.77 276.5 155.546 276.596 155.279 276.596Z" fill="black"/>
</g>
<defs>
<filter id="filter0_dii_1604_3318" x="-51.6665" y="-53.5" width="418.667" height="432" filterUnits="userSpaceOnUse" color-interpolation-filters="sRGB">
<feFlood flood-opacity="0" result="BackgroundImageFix"/>
<feColorMatrix in="SourceAlpha" type="matrix" values="0 0 0 0 0 0 0 0 0 0 0 0 0 0 0 0 0 0 127 0" result="hardAlpha"/>
<feOffset dy="2"/>
<feGaussianBlur stdDeviation="10"/>
<feComposite in2="hardAlpha" operator="out"/>
<feColorMatrix type="matrix" values="0 0 0 0 0 0 0 0 0 0 0 0 0 0 0 0 0 0 0.02 0"/>
<feBlend mode="normal" in2="BackgroundImageFix" result="effect1_dropShadow_1604_3318"/>
<feBlend mode="normal" in="SourceGraphic" in2="effect1_dropShadow_1604_3318" result="shape"/>
<feColorMatrix in="SourceAlpha" type="matrix" values="0 0 0 0 0 0 0 0 0 0 0 0 0 0 0 0 0 0 127 0" result="hardAlpha"/>
<feOffset/>
<feGaussianBlur stdDeviation="2"/>
<feComposite in2="hardAlpha" operator="arithmetic" k2="-1" k3="1"/>
<feColorMatrix type="matrix" values="0 0 0 0 0.999662 0 0 0 0 0.999662 0 0 0 0 0.999662 0 0 0 0.24 0"/>
<feBlend mode="normal" in2="shape" result="effect2_innerShadow_1604_3318"/>
<feColorMatrix in="SourceAlpha" type="matrix" values="0 0 0 0 0 0 0 0 0 0 0 0 0 0 0 0 0 0 127 0" result="hardAlpha"/>
<feMorphology radius="2" operator="dilate" in="SourceAlpha" result="effect3_innerShadow_1604_3318"/>
<feOffset dx="-1" dy="-1"/>
<feGaussianBlur stdDeviation="2"/>
<feComposite in2="hardAlpha" operator="arithmetic" k2="-1" k3="1"/>
<feColorMatrix type="matrix" values="0 0 0 0 1 0 0 0 0 1 0 0 0 0 1 0 0 0 0.5 0"/>
<feBlend mode="normal" in2="effect2_innerShadow_1604_3318" result="effect3_innerShadow_1604_3318"/>
</filter>
</defs>
</svg>
