<svg width="241" height="280" viewBox="0 0 241 280" fill="none" xmlns="http://www.w3.org/2000/svg">
<g filter="url(#filter0_dii_1604_3282)">
<rect x="20.5" y="18" width="200" height="240" rx="20" fill="white" fill-opacity="0.3" shape-rendering="crispEdges"/>
<path d="M111.418 52.4863H109.523C109.257 52.4863 109.029 52.3919 108.84 52.2031C108.651 52.0078 108.557 51.7767 108.557 51.5098C108.557 51.2493 108.651 51.0215 108.84 50.8262C109.029 50.6309 109.257 50.5332 109.523 50.5332H111.418C111.678 50.5332 111.906 50.6309 112.102 50.8262C112.303 51.015 112.404 51.2428 112.404 51.5098C112.404 51.7767 112.303 52.0078 112.102 52.2031C111.906 52.3919 111.678 52.4863 111.418 52.4863ZM113.371 45.7578L112.033 44.4199C111.844 44.2311 111.75 44.0033 111.75 43.7363C111.75 43.4694 111.844 43.2383 112.033 43.043C112.229 42.8542 112.46 42.7598 112.727 42.7598C113 42.7598 113.228 42.8542 113.41 43.043L114.738 44.3906C114.927 44.5794 115.021 44.8073 115.021 45.0742C115.028 45.3411 114.934 45.569 114.738 45.7578C114.549 45.9531 114.322 46.0508 114.055 46.0508C113.788 46.0443 113.56 45.9466 113.371 45.7578ZM119.523 42.4375V40.543C119.523 40.2826 119.618 40.0547 119.807 39.8594C120.002 39.6641 120.233 39.5664 120.5 39.5664C120.767 39.5664 120.998 39.6641 121.193 39.8594C121.389 40.0547 121.486 40.2826 121.486 40.543V42.4375C121.486 42.6979 121.389 42.9258 121.193 43.1211C121.005 43.3164 120.773 43.4141 120.5 43.4141C120.233 43.4141 120.002 43.3164 119.807 43.1211C119.618 42.9258 119.523 42.6979 119.523 42.4375ZM126.252 44.3906L127.6 43.043C127.788 42.8542 128.013 42.7598 128.273 42.7598C128.54 42.7598 128.771 42.8542 128.967 43.043C129.156 43.2383 129.25 43.4694 129.25 43.7363C129.25 44.0033 129.156 44.2311 128.967 44.4199L127.619 45.7578C127.437 45.9531 127.212 46.0508 126.945 46.0508C126.678 46.0508 126.447 45.9531 126.252 45.7578C126.057 45.569 125.959 45.3411 125.959 45.0742C125.965 44.8073 126.063 44.5794 126.252 44.3906ZM131.457 52.4863H129.572C129.305 52.4863 129.074 52.3919 128.879 52.2031C128.69 52.0078 128.596 51.7767 128.596 51.5098C128.596 51.2428 128.69 51.015 128.879 50.8262C129.074 50.6309 129.305 50.5332 129.572 50.5332H131.457C131.724 50.5332 131.955 50.6309 132.15 50.8262C132.346 51.0215 132.443 51.2493 132.443 51.5098C132.443 51.7767 132.346 52.0078 132.15 52.2031C131.955 52.3919 131.724 52.4863 131.457 52.4863ZM120.5 45.1133C121.366 45.1133 122.176 45.263 122.932 45.5625C123.693 45.8555 124.361 46.2624 124.934 46.7832C125.507 47.304 125.952 47.916 126.271 48.6191C126.59 49.3223 126.75 50.0807 126.75 50.8945C126.75 51.5911 126.678 52.2129 126.535 52.7598C126.398 53.3066 126.216 53.8405 125.988 54.3613C125.767 54.8822 125.533 55.4518 125.285 56.0703C125.044 56.6888 124.82 57.418 124.611 58.2578C124.403 59.0911 124.243 60.1035 124.133 61.2949C124.113 61.5163 124.038 61.6921 123.908 61.8223C123.778 61.9525 123.596 62.0176 123.361 62.0176H117.639C117.404 62.0176 117.222 61.9525 117.092 61.8223C116.962 61.6921 116.887 61.5163 116.867 61.2949C116.757 60.1035 116.597 59.0911 116.389 58.2578C116.18 57.418 115.952 56.6888 115.705 56.0703C115.464 55.4518 115.233 54.8822 115.012 54.3613C114.79 53.8405 114.608 53.3066 114.465 52.7598C114.328 52.2129 114.26 51.5911 114.26 50.8945C114.26 50.0807 114.419 49.3223 114.738 48.6191C115.057 47.916 115.5 47.304 116.066 46.7832C116.639 46.2559 117.303 45.8457 118.059 45.5527C118.814 45.2598 119.628 45.1133 120.5 45.1133ZM120.5 46.793C119.875 46.793 119.286 46.8939 118.732 47.0957C118.186 47.2975 117.701 47.5807 117.277 47.9453C116.861 48.3099 116.532 48.7428 116.291 49.2441C116.05 49.7454 115.93 50.2956 115.93 50.8945C115.93 51.3893 115.988 51.8353 116.105 52.2324C116.223 52.6296 116.376 53.043 116.564 53.4727C116.76 53.8958 116.968 54.4004 117.189 54.9863C117.411 55.5658 117.626 56.2852 117.834 57.1445C118.049 58.0039 118.238 59.0716 118.4 60.3477H122.6C122.762 59.0716 122.948 58.0039 123.156 57.1445C123.371 56.2852 123.589 55.5658 123.811 54.9863C124.038 54.4004 124.247 53.8958 124.436 53.4727C124.631 53.043 124.784 52.6296 124.895 52.2324C125.012 51.8353 125.07 51.3893 125.07 50.8945C125.07 50.2956 124.95 49.7454 124.709 49.2441C124.475 48.7428 124.146 48.3099 123.723 47.9453C123.299 47.5807 122.811 47.2975 122.258 47.0957C121.704 46.8939 121.118 46.793 120.5 46.793ZM117.57 64.1465C117.395 64.1465 117.248 64.0879 117.131 63.9707C117.014 63.847 116.955 63.7005 116.955 63.5312C116.955 63.3555 117.014 63.209 117.131 63.0918C117.248 62.9746 117.395 62.916 117.57 62.916H123.43C123.605 62.916 123.752 62.9746 123.869 63.0918C123.993 63.209 124.055 63.3555 124.055 63.5312C124.055 63.7005 123.993 63.847 123.869 63.9707C123.752 64.0879 123.605 64.1465 123.43 64.1465H117.57ZM120.5 66.8809C119.758 66.8809 119.12 66.7116 118.586 66.373C118.059 66.0345 117.779 65.5918 117.746 65.0449H123.244C123.212 65.5918 122.928 66.0345 122.395 66.373C121.867 66.7116 121.236 66.8809 120.5 66.8809Z" fill="black"/>
<path d="M61.2859 102.112C60.5392 102.112 59.8672 101.984 59.2699 101.728C58.6725 101.461 58.2032 101.088 57.8619 100.608C57.5205 100.128 57.3499 99.568 57.3499 98.928H59.3019C59.3445 99.408 59.5312 99.8027 59.8619 100.112C60.2032 100.421 60.6779 100.576 61.2859 100.576C61.9152 100.576 62.4059 100.427 62.7579 100.128C63.1099 99.8187 63.2859 99.424 63.2859 98.944C63.2859 98.5707 63.1739 98.2667 62.9499 98.032C62.7365 97.7973 62.4645 97.616 62.1339 97.488C61.8139 97.36 61.3659 97.2213 60.7899 97.072C60.0645 96.88 59.4725 96.688 59.0139 96.496C58.5659 96.2933 58.1819 95.984 57.8619 95.568C57.5419 95.152 57.3819 94.5973 57.3819 93.904C57.3819 93.264 57.5419 92.704 57.8619 92.224C58.1819 91.744 58.6299 91.376 59.2059 91.12C59.7819 90.864 60.4485 90.736 61.2059 90.736C62.2832 90.736 63.1632 91.008 63.8459 91.552C64.5392 92.0853 64.9232 92.8213 64.9979 93.76H62.9819C62.9499 93.3547 62.7579 93.008 62.4059 92.72C62.0539 92.432 61.5899 92.288 61.0139 92.288C60.4912 92.288 60.0645 92.4213 59.7339 92.688C59.4032 92.9547 59.2379 93.3387 59.2379 93.84C59.2379 94.1813 59.3392 94.464 59.5419 94.688C59.7552 94.9013 60.0219 95.072 60.3419 95.2C60.6619 95.328 61.0992 95.4667 61.6539 95.616C62.3899 95.8187 62.9872 96.0213 63.4459 96.224C63.9152 96.4267 64.3099 96.7413 64.6299 97.168C64.9605 97.584 65.1259 98.144 65.1259 98.848C65.1259 99.4133 64.9712 99.9467 64.6619 100.448C64.3632 100.949 63.9205 101.355 63.3339 101.664C62.7579 101.963 62.0752 102.112 61.2859 102.112ZM66.6701 97.552C66.6701 96.6667 66.8515 95.8827 67.2141 95.2C67.5875 94.5173 68.0888 93.9893 68.7181 93.616C69.3581 93.232 70.0621 93.04 70.8301 93.04C71.5235 93.04 72.1261 93.1787 72.6381 93.456C73.1608 93.7227 73.5768 94.0587 73.8861 94.464V93.184H75.7261V102H73.8861V100.688C73.5768 101.104 73.1555 101.451 72.6221 101.728C72.0888 102.005 71.4808 102.144 70.7981 102.144C70.0408 102.144 69.3475 101.952 68.7181 101.568C68.0888 101.173 67.5875 100.629 67.2141 99.936C66.8515 99.232 66.6701 98.4373 66.6701 97.552ZM73.8861 97.584C73.8861 96.976 73.7581 96.448 73.5021 96C73.2568 95.552 72.9315 95.2107 72.5261 94.976C72.1208 94.7413 71.6835 94.624 71.2141 94.624C70.7448 94.624 70.3075 94.7413 69.9021 94.976C69.4968 95.2 69.1661 95.536 68.9101 95.984C68.6648 96.4213 68.5421 96.944 68.5421 97.552C68.5421 98.16 68.6648 98.6933 68.9101 99.152C69.1661 99.6107 69.4968 99.9627 69.9021 100.208C70.3181 100.443 70.7555 100.56 71.2141 100.56C71.6835 100.56 72.1208 100.443 72.5261 100.208C72.9315 99.9733 73.2568 99.632 73.5021 99.184C73.7581 98.7253 73.8861 98.192 73.8861 97.584ZM81.8179 94.672H80.1859V102H78.3459V94.672H77.3059V93.184H78.3459V92.56C78.3459 91.5467 78.6125 90.8107 79.1459 90.352C79.6899 89.8827 80.5379 89.648 81.6899 89.648V91.168C81.1352 91.168 80.7459 91.2747 80.5219 91.488C80.2979 91.6907 80.1859 92.048 80.1859 92.56V93.184H81.8179V94.672ZM91.5144 97.376C91.5144 97.7067 91.493 98.0053 91.4504 98.272H84.7144C84.7677 98.976 85.029 99.5413 85.4984 99.968C85.9677 100.395 86.5437 100.608 87.2264 100.608C88.2077 100.608 88.901 100.197 89.3064 99.376H91.2744C91.0077 100.187 90.5224 100.853 89.8184 101.376C89.125 101.888 88.261 102.144 87.2264 102.144C86.3837 102.144 85.6264 101.957 84.9544 101.584C84.293 101.2 83.7704 100.667 83.3864 99.984C83.013 99.2907 82.8264 98.4907 82.8264 97.584C82.8264 96.6773 83.0077 95.8827 83.3704 95.2C83.7437 94.5067 84.261 93.9733 84.9224 93.6C85.5944 93.2267 86.3624 93.04 87.2264 93.04C88.0584 93.04 88.7997 93.2213 89.4504 93.584C90.101 93.9467 90.6077 94.4587 90.9704 95.12C91.333 95.7707 91.5144 96.5227 91.5144 97.376ZM89.6104 96.8C89.5997 96.128 89.3597 95.5893 88.8904 95.184C88.421 94.7787 87.8397 94.576 87.1464 94.576C86.517 94.576 85.9784 94.7787 85.5304 95.184C85.0824 95.5787 84.8157 96.1173 84.7304 96.8H89.6104ZM95.4374 94.672V99.552C95.4374 99.8827 95.512 100.123 95.6614 100.272C95.8214 100.411 96.088 100.48 96.4614 100.48H97.5814V102H96.1414C95.32 102 94.6907 101.808 94.2534 101.424C93.816 101.04 93.5974 100.416 93.5974 99.552V94.672H92.5574V93.184H93.5974V90.992H95.4374V93.184H97.5814V94.672H95.4374ZM107.199 93.184L101.791 106.144H99.9025L101.695 101.856L98.2225 93.184H100.255L102.735 99.904L105.311 93.184H107.199ZM124.443 90.88V102H122.619V94.384L119.227 102H117.963L114.555 94.384V102H112.731V90.88H114.699L118.603 99.6L122.491 90.88H124.443ZM126.233 97.552C126.233 96.6667 126.414 95.8827 126.777 95.2C127.15 94.5173 127.651 93.9893 128.281 93.616C128.921 93.232 129.625 93.04 130.393 93.04C131.086 93.04 131.689 93.1787 132.201 93.456C132.723 93.7227 133.139 94.0587 133.449 94.464V93.184H135.289V102H133.449V100.688C133.139 101.104 132.718 101.451 132.185 101.728C131.651 102.005 131.043 102.144 130.361 102.144C129.603 102.144 128.91 101.952 128.281 101.568C127.651 101.173 127.15 100.629 126.777 99.936C126.414 99.232 126.233 98.4373 126.233 97.552ZM133.449 97.584C133.449 96.976 133.321 96.448 133.065 96C132.819 95.552 132.494 95.2107 132.089 94.976C131.683 94.7413 131.246 94.624 130.777 94.624C130.307 94.624 129.87 94.7413 129.465 94.976C129.059 95.2 128.729 95.536 128.473 95.984C128.227 96.4213 128.105 96.944 128.105 97.552C128.105 98.16 128.227 98.6933 128.473 99.152C128.729 99.6107 129.059 99.9627 129.465 100.208C129.881 100.443 130.318 100.56 130.777 100.56C131.246 100.56 131.683 100.443 132.089 100.208C132.494 99.9733 132.819 99.632 133.065 99.184C133.321 98.7253 133.449 98.192 133.449 97.584ZM142.132 93.04C142.826 93.04 143.444 93.184 143.988 93.472C144.543 93.76 144.975 94.1867 145.284 94.752C145.594 95.3173 145.748 96 145.748 96.8V102H143.94V97.072C143.94 96.2827 143.743 95.68 143.348 95.264C142.954 94.8373 142.415 94.624 141.732 94.624C141.05 94.624 140.506 94.8373 140.1 95.264C139.706 95.68 139.508 96.2827 139.508 97.072V102H137.684V93.184H139.508V94.192C139.807 93.8293 140.186 93.5467 140.644 93.344C141.114 93.1413 141.61 93.04 142.132 93.04ZM147.467 97.552C147.467 96.6667 147.648 95.8827 148.011 95.2C148.384 94.5173 148.886 93.9893 149.515 93.616C150.155 93.232 150.859 93.04 151.627 93.04C152.32 93.04 152.923 93.1787 153.435 93.456C153.958 93.7227 154.374 94.0587 154.683 94.464V93.184H156.523V102H154.683V100.688C154.374 101.104 153.952 101.451 153.419 101.728C152.886 102.005 152.278 102.144 151.595 102.144C150.838 102.144 150.144 101.952 149.515 101.568C148.886 101.173 148.384 100.629 148.011 99.936C147.648 99.232 147.467 98.4373 147.467 97.552ZM154.683 97.584C154.683 96.976 154.555 96.448 154.299 96C154.054 95.552 153.728 95.2107 153.323 94.976C152.918 94.7413 152.48 94.624 152.011 94.624C151.542 94.624 151.104 94.7413 150.699 94.976C150.294 95.2 149.963 95.536 149.707 95.984C149.462 96.4213 149.339 96.944 149.339 97.552C149.339 98.16 149.462 98.6933 149.707 99.152C149.963 99.6107 150.294 99.9627 150.699 100.208C151.115 100.443 151.552 100.56 152.011 100.56C152.48 100.56 152.918 100.443 153.323 100.208C153.728 99.9733 154.054 99.632 154.299 99.184C154.555 98.7253 154.683 98.192 154.683 97.584ZM162.471 93.04C163.153 93.04 163.756 93.1787 164.279 93.456C164.812 93.7227 165.228 94.0587 165.527 94.464V93.184H167.367V102.144C167.367 102.955 167.196 103.675 166.855 104.304C166.513 104.944 166.017 105.445 165.367 105.808C164.727 106.171 163.959 106.352 163.063 106.352C161.868 106.352 160.876 106.069 160.087 105.504C159.297 104.949 158.849 104.192 158.743 103.232H160.551C160.689 103.691 160.983 104.059 161.431 104.336C161.889 104.624 162.433 104.768 163.063 104.768C163.799 104.768 164.391 104.544 164.839 104.096C165.297 103.648 165.527 102.997 165.527 102.144V100.672C165.217 101.088 164.796 101.44 164.263 101.728C163.74 102.005 163.143 102.144 162.471 102.144C161.703 102.144 160.999 101.952 160.359 101.568C159.729 101.173 159.228 100.629 158.855 99.936C158.492 99.232 158.311 98.4373 158.311 97.552C158.311 96.6667 158.492 95.8827 158.855 95.2C159.228 94.5173 159.729 93.9893 160.359 93.616C160.999 93.232 161.703 93.04 162.471 93.04ZM165.527 97.584C165.527 96.976 165.399 96.448 165.143 96C164.897 95.552 164.572 95.2107 164.167 94.976C163.761 94.7413 163.324 94.624 162.855 94.624C162.385 94.624 161.948 94.7413 161.543 94.976C161.137 95.2 160.807 95.536 160.551 95.984C160.305 96.4213 160.183 96.944 160.183 97.552C160.183 98.16 160.305 98.6933 160.551 99.152C160.807 99.6107 161.137 99.9627 161.543 100.208C161.959 100.443 162.396 100.56 162.855 100.56C163.324 100.56 163.761 100.443 164.167 100.208C164.572 99.9733 164.897 99.632 165.143 99.184C165.399 98.7253 165.527 98.192 165.527 97.584ZM177.843 97.376C177.843 97.7067 177.821 98.0053 177.779 98.272H171.043C171.096 98.976 171.357 99.5413 171.827 99.968C172.296 100.395 172.872 100.608 173.555 100.608C174.536 100.608 175.229 100.197 175.635 99.376H177.602C177.336 100.187 176.851 100.853 176.147 101.376C175.453 101.888 174.589 102.144 173.555 102.144C172.712 102.144 171.955 101.957 171.283 101.584C170.621 101.2 170.099 100.667 169.715 99.984C169.341 99.2907 169.155 98.4907 169.155 97.584C169.155 96.6773 169.336 95.8827 169.699 95.2C170.072 94.5067 170.589 93.9733 171.251 93.6C171.923 93.2267 172.691 93.04 173.555 93.04C174.387 93.04 175.128 93.2213 175.779 93.584C176.429 93.9467 176.936 94.4587 177.299 95.12C177.661 95.7707 177.843 96.5227 177.843 97.376ZM175.939 96.8C175.928 96.128 175.688 95.5893 175.219 95.184C174.749 94.7787 174.168 94.576 173.475 94.576C172.845 94.576 172.307 94.7787 171.859 95.184C171.411 95.5787 171.144 96.1173 171.059 96.8H175.939ZM181.462 94.464C181.728 94.016 182.08 93.6693 182.518 93.424C182.966 93.168 183.494 93.04 184.102 93.04V94.928H183.638C182.923 94.928 182.379 95.1093 182.006 95.472C181.643 95.8347 181.462 96.464 181.462 97.36V102H179.638V93.184H181.462V94.464Z" fill="black"/>
<path d="M71.9721 136.114C71.9721 135.162 72.1868 134.308 72.6161 133.552C73.0455 132.787 73.6288 132.189 74.3661 131.76C75.1128 131.331 75.9388 131.116 76.8441 131.116C77.9081 131.116 78.8368 131.373 79.6301 131.886C80.4235 132.399 81.0021 133.127 81.3661 134.07H79.8401C79.5695 133.482 79.1775 133.029 78.6641 132.712C78.1601 132.395 77.5535 132.236 76.8441 132.236C76.1628 132.236 75.5515 132.395 75.0101 132.712C74.4688 133.029 74.0441 133.482 73.7361 134.07C73.4281 134.649 73.2741 135.33 73.2741 136.114C73.2741 136.889 73.4281 137.57 73.7361 138.158C74.0441 138.737 74.4688 139.185 75.0101 139.502C75.5515 139.819 76.1628 139.978 76.8441 139.978C77.5535 139.978 78.1601 139.824 78.6641 139.516C79.1775 139.199 79.5695 138.746 79.8401 138.158H81.3661C81.0021 139.091 80.4235 139.815 79.6301 140.328C78.8368 140.832 77.9081 141.084 76.8441 141.084C75.9388 141.084 75.1128 140.874 74.3661 140.454C73.6288 140.025 73.0455 139.432 72.6161 138.676C72.1868 137.92 71.9721 137.066 71.9721 136.114ZM87.0706 133.188C87.6492 133.188 88.1719 133.314 88.6386 133.566C89.1052 133.809 89.4692 134.177 89.7306 134.672C90.0012 135.167 90.1366 135.769 90.1366 136.478V141H88.8766V136.66C88.8766 135.895 88.6852 135.311 88.3026 134.91C87.9199 134.499 87.3972 134.294 86.7346 134.294C86.0626 134.294 85.5259 134.504 85.1246 134.924C84.7326 135.344 84.5366 135.955 84.5366 136.758V141H83.2626V130.64H84.5366V134.42C84.7886 134.028 85.1339 133.725 85.5726 133.51C86.0206 133.295 86.5199 133.188 87.0706 133.188ZM99.2176 136.87C99.2176 137.113 99.2036 137.369 99.1756 137.64H93.0436C93.0903 138.396 93.347 138.989 93.8136 139.418C94.2896 139.838 94.8636 140.048 95.5356 140.048C96.0863 140.048 96.5436 139.922 96.9076 139.67C97.281 139.409 97.5423 139.063 97.6916 138.634H99.0636C98.8583 139.371 98.4476 139.973 97.8316 140.44C97.2156 140.897 96.4503 141.126 95.5356 141.126C94.8076 141.126 94.1543 140.963 93.5756 140.636C93.0063 140.309 92.5583 139.847 92.2316 139.25C91.905 138.643 91.7416 137.943 91.7416 137.15C91.7416 136.357 91.9003 135.661 92.2176 135.064C92.535 134.467 92.9783 134.009 93.5476 133.692C94.1263 133.365 94.789 133.202 95.5356 133.202C96.2636 133.202 96.9076 133.361 97.4676 133.678C98.0276 133.995 98.457 134.434 98.7556 134.994C99.0636 135.545 99.2176 136.17 99.2176 136.87ZM97.9016 136.604C97.9016 136.119 97.7943 135.703 97.5796 135.358C97.365 135.003 97.071 134.737 96.6976 134.56C96.3336 134.373 95.9276 134.28 95.4796 134.28C94.8356 134.28 94.285 134.485 93.8276 134.896C93.3796 135.307 93.123 135.876 93.0576 136.604H97.9016ZM100.423 137.15C100.423 136.357 100.582 135.666 100.899 135.078C101.217 134.481 101.655 134.019 102.215 133.692C102.785 133.365 103.433 133.202 104.161 133.202C105.104 133.202 105.879 133.431 106.485 133.888C107.101 134.345 107.507 134.98 107.703 135.792H106.331C106.201 135.325 105.944 134.957 105.561 134.686C105.188 134.415 104.721 134.28 104.161 134.28C103.433 134.28 102.845 134.532 102.397 135.036C101.949 135.531 101.725 136.235 101.725 137.15C101.725 138.074 101.949 138.788 102.397 139.292C102.845 139.796 103.433 140.048 104.161 140.048C104.721 140.048 105.188 139.917 105.561 139.656C105.935 139.395 106.191 139.021 106.331 138.536H107.703C107.498 139.32 107.087 139.95 106.471 140.426C105.855 140.893 105.085 141.126 104.161 141.126C103.433 141.126 102.785 140.963 102.215 140.636C101.655 140.309 101.217 139.847 100.899 139.25C100.582 138.653 100.423 137.953 100.423 137.15ZM113.687 141L110.677 137.612V141H109.403V130.64H110.677V136.73L113.631 133.328H115.409L111.797 137.15L115.423 141H113.687ZM119.324 141.126C118.736 141.126 118.209 141.028 117.742 140.832C117.276 140.627 116.907 140.347 116.636 139.992C116.366 139.628 116.216 139.213 116.188 138.746H117.504C117.542 139.129 117.719 139.441 118.036 139.684C118.363 139.927 118.788 140.048 119.31 140.048C119.796 140.048 120.178 139.941 120.458 139.726C120.738 139.511 120.878 139.241 120.878 138.914C120.878 138.578 120.729 138.331 120.43 138.172C120.132 138.004 119.67 137.841 119.044 137.682C118.475 137.533 118.008 137.383 117.644 137.234C117.29 137.075 116.982 136.847 116.72 136.548C116.468 136.24 116.342 135.839 116.342 135.344C116.342 134.952 116.459 134.593 116.692 134.266C116.926 133.939 117.257 133.683 117.686 133.496C118.116 133.3 118.606 133.202 119.156 133.202C120.006 133.202 120.692 133.417 121.214 133.846C121.737 134.275 122.017 134.863 122.054 135.61H120.78C120.752 135.209 120.589 134.887 120.29 134.644C120.001 134.401 119.609 134.28 119.114 134.28C118.657 134.28 118.293 134.378 118.022 134.574C117.752 134.77 117.616 135.027 117.616 135.344C117.616 135.596 117.696 135.806 117.854 135.974C118.022 136.133 118.228 136.263 118.47 136.366C118.722 136.459 119.068 136.567 119.506 136.688C120.057 136.837 120.505 136.987 120.85 137.136C121.196 137.276 121.49 137.491 121.732 137.78C121.984 138.069 122.115 138.447 122.124 138.914C122.124 139.334 122.008 139.712 121.774 140.048C121.541 140.384 121.21 140.65 120.78 140.846C120.36 141.033 119.875 141.126 119.324 141.126ZM130.371 141.126C129.783 141.126 129.256 141.028 128.789 140.832C128.322 140.627 127.954 140.347 127.683 139.992C127.412 139.628 127.263 139.213 127.235 138.746H128.551C128.588 139.129 128.766 139.441 129.083 139.684C129.41 139.927 129.834 140.048 130.357 140.048C130.842 140.048 131.225 139.941 131.505 139.726C131.785 139.511 131.925 139.241 131.925 138.914C131.925 138.578 131.776 138.331 131.477 138.172C131.178 138.004 130.716 137.841 130.091 137.682C129.522 137.533 129.055 137.383 128.691 137.234C128.336 137.075 128.028 136.847 127.767 136.548C127.515 136.24 127.389 135.839 127.389 135.344C127.389 134.952 127.506 134.593 127.739 134.266C127.972 133.939 128.304 133.683 128.733 133.496C129.162 133.3 129.652 133.202 130.203 133.202C131.052 133.202 131.738 133.417 132.261 133.846C132.784 134.275 133.064 134.863 133.101 135.61H131.827C131.799 135.209 131.636 134.887 131.337 134.644C131.048 134.401 130.656 134.28 130.161 134.28C129.704 134.28 129.34 134.378 129.069 134.574C128.798 134.77 128.663 135.027 128.663 135.344C128.663 135.596 128.742 135.806 128.901 135.974C129.069 136.133 129.274 136.263 129.517 136.366C129.769 136.459 130.114 136.567 130.553 136.688C131.104 136.837 131.552 136.987 131.897 137.136C132.242 137.276 132.536 137.491 132.779 137.78C133.031 138.069 133.162 138.447 133.171 138.914C133.171 139.334 133.054 139.712 132.821 140.048C132.588 140.384 132.256 140.65 131.827 140.846C131.407 141.033 130.922 141.126 130.371 141.126ZM134.494 137.136C134.494 136.352 134.652 135.666 134.97 135.078C135.287 134.481 135.721 134.019 136.272 133.692C136.832 133.365 137.452 133.202 138.134 133.202C138.806 133.202 139.389 133.347 139.884 133.636C140.378 133.925 140.747 134.289 140.99 134.728V133.328H142.278V141H140.99V139.572C140.738 140.02 140.36 140.393 139.856 140.692C139.361 140.981 138.782 141.126 138.12 141.126C137.438 141.126 136.822 140.958 136.272 140.622C135.721 140.286 135.287 139.815 134.97 139.208C134.652 138.601 134.494 137.911 134.494 137.136ZM140.99 137.15C140.99 136.571 140.873 136.067 140.64 135.638C140.406 135.209 140.089 134.882 139.688 134.658C139.296 134.425 138.862 134.308 138.386 134.308C137.91 134.308 137.476 134.42 137.084 134.644C136.692 134.868 136.379 135.195 136.146 135.624C135.912 136.053 135.796 136.557 135.796 137.136C135.796 137.724 135.912 138.237 136.146 138.676C136.379 139.105 136.692 139.437 137.084 139.67C137.476 139.894 137.91 140.006 138.386 140.006C138.862 140.006 139.296 139.894 139.688 139.67C140.089 139.437 140.406 139.105 140.64 138.676C140.873 138.237 140.99 137.729 140.99 137.15ZM147.553 134.378H145.943V141H144.669V134.378H143.675V133.328H144.669V132.782C144.669 131.923 144.888 131.298 145.327 130.906C145.775 130.505 146.489 130.304 147.469 130.304V131.368C146.909 131.368 146.512 131.48 146.279 131.704C146.055 131.919 145.943 132.278 145.943 132.782V133.328H147.553V134.378ZM156.038 136.87C156.038 137.113 156.024 137.369 155.996 137.64H149.864C149.911 138.396 150.167 138.989 150.634 139.418C151.11 139.838 151.684 140.048 152.356 140.048C152.907 140.048 153.364 139.922 153.728 139.67C154.101 139.409 154.363 139.063 154.512 138.634H155.884C155.679 139.371 155.268 139.973 154.652 140.44C154.036 140.897 153.271 141.126 152.356 141.126C151.628 141.126 150.975 140.963 150.396 140.636C149.827 140.309 149.379 139.847 149.052 139.25C148.725 138.643 148.562 137.943 148.562 137.15C148.562 136.357 148.721 135.661 149.038 135.064C149.355 134.467 149.799 134.009 150.368 133.692C150.947 133.365 151.609 133.202 152.356 133.202C153.084 133.202 153.728 133.361 154.288 133.678C154.848 133.995 155.277 134.434 155.576 134.994C155.884 135.545 156.038 136.17 156.038 136.87ZM154.722 136.604C154.722 136.119 154.615 135.703 154.4 135.358C154.185 135.003 153.891 134.737 153.518 134.56C153.154 134.373 152.748 134.28 152.3 134.28C151.656 134.28 151.105 134.485 150.648 134.896C150.2 135.307 149.943 135.876 149.878 136.604H154.722ZM159.274 134.378V138.9C159.274 139.273 159.353 139.539 159.512 139.698C159.67 139.847 159.946 139.922 160.338 139.922H161.276V141H160.128C159.418 141 158.886 140.837 158.532 140.51C158.177 140.183 158 139.647 158 138.9V134.378H157.006V133.328H158V131.396H159.274V133.328H161.276V134.378H159.274ZM169.427 133.328L164.807 144.612H163.491L165.003 140.916L161.909 133.328H163.323L165.731 139.544L168.111 133.328H169.427ZM61.5405 155.742C61.7925 155.303 62.1658 154.939 62.6605 154.65C63.1645 154.351 63.7478 154.202 64.4105 154.202C65.0918 154.202 65.7078 154.365 66.2585 154.692C66.8185 155.019 67.2571 155.481 67.5745 156.078C67.8918 156.666 68.0505 157.352 68.0505 158.136C68.0505 158.911 67.8918 159.601 67.5745 160.208C67.2571 160.815 66.8185 161.286 66.2585 161.622C65.7078 161.958 65.0918 162.126 64.4105 162.126C63.7571 162.126 63.1785 161.981 62.6745 161.692C62.1798 161.393 61.8018 161.025 61.5405 160.586V165.64H60.2665V154.328H61.5405V155.742ZM66.7485 158.136C66.7485 157.557 66.6318 157.053 66.3985 156.624C66.1651 156.195 65.8478 155.868 65.4465 155.644C65.0545 155.42 64.6205 155.308 64.1445 155.308C63.6778 155.308 63.2438 155.425 62.8425 155.658C62.4505 155.882 62.1331 156.213 61.8905 156.652C61.6571 157.081 61.5405 157.581 61.5405 158.15C61.5405 158.729 61.6571 159.237 61.8905 159.676C62.1331 160.105 62.4505 160.437 62.8425 160.67C63.2438 160.894 63.6778 161.006 64.1445 161.006C64.6205 161.006 65.0545 160.894 65.4465 160.67C65.8478 160.437 66.1651 160.105 66.3985 159.676C66.6318 159.237 66.7485 158.724 66.7485 158.136ZM71.0014 155.574C71.2254 155.135 71.5427 154.795 71.9534 154.552C72.3734 154.309 72.8821 154.188 73.4794 154.188V155.504H73.1434C71.7154 155.504 71.0014 156.279 71.0014 157.828V162H69.7274V154.328H71.0014V155.574ZM74.4741 158.136C74.4741 157.352 74.6327 156.666 74.9501 156.078C75.2674 155.481 75.7014 155.019 76.2521 154.692C76.8121 154.365 77.4327 154.202 78.1141 154.202C78.7861 154.202 79.3694 154.347 79.8641 154.636C80.3587 154.925 80.7274 155.289 80.9701 155.728V154.328H82.2581V162H80.9701V160.572C80.7181 161.02 80.3401 161.393 79.8361 161.692C79.3414 161.981 78.7627 162.126 78.1001 162.126C77.4187 162.126 76.8027 161.958 76.2521 161.622C75.7014 161.286 75.2674 160.815 74.9501 160.208C74.6327 159.601 74.4741 158.911 74.4741 158.136ZM80.9701 158.15C80.9701 157.571 80.8534 157.067 80.6201 156.638C80.3867 156.209 80.0694 155.882 79.6681 155.658C79.2761 155.425 78.8421 155.308 78.3661 155.308C77.8901 155.308 77.4561 155.42 77.0641 155.644C76.6721 155.868 76.3594 156.195 76.1261 156.624C75.8927 157.053 75.7761 157.557 75.7761 158.136C75.7761 158.724 75.8927 159.237 76.1261 159.676C76.3594 160.105 76.6721 160.437 77.0641 160.67C77.4561 160.894 77.8901 161.006 78.3661 161.006C78.8421 161.006 79.2761 160.894 79.6681 160.67C80.0694 160.437 80.3867 160.105 80.6201 159.676C80.8534 159.237 80.9701 158.729 80.9701 158.15ZM83.935 158.15C83.935 157.357 84.0937 156.666 84.411 156.078C84.7283 155.481 85.167 155.019 85.727 154.692C86.2963 154.365 86.945 154.202 87.673 154.202C88.6157 154.202 89.3903 154.431 89.997 154.888C90.613 155.345 91.019 155.98 91.215 156.792H89.843C89.7123 156.325 89.4557 155.957 89.073 155.686C88.6997 155.415 88.233 155.28 87.673 155.28C86.945 155.28 86.357 155.532 85.909 156.036C85.461 156.531 85.237 157.235 85.237 158.15C85.237 159.074 85.461 159.788 85.909 160.292C86.357 160.796 86.945 161.048 87.673 161.048C88.233 161.048 88.6997 160.917 89.073 160.656C89.4463 160.395 89.703 160.021 89.843 159.536H91.215C91.0097 160.32 90.599 160.95 89.983 161.426C89.367 161.893 88.597 162.126 87.673 162.126C86.945 162.126 86.2963 161.963 85.727 161.636C85.167 161.309 84.7283 160.847 84.411 160.25C84.0937 159.653 83.935 158.953 83.935 158.15ZM94.4689 155.378V159.9C94.4689 160.273 94.5482 160.539 94.7069 160.698C94.8656 160.847 95.1409 160.922 95.5329 160.922H96.4709V162H95.3229C94.6136 162 94.0816 161.837 93.7269 161.51C93.3722 161.183 93.1949 160.647 93.1949 159.9V155.378H92.2009V154.328H93.1949V152.396H94.4689V154.328H96.4709V155.378H94.4689ZM98.6725 153.082C98.4299 153.082 98.2245 152.998 98.0565 152.83C97.8885 152.662 97.8045 152.457 97.8045 152.214C97.8045 151.971 97.8885 151.766 98.0565 151.598C98.2245 151.43 98.4299 151.346 98.6725 151.346C98.9059 151.346 99.1019 151.43 99.2605 151.598C99.4285 151.766 99.5125 151.971 99.5125 152.214C99.5125 152.457 99.4285 152.662 99.2605 152.83C99.1019 152.998 98.9059 153.082 98.6725 153.082ZM99.2885 154.328V162H98.0145V154.328H99.2885ZM100.984 158.15C100.984 157.357 101.143 156.666 101.46 156.078C101.777 155.481 102.216 155.019 102.776 154.692C103.345 154.365 103.994 154.202 104.722 154.202C105.665 154.202 106.439 154.431 107.046 154.888C107.662 155.345 108.068 155.98 108.264 156.792H106.892C106.761 156.325 106.505 155.957 106.122 155.686C105.749 155.415 105.282 155.28 104.722 155.28C103.994 155.28 103.406 155.532 102.958 156.036C102.51 156.531 102.286 157.235 102.286 158.15C102.286 159.074 102.51 159.788 102.958 160.292C103.406 160.796 103.994 161.048 104.722 161.048C105.282 161.048 105.749 160.917 106.122 160.656C106.495 160.395 106.752 160.021 106.892 159.536H108.264C108.059 160.32 107.648 160.95 107.032 161.426C106.416 161.893 105.646 162.126 104.722 162.126C103.994 162.126 103.345 161.963 102.776 161.636C102.216 161.309 101.777 160.847 101.46 160.25C101.143 159.653 100.984 158.953 100.984 158.15ZM116.964 157.87C116.964 158.113 116.95 158.369 116.922 158.64H110.79C110.836 159.396 111.093 159.989 111.56 160.418C112.036 160.838 112.61 161.048 113.282 161.048C113.832 161.048 114.29 160.922 114.654 160.67C115.027 160.409 115.288 160.063 115.438 159.634H116.81C116.604 160.371 116.194 160.973 115.578 161.44C114.962 161.897 114.196 162.126 113.282 162.126C112.554 162.126 111.9 161.963 111.322 161.636C110.752 161.309 110.304 160.847 109.978 160.25C109.651 159.643 109.488 158.943 109.488 158.15C109.488 157.357 109.646 156.661 109.964 156.064C110.281 155.467 110.724 155.009 111.294 154.692C111.872 154.365 112.535 154.202 113.282 154.202C114.01 154.202 114.654 154.361 115.214 154.678C115.774 154.995 116.203 155.434 116.502 155.994C116.81 156.545 116.964 157.17 116.964 157.87ZM115.648 157.604C115.648 157.119 115.54 156.703 115.326 156.358C115.111 156.003 114.817 155.737 114.444 155.56C114.08 155.373 113.674 155.28 113.226 155.28C112.582 155.28 112.031 155.485 111.574 155.896C111.126 156.307 110.869 156.876 110.804 157.604H115.648ZM121.361 162.126C120.773 162.126 120.246 162.028 119.779 161.832C119.313 161.627 118.944 161.347 118.673 160.992C118.403 160.628 118.253 160.213 118.225 159.746H119.541C119.579 160.129 119.756 160.441 120.073 160.684C120.4 160.927 120.825 161.048 121.347 161.048C121.833 161.048 122.215 160.941 122.495 160.726C122.775 160.511 122.915 160.241 122.915 159.914C122.915 159.578 122.766 159.331 122.467 159.172C122.169 159.004 121.707 158.841 121.081 158.682C120.512 158.533 120.045 158.383 119.681 158.234C119.327 158.075 119.019 157.847 118.757 157.548C118.505 157.24 118.379 156.839 118.379 156.344C118.379 155.952 118.496 155.593 118.729 155.266C118.963 154.939 119.294 154.683 119.723 154.496C120.153 154.3 120.643 154.202 121.193 154.202C122.043 154.202 122.729 154.417 123.251 154.846C123.774 155.275 124.054 155.863 124.091 156.61H122.817C122.789 156.209 122.626 155.887 122.327 155.644C122.038 155.401 121.646 155.28 121.151 155.28C120.694 155.28 120.33 155.378 120.059 155.574C119.789 155.77 119.653 156.027 119.653 156.344C119.653 156.596 119.733 156.806 119.891 156.974C120.059 157.133 120.265 157.263 120.507 157.366C120.759 157.459 121.105 157.567 121.543 157.688C122.094 157.837 122.542 157.987 122.887 158.136C123.233 158.276 123.527 158.491 123.769 158.78C124.021 159.069 124.152 159.447 124.161 159.914C124.161 160.334 124.045 160.712 123.811 161.048C123.578 161.384 123.247 161.65 122.817 161.846C122.397 162.033 121.912 162.126 121.361 162.126ZM129.216 158.136C129.216 157.352 129.375 156.666 129.692 156.078C130.01 155.481 130.444 155.019 130.994 154.692C131.554 154.365 132.175 154.202 132.856 154.202C133.528 154.202 134.112 154.347 134.606 154.636C135.101 154.925 135.47 155.289 135.712 155.728V154.328H137V162H135.712V160.572C135.46 161.02 135.082 161.393 134.578 161.692C134.084 161.981 133.505 162.126 132.842 162.126C132.161 162.126 131.545 161.958 130.994 161.622C130.444 161.286 130.01 160.815 129.692 160.208C129.375 159.601 129.216 158.911 129.216 158.136ZM135.712 158.15C135.712 157.571 135.596 157.067 135.362 156.638C135.129 156.209 134.812 155.882 134.41 155.658C134.018 155.425 133.584 155.308 133.108 155.308C132.632 155.308 132.198 155.42 131.806 155.644C131.414 155.868 131.102 156.195 130.868 156.624C130.635 157.053 130.518 157.557 130.518 158.136C130.518 158.724 130.635 159.237 130.868 159.676C131.102 160.105 131.414 160.437 131.806 160.67C132.198 160.894 132.632 161.006 133.108 161.006C133.584 161.006 134.018 160.894 134.41 160.67C134.812 160.437 135.129 160.105 135.362 159.676C135.596 159.237 135.712 158.729 135.712 158.15ZM142.317 154.202C142.98 154.202 143.559 154.347 144.053 154.636C144.557 154.925 144.931 155.289 145.173 155.728V154.328H146.461V162.168C146.461 162.868 146.312 163.489 146.013 164.03C145.715 164.581 145.285 165.01 144.725 165.318C144.175 165.626 143.531 165.78 142.793 165.78C141.785 165.78 140.945 165.542 140.273 165.066C139.601 164.59 139.205 163.941 139.083 163.12H140.343C140.483 163.587 140.773 163.96 141.211 164.24C141.65 164.529 142.177 164.674 142.793 164.674C143.493 164.674 144.063 164.455 144.501 164.016C144.949 163.577 145.173 162.961 145.173 162.168V160.558C144.921 161.006 144.548 161.379 144.053 161.678C143.559 161.977 142.98 162.126 142.317 162.126C141.636 162.126 141.015 161.958 140.455 161.622C139.905 161.286 139.471 160.815 139.153 160.208C138.836 159.601 138.677 158.911 138.677 158.136C138.677 157.352 138.836 156.666 139.153 156.078C139.471 155.481 139.905 155.019 140.455 154.692C141.015 154.365 141.636 154.202 142.317 154.202ZM145.173 158.15C145.173 157.571 145.057 157.067 144.823 156.638C144.59 156.209 144.273 155.882 143.871 155.658C143.479 155.425 143.045 155.308 142.569 155.308C142.093 155.308 141.659 155.42 141.267 155.644C140.875 155.868 140.563 156.195 140.329 156.624C140.096 157.053 139.979 157.557 139.979 158.136C139.979 158.724 140.096 159.237 140.329 159.676C140.563 160.105 140.875 160.437 141.267 160.67C141.659 160.894 142.093 161.006 142.569 161.006C143.045 161.006 143.479 160.894 143.871 160.67C144.273 160.437 144.59 160.105 144.823 159.676C145.057 159.237 145.173 158.729 145.173 158.15ZM148.138 158.136C148.138 157.352 148.297 156.666 148.614 156.078C148.931 155.481 149.365 155.019 149.916 154.692C150.476 154.365 151.097 154.202 151.778 154.202C152.45 154.202 153.033 154.347 153.528 154.636C154.023 154.925 154.391 155.289 154.634 155.728V154.328H155.922V162H154.634V160.572C154.382 161.02 154.004 161.393 153.5 161.692C153.005 161.981 152.427 162.126 151.764 162.126C151.083 162.126 150.467 161.958 149.916 161.622C149.365 161.286 148.931 160.815 148.614 160.208C148.297 159.601 148.138 158.911 148.138 158.136ZM154.634 158.15C154.634 157.571 154.517 157.067 154.284 156.638C154.051 156.209 153.733 155.882 153.332 155.658C152.94 155.425 152.506 155.308 152.03 155.308C151.554 155.308 151.12 155.42 150.728 155.644C150.336 155.868 150.023 156.195 149.79 156.624C149.557 157.053 149.44 157.557 149.44 158.136C149.44 158.724 149.557 159.237 149.79 159.676C150.023 160.105 150.336 160.437 150.728 160.67C151.12 160.894 151.554 161.006 152.03 161.006C152.506 161.006 152.94 160.894 153.332 160.67C153.733 160.437 154.051 160.105 154.284 159.676C154.517 159.237 154.634 158.729 154.634 158.15ZM158.733 153.082C158.49 153.082 158.285 152.998 158.117 152.83C157.949 152.662 157.865 152.457 157.865 152.214C157.865 151.971 157.949 151.766 158.117 151.598C158.285 151.43 158.49 151.346 158.733 151.346C158.966 151.346 159.162 151.43 159.321 151.598C159.489 151.766 159.573 151.971 159.573 152.214C159.573 152.457 159.489 152.662 159.321 152.83C159.162 152.998 158.966 153.082 158.733 153.082ZM159.349 154.328V162H158.075V154.328H159.349ZM165.258 154.188C166.192 154.188 166.948 154.473 167.526 155.042C168.105 155.602 168.394 156.414 168.394 157.478V162H167.134V157.66C167.134 156.895 166.943 156.311 166.56 155.91C166.178 155.499 165.655 155.294 164.992 155.294C164.32 155.294 163.784 155.504 163.382 155.924C162.99 156.344 162.794 156.955 162.794 157.758V162H161.52V154.328H162.794V155.42C163.046 155.028 163.387 154.725 163.816 154.51C164.255 154.295 164.736 154.188 165.258 154.188ZM173.191 162.126C172.603 162.126 172.076 162.028 171.609 161.832C171.143 161.627 170.774 161.347 170.503 160.992C170.233 160.628 170.083 160.213 170.055 159.746H171.371C171.409 160.129 171.586 160.441 171.903 160.684C172.23 160.927 172.655 161.048 173.177 161.048C173.663 161.048 174.045 160.941 174.325 160.726C174.605 160.511 174.745 160.241 174.745 159.914C174.745 159.578 174.596 159.331 174.297 159.172C173.999 159.004 173.537 158.841 172.911 158.682C172.342 158.533 171.875 158.383 171.511 158.234C171.157 158.075 170.849 157.847 170.587 157.548C170.335 157.24 170.209 156.839 170.209 156.344C170.209 155.952 170.326 155.593 170.559 155.266C170.793 154.939 171.124 154.683 171.553 154.496C171.983 154.3 172.473 154.202 173.023 154.202C173.873 154.202 174.559 154.417 175.081 154.846C175.604 155.275 175.884 155.863 175.921 156.61H174.647C174.619 156.209 174.456 155.887 174.157 155.644C173.868 155.401 173.476 155.28 172.981 155.28C172.524 155.28 172.16 155.378 171.889 155.574C171.619 155.77 171.483 156.027 171.483 156.344C171.483 156.596 171.563 156.806 171.721 156.974C171.889 157.133 172.095 157.263 172.337 157.366C172.589 157.459 172.935 157.567 173.373 157.688C173.924 157.837 174.372 157.987 174.717 158.136C175.063 158.276 175.357 158.491 175.599 158.78C175.851 159.069 175.982 159.447 175.991 159.914C175.991 160.334 175.875 160.712 175.641 161.048C175.408 161.384 175.077 161.65 174.647 161.846C174.227 162.033 173.742 162.126 173.191 162.126ZM179.344 155.378V159.9C179.344 160.273 179.423 160.539 179.582 160.698C179.741 160.847 180.016 160.922 180.408 160.922H181.346V162H180.198C179.489 162 178.957 161.837 178.602 161.51C178.247 161.183 178.07 160.647 178.07 159.9V155.378H177.076V154.328H178.07V152.396H179.344V154.328H181.346V155.378H179.344ZM51.7446 179.15C51.7446 178.357 51.9032 177.666 52.2206 177.078C52.5379 176.481 52.9766 176.019 53.5366 175.692C54.1059 175.365 54.7546 175.202 55.4826 175.202C56.4252 175.202 57.1999 175.431 57.8066 175.888C58.4226 176.345 58.8286 176.98 59.0246 177.792H57.6526C57.5219 177.325 57.2652 176.957 56.8826 176.686C56.5092 176.415 56.0426 176.28 55.4826 176.28C54.7546 176.28 54.1666 176.532 53.7186 177.036C53.2706 177.531 53.0466 178.235 53.0466 179.15C53.0466 180.074 53.2706 180.788 53.7186 181.292C54.1666 181.796 54.7546 182.048 55.4826 182.048C56.0426 182.048 56.5092 181.917 56.8826 181.656C57.2559 181.395 57.5126 181.021 57.6526 180.536H59.0246C58.8192 181.32 58.4086 181.95 57.7926 182.426C57.1766 182.893 56.4066 183.126 55.4826 183.126C54.7546 183.126 54.1059 182.963 53.5366 182.636C52.9766 182.309 52.5379 181.847 52.2206 181.25C51.9032 180.653 51.7446 179.953 51.7446 179.15ZM64.0705 183.126C63.3518 183.126 62.6985 182.963 62.1105 182.636C61.5318 182.309 61.0745 181.847 60.7385 181.25C60.4118 180.643 60.2485 179.943 60.2485 179.15C60.2485 178.366 60.4165 177.675 60.7525 177.078C61.0978 176.471 61.5645 176.009 62.1525 175.692C62.7405 175.365 63.3985 175.202 64.1265 175.202C64.8545 175.202 65.5125 175.365 66.1005 175.692C66.6885 176.009 67.1505 176.467 67.4865 177.064C67.8318 177.661 68.0045 178.357 68.0045 179.15C68.0045 179.943 67.8272 180.643 67.4725 181.25C67.1272 181.847 66.6558 182.309 66.0585 182.636C65.4612 182.963 64.7985 183.126 64.0705 183.126ZM64.0705 182.006C64.5278 182.006 64.9572 181.899 65.3585 181.684C65.7598 181.469 66.0818 181.147 66.3245 180.718C66.5765 180.289 66.7025 179.766 66.7025 179.15C66.7025 178.534 66.5812 178.011 66.3385 177.582C66.0958 177.153 65.7785 176.835 65.3865 176.63C64.9945 176.415 64.5698 176.308 64.1125 176.308C63.6458 176.308 63.2165 176.415 62.8245 176.63C62.4418 176.835 62.1338 177.153 61.9005 177.582C61.6672 178.011 61.5505 178.534 61.5505 179.15C61.5505 179.775 61.6625 180.303 61.8865 180.732C62.1198 181.161 62.4278 181.483 62.8105 181.698C63.1932 181.903 63.6132 182.006 64.0705 182.006ZM78.9056 175.188C79.5029 175.188 80.0349 175.314 80.5016 175.566C80.9682 175.809 81.3369 176.177 81.6076 176.672C81.8782 177.167 82.0136 177.769 82.0136 178.478V183H80.7536V178.66C80.7536 177.895 80.5622 177.311 80.1796 176.91C79.8062 176.499 79.2976 176.294 78.6536 176.294C77.9909 176.294 77.4636 176.509 77.0716 176.938C76.6796 177.358 76.4836 177.969 76.4836 178.772V183H75.2236V178.66C75.2236 177.895 75.0322 177.311 74.6496 176.91C74.2762 176.499 73.7676 176.294 73.1236 176.294C72.4609 176.294 71.9336 176.509 71.5416 176.938C71.1496 177.358 70.9536 177.969 70.9536 178.772V183H69.6796V175.328H70.9536V176.434C71.2056 176.033 71.5416 175.725 71.9616 175.51C72.3909 175.295 72.8622 175.188 73.3756 175.188C74.0196 175.188 74.5889 175.333 75.0836 175.622C75.5782 175.911 75.9469 176.336 76.1896 176.896C76.4042 176.355 76.7589 175.935 77.2536 175.636C77.7482 175.337 78.2989 175.188 78.9056 175.188ZM85.3774 176.742C85.6294 176.303 86.0027 175.939 86.4974 175.65C87.0014 175.351 87.5847 175.202 88.2474 175.202C88.9287 175.202 89.5447 175.365 90.0954 175.692C90.6554 176.019 91.0941 176.481 91.4114 177.078C91.7287 177.666 91.8874 178.352 91.8874 179.136C91.8874 179.911 91.7287 180.601 91.4114 181.208C91.0941 181.815 90.6554 182.286 90.0954 182.622C89.5447 182.958 88.9287 183.126 88.2474 183.126C87.5941 183.126 87.0154 182.981 86.5114 182.692C86.0167 182.393 85.6387 182.025 85.3774 181.586V186.64H84.1034V175.328H85.3774V176.742ZM90.5854 179.136C90.5854 178.557 90.4687 178.053 90.2354 177.624C90.0021 177.195 89.6847 176.868 89.2834 176.644C88.8914 176.42 88.4574 176.308 87.9814 176.308C87.5147 176.308 87.0807 176.425 86.6794 176.658C86.2874 176.882 85.9701 177.213 85.7274 177.652C85.4941 178.081 85.3774 178.581 85.3774 179.15C85.3774 179.729 85.4941 180.237 85.7274 180.676C85.9701 181.105 86.2874 181.437 86.6794 181.67C87.0807 181.894 87.5147 182.006 87.9814 182.006C88.4574 182.006 88.8914 181.894 89.2834 181.67C89.6847 181.437 90.0021 181.105 90.2354 180.676C90.4687 180.237 90.5854 179.724 90.5854 179.136ZM93.0883 179.136C93.0883 178.352 93.247 177.666 93.5643 177.078C93.8817 176.481 94.3157 176.019 94.8663 175.692C95.4263 175.365 96.047 175.202 96.7283 175.202C97.4003 175.202 97.9837 175.347 98.4783 175.636C98.973 175.925 99.3417 176.289 99.5843 176.728V175.328H100.872V183H99.5843V181.572C99.3323 182.02 98.9543 182.393 98.4503 182.692C97.9557 182.981 97.377 183.126 96.7143 183.126C96.033 183.126 95.417 182.958 94.8663 182.622C94.3157 182.286 93.8817 181.815 93.5643 181.208C93.247 180.601 93.0883 179.911 93.0883 179.136ZM99.5843 179.15C99.5843 178.571 99.4677 178.067 99.2343 177.638C99.001 177.209 98.6837 176.882 98.2823 176.658C97.8903 176.425 97.4563 176.308 96.9803 176.308C96.5043 176.308 96.0703 176.42 95.6783 176.644C95.2863 176.868 94.9737 177.195 94.7403 177.624C94.507 178.053 94.3903 178.557 94.3903 179.136C94.3903 179.724 94.507 180.237 94.7403 180.676C94.9737 181.105 95.2863 181.437 95.6783 181.67C96.0703 181.894 96.5043 182.006 96.9803 182.006C97.4563 182.006 97.8903 181.894 98.2823 181.67C98.6837 181.437 99.001 181.105 99.2343 180.676C99.4677 180.237 99.5843 179.729 99.5843 179.15ZM106.763 175.188C107.697 175.188 108.453 175.473 109.031 176.042C109.61 176.602 109.899 177.414 109.899 178.478V183H108.639V178.66C108.639 177.895 108.448 177.311 108.065 176.91C107.683 176.499 107.16 176.294 106.497 176.294C105.825 176.294 105.289 176.504 104.887 176.924C104.495 177.344 104.299 177.955 104.299 178.758V183H103.025V175.328H104.299V176.42C104.551 176.028 104.892 175.725 105.321 175.51C105.76 175.295 106.241 175.188 106.763 175.188ZM118.588 175.328L113.968 186.612H112.652L114.164 182.916L111.07 175.328H112.484L114.892 181.544L117.272 175.328H118.588ZM124.875 176.742C125.127 176.303 125.501 175.939 125.995 175.65C126.499 175.351 127.083 175.202 127.745 175.202C128.427 175.202 129.043 175.365 129.593 175.692C130.153 176.019 130.592 176.481 130.909 177.078C131.227 177.666 131.385 178.352 131.385 179.136C131.385 179.911 131.227 180.601 130.909 181.208C130.592 181.815 130.153 182.286 129.593 182.622C129.043 182.958 128.427 183.126 127.745 183.126C127.092 183.126 126.513 182.981 126.009 182.692C125.515 182.393 125.137 182.025 124.875 181.586V186.64H123.601V175.328H124.875V176.742ZM130.083 179.136C130.083 178.557 129.967 178.053 129.733 177.624C129.5 177.195 129.183 176.868 128.781 176.644C128.389 176.42 127.955 176.308 127.479 176.308C127.013 176.308 126.579 176.425 126.177 176.658C125.785 176.882 125.468 177.213 125.225 177.652C124.992 178.081 124.875 178.581 124.875 179.15C124.875 179.729 124.992 180.237 125.225 180.676C125.468 181.105 125.785 181.437 126.177 181.67C126.579 181.894 127.013 182.006 127.479 182.006C127.955 182.006 128.389 181.894 128.781 181.67C129.183 181.437 129.5 181.105 129.733 180.676C129.967 180.237 130.083 179.724 130.083 179.136ZM136.408 183.126C135.69 183.126 135.036 182.963 134.448 182.636C133.87 182.309 133.412 181.847 133.076 181.25C132.75 180.643 132.586 179.943 132.586 179.15C132.586 178.366 132.754 177.675 133.09 177.078C133.436 176.471 133.902 176.009 134.49 175.692C135.078 175.365 135.736 175.202 136.464 175.202C137.192 175.202 137.85 175.365 138.438 175.692C139.026 176.009 139.488 176.467 139.824 177.064C140.17 177.661 140.342 178.357 140.342 179.15C140.342 179.943 140.165 180.643 139.81 181.25C139.465 181.847 138.994 182.309 138.396 182.636C137.799 182.963 137.136 183.126 136.408 183.126ZM136.408 182.006C136.866 182.006 137.295 181.899 137.696 181.684C138.098 181.469 138.42 181.147 138.662 180.718C138.914 180.289 139.04 179.766 139.04 179.15C139.04 178.534 138.919 178.011 138.676 177.582C138.434 177.153 138.116 176.835 137.724 176.63C137.332 176.415 136.908 176.308 136.45 176.308C135.984 176.308 135.554 176.415 135.162 176.63C134.78 176.835 134.472 177.153 134.238 177.582C134.005 178.011 133.888 178.534 133.888 179.15C133.888 179.775 134 180.303 134.224 180.732C134.458 181.161 134.766 181.483 135.148 181.698C135.531 181.903 135.951 182.006 136.408 182.006ZM143.291 172.64V183H142.017V172.64H143.291ZM146.121 174.082C145.878 174.082 145.673 173.998 145.505 173.83C145.337 173.662 145.253 173.457 145.253 173.214C145.253 172.971 145.337 172.766 145.505 172.598C145.673 172.43 145.878 172.346 146.121 172.346C146.354 172.346 146.55 172.43 146.709 172.598C146.877 172.766 146.961 172.971 146.961 173.214C146.961 173.457 146.877 173.662 146.709 173.83C146.55 173.998 146.354 174.082 146.121 174.082ZM146.737 175.328V183H145.463V175.328H146.737ZM148.432 179.15C148.432 178.357 148.591 177.666 148.908 177.078C149.225 176.481 149.664 176.019 150.224 175.692C150.793 175.365 151.442 175.202 152.17 175.202C153.113 175.202 153.887 175.431 154.494 175.888C155.11 176.345 155.516 176.98 155.712 177.792H154.34C154.209 177.325 153.953 176.957 153.57 176.686C153.197 176.415 152.73 176.28 152.17 176.28C151.442 176.28 150.854 176.532 150.406 177.036C149.958 177.531 149.734 178.235 149.734 179.15C149.734 180.074 149.958 180.788 150.406 181.292C150.854 181.796 151.442 182.048 152.17 182.048C152.73 182.048 153.197 181.917 153.57 181.656C153.943 181.395 154.2 181.021 154.34 180.536H155.712C155.507 181.32 155.096 181.95 154.48 182.426C153.864 182.893 153.094 183.126 152.17 183.126C151.442 183.126 150.793 182.963 150.224 182.636C149.664 182.309 149.225 181.847 148.908 181.25C148.591 180.653 148.432 179.953 148.432 179.15ZM158.07 174.082C157.827 174.082 157.622 173.998 157.454 173.83C157.286 173.662 157.202 173.457 157.202 173.214C157.202 172.971 157.286 172.766 157.454 172.598C157.622 172.43 157.827 172.346 158.07 172.346C158.303 172.346 158.499 172.43 158.658 172.598C158.826 172.766 158.91 172.971 158.91 173.214C158.91 173.457 158.826 173.662 158.658 173.83C158.499 173.998 158.303 174.082 158.07 174.082ZM158.686 175.328V183H157.412V175.328H158.686ZM167.857 178.87C167.857 179.113 167.843 179.369 167.815 179.64H161.683C161.73 180.396 161.987 180.989 162.453 181.418C162.929 181.838 163.503 182.048 164.175 182.048C164.726 182.048 165.183 181.922 165.547 181.67C165.921 181.409 166.182 181.063 166.331 180.634H167.703C167.498 181.371 167.087 181.973 166.471 182.44C165.855 182.897 165.09 183.126 164.175 183.126C163.447 183.126 162.794 182.963 162.215 182.636C161.646 182.309 161.198 181.847 160.871 181.25C160.545 180.643 160.381 179.943 160.381 179.15C160.381 178.357 160.54 177.661 160.857 177.064C161.175 176.467 161.618 176.009 162.187 175.692C162.766 175.365 163.429 175.202 164.175 175.202C164.903 175.202 165.547 175.361 166.107 175.678C166.667 175.995 167.097 176.434 167.395 176.994C167.703 177.545 167.857 178.17 167.857 178.87ZM166.541 178.604C166.541 178.119 166.434 177.703 166.219 177.358C166.005 177.003 165.711 176.737 165.337 176.56C164.973 176.373 164.567 176.28 164.119 176.28C163.475 176.28 162.925 176.485 162.467 176.896C162.019 177.307 161.763 177.876 161.697 178.604H166.541ZM172.255 183.126C171.667 183.126 171.14 183.028 170.673 182.832C170.206 182.627 169.838 182.347 169.567 181.992C169.296 181.628 169.147 181.213 169.119 180.746H170.435C170.472 181.129 170.65 181.441 170.967 181.684C171.294 181.927 171.718 182.048 172.241 182.048C172.726 182.048 173.109 181.941 173.389 181.726C173.669 181.511 173.809 181.241 173.809 180.914C173.809 180.578 173.66 180.331 173.361 180.172C173.062 180.004 172.6 179.841 171.975 179.682C171.406 179.533 170.939 179.383 170.575 179.234C170.22 179.075 169.912 178.847 169.651 178.548C169.399 178.24 169.273 177.839 169.273 177.344C169.273 176.952 169.39 176.593 169.623 176.266C169.856 175.939 170.188 175.683 170.617 175.496C171.046 175.3 171.536 175.202 172.087 175.202C172.936 175.202 173.622 175.417 174.145 175.846C174.668 176.275 174.948 176.863 174.985 177.61H173.711C173.683 177.209 173.52 176.887 173.221 176.644C172.932 176.401 172.54 176.28 172.045 176.28C171.588 176.28 171.224 176.378 170.953 176.574C170.682 176.77 170.547 177.027 170.547 177.344C170.547 177.596 170.626 177.806 170.785 177.974C170.953 178.133 171.158 178.263 171.401 178.366C171.653 178.459 171.998 178.567 172.437 178.688C172.988 178.837 173.436 178.987 173.781 179.136C174.126 179.276 174.42 179.491 174.663 179.78C174.915 180.069 175.046 180.447 175.055 180.914C175.055 181.334 174.938 181.712 174.705 182.048C174.472 182.384 174.14 182.65 173.711 182.846C173.291 183.033 172.806 183.126 172.255 183.126ZM188.076 183L186.802 181.712C186.326 182.207 185.817 182.575 185.276 182.818C184.734 183.051 184.123 183.168 183.442 183.168C182.77 183.168 182.172 183.047 181.65 182.804C181.136 182.561 180.735 182.216 180.446 181.768C180.166 181.32 180.026 180.797 180.026 180.2C180.026 179.519 180.217 178.921 180.6 178.408C180.992 177.885 181.566 177.475 182.322 177.176C182.023 176.821 181.808 176.495 181.678 176.196C181.547 175.897 181.482 175.571 181.482 175.216C181.482 174.805 181.584 174.437 181.79 174.11C182.004 173.774 182.308 173.513 182.7 173.326C183.092 173.139 183.544 173.046 184.058 173.046C184.562 173.046 185 173.144 185.374 173.34C185.747 173.536 186.027 173.811 186.214 174.166C186.4 174.511 186.484 174.899 186.466 175.328H185.192C185.201 174.945 185.094 174.647 184.87 174.432C184.646 174.208 184.356 174.096 184.002 174.096C183.628 174.096 183.325 174.203 183.092 174.418C182.868 174.623 182.756 174.889 182.756 175.216C182.756 175.496 182.83 175.767 182.98 176.028C183.138 176.289 183.4 176.611 183.764 176.994L186.676 179.92L186.928 179.528L187.88 177.932H189.252L188.104 179.92C187.945 180.2 187.758 180.494 187.544 180.802L189.742 183H188.076ZM183.442 182.076C183.946 182.076 184.398 181.978 184.8 181.782C185.21 181.586 185.598 181.283 185.962 180.872L183.092 177.988C181.897 178.445 181.3 179.169 181.3 180.158C181.3 180.709 181.496 181.166 181.888 181.53C182.289 181.894 182.807 182.076 183.442 182.076ZM65.4629 204.098C64.5576 204.098 63.7316 203.888 62.9849 203.468C62.2383 203.039 61.6456 202.446 61.2069 201.69C60.7776 200.925 60.5629 200.066 60.5629 199.114C60.5629 198.162 60.7776 197.308 61.2069 196.552C61.6456 195.787 62.2383 195.194 62.9849 194.774C63.7316 194.345 64.5576 194.13 65.4629 194.13C66.3776 194.13 67.2083 194.345 67.9549 194.774C68.7016 195.194 69.2896 195.782 69.7189 196.538C70.1483 197.294 70.3629 198.153 70.3629 199.114C70.3629 200.075 70.1483 200.934 69.7189 201.69C69.2896 202.446 68.7016 203.039 67.9549 203.468C67.2083 203.888 66.3776 204.098 65.4629 204.098ZM65.4629 202.992C66.1443 202.992 66.7556 202.833 67.2969 202.516C67.8476 202.199 68.2769 201.746 68.5849 201.158C68.9023 200.57 69.0609 199.889 69.0609 199.114C69.0609 198.33 68.9023 197.649 68.5849 197.07C68.2769 196.482 67.8523 196.029 67.3109 195.712C66.7696 195.395 66.1536 195.236 65.4629 195.236C64.7723 195.236 64.1563 195.395 63.6149 195.712C63.0736 196.029 62.6443 196.482 62.3269 197.07C62.0189 197.649 61.8649 198.33 61.8649 199.114C61.8649 199.889 62.0189 200.57 62.3269 201.158C62.6443 201.746 63.0736 202.199 63.6149 202.516C64.1656 202.833 64.7816 202.992 65.4629 202.992ZM75.1388 204.098C74.4948 204.098 73.9161 203.986 73.4028 203.762C72.8988 203.529 72.5021 203.211 72.2128 202.81C71.9235 202.399 71.7741 201.928 71.7648 201.396H73.1228C73.1695 201.853 73.3561 202.241 73.6828 202.558C74.0188 202.866 74.5041 203.02 75.1388 203.02C75.7455 203.02 76.2215 202.871 76.5668 202.572C76.9215 202.264 77.0988 201.872 77.0988 201.396C77.0988 201.023 76.9961 200.719 76.7908 200.486C76.5855 200.253 76.3288 200.075 76.0208 199.954C75.7128 199.833 75.2975 199.702 74.7748 199.562C74.1308 199.394 73.6128 199.226 73.2208 199.058C72.8381 198.89 72.5068 198.629 72.2268 198.274C71.9561 197.91 71.8208 197.425 71.8208 196.818C71.8208 196.286 71.9561 195.815 72.2268 195.404C72.4975 194.993 72.8755 194.676 73.3608 194.452C73.8555 194.228 74.4201 194.116 75.0548 194.116C75.9695 194.116 76.7161 194.345 77.2948 194.802C77.8828 195.259 78.2141 195.866 78.2888 196.622H76.8888C76.8421 196.249 76.6461 195.922 76.3008 195.642C75.9555 195.353 75.4981 195.208 74.9288 195.208C74.3968 195.208 73.9628 195.348 73.6268 195.628C73.2908 195.899 73.1228 196.281 73.1228 196.776C73.1228 197.131 73.2208 197.42 73.4168 197.644C73.6221 197.868 73.8695 198.041 74.1588 198.162C74.4575 198.274 74.8728 198.405 75.4048 198.554C76.0488 198.731 76.5668 198.909 76.9588 199.086C77.3508 199.254 77.6868 199.52 77.9668 199.884C78.2468 200.239 78.3868 200.724 78.3868 201.34C78.3868 201.816 78.2608 202.264 78.0088 202.684C77.7568 203.104 77.3835 203.445 76.8888 203.706C76.3941 203.967 75.8108 204.098 75.1388 204.098ZM87.7796 194.242V204H86.5056V199.576H81.5356V204H80.2616V194.242H81.5356V198.526H86.5056V194.242H87.7796ZM95.723 201.83H91.467L90.683 204H89.339L92.867 194.298H94.337L97.851 204H96.507L95.723 201.83ZM95.359 200.794L93.595 195.866L91.831 200.794H95.359ZM104.395 197.574C104.619 197.135 104.936 196.795 105.347 196.552C105.767 196.309 106.276 196.188 106.873 196.188V197.504H106.537C105.109 197.504 104.395 198.279 104.395 199.828V204H103.121V196.328H104.395V197.574ZM115.344 199.87C115.344 200.113 115.33 200.369 115.302 200.64H109.17C109.216 201.396 109.473 201.989 109.94 202.418C110.416 202.838 110.99 203.048 111.662 203.048C112.212 203.048 112.67 202.922 113.034 202.67C113.407 202.409 113.668 202.063 113.818 201.634H115.19C114.984 202.371 114.574 202.973 113.958 203.44C113.342 203.897 112.576 204.126 111.662 204.126C110.934 204.126 110.28 203.963 109.702 203.636C109.132 203.309 108.684 202.847 108.358 202.25C108.031 201.643 107.868 200.943 107.868 200.15C107.868 199.357 108.026 198.661 108.344 198.064C108.661 197.467 109.104 197.009 109.674 196.692C110.252 196.365 110.915 196.202 111.662 196.202C112.39 196.202 113.034 196.361 113.594 196.678C114.154 196.995 114.583 197.434 114.882 197.994C115.19 198.545 115.344 199.17 115.344 199.87ZM114.028 199.604C114.028 199.119 113.92 198.703 113.706 198.358C113.491 198.003 113.197 197.737 112.824 197.56C112.46 197.373 112.054 197.28 111.606 197.28C110.962 197.28 110.411 197.485 109.954 197.896C109.506 198.307 109.249 198.876 109.184 199.604H114.028ZM120.189 196.202C120.852 196.202 121.431 196.347 121.925 196.636C122.429 196.925 122.803 197.289 123.045 197.728V196.328H124.333V204.168C124.333 204.868 124.184 205.489 123.885 206.03C123.587 206.581 123.157 207.01 122.597 207.318C122.047 207.626 121.403 207.78 120.665 207.78C119.657 207.78 118.817 207.542 118.145 207.066C117.473 206.59 117.077 205.941 116.955 205.12H118.215C118.355 205.587 118.645 205.96 119.083 206.24C119.522 206.529 120.049 206.674 120.665 206.674C121.365 206.674 121.935 206.455 122.373 206.016C122.821 205.577 123.045 204.961 123.045 204.168V202.558C122.793 203.006 122.42 203.379 121.925 203.678C121.431 203.977 120.852 204.126 120.189 204.126C119.508 204.126 118.887 203.958 118.327 203.622C117.777 203.286 117.343 202.815 117.025 202.208C116.708 201.601 116.549 200.911 116.549 200.136C116.549 199.352 116.708 198.666 117.025 198.078C117.343 197.481 117.777 197.019 118.327 196.692C118.887 196.365 119.508 196.202 120.189 196.202ZM123.045 200.15C123.045 199.571 122.929 199.067 122.695 198.638C122.462 198.209 122.145 197.882 121.743 197.658C121.351 197.425 120.917 197.308 120.441 197.308C119.965 197.308 119.531 197.42 119.139 197.644C118.747 197.868 118.435 198.195 118.201 198.624C117.968 199.053 117.851 199.557 117.851 200.136C117.851 200.724 117.968 201.237 118.201 201.676C118.435 202.105 118.747 202.437 119.139 202.67C119.531 202.894 119.965 203.006 120.441 203.006C120.917 203.006 121.351 202.894 121.743 202.67C122.145 202.437 122.462 202.105 122.695 201.676C122.929 201.237 123.045 200.729 123.045 200.15ZM133.29 196.328V204H132.016V202.866C131.774 203.258 131.433 203.566 130.994 203.79C130.565 204.005 130.089 204.112 129.566 204.112C128.969 204.112 128.432 203.991 127.956 203.748C127.48 203.496 127.102 203.123 126.822 202.628C126.552 202.133 126.416 201.531 126.416 200.822V196.328H127.676V200.654C127.676 201.41 127.868 201.993 128.25 202.404C128.633 202.805 129.156 203.006 129.818 203.006C130.5 203.006 131.036 202.796 131.428 202.376C131.82 201.956 132.016 201.345 132.016 200.542V196.328H133.29ZM136.715 193.64V204H135.441V193.64H136.715ZM138.411 200.136C138.411 199.352 138.569 198.666 138.887 198.078C139.204 197.481 139.638 197.019 140.189 196.692C140.749 196.365 141.369 196.202 142.051 196.202C142.723 196.202 143.306 196.347 143.801 196.636C144.295 196.925 144.664 197.289 144.907 197.728V196.328H146.195V204H144.907V202.572C144.655 203.02 144.277 203.393 143.773 203.692C143.278 203.981 142.699 204.126 142.037 204.126C141.355 204.126 140.739 203.958 140.189 203.622C139.638 203.286 139.204 202.815 138.887 202.208C138.569 201.601 138.411 200.911 138.411 200.136ZM144.907 200.15C144.907 199.571 144.79 199.067 144.557 198.638C144.323 198.209 144.006 197.882 143.605 197.658C143.213 197.425 142.779 197.308 142.303 197.308C141.827 197.308 141.393 197.42 141.001 197.644C140.609 197.868 140.296 198.195 140.063 198.624C139.829 199.053 139.713 199.557 139.713 200.136C139.713 200.724 139.829 201.237 140.063 201.676C140.296 202.105 140.609 202.437 141.001 202.67C141.393 202.894 141.827 203.006 142.303 203.006C142.779 203.006 143.213 202.894 143.605 202.67C144.006 202.437 144.323 202.105 144.557 201.676C144.79 201.237 144.907 200.729 144.907 200.15ZM149.902 197.378V201.9C149.902 202.273 149.981 202.539 150.14 202.698C150.298 202.847 150.574 202.922 150.966 202.922H151.904V204H150.756C150.046 204 149.514 203.837 149.16 203.51C148.805 203.183 148.628 202.647 148.628 201.9V197.378H147.634V196.328H148.628V194.396H149.902V196.328H151.904V197.378H149.902ZM154.105 195.082C153.862 195.082 153.657 194.998 153.489 194.83C153.321 194.662 153.237 194.457 153.237 194.214C153.237 193.971 153.321 193.766 153.489 193.598C153.657 193.43 153.862 193.346 154.105 193.346C154.338 193.346 154.534 193.43 154.693 193.598C154.861 193.766 154.945 193.971 154.945 194.214C154.945 194.457 154.861 194.662 154.693 194.83C154.534 194.998 154.338 195.082 154.105 195.082ZM154.721 196.328V204H153.447V196.328H154.721ZM160.238 204.126C159.52 204.126 158.866 203.963 158.278 203.636C157.7 203.309 157.242 202.847 156.906 202.25C156.58 201.643 156.416 200.943 156.416 200.15C156.416 199.366 156.584 198.675 156.92 198.078C157.266 197.471 157.732 197.009 158.32 196.692C158.908 196.365 159.566 196.202 160.294 196.202C161.022 196.202 161.68 196.365 162.268 196.692C162.856 197.009 163.318 197.467 163.654 198.064C164 198.661 164.172 199.357 164.172 200.15C164.172 200.943 163.995 201.643 163.64 202.25C163.295 202.847 162.824 203.309 162.226 203.636C161.629 203.963 160.966 204.126 160.238 204.126ZM160.238 203.006C160.696 203.006 161.125 202.899 161.526 202.684C161.928 202.469 162.25 202.147 162.492 201.718C162.744 201.289 162.87 200.766 162.87 200.15C162.87 199.534 162.749 199.011 162.506 198.582C162.264 198.153 161.946 197.835 161.554 197.63C161.162 197.415 160.738 197.308 160.28 197.308C159.814 197.308 159.384 197.415 158.992 197.63C158.61 197.835 158.302 198.153 158.068 198.582C157.835 199.011 157.718 199.534 157.718 200.15C157.718 200.775 157.83 201.303 158.054 201.732C158.288 202.161 158.596 202.483 158.978 202.698C159.361 202.903 159.781 203.006 160.238 203.006ZM169.586 196.188C170.519 196.188 171.275 196.473 171.854 197.042C172.432 197.602 172.722 198.414 172.722 199.478V204H171.462V199.66C171.462 198.895 171.27 198.311 170.888 197.91C170.505 197.499 169.982 197.294 169.32 197.294C168.648 197.294 168.111 197.504 167.71 197.924C167.318 198.344 167.122 198.955 167.122 199.758V204H165.848V196.328H167.122V197.42C167.374 197.028 167.714 196.725 168.144 196.51C168.582 196.295 169.063 196.188 169.586 196.188ZM177.519 204.126C176.931 204.126 176.403 204.028 175.937 203.832C175.47 203.627 175.101 203.347 174.831 202.992C174.56 202.628 174.411 202.213 174.383 201.746H175.699C175.736 202.129 175.913 202.441 176.231 202.684C176.557 202.927 176.982 203.048 177.505 203.048C177.99 203.048 178.373 202.941 178.653 202.726C178.933 202.511 179.073 202.241 179.073 201.914C179.073 201.578 178.923 201.331 178.625 201.172C178.326 201.004 177.864 200.841 177.239 200.682C176.669 200.533 176.203 200.383 175.839 200.234C175.484 200.075 175.176 199.847 174.915 199.548C174.663 199.24 174.537 198.839 174.537 198.344C174.537 197.952 174.653 197.593 174.887 197.266C175.12 196.939 175.451 196.683 175.881 196.496C176.31 196.3 176.8 196.202 177.351 196.202C178.2 196.202 178.886 196.417 179.409 196.846C179.931 197.275 180.211 197.863 180.249 198.61H178.975C178.947 198.209 178.783 197.887 178.485 197.644C178.195 197.401 177.803 197.28 177.309 197.28C176.851 197.28 176.487 197.378 176.217 197.574C175.946 197.77 175.811 198.027 175.811 198.344C175.811 198.596 175.89 198.806 176.049 198.974C176.217 199.133 176.422 199.263 176.665 199.366C176.917 199.459 177.262 199.567 177.701 199.688C178.251 199.837 178.699 199.987 179.045 200.136C179.39 200.276 179.684 200.491 179.927 200.78C180.179 201.069 180.309 201.447 180.319 201.914C180.319 202.334 180.202 202.712 179.969 203.048C179.735 203.384 179.404 203.65 178.975 203.846C178.555 204.033 178.069 204.126 177.519 204.126Z" fill="black"/>
</g>
<defs>
<filter id="filter0_dii_1604_3282" x="-51.5" y="-54" width="344" height="384" filterUnits="userSpaceOnUse" color-interpolation-filters="sRGB">
<feFlood flood-opacity="0" result="BackgroundImageFix"/>
<feColorMatrix in="SourceAlpha" type="matrix" values="0 0 0 0 0 0 0 0 0 0 0 0 0 0 0 0 0 0 127 0" result="hardAlpha"/>
<feOffset dy="2"/>
<feGaussianBlur stdDeviation="10"/>
<feComposite in2="hardAlpha" operator="out"/>
<feColorMatrix type="matrix" values="0 0 0 0 0 0 0 0 0 0 0 0 0 0 0 0 0 0 0.02 0"/>
<feBlend mode="normal" in2="BackgroundImageFix" result="effect1_dropShadow_1604_3282"/>
<feBlend mode="normal" in="SourceGraphic" in2="effect1_dropShadow_1604_3282" result="shape"/>
<feColorMatrix in="SourceAlpha" type="matrix" values="0 0 0 0 0 0 0 0 0 0 0 0 0 0 0 0 0 0 127 0" result="hardAlpha"/>
<feOffset/>
<feGaussianBlur stdDeviation="2"/>
<feComposite in2="hardAlpha" operator="arithmetic" k2="-1" k3="1"/>
<feColorMatrix type="matrix" values="0 0 0 0 0.999662 0 0 0 0 0.999662 0 0 0 0 0.999662 0 0 0 0.24 0"/>
<feBlend mode="normal" in2="shape" result="effect2_innerShadow_1604_3282"/>
<feColorMatrix in="SourceAlpha" type="matrix" values="0 0 0 0 0 0 0 0 0 0 0 0 0 0 0 0 0 0 127 0" result="hardAlpha"/>
<feMorphology radius="2" operator="dilate" in="SourceAlpha" result="effect3_innerShadow_1604_3282"/>
<feOffset dx="-1" dy="-1"/>
<feGaussianBlur stdDeviation="2"/>
<feComposite in2="hardAlpha" operator="arithmetic" k2="-1" k3="1"/>
<feColorMatrix type="matrix" values="0 0 0 0 1 0 0 0 0 1 0 0 0 0 1 0 0 0 0.5 0"/>
<feBlend mode="normal" in2="effect2_innerShadow_1604_3282" result="effect3_innerShadow_1604_3282"/>
</filter>
</defs>
</svg>
